<svg xmlns="http://www.w3.org/2000/svg" width="608.451" height="34.734" viewBox="0 0 160.986 9.19"><title>Sacer Feral</title><g><path d="M0 6.661c.025.765.037 1.406.037 1.912.95.457 1.789.617 2.924.617 1.048 0 1.9-.259 2.529-.765s.974-1.184.974-1.924c0-.63-.197-1.172-.592-1.554-.247-.247-.642-.482-1.073-.63l-2.22-.764c-1.05-.358-1.296-.605-1.296-1.16 0-.851.827-1.357 2.22-1.357 1.333 0 2.011.333 2.196 1.11h.247c-.037-.58-.037-1.184-.037-1.739C4.823.074 4.281 0 3.417 0 1.258 0 .025.937.025 2.529c0 1.048.641 1.8 1.912 2.245l2.11.728c.838.296 1.134.604 1.134 1.147 0 .937-.876 1.542-2.307 1.542-.888 0-1.665-.235-2.109-.617-.284-.234-.42-.481-.518-.913zM17.589 5.785c-.53 0-.975-.012-1.406-.061l1.986-3.689 2.035 3.689c-.345.049-.74.061-1.382.061zm-4.947 3.22c.703-.062 1.345-.111 1.653-.111.235 0 1 .05 1.653.111v-.259c-.629-.012-.9-.173-.9-.518 0-.21.21-.728.616-1.567.642-.037 1.629-.05 2.517-.05.937 0 1.826.013 2.529.05.32.654.678 1.431.678 1.64 0 .31-.247.408-.987.445v.259a24.5 24.5 0 011.863-.111c.32 0 1.32.074 1.875.111v-.259c-.333-.062-.765-.284-1.221-.864-.235-.283-.457-.703-.642-1.048L18.637.21h-.518l-2.825 5.193c-1.468 2.714-1.9 3.207-2.652 3.343zM37.895 6.785c-.309.962-1.073 1.443-2.295 1.443-2.109 0-3.626-1.517-3.626-3.64 0-1.01.345-1.862 1.024-2.565.703-.703 1.505-1.012 2.652-1.012 1.172 0 1.74.334 2.023 1.172h.259A34.367 34.367 0 0137.87.296a11.137 11.137 0 00-2.418-.284c-1.332 0-2.602.481-3.441 1.283-.95.913-1.419 1.999-1.419 3.27 0 2.762 2.036 4.625 4.947 4.625.678 0 1.258-.111 2.566-.53 0-.494.012-1.246.049-1.875zM46.9 8.938a25.4 25.4 0 012.591-.11c1.925 0 4.145.048 5.292.11 0-.48.013-1.246.05-1.937h-.26c-.036.284-.061.53-.209.679-.26.284-1.024.345-2.11.345-.888 0-1.615-.037-2.553-.172a94.97 94.97 0 01-.062-2.998c.728-.037 1.937-.05 2.393-.05 1.037 0 1.53.013 1.727.21.136.136.16.334.247.728h.26a27.856 27.856 0 01-.062-1.357c0-.16.024-.962.061-1.357h-.259c-.135.852-.21.889-1.986.889-.518 0-1.603-.025-2.38-.062 0-.592.024-1.702.061-2.69.395-.061.802-.086 1.443-.086 2.85 0 3.109.074 3.208 1h.259a6.135 6.135 0 01-.062-.926V.97c0-.11.025-.555.025-.765-1.061.05-4.75.087-5.514.087-.482 0-1.505-.087-2.135-.087v.26c.753.061 1.16.21 1.296.85.098.457.135 2.357.135 3.344v.16c0 1.098-.061 2.344-.098 2.714-.136.802-.309.974-1.357 1.147zM65.692 3.856c0-.53.012-1.974.05-2.652.838-.062 1.418-.099 2.047-.099.53 0 .913.025 1.221.123.679.235.888.679.888 1.16 0 1.011-1.246 1.53-2.529 1.53-.246 0-.69 0-1.677-.062zm-2.837 5.082c.69-.062 1.542-.11 2.183-.11.69 0 1.468.024 2.048.11V8.68c-.543-.11-1.061-.234-1.21-.728-.16-.53-.184-1.714-.184-2.763v-.333c.987-.05 1.64-.05 1.9-.05 1.023 0 1.332.161 1.59.988l.753 2.343c.198.605.506.802 1.234.802h1.135V8.68c-.58-.012-.765-.16-.95-.654l-.95-2.54c-.247-.692-.592-1.074-1.233-1.222 1.443-.284 2.06-.987 2.06-1.961 0-.753-.432-1.555-1.37-1.888-.468-.16-.888-.21-1.862-.21-.975 0-2.43.087-3.035.087-.32 0-1.308-.05-1.961-.086v.259c.752.086 1.023.197 1.184.592.16.382.21 2.356.21 3.318v.21c0 1.492-.05 3.084-.185 3.417-.198.431-.556.617-1.357.678zM88.386 9.005c.53-.062 1.43-.111 2.06-.111.69 0 1.53.05 2.22.111v-.259c-.74-.086-1.196-.333-1.295-.641-.16-.494-.185-.679-.222-3.183.69-.037 1.912-.062 2.282-.062 1.406 0 1.604.173 1.665 1.123h.26c-.037-.53-.037-.913-.037-1.296v-.505c0-.346 0-.666.037-1.147h-.26c-.086.407-.11.592-.246.727-.198.198-.63.222-1.456.222-.395 0-1.554-.024-2.245-.061 0-.827.025-1.974.062-2.653.999-.049 1.924-.061 2.282-.061 1.863 0 2.134.098 2.196 1.024h.259a9.326 9.326 0 01-.05-.926V1.21c0-.284-.012-.605.025-.938-3.688 0-5.008.087-5.428.087-.444 0-1.307-.05-2.084-.087v.26c.79.086 1.085.184 1.246.58.16.394.21 1.948.21 3.527v.333c0 1.246-.062 2.776-.186 3.096-.21.494-.654.593-1.295.679zM103.984 9.005c.654-.062 1.37-.111 2.59-.111 1.925 0 4.145.05 5.293.111 0-.481.012-1.246.049-1.937h-.26c-.036.284-.06.53-.209.679-.259.284-1.024.345-2.11.345-.887 0-1.615-.037-2.553-.173a94.97 94.97 0 01-.062-2.997c.728-.037 1.937-.05 2.394-.05 1.036 0 1.53.013 1.727.21.135.136.16.333.246.728h.26a27.856 27.856 0 01-.062-1.357c0-.16.024-.962.061-1.357h-.259c-.135.851-.21.888-1.986.888-.518 0-1.603-.024-2.38-.061 0-.592.024-1.703.061-2.69.395-.061.802-.086 1.443-.086 2.85 0 3.11.074 3.208 1h.259a6.122 6.122 0 01-.062-.926v-.185c0-.11.025-.555.025-.765-1.061.05-4.75.087-5.514.087-.481 0-1.505-.087-2.134-.087v.26c.752.061 1.16.209 1.295.85.099.457.136 2.357.136 3.343v.16c0 1.099-.062 2.345-.1 2.715-.135.802-.307.974-1.356 1.147zM123.005 3.923c0-.53.013-1.974.05-2.652.839-.062 1.418-.1 2.047-.1.53 0 .913.026 1.222.124.678.235.888.679.888 1.16 0 1.011-1.246 1.53-2.529 1.53-.247 0-.69 0-1.678-.062zm-2.837 5.082c.691-.062 1.542-.111 2.184-.111.69 0 1.468.025 2.047.111v-.259c-.542-.111-1.06-.234-1.209-.728-.16-.53-.185-1.715-.185-2.763v-.333c.987-.05 1.641-.05 1.9-.05 1.024 0 1.332.161 1.591.987l.753 2.344c.197.605.506.802 1.234.802h1.134v-.259c-.58-.012-.764-.16-.95-.654l-.95-2.54c-.246-.692-.591-1.074-1.233-1.222 1.443-.284 2.06-.987 2.06-1.962 0-.752-.432-1.554-1.37-1.887-.468-.16-.887-.21-1.862-.21-.974 0-2.43.087-3.034.087-.321 0-1.308-.05-1.962-.087v.26c.753.086 1.024.197 1.185.592.16.382.21 2.356.21 3.318v.21c0 1.492-.05 3.083-.186 3.417-.197.431-.555.616-1.357.678zM140.683 5.785c-.53 0-.974-.012-1.406-.061l1.986-3.689 2.035 3.689c-.345.049-.74.061-1.381.061zm-4.946 3.22c.703-.062 1.344-.111 1.653-.111.234 0 .999.05 1.653.111v-.259c-.63-.012-.9-.173-.9-.518 0-.21.209-.728.616-1.567.641-.037 1.628-.05 2.516-.05.938 0 1.826.013 2.53.05.32.654.678 1.431.678 1.64 0 .31-.247.408-.987.445v.259a24.5 24.5 0 011.863-.111c.32 0 1.32.074 1.875.111v-.259c-.334-.062-.765-.284-1.222-.864-.234-.283-.456-.703-.641-1.048L141.73.21h-.517l-2.825 5.193c-1.468 2.714-1.9 3.207-2.652 3.343zM153.079 9.005c.74-.086 1.566-.111 2.565-.111h1.246c1.16 0 1.863.012 3.985.111.037-.752.062-1.419.11-2.06h-.258c-.099.987-.346 1.098-2.356 1.098-.53 0-1.407-.037-2.406-.124-.037-.986-.062-1.628-.062-2.232v-.37c0-1.024.025-3.38.087-3.812.037-.284.098-.481.185-.592.16-.21.53-.296 1.011-.383V.271c-.764.037-1.751.087-1.973.087A73.7 73.7 0 01153.25.27v.26c.74.098 1 .234 1.16.591.16.383.21 2.06.21 3.183v.333c0 1.431-.037 3.072-.198 3.43-.185.431-.543.616-1.344.678z"/></g></svg>