<?xml version="1.0" encoding="UTF-8" standalone="no"?>
<!-- Created with Inkscape (http://www.inkscape.org/) -->

<svg
   width="200mm"
   height="200mm"
   viewBox="0 0 199.99998 200"
   version="1.1"
   id="svg5146"
   inkscape:version="1.2.2 (b0a84865, 2022-12-01)"
   sodipodi:docname="sacerferal-edit.svg"
   xmlns:inkscape="http://www.inkscape.org/namespaces/inkscape"
   xmlns:sodipodi="http://sodipodi.sourceforge.net/DTD/sodipodi-0.dtd"
   xmlns="http://www.w3.org/2000/svg"
   xmlns:svg="http://www.w3.org/2000/svg"
   xmlns:rdf="http://www.w3.org/1999/02/22-rdf-syntax-ns#"
   xmlns:cc="http://creativecommons.org/ns#"
   xmlns:dc="http://purl.org/dc/elements/1.1/">
  <defs
     id="defs5140" />
  <sodipodi:namedview
     id="base"
     pagecolor="#ffffff"
     bordercolor="#666666"
     borderopacity="1.0"
     inkscape:pageopacity="0.0"
     inkscape:pageshadow="2"
     inkscape:zoom="5.6"
     inkscape:cx="643.39286"
     inkscape:cy="274.55357"
     inkscape:document-units="mm"
     inkscape:current-layer="layer1"
     showgrid="false"
     inkscape:window-width="1280"
     inkscape:window-height="667"
     inkscape:window-x="0"
     inkscape:window-y="25"
     inkscape:window-maximized="0"
     inkscape:showpageshadow="2"
     inkscape:pagecheckerboard="0"
     inkscape:deskcolor="#d1d1d1" />
  <metadata
     id="metadata5143">
    <rdf:RDF>
      <cc:Work
         rdf:about="">
        <dc:format>image/svg+xml</dc:format>
        <dc:type
           rdf:resource="http://purl.org/dc/dcmitype/StillImage" />
      </cc:Work>
    </rdf:RDF>
  </metadata>
  <g
     inkscape:label="Layer 1"
     inkscape:groupmode="layer"
     id="layer1"
     transform="translate(0,-287.81)">
    <path
       inkscape:connector-curvature="0"
       id="path9469-1-7"
       style="font-style:normal;font-variant:normal;font-weight:normal;font-stretch:normal;font-size:40px;line-height:1.25;font-family:'President Std';-inkscape-font-specification:'President Std';letter-spacing:18.8747px;word-spacing:8.57941px;fill:#000000;fill-opacity:1;stroke:none;stroke-width:0.308394"
       d="m 25.123485,365.83219 c 0.0247,0.76481 0.037,1.40627 0.037,1.91204 0.94985,0.45642 1.78868,0.61679 2.92357,0.61679 1.04854,0 1.899701,-0.25906 2.52883,-0.76482 0.62912,-0.50577 0.97452,-1.18423 0.97452,-1.92438 0,-0.62912 -0.197369,-1.17189 -0.59212,-1.5543 -0.24671,-0.24671 -0.64145,-0.48109 -1.07321,-0.62912 l -2.22043,-0.76482 c -1.04854,-0.35774 -1.29525,-0.60445 -1.29525,-1.15956 0,-0.85116 0.82649,-1.35693 2.22043,-1.35693 1.33226,0 2.01073,0.33306 2.19576,1.11023 h 0.24672 c -0.037,-0.57979 -0.037,-1.18423 -0.037,-1.73935 -1.08554,-0.33307 -1.62832,-0.40708 -2.49182,-0.40708 -2.15875,0 -3.39233,0.93751 -3.39233,2.52882 0,1.04854 0.64146,1.80102 1.91204,2.24511 l 2.10941,0.72781 c 0.83883,0.29606 1.13489,0.60445 1.13489,1.14722 0,0.93752 -0.87584,1.54197 -2.30678,1.54197 -0.88817,0 -1.66533,-0.23438 -2.10941,-0.61679 -0.28373,-0.23438 -0.41942,-0.48109 -0.5181,-0.91284 z"
       sodipodi:nodetypes="ccssscccsscccssccssccc" />
    <path
       inkscape:connector-curvature="0"
       id="path9471-8-9"
       style="font-style:normal;font-variant:normal;font-weight:normal;font-stretch:normal;font-size:40px;line-height:1.25;font-family:'President Std';-inkscape-font-specification:'President Std';letter-spacing:18.8747px;word-spacing:8.57941px;fill:#000000;fill-opacity:1;stroke:none;stroke-width:0.308394"
       d="m 42.712145,364.95635 c -0.53044,0 -0.97453,-0.0123 -1.40628,-0.0617 l 1.98606,-3.6884 2.03539,3.6884 c -0.3454,0.0493 -0.74014,0.0617 -1.3816,0.0617 z m -4.94664,3.21963 c 0.70314,-0.0617 1.3446,-0.11102 1.65299,-0.11102 0.23438,0 0.9992,0.0493 1.65299,0.11102 v -0.25905 c -0.62912,-0.0123 -0.90051,-0.1727 -0.90051,-0.5181 0,-0.2097 0.20971,-0.72781 0.61679,-1.56664 0.64146,-0.037 1.62832,-0.0493 2.51649,-0.0493 0.93752,0 1.82569,0.0123 2.52883,0.0493 0.32073,0.65379 0.67846,1.43094 0.67846,1.64065 0,0.3084 -0.24671,0.40708 -0.98685,0.44409 v 0.25905 c 0.60445,-0.0617 1.50496,-0.11102 1.86269,-0.11102 0.32073,0 1.31993,0.074 1.87503,0.11102 v -0.25905 c -0.33306,-0.0617 -0.76481,-0.28372 -1.22123,-0.8635 -0.23438,-0.28373 -0.45643,-0.70314 -0.64146,-1.04854 l -3.63905,-6.62428 h -0.5181 l -2.82488,5.19333 c -1.46796,2.71387 -1.89971,3.2073 -2.65219,3.34299 z"
       sodipodi:nodetypes="scccsscsccscscsccsccccccccc" />
    <path
       inkscape:connector-curvature="0"
       id="path9473-7-2"
       style="font-style:normal;font-variant:normal;font-weight:normal;font-stretch:normal;font-size:40px;line-height:1.25;font-family:'President Std';-inkscape-font-specification:'President Std';letter-spacing:18.8747px;word-spacing:8.57941px;fill:#000000;fill-opacity:1;stroke:none;stroke-width:0.308394"
       d="m 63.018227,365.95555 c -0.308391,0.96218 -1.073201,1.44328 -2.294441,1.44328 -2.109419,0 -3.62671,-1.5173 -3.62671,-3.63905 0,-1.01153 0.345398,-1.86269 1.023869,-2.56583 0.70313,-0.70314 1.504961,-1.01153 2.652181,-1.01153 1.1719,0 1.739339,0.33306 2.02306,1.17189 h 0.25905 c -0.037,-0.65379 -0.0617,-1.30757 -0.0617,-1.88736 -0.85116,-0.19738 -1.726999,-0.28372 -2.4178,-0.28372 -1.332262,0 -2.602841,0.4811 -3.441671,1.28291 -0.949859,0.91285 -1.418611,1.99839 -1.418611,3.26898 0,2.76321 2.035392,4.6259 4.946631,4.6259 0.678461,0 1.25824,-0.11103 2.565829,-0.53044 0,-0.49342 0.0123,-1.2459 0.0494,-1.87502 z"
       sodipodi:nodetypes="csscscccscssccc" />
    <path
       inkscape:connector-curvature="0"
       id="path9475-9-0"
       style="font-style:normal;font-variant:normal;font-weight:normal;font-stretch:normal;font-size:40px;line-height:1.25;font-family:'President Std';-inkscape-font-specification:'President Std';letter-spacing:18.8747px;word-spacing:8.57941px;fill:#000000;fill-opacity:1;stroke:none;stroke-width:0.308394"
       d="m 72.024215,368.10916 c 0.653801,-0.0617 1.369271,-0.11102 2.590511,-0.11102 1.92437,0 4.144809,0.0493 5.292029,0.11102 0,-0.48109 0.0123,-1.24591 0.0493,-1.93671 h -0.259059 c -0.037,0.28372 -0.0617,0.53043 -0.209701,0.67846 -0.25905,0.28373 -1.023868,0.3454 -2.109409,0.3454 -0.888179,0 -1.61599,-0.037 -2.553501,-0.1727 -0.037,-0.92518 -0.0617,-2.34379 -0.0617,-2.99758 0.727808,-0.037 1.936711,-0.0493 2.39313,-0.0493 1.036199,0 1.529631,0.0123 1.72701,0.2097 0.135689,0.1357 0.160358,0.33307 0.24671,0.72781 h 0.25905 c -0.037,-0.53044 -0.0617,-1.17189 -0.0617,-1.35693 0,-0.16036 0.02471,-0.96219 0.0617,-1.35693 h -0.259049 c -0.135691,0.85116 -0.209711,0.88817 -1.986049,0.88817 -0.518113,0 -1.60365,-0.0247 -2.380801,-0.0617 0,-0.59211 0.02469,-1.70233 0.0617,-2.68919 0.394739,-0.0617 0.801819,-0.0864 1.443281,-0.0864 2.849549,0 3.10861,0.074 3.207289,0.9992 h 0.259051 c -0.0493,-0.3454 -0.0617,-0.61679 -0.0617,-0.92518 v -0.18504 c 0,-0.11102 0.02471,-0.55511 0.02471,-0.76482 -1.060902,0.0494 -4.749292,0.0863 -5.514101,0.0863 -0.4811,0 -1.504961,-0.0863 -2.13409,-0.0863 v 0.25905 c 0.752488,0.0617 1.15956,0.20971 1.29526,0.85117 0.0987,0.45642 0.135689,2.35613 0.135689,3.34299 v 0.16036 c 0,1.09788 -0.0617,2.34379 -0.0987,2.71386 -0.135689,0.80183 -0.308391,0.97453 -1.356929,1.14723 z"
       sodipodi:nodetypes="csccccsccssccsccsccsccsscscccssccc" />
    <path
       inkscape:connector-curvature="0"
       id="path9477-2-2"
       style="font-style:normal;font-variant:normal;font-weight:normal;font-stretch:normal;font-size:40px;line-height:1.25;font-family:'President Std';-inkscape-font-specification:'President Std';letter-spacing:18.8747px;word-spacing:8.57941px;fill:#000000;fill-opacity:1;stroke:none;stroke-width:0.308394"
       d="m 90.815166,363.02683 c 0,-0.53043 0.0123,-1.97372 0.0493,-2.65218 0.83883,-0.0617 1.418609,-0.0987 2.04774,-0.0987 0.530429,0 0.912839,0.0247 1.22123,0.12336 0.678471,0.23438 0.888179,0.67847 0.888179,1.15956 0,1.01153 -1.245909,1.52963 -2.528829,1.52963 -0.246711,0 -0.690801,0 -1.677659,-0.0617 z m -2.837219,5.08233 c 0.690798,-0.0617 1.541967,-0.11102 2.183429,-0.11102 0.6908,0 1.46795,0.0247 2.047729,0.11102 v -0.25905 c -0.542769,-0.11102 -1.060871,-0.23438 -1.2089,-0.72781 -0.160369,-0.53044 -0.185039,-1.71467 -0.185039,-2.76321 v -0.33306 c 0.986859,-0.0493 1.64065,-0.0493 1.899701,-0.0493 1.023868,0 1.332259,0.16036 1.59131,0.98685 l 0.752488,2.3438 c 0.197371,0.60445 0.505762,0.80182 1.233569,0.80182 h 1.134891 v -0.25905 c -0.579779,-0.0123 -0.76482,-0.16037 -0.949849,-0.6538 l -0.949859,-2.54115 c -0.246711,-0.69081 -0.592111,-1.07322 -1.233573,-1.22125 1.443281,-0.28372 2.060073,-0.98685 2.060073,-1.96138 0,-0.75248 -0.43175,-1.5543 -1.369272,-1.88737 -0.46876,-0.16036 -0.888169,-0.2097 -1.862698,-0.2097 -0.974522,0 -2.43014,0.0863 -3.034591,0.0863 -0.320731,0 -1.30759,-0.0493 -1.96138,-0.0863 v 0.25905 c 0.75248,0.0863 1.02386,0.19738 1.18423,0.59212 0.160358,0.38241 0.209708,2.35613 0.209708,3.31831 v 0.20971 c 0,1.49263 -0.0494,3.08393 -0.185039,3.41699 -0.197368,0.43176 -0.555109,0.61679 -1.356928,0.67847 z"
       sodipodi:nodetypes="ccscsscccscccscsccscccccscsscccssccc" />
    <path
       inkscape:connector-curvature="0"
       id="path9479-0-3"
       style="font-style:normal;font-variant:normal;font-weight:normal;font-stretch:normal;font-size:40px;line-height:1.25;font-family:'President Std';-inkscape-font-specification:'President Std';letter-spacing:18.8747px;word-spacing:8.57941px;fill:#000000;fill-opacity:1;stroke:none;stroke-width:0.308394"
       d="m 113.50919,368.17598 c 0.53044,-0.0617 1.43095,-0.11102 2.06007,-0.11102 0.6908,0 1.52963,0.0493 2.22043,0.11102 v -0.25905 c -0.74014,-0.0864 -1.19656,-0.33307 -1.29525,-0.64146 -0.16037,-0.49343 -0.18504,-0.67847 -0.22204,-3.18262 0.6908,-0.037 1.91204,-0.0617 2.28211,-0.0617 1.40627,0 1.60364,0.1727 1.66532,1.12255 h 0.25905 c -0.037,-0.53044 -0.037,-0.91285 -0.037,-1.29525 v -0.50575 c 0,-0.3454 0,-0.66613 0.037,-1.14722 h -0.25905 c -0.0864,0.40708 -0.11102,0.59212 -0.24671,0.7278 -0.19737,0.19737 -0.62912,0.22204 -1.45562,0.22204 -0.39474,0 -1.5543,-0.0247 -2.2451,-0.0617 0,-0.82649 0.0247,-1.97372 0.0617,-2.65218 0.9992,-0.0493 1.92438,-0.0617 2.28211,-0.0617 1.8627,0 2.13409,0.0987 2.19577,1.02387 h 0.25905 c -0.037,-0.38241 -0.0493,-0.66613 -0.0493,-0.92518 v -0.0987 c 0,-0.28372 -0.0123,-0.60445 0.0247,-0.93752 -3.68839,0 -5.00831,0.0863 -5.42773,0.0863 -0.44409,0 -1.30759,-0.0493 -2.08474,-0.0863 v 0.25905 c 0.78949,0.0863 1.08555,0.18504 1.24591,0.57978 0.16036,0.39475 0.20971,1.94905 0.20971,3.52803 v 0.33306 c 0,1.24591 -0.0617,2.77554 -0.18504,3.09627 -0.2097,0.49343 -0.6538,0.59212 -1.29525,0.67847 z"
       sodipodi:nodetypes="csccccsccssccssccsccsscsccsssccc" />
    <path
       inkscape:connector-curvature="0"
       id="path9481-2-7"
       style="font-style:normal;font-variant:normal;font-weight:normal;font-stretch:normal;font-size:40px;line-height:1.25;font-family:'President Std';-inkscape-font-specification:'President Std';letter-spacing:18.8747px;word-spacing:8.57941px;fill:#000000;fill-opacity:1;stroke:none;stroke-width:0.308394"
       d="m 129.10736,368.17598 c 0.65379,-0.0617 1.36926,-0.11102 2.5905,-0.11102 1.92438,0 4.14481,0.0493 5.29204,0.11102 0,-0.48109 0.0123,-1.24591 0.0493,-1.93671 h -0.40079 c 0.0339,0.49633 0.08,0.53043 -0.068,0.67846 -0.25905,0.28373 -1.02387,0.3454 -2.10941,0.3454 -0.88817,0 -1.61598,-0.037 -2.5535,-0.1727 -0.037,-0.92518 -0.0617,-2.34379 -0.0617,-2.99758 0.72781,-0.037 1.93671,-0.0493 2.39314,-0.0493 1.0362,0 1.52963,0.0123 1.727,0.2097 0.13569,0.1357 0.0422,0.35669 0.12859,0.75143 l 0.37717,-0.0236 c -0.037,-0.53044 -0.0617,-1.17189 -0.0617,-1.35693 0,-0.16036 0.0247,-0.96219 0.0617,-1.35693 l -0.32992,0.0236 c -0.13569,0.85116 -0.13883,0.86455 -1.91518,0.86455 -0.5181,0 -1.60365,-0.0247 -2.3808,-0.0617 0,-0.59211 0.0247,-1.70233 0.0617,-2.68919 0.39474,-0.0617 0.80182,-0.0864 1.44328,-0.0864 2.84956,0 3.15586,-0.0914 3.04194,1.02282 l 0.42441,-0.0236 c -0.0494,-0.3454 -0.0617,-0.61679 -0.0617,-0.92518 v -0.18504 c 0,-0.11102 0.0247,-0.55511 0.0247,-0.76482 -1.06088,0.0494 -4.74926,0.0863 -5.51408,0.0863 -0.48109,0 -1.50496,-0.0863 -2.13408,-0.0863 v 0.25905 c 0.75248,0.0617 1.15956,0.20971 1.29525,0.85117 0.0987,0.45642 0.13569,2.35613 0.13569,3.34299 v 0.16036 c 0,1.09788 -0.0617,2.34379 -0.0987,2.71386 -0.13569,0.80183 -0.30839,0.97453 -1.35693,1.14723 z"
       sodipodi:nodetypes="csccccsccssccsccsccsccsscscccssccc" />
    <path
       inkscape:connector-curvature="0"
       id="path9483-3-5"
       style="font-style:normal;font-variant:normal;font-weight:normal;font-stretch:normal;font-size:40px;line-height:1.25;font-family:'President Std';-inkscape-font-specification:'President Std';letter-spacing:18.8747px;word-spacing:8.57941px;fill:#000000;fill-opacity:1;stroke:none;stroke-width:0.308394"
       d="m 148.1288,363.09365 c 0,-0.53043 0.0123,-1.97372 0.0493,-2.65218 0.83883,-0.0617 1.41861,-0.0987 2.04774,-0.0987 0.53043,0 0.91284,0.0247 1.22124,0.12336 0.67846,0.23438 0.88817,0.67847 0.88817,1.15956 0,1.01153 -1.24591,1.52963 -2.52883,1.52963 -0.24671,0 -0.6908,0 -1.67766,-0.0617 z m -2.83722,5.08233 c 0.6908,-0.0617 1.54197,-0.11102 2.18343,-0.11102 0.6908,0 1.46795,0.0247 2.04773,0.11102 v -0.25905 c -0.54277,-0.11102 -1.06087,-0.23438 -1.2089,-0.7278 -0.16037,-0.53044 -0.18504,-1.71468 -0.18504,-2.76322 v -0.33306 c 0.98686,-0.0493 1.64065,-0.0493 1.8997,-0.0493 1.02387,0 1.33226,0.16037 1.59132,0.98685 l 0.75248,2.3438 c 0.19737,0.60445 0.50576,0.80182 1.23357,0.80182 h 1.13489 v -0.25905 c -0.57978,-0.0123 -0.76482,-0.16037 -0.94985,-0.6538 l -0.94986,-2.54115 c -0.24671,-0.69081 -0.59211,-1.07322 -1.23357,-1.22125 1.44328,-0.28372 2.06007,-0.98685 2.06007,-1.96138 0,-0.75248 -0.43175,-1.5543 -1.36927,-1.88737 -0.46876,-0.16036 -0.88817,-0.2097 -1.8627,-0.2097 -0.97452,0 -2.43014,0.0863 -3.03459,0.0863 -0.32073,0 -1.30759,-0.0493 -1.96138,-0.0863 v 0.25905 c 0.75248,0.0863 1.02387,0.19738 1.18423,0.59212 0.16036,0.38241 0.20971,2.35613 0.20971,3.31831 v 0.20971 c 0,1.49263 -0.0494,3.08393 -0.18504,3.41699 -0.19737,0.43176 -0.55511,0.61679 -1.35693,0.67847 z"
       sodipodi:nodetypes="ccscsscccscccscsccscccccscsscccssccc" />
    <path
       inkscape:connector-curvature="0"
       id="path9485-7-9"
       style="font-style:normal;font-variant:normal;font-weight:normal;font-stretch:normal;font-size:40px;line-height:1.25;font-family:'President Std';-inkscape-font-specification:'President Std';letter-spacing:18.8747px;word-spacing:8.57941px;fill:#000000;fill-opacity:1;stroke:none;stroke-width:0.308394"
       d="m 165.80662,364.95635 c -0.53043,0 -0.97452,-0.0123 -1.40627,-0.0617 l 1.98605,-3.6884 2.0354,3.6884 c -0.3454,0.0493 -0.74015,0.0617 -1.3816,0.0617 z m -4.94663,3.21963 c 0.70314,-0.0617 1.3446,-0.11102 1.65299,-0.11102 0.23438,0 0.99919,0.0493 1.65299,0.11102 l 0.0334,-0.40939 c -0.61242,0.0879 -0.93392,-0.0224 -0.93392,-0.36776 0,-0.2097 0.20971,-0.72781 0.61679,-1.56664 0.64145,-0.037 1.62831,-0.0493 2.51649,-0.0493 0.93751,0 1.82569,0.0123 2.52882,0.0493 0.32073,0.65379 0.67847,1.43094 0.67847,1.64065 0,0.3084 -0.23,0.30686 -1.00356,0.26035 l 0.0167,0.44279 c 0.60445,-0.0617 1.50496,-0.11102 1.8627,-0.11102 0.32073,0 1.31992,0.074 1.87503,0.11102 l 0.0167,-0.47621 c -0.80553,-0.003 -0.78152,-0.0666 -1.23794,-0.64634 -0.23438,-0.28373 -0.45642,-0.70314 -0.64146,-1.04854 l -3.63904,-6.62428 h -0.5181 l -2.82489,5.19333 c -1.46795,2.71387 -1.83085,3.26349 -2.65218,3.12583 z"
       sodipodi:nodetypes="scccsscsccscscsccsccccccccc" />
    <path
       inkscape:connector-curvature="0"
       id="path9487-5-2"
       style="font-style:normal;font-variant:normal;font-weight:normal;font-stretch:normal;font-size:40px;line-height:1.25;font-family:'President Std';-inkscape-font-specification:'President Std';letter-spacing:18.8747px;word-spacing:8.57941px;fill:#000000;fill-opacity:1;stroke:none;stroke-width:0.308394"
       d="m 178.20197,368.17598 c 0.74014,-0.0864 1.56664,-0.11102 2.56583,-0.11102 h 1.24591 c 1.15956,0 1.8627,0.0123 3.98445,0.11102 0.037,-0.75248 0.0617,-1.41861 0.11102,-2.06007 l -0.43623,0.0236 c -0.0987,0.98686 -0.16822,1.07426 -2.17895,1.07426 -0.53043,0 -1.40627,-0.037 -2.40547,-0.12336 -0.037,-0.98686 -0.0617,-1.62831 -0.0617,-2.23277 v -0.37007 c 0,-1.02386 0.0247,-3.37999 0.0863,-3.81174 0.037,-0.28372 0.0987,-0.4811 0.18504,-0.59212 0.16037,-0.20971 0.53044,-0.29606 1.01153,-0.38241 v -0.25905 c -0.76481,0.037 -1.75167,0.0863 -1.97372,0.0863 -0.19737,0 -1.30759,-0.0493 -1.96138,-0.0863 v 0.25905 c 0.74014,0.0987 0.99919,0.23438 1.15956,0.59212 0.16036,0.38241 0.20971,2.06007 0.20971,3.18262 v 0.33307 c 0,1.43095 -0.037,3.0716 -0.19737,3.42933 -0.18504,0.43175 -0.54278,0.61679 -1.3446,0.67847 z"
       sodipodi:nodetypes="csscccscssccccscccssccc" />
  </g>
</svg>
