<svg xmlns="http://www.w3.org/2000/svg" width="483.292" height="34.734" viewBox="0 0 127.871 9.19"><title>Sacer Feral</title><g><path d="M0 6.661c.025.765.037 1.407.037 1.912.95.457 1.789.617 2.924.617 1.048 0 1.9-.259 2.528-.765.63-.506.975-1.184.975-1.924 0-.63-.197-1.172-.592-1.554-.247-.247-.642-.482-1.073-.63l-2.22-.764c-1.05-.358-1.296-.605-1.296-1.16 0-.851.826-1.357 2.22-1.357 1.333 0 2.011.333 2.196 1.11h.247c-.037-.58-.037-1.184-.037-1.739C4.823.074 4.28 0 3.417 0 1.258 0 .025.937.025 2.529c0 1.048.641 1.8 1.912 2.245l2.11.728c.838.296 1.134.604 1.134 1.147 0 .937-.876 1.542-2.307 1.542-.888 0-1.665-.235-2.11-.617-.283-.234-.419-.481-.517-.913zM17.589 5.785c-.53 0-.975-.012-1.407-.061l1.986-3.689 2.036 3.689c-.346.049-.74.061-1.382.061zm-4.947 3.22c.703-.062 1.345-.111 1.653-.111.234 0 1 .05 1.653.111v-.259c-.63-.012-.9-.173-.9-.518 0-.21.21-.728.616-1.567.642-.037 1.629-.05 2.517-.05.937 0 1.825.013 2.529.05.32.654.678 1.431.678 1.64 0 .31-.247.408-.987.445v.259a24.5 24.5 0 011.863-.111c.32 0 1.32.074 1.875.111v-.259c-.333-.062-.765-.284-1.221-.864-.235-.283-.457-.703-.642-1.048L18.637.21h-.518l-2.825 5.193c-1.468 2.714-1.9 3.207-2.652 3.343zM37.895 6.785c-.309.962-1.073 1.443-2.295 1.443-2.11 0-3.626-1.517-3.626-3.64 0-1.01.345-1.862 1.023-2.565.704-.703 1.505-1.012 2.653-1.012 1.172 0 1.739.334 2.023 1.172h.259A34.367 34.367 0 0137.87.296a11.137 11.137 0 00-2.418-.284c-1.332 0-2.603.481-3.441 1.283-.95.913-1.419 1.999-1.419 3.27 0 2.762 2.035 4.625 4.947 4.625.678 0 1.258-.111 2.565-.53 0-.494.013-1.246.05-1.875zM55.271 9.005c.53-.062 1.431-.111 2.06-.111.69 0 1.53.05 2.22.111v-.259c-.74-.086-1.196-.333-1.295-.641-.16-.494-.185-.679-.222-3.183.691-.037 1.912-.062 2.282-.062 1.407 0 1.604.173 1.666 1.123h.259c-.037-.53-.037-.913-.037-1.296v-.505c0-.346 0-.666.037-1.147h-.26c-.086.407-.11.592-.246.727-.197.198-.63.222-1.456.222-.394 0-1.554-.024-2.245-.061 0-.827.025-1.974.062-2.653 1-.049 1.924-.061 2.282-.061 1.863 0 2.134.098 2.196 1.024h.259a9.326 9.326 0 01-.05-.926V1.21c0-.284-.012-.605.025-.938-3.688 0-5.008.087-5.427.087-.445 0-1.308-.05-2.085-.087v.26c.79.086 1.085.184 1.246.58.16.394.21 1.948.21 3.527v.333c0 1.246-.062 2.776-.186 3.096-.21.494-.653.593-1.295.679zM70.87 9.005c.653-.062 1.368-.111 2.59-.111 1.924 0 4.144.05 5.292.111 0-.481.012-1.246.049-1.937h-.259c-.037.284-.062.53-.21.679-.259.284-1.024.345-2.11.345-.887 0-1.615-.037-2.553-.173a94.97 94.97 0 01-.061-2.997c.727-.037 1.936-.05 2.393-.05 1.036 0 1.53.013 1.727.21.135.136.16.333.246.728h.26a27.856 27.856 0 01-.062-1.357c0-.16.025-.962.062-1.357h-.26c-.135.851-.21.888-1.986.888-.518 0-1.603-.024-2.38-.061 0-.592.024-1.703.061-2.69.395-.061.802-.086 1.444-.086 2.85 0 3.108.074 3.207 1h.259a6.122 6.122 0 01-.062-.926v-.185c0-.11.025-.555.025-.765-1.06.05-4.75.087-5.514.087-.481 0-1.505-.087-2.134-.087v.26c.752.061 1.16.209 1.295.85.099.457.136 2.357.136 3.343v.16c0 1.099-.062 2.345-.099 2.715-.136.802-.308.974-1.357 1.147zM89.89 3.923c0-.53.013-1.974.05-2.652.839-.062 1.419-.1 2.048-.1.53 0 .912.026 1.22.124.68.235.89.679.89 1.16 0 1.011-1.247 1.53-2.53 1.53-.246 0-.69 0-1.677-.062zm-2.837 5.082c.691-.062 1.542-.111 2.184-.111.69 0 1.468.025 2.048.111v-.259c-.543-.111-1.061-.234-1.21-.728-.16-.53-.184-1.715-.184-2.763v-.333c.986-.05 1.64-.05 1.9-.05 1.023 0 1.332.161 1.59.987l.753 2.344c.197.605.506.802 1.234.802h1.135v-.259c-.58-.012-.765-.16-.95-.654l-.95-2.54c-.247-.692-.592-1.074-1.234-1.222 1.444-.284 2.06-.987 2.06-1.962 0-.752-.431-1.554-1.369-1.887-.469-.16-.888-.21-1.863-.21-.974 0-2.43.087-3.034.087-.32 0-1.308-.05-1.962-.087v.26c.753.086 1.024.197 1.185.592.16.382.21 2.356.21 3.318v.21c0 1.492-.05 3.083-.186 3.417-.197.431-.555.616-1.357.678zM107.568 5.785c-.53 0-.974-.012-1.406-.061l1.986-3.689 2.036 3.689c-.346.049-.74.061-1.382.061zm-4.946 3.22c.703-.062 1.344-.111 1.653-.111.234 0 .999.05 1.653.111v-.259c-.63-.012-.9-.173-.9-.518 0-.21.209-.728.616-1.567.642-.037 1.628-.05 2.517-.05.937 0 1.825.013 2.528.05.321.654.679 1.431.679 1.64 0 .31-.247.408-.987.445v.259a24.5 24.5 0 011.863-.111c.32 0 1.32.074 1.875.111v-.259c-.333-.062-.765-.284-1.222-.864-.234-.283-.456-.703-.641-1.048L108.617.21h-.518l-2.825 5.193c-1.468 2.714-1.9 3.207-2.652 3.343zM119.964 9.005c.74-.086 1.566-.111 2.566-.111h1.246c1.16 0 1.862.012 3.984.111.037-.752.062-1.419.111-2.06h-.26c-.098.987-.344 1.098-2.355 1.098-.53 0-1.406-.037-2.406-.124-.037-.986-.061-1.628-.061-2.232v-.37c0-1.024.024-3.38.086-3.812.037-.284.099-.481.185-.592.16-.21.53-.296 1.012-.383V.271c-.765.037-1.752.087-1.974.087a73.7 73.7 0 01-1.962-.087v.26c.74.098 1 .234 1.16.591.16.383.21 2.06.21 3.183v.333c0 1.431-.037 3.072-.198 3.43-.185.431-.542.616-1.344.678z"/></g></svg>