<?xml version="1.0" encoding="UTF-8" standalone="no"?>
<svg
   xmlns:dc="http://purl.org/dc/elements/1.1/"
   xmlns:cc="http://creativecommons.org/ns#"
   xmlns:rdf="http://www.w3.org/1999/02/22-rdf-syntax-ns#"
   xmlns:svg="http://www.w3.org/2000/svg"
   xmlns="http://www.w3.org/2000/svg"
   width="81.237mm"
   height="7.8850002mm"
   viewBox="0 0 81.237 7.8850002"
   version="1.1"
   id="svg8">
  <defs
     id="defs2" />
  <metadata
     id="metadata5">
    <rdf:RDF>
      <cc:Work
         rdf:about="">
        <dc:format>image/svg+xml</dc:format>
        <dc:type
           rdf:resource="http://purl.org/dc/dcmitype/StillImage" />
        <dc:title></dc:title>
      </cc:Work>
    </rdf:RDF>
  </metadata>
  <g
     transform="translate(-202.31783,-227.58989)"
     id="g4792">
    <path
       id="path29572"
       style="font-style:normal;font-variant:normal;font-weight:normal;font-stretch:normal;font-size:40px;line-height:1.25;font-family:'President Std';-inkscape-font-specification:'President Std';letter-spacing:10px;word-spacing:0.0000001px;fill:#000000;fill-opacity:1;stroke:none;stroke-width:0.26458332"
       d="m 232.03522,235.31513 c 0.45509,-0.0529 1.22767,-0.0953 1.76742,-0.0953 0.59267,0 1.31233,0.0423 1.905,0.0953 v -0.22225 c -0.635,-0.0741 -1.02658,-0.28575 -1.11125,-0.55034 -0.13758,-0.42333 -0.15875,-0.58208 -0.1905,-2.7305 0.59267,-0.0317 1.64042,-0.0529 1.95792,-0.0529 1.2065,0 1.37583,0.14817 1.42875,0.96309 h 0.22225 c -0.0318,-0.45509 -0.0318,-0.78317 -0.0318,-1.11125 v -0.43392 c 0,-0.29633 0,-0.5715 0.0318,-0.98425 h -0.22225 c -0.0741,0.34925 -0.0953,0.508 -0.21167,0.62442 -0.16933,0.16933 -0.53975,0.1905 -1.24883,0.1905 -0.33867,0 -1.3335,-0.0212 -1.92617,-0.0529 0,-0.70909 0.0212,-1.69334 0.0529,-2.27542 0.85725,-0.0423 1.651,-0.0529 1.95792,-0.0529 1.59808,0 1.83091,0.0847 1.88383,0.87842 h 0.22225 c -0.0317,-0.32809 -0.0423,-0.5715 -0.0423,-0.79375 v -0.0847 c 0,-0.24342 -0.0106,-0.51859 0.0212,-0.80434 -3.16442,0 -4.29683,0.0741 -4.65667,0.0741 -0.381,0 -1.12183,-0.0423 -1.78858,-0.0741 v 0.22225 c 0.67733,0.0741 0.93133,0.15875 1.06892,0.49742 0.13758,0.33867 0.17991,1.67217 0.17991,3.02683 v 0.28575 c 0,1.06892 -0.0529,2.38125 -0.15875,2.65642 -0.17991,0.42333 -0.56091,0.508 -1.11125,0.58208 z" />
    <path
       id="path29574"
       style="font-style:normal;font-variant:normal;font-weight:normal;font-stretch:normal;font-size:40px;line-height:1.25;font-family:'President Std';-inkscape-font-specification:'President Std';letter-spacing:10px;word-spacing:0.0000001px;fill:#000000;fill-opacity:1;stroke:none;stroke-width:0.26458332"
       d="m 242.25871,235.31513 c 0.56092,-0.0529 1.17475,-0.0953 2.2225,-0.0953 1.651,0 3.556,0.0423 4.54025,0.0953 0,-0.41275 0.0106,-1.06892 0.0423,-1.66159 h -0.22225 c -0.0318,0.24342 -0.0529,0.45509 -0.17992,0.58209 -0.22225,0.24341 -0.87842,0.29633 -1.80975,0.29633 -0.762,0 -1.38642,-0.0317 -2.19075,-0.14817 -0.0317,-0.79375 -0.0529,-2.01083 -0.0529,-2.57175 0.62441,-0.0317 1.66158,-0.0423 2.05316,-0.0423 0.889,0 1.31234,0.0106 1.48167,0.17992 0.11642,0.11642 0.13759,0.28575 0.21167,0.62442 h 0.22225 c -0.0317,-0.45509 -0.0529,-1.00542 -0.0529,-1.16417 0,-0.13758 0.0212,-0.8255 0.0529,-1.16417 h -0.22225 c -0.11641,0.73025 -0.17991,0.762 -1.70392,0.762 -0.4445,0 -1.37583,-0.0212 -2.04258,-0.0529 0,-0.508 0.0212,-1.4605 0.0529,-2.30716 0.33866,-0.0529 0.68791,-0.0741 1.23825,-0.0741 2.44475,0 2.667,0.0635 2.75167,0.85725 h 0.22225 c -0.0423,-0.29634 -0.0529,-0.52917 -0.0529,-0.79375 v -0.15875 c 0,-0.0952 0.0212,-0.47625 0.0212,-0.65617 -0.91017,0.0423 -4.07459,0.0741 -4.73076,0.0741 -0.41275,0 -1.29116,-0.0741 -1.83091,-0.0741 v 0.22225 c 0.64558,0.0529 0.99483,0.17992 1.11125,0.73025 0.0847,0.39158 0.11641,2.02142 0.11641,2.86808 v 0.13759 c 0,0.94191 -0.0529,2.01083 -0.0847,2.32833 -0.11641,0.68792 -0.26458,0.83608 -1.16416,0.98425 z" />
    <path
       id="path29576"
       style="font-style:normal;font-variant:normal;font-weight:normal;font-stretch:normal;font-size:40px;line-height:1.25;font-family:'President Std';-inkscape-font-specification:'President Std';letter-spacing:10px;word-spacing:0.0000001px;fill:#000000;fill-opacity:1;stroke:none;stroke-width:0.26458332"
       d="m 255.54079,230.95479 c 0,-0.45508 0.0106,-1.69333 0.0423,-2.27541 0.71966,-0.0529 1.21708,-0.0847 1.75683,-0.0847 0.45508,0 0.78317,0.0212 1.04775,0.10583 0.58208,0.20108 0.762,0.58208 0.762,0.99483 0,0.86784 -1.06892,1.31234 -2.16958,1.31234 -0.21167,0 -0.59267,0 -1.43934,-0.0529 z m -2.43416,4.36034 c 0.59266,-0.0529 1.32291,-0.0953 1.87325,-0.0953 0.59266,0 1.25941,0.0212 1.75683,0.0953 v -0.22225 c -0.46567,-0.0953 -0.91017,-0.20109 -1.03717,-0.62442 -0.13758,-0.45508 -0.15875,-1.47108 -0.15875,-2.37067 v -0.28575 c 0.84667,-0.0423 1.40759,-0.0423 1.62984,-0.0423 0.87841,0 1.143,0.13759 1.36525,0.84667 l 0.64558,2.01083 c 0.16933,0.51859 0.43392,0.68792 1.05833,0.68792 h 0.97367 v -0.22225 c -0.49742,-0.0106 -0.65617,-0.13758 -0.81492,-0.56092 l -0.81491,-2.18016 c -0.21167,-0.59267 -0.508,-0.92075 -1.05834,-1.04775 1.23825,-0.24342 1.76742,-0.84667 1.76742,-1.68275 0,-0.64559 -0.37042,-1.3335 -1.17475,-1.61925 -0.40217,-0.13759 -0.762,-0.17992 -1.59808,-0.17992 -0.83609,0 -2.08492,0.0741 -2.6035,0.0741 -0.27517,0 -1.12184,-0.0423 -1.68275,-0.0741 v 0.22225 c 0.64558,0.0741 0.87841,0.16933 1.016,0.508 0.13758,0.32808 0.17991,2.02142 0.17991,2.84692 v 0.17991 c 0,1.28059 -0.0423,2.64584 -0.15875,2.93159 -0.16933,0.37041 -0.47625,0.52916 -1.16416,0.58208 z" />
    <path
       id="path29578"
       style="font-style:normal;font-variant:normal;font-weight:normal;font-stretch:normal;font-size:40px;line-height:1.25;font-family:'President Std';-inkscape-font-specification:'President Std';letter-spacing:10px;word-spacing:0.0000001px;fill:#000000;fill-opacity:1;stroke:none;stroke-width:0.26458332"
       d="m 268.1455,232.55288 c -0.45508,0 -0.83608,-0.0106 -1.2065,-0.0529 l 1.70392,-3.16442 1.74625,3.16442 c -0.29633,0.0423 -0.635,0.0529 -1.18533,0.0529 z m -4.24391,2.76225 c 0.60325,-0.0529 1.15358,-0.0953 1.41816,-0.0953 0.20109,0 0.85725,0.0423 1.41817,0.0953 v -0.22225 c -0.53975,-0.0106 -0.77258,-0.14817 -0.77258,-0.4445 0,-0.17992 0.17991,-0.62442 0.52916,-1.34409 0.55034,-0.0318 1.397,-0.0423 2.159,-0.0423 0.80434,0 1.56634,0.0106 2.16959,0.0423 0.27516,0.56092 0.58208,1.22767 0.58208,1.40759 0,0.26458 -0.21167,0.34925 -0.84667,0.381 v 0.22225 c 0.51859,-0.0529 1.29117,-0.0953 1.59809,-0.0953 0.27516,0 1.13241,0.0635 1.60866,0.0953 v -0.22225 c -0.28575,-0.0529 -0.65616,-0.24342 -1.04775,-0.74084 -0.20107,-0.24341 -0.39158,-0.60325 -0.55033,-0.89958 l -3.12208,-5.68325 h -0.4445 l -2.42359,4.45558 c -1.25941,2.32834 -1.62983,2.75167 -2.27541,2.86809 z" />
    <path
       id="path29580"
       style="font-style:normal;font-variant:normal;font-weight:normal;font-stretch:normal;font-size:40px;line-height:1.25;font-family:'President Std';-inkscape-font-specification:'President Std';letter-spacing:10px;word-spacing:0.0000001px;fill:#000000;fill-opacity:1;stroke:none;stroke-width:0.26458332"
       d="m 276.77092,235.31513 c 0.635,-0.0741 1.34407,-0.0953 2.20132,-0.0953 h 1.06893 c 0.99482,0 1.59807,0.0106 3.41842,0.0953 0.0317,-0.64559 0.0529,-1.21709 0.0952,-1.76742 h -0.22225 c -0.0847,0.84667 -0.29634,0.94192 -2.02142,0.94192 -0.45508,0 -1.2065,-0.0318 -2.06375,-0.10584 -0.0317,-0.84666 -0.0529,-1.397 -0.0529,-1.91558 v -0.3175 c 0,-0.87842 0.0212,-2.89983 0.0741,-3.27025 0.0317,-0.24342 0.0847,-0.41275 0.15875,-0.508 0.13758,-0.17992 0.45508,-0.254 0.86783,-0.32808 v -0.22225 c -0.65617,0.0318 -1.50283,0.0741 -1.69333,0.0741 -0.16934,0 -1.12184,-0.0423 -1.68275,-0.0741 v 0.22225 c 0.635,0.0847 0.85725,0.20108 0.99483,0.508 0.13758,0.32808 0.17992,1.76741 0.17992,2.7305 v 0.28575 c 0,1.22766 -0.0317,2.63525 -0.16934,2.94216 -0.15875,0.37042 -0.46566,0.52917 -1.15358,0.58209 z" />
    <path
       id="path29807"
       style="font-style:normal;font-variant:normal;font-weight:normal;font-stretch:normal;font-size:40px;line-height:1.25;font-family:'EB Garamond';-inkscape-font-specification:'EB Garamond';letter-spacing:0px;word-spacing:0px;fill:#000000;fill-opacity:1;stroke:none;stroke-width:0.30634418"
       d="m 224.40493,232.34914 q -0.0735,0 -0.0735,-0.0735 0,-0.22057 0.049,-0.42888 0.0613,-0.22057 0.14704,-0.23282 1.56849,-0.22057 2.35273,-0.30635 0.098,0 0.098,0.0735 0,0.26959 -0.0613,0.46565 -0.0613,0.1838 -0.19606,0.19606 l -0.3186,0.049 q -1.26214,0.19606 -1.99737,0.25733 z" />
    <path
       id="path29430"
       style="font-style:normal;font-weight:normal;font-size:40px;line-height:1.25;font-family:sans-serif;letter-spacing:0px;word-spacing:4px;fill:#000000;fill-opacity:1;stroke:none;stroke-width:0.26458332"
       d="m 202.31787,233.3051 c 0.0212,0.65616 0.0317,1.2065 0.0317,1.64041 0.81491,0.39159 1.53458,0.52917 2.50825,0.52917 0.89958,0 1.62983,-0.22225 2.16958,-0.65617 0.53975,-0.43391 0.83608,-1.016 0.83608,-1.651 0,-0.53975 -0.16933,-1.00541 -0.508,-1.3335 -0.21166,-0.21166 -0.55033,-0.41275 -0.92075,-0.53975 l -1.905,-0.65616 c -0.89958,-0.30692 -1.11125,-0.51859 -1.11125,-0.99484 0,-0.73025 0.70909,-1.16416 1.905,-1.16416 1.143,0 1.72509,0.28575 1.88384,0.9525 h 0.21166 c -0.0317,-0.49742 -0.0317,-1.016 -0.0317,-1.49225 -0.93133,-0.28575 -1.397,-0.34925 -2.13783,-0.34925 -1.85208,0 -2.91042,0.80433 -2.91042,2.16958 0,0.89958 0.55034,1.54517 1.64042,1.92617 l 1.80975,0.62441 c 0.71967,0.254 0.97367,0.51859 0.97367,0.98425 0,0.80434 -0.75142,1.32292 -1.97909,1.32292 -0.762,0 -1.42875,-0.20108 -1.80975,-0.52917 -0.24341,-0.20108 -0.35983,-0.41275 -0.4445,-0.78316 z" />
    <path
       id="path29432"
       style="font-style:normal;font-weight:normal;font-size:40px;line-height:1.25;font-family:sans-serif;letter-spacing:0px;word-spacing:4px;fill:#000000;fill-opacity:1;stroke:none;stroke-width:0.26458332"
       d="m 215.14069,232.55368 c -0.45508,0 -0.83608,-0.0106 -1.2065,-0.0529 l 1.70392,-3.16441 1.74625,3.16441 c -0.29633,0.0423 -0.635,0.0529 -1.18533,0.0529 z m -4.24391,2.76225 c 0.60325,-0.0529 1.15358,-0.0952 1.41816,-0.0952 0.20109,0 0.85725,0.0423 1.41817,0.0952 v -0.22225 c -0.53975,-0.0106 -0.77258,-0.14817 -0.77258,-0.4445 0,-0.17992 0.17991,-0.62442 0.52916,-1.34408 0.55034,-0.0318 1.397,-0.0423 2.159,-0.0423 0.80434,0 1.56634,0.0106 2.16959,0.0423 0.27516,0.56091 0.58208,1.22766 0.58208,1.40758 0,0.26458 -0.21167,0.34925 -0.84667,0.381 v 0.22225 c 0.51859,-0.0529 1.29117,-0.0952 1.59809,-0.0952 0.27516,0 1.13241,0.0635 1.60866,0.0952 v -0.22225 c -0.28575,-0.0529 -0.65616,-0.24342 -1.04775,-0.74083 -0.20108,-0.24342 -0.39158,-0.60325 -0.55033,-0.89959 l -3.12208,-5.68325 h -0.4445 l -2.42359,4.45559 c -1.25941,2.32833 -1.62983,2.75166 -2.27541,2.86808 z" />
  </g>
</svg>
