<?xml version="1.0" encoding="UTF-8" standalone="no"?>
<!-- Created with Inkscape (http://www.inkscape.org/) -->

<svg
   xmlns:dc="http://purl.org/dc/elements/1.1/"
   xmlns:cc="http://creativecommons.org/ns#"
   xmlns:rdf="http://www.w3.org/1999/02/22-rdf-syntax-ns#"
   xmlns:svg="http://www.w3.org/2000/svg"
   xmlns="http://www.w3.org/2000/svg"
   xmlns:sodipodi="http://sodipodi.sourceforge.net/DTD/sodipodi-0.dtd"
   xmlns:inkscape="http://www.inkscape.org/namespaces/inkscape"
   width="127.871mm"
   height="9.1899996mm"
   viewBox="0 0 127.87099 9.1899996"
   version="1.1"
   id="svg5146"
   inkscape:version="0.92.5 (2060ec1f9f, 2020-04-08)"
   sodipodi:docname="sacferal.svg">
  <title
     id="title14255">Sacer Feral</title>
  <defs
     id="defs5140" />
  <sodipodi:namedview
     id="base"
     pagecolor="#ffffff"
     bordercolor="#666666"
     borderopacity="1.0"
     inkscape:pageopacity="0.0"
     inkscape:pageshadow="2"
     inkscape:zoom="0.98994949"
     inkscape:cx="55.473812"
     inkscape:cy="-51.232226"
     inkscape:document-units="mm"
     inkscape:current-layer="layer1"
     showgrid="false"
     inkscape:window-width="2558"
     inkscape:window-height="1410"
     inkscape:window-x="0"
     inkscape:window-y="0"
     inkscape:window-maximized="0"
     showguides="true"
     inkscape:guide-bbox="true">
    <sodipodi:guide
       position="-103.4333,-64.946496"
       orientation="1,0"
       id="guide14060"
       inkscape:locked="false" />
  </sodipodi:namedview>
  <metadata
     id="metadata5143">
    <rdf:RDF>
      <cc:Work
         rdf:about="">
        <dc:format>image/svg+xml</dc:format>
        <dc:type
           rdf:resource="http://purl.org/dc/dcmitype/StillImage" />
        <dc:title>Sacer Feral</dc:title>
      </cc:Work>
    </rdf:RDF>
  </metadata>
  <g
     inkscape:label="Layer 1"
     inkscape:groupmode="layer"
     id="layer1"
     transform="translate(0,-287.81)">
    <g
       id="g14130"
       transform="translate(73.022665,-47.892666)">
      <path
         d="m -73.022659,342.3639 c 0.0247,0.76481 0.037,1.40627 0.037,1.91204 0.94985,0.45642 1.78868,0.61679 2.92357,0.61679 1.04854,0 1.8997,-0.25906 2.52883,-0.76482 0.62912,-0.50577 0.97452,-1.18423 0.97452,-1.92438 0,-0.62912 -0.19737,-1.17189 -0.59212,-1.5543 -0.24671,-0.24671 -0.64145,-0.48109 -1.07321,-0.62912 l -2.22043,-0.76482 c -1.04854,-0.35774 -1.29525,-0.60445 -1.29525,-1.15956 0,-0.85116 0.82649,-1.35693 2.22043,-1.35693 1.33226,0 2.01073,0.33306 2.19576,1.11023 h 0.24672 c -0.037,-0.57979 -0.037,-1.18423 -0.037,-1.73935 -1.08554,-0.33307 -1.62832,-0.40708 -2.49182,-0.40708 -2.15875,0 -3.39233,0.93751 -3.39233,2.52882 0,1.04854 0.64146,1.80102 1.91204,2.24511 l 2.10941,0.72781 c 0.83883,0.29606 1.13489,0.60445 1.13489,1.14722 0,0.93752 -0.87584,1.54197 -2.30678,1.54197 -0.88817,0 -1.66533,-0.23438 -2.10941,-0.61679 -0.28373,-0.23438 -0.41942,-0.48109 -0.5181,-0.91284 z"
         style="font-style:normal;font-variant:normal;font-weight:normal;font-stretch:normal;font-size:40px;line-height:1.25;font-family:'President Std';-inkscape-font-specification:'President Std';letter-spacing:18.87469292px;word-spacing:8.57940578px;fill:#000000;fill-opacity:1;stroke:none;stroke-width:0.30839357"
         id="path9469-1-7-3-0"
         inkscape:connector-curvature="0" />
      <path
         d="m -55.433999,341.48806 c -0.53044,0 -0.97453,-0.0123 -1.40628,-0.0617 l 1.98606,-3.6884 2.03539,3.6884 c -0.3454,0.0493 -0.74014,0.0617 -1.3816,0.0617 z m -4.94664,3.21963 c 0.70314,-0.0617 1.3446,-0.11102 1.65299,-0.11102 0.23438,0 0.9992,0.0493 1.65299,0.11102 v -0.25905 c -0.62912,-0.0123 -0.90051,-0.1727 -0.90051,-0.5181 0,-0.2097 0.20971,-0.72781 0.61679,-1.56664 0.64146,-0.037 1.62832,-0.0493 2.51649,-0.0493 0.93752,0 1.82569,0.0123 2.52883,0.0493 0.32073,0.65379 0.67846,1.43094 0.67846,1.64065 0,0.3084 -0.24671,0.40708 -0.98685,0.44409 v 0.25905 c 0.60445,-0.0617 1.50496,-0.11102 1.86269,-0.11102 0.32073,0 1.31993,0.074 1.87503,0.11102 v -0.25905 c -0.33306,-0.0617 -0.76481,-0.28372 -1.22123,-0.8635 -0.23438,-0.28373 -0.45643,-0.70314 -0.64146,-1.04854 l -3.63905,-6.62428 h -0.5181 l -2.82488,5.19333 c -1.46796,2.71387 -1.89971,3.2073 -2.65219,3.34299 z"
         style="font-style:normal;font-variant:normal;font-weight:normal;font-stretch:normal;font-size:40px;line-height:1.25;font-family:'President Std';-inkscape-font-specification:'President Std';letter-spacing:18.87469292px;word-spacing:8.57940578px;fill:#000000;fill-opacity:1;stroke:none;stroke-width:0.30839357"
         id="path9471-8-9-6-9"
         inkscape:connector-curvature="0" />
      <path
         d="m -35.127917,342.48726 c -0.308391,0.96218 -1.073201,1.44328 -2.294441,1.44328 -2.109419,0 -3.62671,-1.5173 -3.62671,-3.63905 0,-1.01153 0.34539,-1.86269 1.023869,-2.56583 0.70313,-0.70314 1.504961,-1.01153 2.652181,-1.01153 1.1719,0 1.739339,0.33306 2.02306,1.17189 h 0.25905 c -0.037,-0.65379 -0.0617,-1.30757 -0.0617,-1.88736 -0.85116,-0.19738 -1.726999,-0.28372 -2.4178,-0.28372 -1.33227,0 -2.602841,0.4811 -3.441671,1.28291 -0.949859,0.91285 -1.418619,1.99839 -1.418619,3.26898 0,2.76321 2.0354,4.6259 4.946639,4.6259 0.678461,0 1.25824,-0.11103 2.565821,-0.53044 0,-0.49342 0.0123,-1.2459 0.0494,-1.87502 z"
         style="font-style:normal;font-variant:normal;font-weight:normal;font-stretch:normal;font-size:40px;line-height:1.25;font-family:'President Std';-inkscape-font-specification:'President Std';letter-spacing:18.87469292px;word-spacing:8.57940578px;fill:#000000;fill-opacity:1;stroke:none;stroke-width:0.30839357"
         id="path9473-7-2-7-3"
         inkscape:connector-curvature="0" />
      <path
         d="m -17.751658,344.70769 c 0.530439,-0.0617 1.430948,-0.11102 2.060069,-0.11102 0.690801,0 1.529631,0.0493 2.220431,0.11102 v -0.25905 c -0.74014,-0.0864 -1.196559,-0.33307 -1.295252,-0.64146 -0.160369,-0.49343 -0.185039,-0.67847 -0.222038,-3.18262 0.690801,-0.037 1.912041,-0.0617 2.282111,-0.0617 1.406268,0 1.603639,0.1727 1.665319,1.12255 h 0.259051 c -0.037,-0.53044 -0.037,-0.91285 -0.037,-1.29525 v -0.50575 c 0,-0.3454 0,-0.66613 0.037,-1.14722 h -0.259051 c -0.0864,0.40708 -0.111019,0.59212 -0.246711,0.7278 -0.197368,0.19737 -0.629118,0.22204 -1.455618,0.22204 -0.39474,0 -1.5543,-0.0247 -2.245101,-0.0617 0,-0.82649 0.02469,-1.97372 0.0617,-2.65218 0.999199,-0.0493 1.924378,-0.0617 2.282108,-0.0617 1.862701,0 2.134092,0.0987 2.195772,1.02387 h 0.259048 c -0.037,-0.38241 -0.0493,-0.66613 -0.0493,-0.92518 v -0.0987 c 0,-0.28372 -0.0123,-0.60445 0.02471,-0.93752 -3.688392,0 -5.008311,0.0863 -5.427731,0.0863 -0.44409,0 -1.307589,-0.0493 -2.08474,-0.0863 v 0.25905 c 0.789491,0.0863 1.085551,0.18504 1.24591,0.57978 0.160361,0.39475 0.209709,1.94905 0.209709,3.52803 v 0.33306 c 0,1.24591 -0.0617,2.77554 -0.185039,3.09627 -0.209701,0.49343 -0.653799,0.59212 -1.295249,0.67847 z"
         style="font-style:normal;font-variant:normal;font-weight:normal;font-stretch:normal;font-size:40px;line-height:1.25;font-family:'President Std';-inkscape-font-specification:'President Std';letter-spacing:18.87469292px;word-spacing:8.57940578px;fill:#000000;fill-opacity:1;stroke:none;stroke-width:0.30839357"
         id="path9479-0-3-62-6"
         inkscape:connector-curvature="0" />
      <path
         d="m -2.153489,344.70769 c 0.65379,-0.0617 1.36926103,-0.11102 2.59050103,-0.11102 1.92437997,0 4.14480897,0.0493 5.29203897,0.11102 0,-0.48109 0.0123,-1.24591 0.0493,-1.93671 H 5.519303 c -0.037,0.28372 -0.0617,0.53043 -0.209711,0.67846 -0.259051,0.28373 -1.023869,0.3454 -2.10941,0.3454 -0.888171,0 -1.615979,-0.037 -2.55350097,-0.1727 -0.037,-0.92518 -0.0617,-2.34379 -0.0617,-2.99758 0.72780697,-0.037 1.93670997,-0.0493 2.39313997,-0.0493 1.036198,0 1.529628,0.0123 1.726999,0.2097 0.135689,0.1357 0.160359,0.33307 0.246711,0.72781 h 0.259048 c -0.037,-0.53044 -0.0617,-1.17189 -0.0617,-1.35693 0,-0.16036 0.02469,-0.96219 0.0617,-1.35693 H 4.951831 c -0.135692,0.85116 -0.209701,0.88817 -1.98605,0.88817 -0.518102,0 -1.60365,-0.0247 -2.38079997,-0.0617 0,-0.59211 0.02469,-1.70233 0.0617,-2.68919 0.39473997,-0.0617 0.80181997,-0.0864 1.44328097,-0.0864 2.84956,0 3.10861,0.074 3.2073,0.9992 h 0.259051 c -0.0494,-0.3454 -0.0617,-0.61679 -0.0617,-0.92518 v -0.18504 c 0,-0.11102 0.02469,-0.55511 0.02469,-0.76482 -1.060889,0.0494 -4.74926097,0.0863 -5.51408897,0.0863 -0.481081,0 -1.50496103,-0.0863 -2.13407103,-0.0863 v 0.25905 c 0.75248,0.0617 1.15956003,0.20971 1.29524903,0.85117 0.0987,0.45642 0.135692,2.35613 0.135692,3.34299 v 0.16036 c 0,1.09788 -0.0617,2.34379 -0.0987,2.71386 -0.1357,0.80183 -0.30839103,0.97453 -1.35694003,1.14723 z"
         style="font-style:normal;font-variant:normal;font-weight:normal;font-stretch:normal;font-size:40px;line-height:1.25;font-family:'President Std';-inkscape-font-specification:'President Std';letter-spacing:18.87469292px;word-spacing:8.57940578px;fill:#000000;fill-opacity:1;stroke:none;stroke-width:0.30839357"
         id="path9481-2-7-9-2"
         inkscape:connector-curvature="0" />
      <path
         d="m 16.867952,339.62536 c 0,-0.53043 0.0123,-1.97372 0.0493,-2.65218 0.83883,-0.0617 1.418612,-0.0987 2.04774,-0.0987 0.530432,0 0.912842,0.0247 1.22124,0.12336 0.678461,0.23438 0.888172,0.67847 0.888172,1.15956 0,1.01153 -1.245912,1.52963 -2.528832,1.52963 -0.246708,0 -0.6908,0 -1.677659,-0.0617 z m -2.83722,5.08233 c 0.690801,-0.0617 1.54197,-0.11102 2.183429,-0.11102 0.6908,0 1.467951,0.0247 2.047732,0.11102 v -0.25905 c -0.542772,-0.11102 -1.060871,-0.23438 -1.2089,-0.7278 -0.160372,-0.53044 -0.185041,-1.71468 -0.185041,-2.76322 v -0.33306 c 0.986861,-0.0493 1.640649,-0.0493 1.8997,-0.0493 1.023869,0 1.332259,0.16037 1.591321,0.98685 l 0.75248,2.3438 c 0.197368,0.60445 0.505759,0.80182 1.233569,0.80182 h 1.134891 v -0.25905 c -0.579782,-0.0123 -0.764821,-0.16037 -0.949852,-0.6538 l -0.949859,-2.54115 c -0.246711,-0.69081 -0.592111,-1.07322 -1.23357,-1.22125 1.443281,-0.28372 2.06007,-0.98685 2.06007,-1.96138 0,-0.75248 -0.43175,-1.5543 -1.369269,-1.88737 -0.468762,-0.16036 -0.888172,-0.2097 -1.862701,-0.2097 -0.974521,0 -2.43014,0.0863 -3.034591,0.0863 -0.320728,0 -1.307589,-0.0493 -1.96138,-0.0863 v 0.25905 c 0.75248,0.0863 1.023871,0.19738 1.18423,0.59212 0.160361,0.38241 0.209711,2.35613 0.209711,3.31831 v 0.20971 c 0,1.49263 -0.0494,3.08393 -0.185041,3.41699 -0.197369,0.43176 -0.555109,0.61679 -1.356929,0.67847 z"
         style="font-style:normal;font-variant:normal;font-weight:normal;font-stretch:normal;font-size:40px;line-height:1.25;font-family:'President Std';-inkscape-font-specification:'President Std';letter-spacing:18.87469292px;word-spacing:8.57940578px;fill:#000000;fill-opacity:1;stroke:none;stroke-width:0.30839357"
         id="path9483-3-5-1-6"
         inkscape:connector-curvature="0" />
      <path
         d="m 34.545771,341.48806 c -0.53043,0 -0.97452,-0.0123 -1.40627,-0.0617 l 1.98605,-3.6884 2.0354,3.6884 c -0.3454,0.0493 -0.74015,0.0617 -1.3816,0.0617 z m -4.94663,3.21963 c 0.70314,-0.0617 1.3446,-0.11102 1.65299,-0.11102 0.23438,0 0.99919,0.0493 1.65299,0.11102 v -0.25905 c -0.62912,-0.0123 -0.90051,-0.1727 -0.90051,-0.5181 0,-0.2097 0.20971,-0.72781 0.61679,-1.56664 0.64145,-0.037 1.62831,-0.0493 2.51649,-0.0493 0.93751,0 1.82569,0.0123 2.52882,0.0493 0.32073,0.65379 0.67847,1.43094 0.67847,1.64065 0,0.3084 -0.24671,0.40708 -0.98686,0.44409 v 0.25905 c 0.60445,-0.0617 1.50496,-0.11102 1.8627,-0.11102 0.32073,0 1.31992,0.074 1.87503,0.11102 v -0.25905 c -0.33306,-0.0617 -0.76482,-0.28372 -1.22124,-0.8635 -0.23438,-0.28373 -0.45642,-0.70314 -0.64146,-1.04854 l -3.63904,-6.62428 h -0.5181 l -2.82489,5.19333 c -1.46795,2.71387 -1.8997,3.2073 -2.65218,3.34299 z"
         style="font-style:normal;font-variant:normal;font-weight:normal;font-stretch:normal;font-size:40px;line-height:1.25;font-family:'President Std';-inkscape-font-specification:'President Std';letter-spacing:18.87469292px;word-spacing:8.57940578px;fill:#000000;fill-opacity:1;stroke:none;stroke-width:0.30839357"
         id="path9485-7-9-2-1"
         inkscape:connector-curvature="0" />
      <path
         d="m 46.941121,344.70769 c 0.74014,-0.0864 1.56664,-0.11102 2.56583,-0.11102 h 1.24591 c 1.15956,0 1.8627,0.0123 3.98445,0.11102 0.037,-0.75248 0.0617,-1.41861 0.11102,-2.06007 h -0.25905 c -0.0987,0.98686 -0.3454,1.09788 -2.35613,1.09788 -0.53043,0 -1.40627,-0.037 -2.40547,-0.12336 -0.037,-0.98686 -0.0617,-1.62831 -0.0617,-2.23277 v -0.37007 c 0,-1.02386 0.0247,-3.37999 0.0863,-3.81174 0.037,-0.28372 0.0987,-0.4811 0.18504,-0.59212 0.16037,-0.20971 0.53044,-0.29606 1.01153,-0.38241 v -0.25905 c -0.76481,0.037 -1.75167,0.0863 -1.97372,0.0863 -0.19737,0 -1.30759,-0.0493 -1.96138,-0.0863 v 0.25905 c 0.74014,0.0987 0.99919,0.23438 1.15956,0.59212 0.16036,0.38241 0.20971,2.06007 0.20971,3.18262 v 0.33307 c 0,1.43095 -0.037,3.0716 -0.19737,3.42933 -0.18504,0.43175 -0.54278,0.61679 -1.3446,0.67847 z"
         style="font-style:normal;font-variant:normal;font-weight:normal;font-stretch:normal;font-size:40px;line-height:1.25;font-family:'President Std';-inkscape-font-specification:'President Std';letter-spacing:18.87469292px;word-spacing:8.57940578px;fill:#000000;fill-opacity:1;stroke:none;stroke-width:0.30839357"
         id="path9487-5-2-7-8"
         inkscape:connector-curvature="0" />
    </g>
  </g>
</svg>
