<?xml version="1.0" encoding="UTF-8" standalone="no"?>
<svg
   xmlns:dc="http://purl.org/dc/elements/1.1/"
   xmlns:cc="http://creativecommons.org/ns#"
   xmlns:rdf="http://www.w3.org/1999/02/22-rdf-syntax-ns#"
   xmlns:svg="http://www.w3.org/2000/svg"
   xmlns="http://www.w3.org/2000/svg"
   xmlns:sodipodi="http://sodipodi.sourceforge.net/DTD/sodipodi-0.dtd"
   xmlns:inkscape="http://www.inkscape.org/namespaces/inkscape"
   id="svg8"
   version="1.1"
   viewBox="0 0 112.01399 7.8845829"
   height="29.799999"
   width="423.35999"
   sodipodi:docname="sacferal.svg"
   inkscape:version="0.92.5 (2060ec1f9f, 2020-04-08)">
  <sodipodi:namedview
     pagecolor="#ffffff"
     bordercolor="#666666"
     borderopacity="1"
     objecttolerance="10"
     gridtolerance="10"
     guidetolerance="10"
     inkscape:pageopacity="0"
     inkscape:pageshadow="2"
     inkscape:window-width="2558"
     inkscape:window-height="1410"
     id="namedview4762"
     showgrid="false"
     inkscape:zoom="0.71774626"
     inkscape:cx="-178.21871"
     inkscape:cy="206.44432"
     inkscape:window-x="0"
     inkscape:window-y="0"
     inkscape:window-maximized="0"
     inkscape:current-layer="svg8"
     units="px" />
  <defs
     id="defs2" />
  <metadata
     id="metadata5">
    <rdf:RDF>
      <cc:Work
         rdf:about="">
        <dc:format>image/svg+xml</dc:format>
        <dc:type
           rdf:resource="http://purl.org/dc/dcmitype/StillImage" />
        <dc:title></dc:title>
      </cc:Work>
    </rdf:RDF>
  </metadata>
  <g
     aria-label="SAC. FERAL"
     transform="matrix(0.26458332,0,0,0.26458332,-48.240037,-159.77755)"
     style="font-style:normal;font-weight:normal;font-size:40px;line-height:1.25;font-family:sans-serif;letter-spacing:0px;word-spacing:0px;fill:#000000;fill-opacity:1;stroke:none"
     id="flowRoot9292-5">
    <path
       d="m 215.90477,625.48369 c 0.08,2.48 0.12,4.56 0.12,6.2 3.08,1.48 5.8,2 9.48,2 3.4,0 6.16,-0.84 8.2,-2.48 2.04,-1.64 3.16,-3.84 3.16,-6.24 0,-2.04 -0.64,-3.8 -1.92,-5.04 -0.8,-0.8 -2.08,-1.56 -3.48,-2.04 l -7.2,-2.48 c -3.4,-1.16 -4.2,-1.96 -4.2,-3.76 0,-2.76 2.68,-4.4 7.2,-4.4 4.32,0 6.52,1.08 7.12,3.6 h 0.8 c -0.12,-1.88 -0.12,-3.84 -0.12,-5.64 -3.52,-1.08 -5.28,-1.32 -8.08,-1.32 -7,0 -11,3.04 -11,8.2 0,3.4 2.08,5.84 6.2,7.28 l 6.84,2.36 c 2.72,0.96 3.68,1.96 3.68,3.72 0,3.04 -2.84,5 -7.48,5 -2.88,0 -5.4,-0.76 -6.84,-2 -0.92,-0.76 -1.36,-1.56 -1.68,-2.96 z"
       style="font-style:normal;font-variant:normal;font-weight:normal;font-stretch:normal;font-family:'President Std';-inkscape-font-specification:'President Std';letter-spacing:10px;word-spacing:-5px;fill:#000000"
       id="path5186"
       inkscape:connector-curvature="0" />
    <path
       d="m 264.90472,622.64369 c -1.72,0 -3.16,-0.04 -4.56,-0.2 l 6.44,-11.96 6.6,11.96 c -1.12,0.16 -2.4,0.2 -4.48,0.2 z m -16.04,10.44 c 2.28,-0.2 4.36,-0.36 5.36,-0.36 0.76,0 3.24,0.16 5.36,0.36 v -0.84 c -2.04,-0.04 -2.92,-0.56 -2.92,-1.68 0,-0.68 0.68,-2.36 2,-5.08 2.08,-0.12 5.28,-0.16 8.16,-0.16 3.04,0 5.92,0.04 8.2,0.16 1.04,2.12 2.2,4.64 2.2,5.32 0,1 -0.8,1.32 -3.2,1.44 v 0.84 c 1.96,-0.2 4.88,-0.36 6.04,-0.36 1.04,0 4.28,0.24 6.08,0.36 v -0.84 c -1.08,-0.2 -2.48,-0.92 -3.96,-2.8 -0.76,-0.92 -1.48,-2.28 -2.08,-3.4 l -11.8,-21.48 h -1.68 l -9.16,16.84 c -4.76,8.8 -6.16,10.4 -8.6,10.84 z"
       style="font-style:normal;font-variant:normal;font-weight:normal;font-stretch:normal;font-family:'President Std';-inkscape-font-specification:'President Std';letter-spacing:10px;word-spacing:-5px;fill:#000000"
       id="path5188"
       inkscape:connector-curvature="0" />
    <path
       d="m 320.94467,625.88369 c -1,3.12 -3.48,4.68 -7.44,4.68 -6.84,0 -11.76,-4.92 -11.76,-11.8 0,-3.28 1.12,-6.04 3.32,-8.32 2.28,-2.28 4.88,-3.28 8.6,-3.28 3.8,0 5.64,1.08 6.56,3.8 h 0.84 c -0.12,-2.12 -0.2,-4.24 -0.2,-6.12 -2.76,-0.64 -5.6,-0.92 -7.84,-0.92 -4.32,0 -8.44,1.56 -11.16,4.16 -3.08,2.96 -4.6,6.48 -4.6,10.6 0,8.96 6.6,15 16.04,15 2.2,0 4.08,-0.36 8.32,-1.72 0,-1.6 0.04,-4.04 0.16,-6.08 z"
       style="font-style:normal;font-variant:normal;font-weight:normal;font-stretch:normal;font-family:'President Std';-inkscape-font-specification:'President Std';letter-spacing:10px;word-spacing:-5px;fill:#000000"
       id="path5190"
       inkscape:connector-curvature="0" />
    <path
       d="m 341.06465,628.16369 c -1.48,0 -2.64,1.12 -2.64,2.6 0,1.44 1.16,2.56 2.64,2.56 1.48,0 2.56,-1.12 2.56,-2.56 0,-1.48 -1.08,-2.6 -2.56,-2.6 z"
       style="font-style:normal;font-variant:normal;font-weight:normal;font-stretch:normal;font-family:'President Std';-inkscape-font-specification:'President Std';letter-spacing:10px;word-spacing:-5px;fill:#000000"
       id="path5192"
       inkscape:connector-curvature="0" />
    <path
       d="m 377.38455,633.08369 c 1.72,-0.2 4.64,-0.36 6.68,-0.36 2.24,0 4.96,0.16 7.2,0.36 v -0.84 c -2.4,-0.28 -3.88,-1.08 -4.2,-2.08 -0.52,-1.6 -0.6,-2.2 -0.72,-10.32 2.24,-0.12 6.2,-0.2 7.4,-0.2 4.56,0 5.2,0.56 5.4,3.64 h 0.84 c -0.12,-1.72 -0.12,-2.96 -0.12,-4.2 v -1.64 c 0,-1.12 0,-2.16 0.12,-3.72 h -0.84 c -0.28,1.32 -0.36,1.92 -0.8,2.36 -0.64,0.64 -2.04,0.72 -4.72,0.72 -1.28,0 -5.04,-0.08 -7.28,-0.2 0,-2.68 0.08,-6.4 0.2,-8.6 3.24,-0.16 6.24,-0.2 7.4,-0.2 6.04,0 6.92,0.32 7.12,3.32 h 0.84 c -0.12,-1.24 -0.16,-2.16 -0.16,-3 v -0.32 c 0,-0.92 -0.04,-1.96 0.08,-3.04 -11.96,0 -16.24,0.28 -17.6,0.28 -1.44,0 -4.24,-0.16 -6.76,-0.28 v 0.84 c 2.56,0.28 3.52,0.6 4.04,1.88 0.52,1.28 0.68,6.32 0.68,11.44 v 1.08 c 0,4.04 -0.2,9 -0.6,10.04 -0.68,1.6 -2.12,1.92 -4.2,2.2 z"
       style="font-style:normal;font-variant:normal;font-weight:normal;font-stretch:normal;font-family:'President Std';-inkscape-font-specification:'President Std';letter-spacing:10px;word-spacing:-5px;fill:#000000"
       id="path5194"
       inkscape:connector-curvature="0" />
    <path
       d="m 416.02451,633.08369 c 2.12,-0.2 4.44,-0.36 8.4,-0.36 6.24,0 13.44,0.16 17.16,0.36 0,-1.56 0.04,-4.04 0.16,-6.28 h -0.84 c -0.12,0.92 -0.2,1.72 -0.68,2.2 -0.84,0.92 -3.32,1.12 -6.84,1.12 -2.88,0 -5.24,-0.12 -8.28,-0.56 -0.12,-3 -0.2,-7.6 -0.2,-9.72 2.36,-0.12 6.28,-0.16 7.76,-0.16 3.36,0 4.96,0.04 5.6,0.68 0.44,0.44 0.52,1.08 0.8,2.36 h 0.84 c -0.12,-1.72 -0.2,-3.8 -0.2,-4.4 0,-0.52 0.08,-3.12 0.2,-4.4 h -0.84 c -0.44,2.76 -0.68,2.88 -6.44,2.88 -1.68,0 -5.2,-0.08 -7.72,-0.2 0,-1.92 0.08,-5.52 0.2,-8.72 1.28,-0.2 2.6,-0.28 4.68,-0.28 9.24,0 10.08,0.24 10.4,3.24 h 0.84 c -0.16,-1.12 -0.2,-2 -0.2,-3 v -0.6 c 0,-0.36 0.08,-1.8 0.08,-2.48 -3.44,0.16 -15.4,0.28 -17.88,0.28 -1.56,0 -4.88,-0.28 -6.92,-0.28 v 0.84 c 2.44,0.2 3.76,0.68 4.2,2.76 0.32,1.48 0.44,7.64 0.44,10.84 v 0.52 c 0,3.56 -0.2,7.6 -0.32,8.8 -0.44,2.6 -1,3.16 -4.4,3.72 z"
       style="font-style:normal;font-variant:normal;font-weight:normal;font-stretch:normal;font-family:'President Std';-inkscape-font-specification:'President Std';letter-spacing:10px;word-spacing:-5px;fill:#000000"
       id="path5196"
       inkscape:connector-curvature="0" />
    <path
       d="m 466.22449,616.60369 c 0,-1.72 0.04,-6.4 0.16,-8.6 2.72,-0.2 4.6,-0.32 6.64,-0.32 1.72,0 2.96,0.08 3.96,0.4 2.2,0.76 2.88,2.2 2.88,3.76 0,3.28 -4.04,4.96 -8.2,4.96 -0.8,0 -2.24,0 -5.44,-0.2 z m -9.2,16.48 c 2.24,-0.2 5,-0.36 7.08,-0.36 2.24,0 4.76,0.08 6.64,0.36 v -0.84 c -1.76,-0.36 -3.44,-0.76 -3.92,-2.36 -0.52,-1.72 -0.6,-5.56 -0.6,-8.96 v -1.08 c 3.2,-0.16 5.32,-0.16 6.16,-0.16 3.32,0 4.32,0.52 5.16,3.2 l 2.44,7.6 c 0.64,1.96 1.64,2.6 4,2.6 h 3.68 v -0.84 c -1.88,-0.04 -2.48,-0.52 -3.08,-2.12 l -3.08,-8.24 c -0.8,-2.24 -1.92,-3.48 -4,-3.96 4.68,-0.92 6.68,-3.2 6.68,-6.36 0,-2.44 -1.4,-5.04 -4.44,-6.12 -1.52,-0.52 -2.88,-0.68 -6.04,-0.68 -3.16,0 -7.88,0.28 -9.84,0.28 -1.04,0 -4.24,-0.16 -6.36,-0.28 v 0.84 c 2.44,0.28 3.32,0.64 3.84,1.92 0.52,1.24 0.68,7.64 0.68,10.76 v 0.68 c 0,4.84 -0.16,10 -0.6,11.08 -0.64,1.4 -1.8,2 -4.4,2.2 z"
       style="font-style:normal;font-variant:normal;font-weight:normal;font-stretch:normal;font-family:'President Std';-inkscape-font-specification:'President Std';letter-spacing:10px;word-spacing:-5px;fill:#000000"
       id="path5198"
       inkscape:connector-curvature="0" />
    <path
       d="m 513.86437,622.64369 c -1.72,0 -3.16,-0.04 -4.56,-0.2 l 6.44,-11.96 6.6,11.96 c -1.12,0.16 -2.4,0.2 -4.48,0.2 z m -16.04,10.44 c 2.28,-0.2 4.36,-0.36 5.36,-0.36 0.76,0 3.24,0.16 5.36,0.36 v -0.84 c -2.04,-0.04 -2.92,-0.56 -2.92,-1.68 0,-0.68 0.68,-2.36 2,-5.08 2.08,-0.12 5.28,-0.16 8.16,-0.16 3.04,0 5.92,0.04 8.2,0.16 1.04,2.12 2.2,4.64 2.2,5.32 0,1 -0.8,1.32 -3.2,1.44 v 0.84 c 1.96,-0.2 4.88,-0.36 6.04,-0.36 1.04,0 4.28,0.24 6.08,0.36 v -0.84 c -1.08,-0.2 -2.48,-0.92 -3.96,-2.8 -0.76,-0.92 -1.48,-2.28 -2.08,-3.4 l -11.8,-21.48 h -1.68 l -9.16,16.84 c -4.76,8.8 -6.16,10.4 -8.6,10.84 z"
       style="font-style:normal;font-variant:normal;font-weight:normal;font-stretch:normal;font-family:'President Std';-inkscape-font-specification:'President Std';letter-spacing:10px;word-spacing:-5px;fill:#000000"
       id="path5200"
       inkscape:connector-curvature="0" />
    <path
       d="m 546.46434,633.08369 c 2.4,-0.28 5.08,-0.36 8.32,-0.36 h 4.04 c 3.76,0 6.04,0.04 12.92,0.36 0.12,-2.44 0.2,-4.6 0.36,-6.68 h -0.84 c -0.32,3.2 -1.12,3.56 -7.64,3.56 -1.72,0 -4.56,-0.12 -7.8,-0.4 -0.12,-3.2 -0.2,-5.28 -0.2,-7.24 v -1.2 c 0,-3.32 0.08,-10.96 0.28,-12.36 0.12,-0.92 0.32,-1.56 0.6,-1.92 0.52,-0.68 1.72,-0.96 3.28,-1.24 v -0.84 c -2.48,0.12 -5.68,0.28 -6.4,0.28 -0.64,0 -4.24,-0.16 -6.36,-0.28 v 0.84 c 2.4,0.32 3.24,0.76 3.76,1.92 0.52,1.24 0.68,6.68 0.68,10.32 v 1.08 c 0,4.64 -0.12,9.96 -0.64,11.12 -0.6,1.4 -1.76,2 -4.36,2.2 z"
       style="font-style:normal;font-variant:normal;font-weight:normal;font-stretch:normal;font-family:'President Std';-inkscape-font-specification:'President Std';letter-spacing:10px;word-spacing:-5px;fill:#000000"
       id="path5202"
       inkscape:connector-curvature="0" />
  </g>
</svg>
