<svg xmlns="http://www.w3.org/2000/svg" viewBox="0 0 94.245 7.885" height="29.8" width="356.2"><title>Sacer Feral</title><g aria-label="SAC. FERAL"><path d="M0 5.715c.021.656.032 1.207.032 1.64.815.392 1.534.53 2.508.53.9 0 1.63-.223 2.17-.657.54-.433.836-1.016.836-1.65 0-.54-.17-1.006-.508-1.334-.212-.212-.55-.413-.921-.54l-1.905-.656c-.9-.307-1.111-.519-1.111-.995C1.1 1.323 1.81.89 3.006.89c1.143 0 1.725.286 1.884.953H5.1C5.07 1.344 5.07.826 5.07.349 4.14.064 3.672 0 2.932 0 1.08 0 .022.804.022 2.17c0 .9.55 1.545 1.64 1.926l1.81.624c.72.254.973.519.973.984 0 .805-.751 1.323-1.979 1.323-.762 0-1.429-.2-1.81-.529-.243-.2-.36-.413-.444-.783zM12.965 4.964c-.455 0-.836-.011-1.207-.053l1.704-3.165 1.746 3.165c-.296.042-.635.053-1.185.053zM8.72 7.726a21.65 21.65 0 011.418-.095c.201 0 .857.042 1.418.095v-.222c-.54-.011-.773-.149-.773-.445 0-.18.18-.624.53-1.344.55-.032 1.397-.042 2.159-.042.804 0 1.566.01 2.17.042.274.56.581 1.228.581 1.408 0 .264-.211.349-.846.38v.223a21.03 21.03 0 011.598-.095c.275 0 1.132.063 1.608.095v-.222c-.285-.053-.656-.244-1.047-.741-.201-.244-.392-.603-.55-.9L13.863.18h-.444l-2.424 4.456c-1.26 2.328-1.63 2.751-2.275 2.868zM27.792 5.82c-.265.826-.92 1.24-1.969 1.24-1.81 0-3.111-1.303-3.111-3.123 0-.868.296-1.598.878-2.201.604-.604 1.291-.868 2.276-.868 1.005 0 1.492.286 1.735 1.005h.223A29.479 29.479 0 0127.77.254a9.556 9.556 0 00-2.075-.243c-1.143 0-2.233.412-2.952 1.1-.815.783-1.217 1.715-1.217 2.805 0 2.37 1.746 3.969 4.243 3.969.583 0 1.08-.096 2.202-.455 0-.424.01-1.07.042-1.61zM33.115 6.424a.682.682 0 100 1.365.662.662 0 00.678-.677.665.665 0 00-.678-.688zM42.725 7.726a18.183 18.183 0 011.767-.095c.593 0 1.313.042 1.905.095v-.222c-.635-.074-1.026-.286-1.11-.55-.139-.424-.16-.583-.191-2.731.592-.032 1.64-.053 1.957-.053 1.207 0 1.376.148 1.43.963h.221c-.031-.455-.031-.783-.031-1.111v-.434c0-.297 0-.572.031-.984h-.222c-.074.349-.095.508-.211.624-.17.17-.54.19-1.25.19-.338 0-1.333-.02-1.925-.052 0-.71.02-1.694.052-2.276a44.515 44.515 0 011.958-.053c1.598 0 1.831.085 1.884.879h.222a8.001 8.001 0 01-.042-.794v-.085c0-.243-.01-.518.021-.804-3.164 0-4.297.074-4.656.074-.381 0-1.122-.042-1.789-.074v.222c.677.074.931.159 1.069.498.138.338.18 1.672.18 3.026v.286c0 1.069-.053 2.381-.159 2.657-.18.423-.56.508-1.111.582zM52.948 7.726c.561-.053 1.175-.095 2.223-.095 1.65 0 3.556.042 4.54.095 0-.413.01-1.07.042-1.662h-.222c-.032.244-.053.455-.18.582-.222.244-.878.297-1.81.297-.761 0-1.386-.032-2.19-.148a81.455 81.455 0 01-.053-2.572 51.8 51.8 0 012.053-.043c.89 0 1.312.011 1.482.18.116.117.137.286.211.625h.223a23.885 23.885 0 01-.053-1.164c0-.138.02-.826.053-1.165h-.223c-.116.73-.18.762-1.704.762-.444 0-1.375-.02-2.042-.052 0-.508.021-1.461.053-2.308.338-.053.688-.074 1.238-.074 2.445 0 2.667.064 2.752.858h.222a5.259 5.259 0 01-.053-.794V.889c0-.095.021-.476.021-.656-.91.042-4.074.074-4.73.074-.413 0-1.292-.074-1.831-.074v.222c.645.053.994.18 1.11.73.085.392.117 2.022.117 2.868v.138c0 .942-.053 2.01-.084 2.328-.117.688-.265.836-1.165.985zM66.23 3.366c0-.456.011-1.694.043-2.276a23.2 23.2 0 011.757-.085c.455 0 .783.022 1.047.106.582.201.762.582.762.995 0 .868-1.069 1.312-2.17 1.312-.21 0-.592 0-1.439-.052zm-2.434 4.36a23.133 23.133 0 011.874-.095c.592 0 1.259.02 1.756.095v-.222c-.465-.096-.91-.201-1.037-.625-.137-.455-.159-1.47-.159-2.37v-.286c.847-.043 1.408-.043 1.63-.043.879 0 1.143.138 1.366.847l.645 2.01c.17.52.434.689 1.058.689h.974v-.222c-.497-.011-.656-.138-.815-.561l-.815-2.18c-.211-.593-.508-.921-1.058-1.048 1.238-.244 1.767-.847 1.767-1.683 0-.646-.37-1.333-1.174-1.62-.403-.137-.762-.18-1.598-.18-.837 0-2.085.075-2.604.075a48.58 48.58 0 01-1.683-.074v.222c.646.074.879.17 1.016.508.138.328.18 2.022.18 2.847v.18c0 1.28-.042 2.646-.159 2.932-.169.37-.476.529-1.164.582zM78.835 4.964c-.455 0-.836-.011-1.206-.053l1.704-3.165 1.746 3.165c-.296.042-.635.053-1.185.053zm-4.244 2.762a21.65 21.65 0 011.418-.095c.202 0 .858.042 1.419.095v-.222c-.54-.011-.773-.149-.773-.445 0-.18.18-.624.53-1.344.55-.032 1.396-.042 2.158-.042.805 0 1.567.01 2.17.042.275.56.582 1.228.582 1.408 0 .264-.212.349-.847.38v.223a21.03 21.03 0 011.598-.095c.275 0 1.133.063 1.609.095v-.222c-.286-.053-.656-.244-1.048-.741-.2-.244-.391-.603-.55-.9L79.735.18h-.445l-2.423 4.456c-1.26 2.328-1.63 2.751-2.276 2.868zM87.46 7.726c.636-.074 1.345-.095 2.202-.095h1.069c.995 0 1.598.01 3.418.095.032-.646.053-1.217.096-1.768h-.223c-.084.847-.296.942-2.021.942-.455 0-1.207-.031-2.064-.105-.032-.847-.053-1.397-.053-1.916V4.56c0-.878.021-2.9.074-3.27.032-.243.085-.413.159-.508.138-.18.455-.254.868-.328V.233c-.656.032-1.503.074-1.693.074-.17 0-1.122-.042-1.683-.074v.222c.635.085.857.201.995.508.137.328.18 1.768.18 2.73v.286c0 1.228-.032 2.636-.17 2.943-.159.37-.465.529-1.153.582z"/></g></svg>