<svg xmlns="http://www.w3.org/2000/svg" viewBox="0 0 124.65 9.174" height="34.673" width="471.119"><title>Sacer Feral</title><g fill="#000"><path d="M0 6.65c.025.763.037 1.403.037 1.908.948.456 1.785.616 2.918.616 1.047 0 1.897-.259 2.525-.764.628-.504.972-1.182.972-1.92 0-.629-.197-1.17-.59-1.552-.247-.246-.64-.48-1.072-.628l-2.216-.764C1.527 3.19 1.28 2.943 1.28 2.39c0-.85.825-1.355 2.216-1.355 1.33 0 2.007.333 2.192 1.109h.246C5.898 1.563 5.898.96 5.898.406 4.815.074 4.273 0 3.411 0 1.256 0 .025.936.025 2.524c0 1.047.64 1.798 1.908 2.242l2.106.726c.837.296 1.133.603 1.133 1.145 0 .936-.874 1.54-2.303 1.54-.886 0-1.662-.235-2.105-.616-.284-.234-.42-.48-.518-.911zM17.298 5.775c-.53 0-.973-.012-1.404-.061l1.983-3.682 2.031 3.682c-.344.049-.739.061-1.379.061zM12.36 8.99c.702-.061 1.342-.11 1.65-.11.234 0 .997.049 1.65.11v-.258c-.628-.013-.899-.173-.899-.518 0-.209.21-.726.616-1.563.64-.037 1.625-.05 2.512-.05.936 0 1.822.013 2.524.05.32.652.677 1.428.677 1.637 0 .308-.246.407-.985.444v.258c.604-.061 1.503-.11 1.86-.11.32 0 1.317.073 1.871.11v-.258c-.332-.062-.763-.284-1.219-.862-.234-.284-.455-.702-.64-1.047L18.344.209h-.517l-2.82 5.185c-1.465 2.709-1.896 3.201-2.647 3.337zM36.763 6.773c-.308.96-1.072 1.44-2.29 1.44-2.106 0-3.62-1.514-3.62-3.632 0-1.01.344-1.86 1.021-2.562.702-.701 1.502-1.01 2.648-1.01 1.17 0 1.736.333 2.02 1.17h.258a34.342 34.342 0 01-.062-1.883 11.118 11.118 0 00-2.413-.284c-1.33 0-2.599.48-3.436 1.281-.948.911-1.416 1.995-1.416 3.263 0 2.758 2.032 4.618 4.938 4.618.677 0 1.256-.11 2.561-.53 0-.492.012-1.243.05-1.871z"/><g><path d="M55.853 8.99c.53-.062 1.429-.112 2.057-.112.69 0 1.527.05 2.216.111v-.258c-.739-.087-1.194-.333-1.293-.64-.16-.493-.184-.678-.221-3.178.69-.037 1.908-.061 2.278-.061 1.404 0 1.6.172 1.662 1.12h.259c-.037-.53-.037-.911-.037-1.293v-.505c0-.344 0-.665.037-1.145h-.259c-.086.407-.11.591-.246.727-.197.197-.628.221-1.453.221a57.59 57.59 0 01-2.241-.061c0-.825.024-1.97.061-2.648.998-.049 1.921-.061 2.278-.061 1.86 0 2.13.098 2.192 1.022h.259a9.324 9.324 0 01-.05-.924v-.098c0-.283-.012-.604.025-.936-3.682 0-5 .086-5.418.086-.443 0-1.305-.05-2.081-.086V.53c.788.086 1.084.184 1.244.578.16.394.209 1.946.209 3.522v.333c0 1.243-.062 2.77-.185 3.09-.21.493-.652.591-1.293.678zM69.962 8.99a25.36 25.36 0 012.586-.112c1.92 0 4.137.05 5.282.111 0-.48.013-1.244.05-1.933h-.259c-.037.283-.062.53-.21.677-.258.283-1.021.345-2.105.345-.887 0-1.613-.037-2.549-.172a94.909 94.909 0 01-.062-2.993c.727-.037 1.934-.049 2.39-.049 1.034 0 1.526.012 1.723.21.136.135.16.332.247.726h.258c-.037-.53-.061-1.17-.061-1.355 0-.16.024-.96.061-1.354h-.258c-.136.85-.21.886-1.983.886-.517 0-1.6-.024-2.377-.061 0-.591.025-1.7.062-2.685.394-.061.8-.086 1.44-.086 2.845 0 3.104.074 3.202.998h.259a6.113 6.113 0 01-.062-.924v-.185c0-.11.025-.554.025-.763-1.059.05-4.74.086-5.504.086-.48 0-1.503-.086-2.13-.086V.53c.75.061 1.157.209 1.292.85.099.455.136 2.351.136 3.336v.16c0 1.096-.062 2.34-.099 2.71-.135.8-.308.972-1.354 1.145zM87.629 3.916c0-.53.012-1.97.05-2.648.837-.061 1.415-.098 2.043-.098.53 0 .912.024 1.22.123.677.234.886.677.886 1.157 0 1.01-1.244 1.527-2.524 1.527-.247 0-.69 0-1.675-.061zm-2.832 5.073c.69-.061 1.539-.11 2.18-.11.689 0 1.465.024 2.043.11v-.258c-.541-.111-1.059-.234-1.206-.727-.16-.53-.185-1.712-.185-2.758v-.333c.985-.049 1.638-.049 1.896-.049 1.022 0 1.33.16 1.589.985l.75 2.34c.198.603.506.8 1.232.8h1.133v-.258c-.579-.013-.763-.16-.948-.653l-.948-2.537c-.246-.69-.591-1.071-1.232-1.219 1.441-.283 2.057-.985 2.057-1.958 0-.75-.431-1.551-1.367-1.884-.468-.16-.887-.21-1.86-.21-.972 0-2.425.087-3.029.087-.32 0-1.305-.05-1.958-.086V.53c.752.086 1.023.197 1.183.59.16.382.209 2.353.209 3.313v.21c0 1.49-.05 3.078-.185 3.41-.197.431-.554.616-1.354.678zM104.508 5.775c-.53 0-.973-.012-1.404-.061l1.983-3.682 2.031 3.682c-.344.049-.738.061-1.379.061zM99.57 8.99c.702-.061 1.342-.11 1.65-.11.234 0 .998.049 1.65.11v-.258c-.628-.013-.899-.173-.899-.518 0-.209.21-.726.616-1.563.64-.037 1.625-.05 2.512-.05.936 0 1.822.013 2.524.05.32.652.678 1.428.678 1.637 0 .308-.247.407-.985.444v.258c.603-.061 1.502-.11 1.859-.11.32 0 1.318.073 1.872.11v-.258c-.333-.062-.764-.284-1.22-.862-.233-.284-.455-.702-.64-1.047L105.555.209h-.518l-2.82 5.185c-1.465 2.709-1.896 3.201-2.647 3.337zM116.757 8.99c.739-.087 1.564-.112 2.561-.112h1.244c1.157 0 1.86.013 3.977.111.037-.751.062-1.416.111-2.056h-.258c-.099.985-.345 1.096-2.352 1.096-.53 0-1.404-.037-2.402-.123-.036-.986-.061-1.626-.061-2.23v-.369c0-1.022.024-3.374.086-3.805.037-.283.099-.48.185-.59.16-.21.53-.296 1.01-.382V.27c-.764.038-1.75.087-1.97.087-.198 0-1.306-.05-1.959-.086V.53c.74.098.998.233 1.158.59.16.382.21 2.057.21 3.178v.332c0 1.428-.038 3.066-.198 3.423-.185.431-.542.616-1.342.678z"/></g><path d="M46.435 4.054a.682.682 0 100 1.366.662.662 0 00.678-.678.665.665 0 00-.678-.688z"/></g></svg>