<svg width="132.98mm" height="9.122mm" version="1.1" viewBox="0 0 132.98 9.122" xmlns="http://www.w3.org/2000/svg">
 <title>S. Feral</title>
 <g transform="translate(0,-287.81)">
  <path d="m-6.9e-5 294.42c0.0245 0.75912 0.03673 1.3958 0.03673 1.8978 0.94278 0.45302 1.7754 0.61219 2.9018 0.61219 1.0407 0 1.8856-0.25712 2.51-0.75912 0.62444-0.502 0.96727-1.1754 0.96727-1.91 0-0.62444-0.1959-1.1632-0.58771-1.5427-0.24488-0.24488-0.63668-0.47751-1.0652-0.62444l-2.2039-0.75912c-1.0407-0.35507-1.2856-0.59995-1.2856-1.1509 0-0.84483 0.82034-1.3468 2.2039-1.3468 1.3223 0 1.9958 0.33059 2.1794 1.102h0.24488c-0.03673-0.57546-0.03673-1.1754-0.03673-1.7264-1.0775-0.33058-1.6162-0.40405-2.4733-0.40405-2.1427 0-3.3671 0.93054-3.3671 2.51 0 1.0407 0.63668 1.7876 1.8978 2.2284l2.0937 0.72239c0.83259 0.29386 1.1264 0.59996 1.1264 1.1387 0 0.93053-0.86932 1.5305-2.2896 1.5305-0.88156 0-1.6529-0.23262-2.0937-0.61219-0.28161-0.23262-0.41629-0.47751-0.51424-0.90605z" style="font-variant-numeric:oldstyle-nums proportional-nums;paint-order:fill markers stroke;stroke-width:.86768;white-space:pre"/>
  <path d="m11.879 295.24c-0.45303 0-0.8081 0.34283-0.8081 0.79586 0 0.44078 0.35507 0.78361 0.8081 0.78361 0.45302 0 0.78361-0.34283 0.78361-0.78361 0-0.45303-0.33059-0.79586-0.78361-0.79586z" style="font-variant-numeric:oldstyle-nums proportional-nums;paint-order:fill markers stroke;stroke-width:.86768;white-space:pre"/>
  <path d="m41.664 296.75c0.52649-0.0612 1.4203-0.11018 2.0447-0.11018 0.68566 0 1.5182 0.049 2.2039 0.11018v-0.25711c-0.73463-0.0857-1.1877-0.33059-1.2856-0.63669-0.15917-0.48975-0.18366-0.67342-0.22039-3.1589 0.68566-0.0367 1.8978-0.0612 2.2651-0.0612 1.3958 0 1.5917 0.17142 1.6529 1.1142h0.25712c-0.03673-0.52649-0.03673-0.90604-0.03673-1.2856v-0.502c0-0.34283 0-0.66117 0.03673-1.1387h-0.25712c-0.08571 0.40405-0.1102 0.58771-0.24488 0.72239-0.1959 0.19592-0.62444 0.22039-1.4448 0.22039-0.3918 0-1.5427-0.0245-2.2284-0.0612 0-0.82034 0.0245-1.959 0.06122-2.6324 0.99176-0.049 1.91-0.0612 2.2651-0.0612 1.8488 0 2.1182 0.0979 2.1794 1.0162h0.25712c-0.03673-0.37956-0.04898-0.66117-0.04898-0.91829v-0.0979c0-0.28161-0.01223-0.59996 0.0245-0.93054-3.6609 0-4.971 0.0857-5.3873 0.0857-0.44078 0-1.2979-0.049-2.0692-0.0857v0.25712c0.78361 0.0857 1.0775 0.18365 1.2366 0.57546 0.15917 0.39181 0.20815 1.9345 0.20815 3.5018v0.33059c0 1.2366-0.06122 2.7549-0.18366 3.0732-0.20815 0.48976-0.64892 0.5877-1.2856 0.67341z" style="font-variant-numeric:oldstyle-nums proportional-nums;paint-order:fill markers stroke;stroke-width:.86768;white-space:pre"/>
  <path d="m62.061 296.75c0.64893-0.0612 1.3591-0.11018 2.5712-0.11018 1.91 0 4.114 0.049 5.2526 0.11018 0-0.4775 0.0122-1.2366 0.049-1.9223h-0.25712c-0.0367 0.28161-0.0612 0.52649-0.20815 0.67342-0.25712 0.2816-1.0162 0.34283-2.0937 0.34283-0.88156 0-1.604-0.0367-2.5345-0.17142-0.03673-0.91829-0.06122-2.3263-0.06122-2.9753 0.72239-0.0367 1.9223-0.049 2.3753-0.049 1.0285 0 1.5182 0.0122 1.7142 0.20814 0.13468 0.13469 0.15917 0.33059 0.24488 0.72239h0.25712c-0.0367-0.52649-0.0612-1.1632-0.0612-1.3468 0-0.15917 0.0245-0.95502 0.0612-1.3468h-0.25712c-0.13468 0.84483-0.20815 0.88156-1.9713 0.88156-0.51425 0-1.5917-0.0245-2.3631-0.0612 0-0.5877 0.0245-1.6896 0.06122-2.6692 0.39181-0.0612 0.79586-0.0857 1.4325-0.0857 2.8283 0 3.0855 0.0735 3.1834 0.99175h0.25712c-0.049-0.34283-0.0612-0.61219-0.0612-0.91829v-0.18366c0-0.11019 0.0245-0.55097 0.0245-0.75912-1.053 0.049-4.7139 0.0857-5.473 0.0857-0.47751 0-1.4938-0.0857-2.1182-0.0857v0.25712c0.74688 0.0612 1.1509 0.20815 1.2856 0.84483 0.09795 0.45302 0.13468 2.3386 0.13468 3.3181v0.15917c0 1.0897-0.06122 2.3263-0.09795 2.6937-0.13468 0.79585-0.3061 0.96727-1.3468 1.1387z" style="font-variant-numeric:oldstyle-nums proportional-nums;paint-order:fill markers stroke;stroke-width:.86768;white-space:pre"/>
  <path d="m85.763 291.7c0-0.52648 0.0122-1.959 0.049-2.6324 0.83258-0.0612 1.408-0.0979 2.0325-0.0979 0.52648 0 0.90605 0.0245 1.2121 0.12243 0.67342 0.23264 0.88157 0.67342 0.88157 1.1509 0 1.004-1.2366 1.5182-2.51 1.5182-0.24487 0-0.68566 0-1.6652-0.0612zm-2.8161 5.0445c0.68567-0.0612 1.5305-0.11018 2.1672-0.11018 0.68565 0 1.457 0.0245 2.0325 0.11018v-0.25711c-0.53873-0.11019-1.053-0.23263-1.1999-0.7224-0.15917-0.52649-0.18366-1.7019-0.18366-2.7426v-0.33058c0.97951-0.049 1.6284-0.049 1.8856-0.049 1.0162 0 1.3224 0.15917 1.5795 0.97951l0.74688 2.3263c0.1959 0.59995 0.502 0.79585 1.2244 0.79585h1.1264v-0.25712c-0.57547-0.0122-0.75912-0.15917-0.94278-0.64892l-0.94279-2.5222c-0.24487-0.68566-0.5877-1.0652-1.2244-1.2122 1.4325-0.28161 2.0447-0.97951 2.0447-1.9468 0-0.74688-0.42854-1.5427-1.3591-1.8733-0.46527-0.15917-0.88156-0.20815-1.8488-0.20815-0.96726 0-2.412 0.0857-3.012 0.0857-0.31834 0-1.2978-0.049-1.9468-0.0857v0.25712c0.74688 0.0857 1.0162 0.1959 1.1754 0.58771 0.15917 0.37956 0.20814 2.3386 0.20814 3.2936v0.20815c0 1.4815-0.049 3.061-0.18366 3.3916-0.1959 0.42853-0.55097 0.61219-1.3468 0.67341z" style="font-variant-numeric:oldstyle-nums proportional-nums;paint-order:fill markers stroke;stroke-width:.86768;white-space:pre"/>
  <path d="m107.64 293.55c-0.52649 0-0.96727-0.0122-1.3958-0.0612l1.9713-3.6609 2.0202 3.6609c-0.34283 0.049-0.73464 0.0612-1.3713 0.0612zm-4.9098 3.1957c0.69791-0.0612 1.3346-0.11019 1.6407-0.11019 0.23264 0 0.99176 0.049 1.6407 0.11019v-0.25712c-0.62444-0.0122-0.8938-0.17141-0.8938-0.51424 0-0.20815 0.20814-0.72239 0.61219-1.555 0.63668-0.0367 1.6162-0.049 2.4978-0.049 0.93054 0 1.8121 0.0122 2.51 0.049 0.31834 0.64893 0.67341 1.4203 0.67341 1.6284 0 0.30611-0.24488 0.40405-0.97951 0.44079v0.25711c0.59995-0.0612 1.4938-0.11018 1.8488-0.11018 0.31834 0 1.3101 0.0735 1.8611 0.11018v-0.25711c-0.33058-0.0612-0.75912-0.28161-1.2122-0.85708-0.23263-0.28161-0.45302-0.6979-0.63668-1.0407l-3.612-6.575h-0.51424l-2.8039 5.1547c-1.457 2.6937-1.8856 3.1834-2.6324 3.3181z" style="font-variant-numeric:oldstyle-nums proportional-nums;paint-order:fill markers stroke;stroke-width:.86768;white-space:pre"/>
  <path d="m125.14 296.75c0.73463-0.0857 1.555-0.11018 2.5467-0.11018h1.2366c1.1509 0 1.8488 0.0122 3.9548 0.11018 0.0367-0.74687 0.0612-1.408 0.11019-2.0447h-0.25712c-0.0979 0.97951-0.34283 1.0897-2.3386 1.0897-0.52649 0-1.3958-0.0367-2.3876-0.12244-0.0367-0.97951-0.0612-1.6162-0.0612-2.2162v-0.36732c0-1.0162 0.0245-3.3548 0.0857-3.7834 0.0367-0.28161 0.0979-0.47751 0.18366-0.58771 0.15917-0.20814 0.52649-0.29385 1.004-0.37956v-0.25712c-0.75913 0.0367-1.7386 0.0857-1.959 0.0857-0.1959 0-1.2978-0.049-1.9468-0.0857v0.25712c0.73464 0.0979 0.99176 0.23264 1.1509 0.58771 0.15917 0.37956 0.20815 2.0447 0.20815 3.1589v0.33059c0 1.4203-0.0367 3.0487-0.19591 3.4038-0.18365 0.42853-0.53873 0.61219-1.3346 0.67341z" style="font-variant-numeric:oldstyle-nums proportional-nums;paint-order:fill markers stroke;stroke-width:.86768;white-space:pre"/>
 </g>
</svg>
