<?xml version="1.0" encoding="UTF-8" standalone="no"?>
<!-- Created with Inkscape (http://www.inkscape.org/) -->

<svg
   width="132.985mm"
   height="9.1219997mm"
   viewBox="0 0 132.98499 9.1219998"
   version="1.1"
   id="svg5146"
   inkscape:version="1.2.2 (b0a84865, 2022-12-01)"
   sodipodi:docname="sferal.svg"
   xmlns:inkscape="http://www.inkscape.org/namespaces/inkscape"
   xmlns:sodipodi="http://sodipodi.sourceforge.net/DTD/sodipodi-0.dtd"
   xmlns="http://www.w3.org/2000/svg"
   xmlns:svg="http://www.w3.org/2000/svg"
   xmlns:rdf="http://www.w3.org/1999/02/22-rdf-syntax-ns#"
   xmlns:cc="http://creativecommons.org/ns#"
   xmlns:dc="http://purl.org/dc/elements/1.1/">
  <title
     id="title10107">S. Feral</title>
  <defs
     id="defs5140">
    <rect
       x="121.82384"
       y="273.48209"
       width="585.50031"
       height="144.19965"
       id="rect633" />
    <rect
       x="121.82384"
       y="273.48209"
       width="585.50031"
       height="144.19965"
       id="rect633-8" />
    <rect
       x="121.82384"
       y="273.48209"
       width="585.50031"
       height="144.19965"
       id="rect633-2" />
  </defs>
  <sodipodi:namedview
     id="base"
     pagecolor="#ffffff"
     bordercolor="#666666"
     borderopacity="1.0"
     inkscape:pageopacity="0.0"
     inkscape:pageshadow="2"
     inkscape:zoom="1.4"
     inkscape:cx="178.21428"
     inkscape:cy="138.92857"
     inkscape:document-units="mm"
     inkscape:current-layer="layer1"
     showgrid="false"
     inkscape:window-width="1920"
     inkscape:window-height="1027"
     inkscape:window-x="0"
     inkscape:window-y="25"
     inkscape:window-maximized="0"
     inkscape:showpageshadow="2"
     inkscape:pagecheckerboard="0"
     inkscape:deskcolor="#d1d1d1" />
  <metadata
     id="metadata5143">
    <rdf:RDF>
      <cc:Work
         rdf:about="">
        <dc:format>image/svg+xml</dc:format>
        <dc:type
           rdf:resource="http://purl.org/dc/dcmitype/StillImage" />
        <dc:title>S. Feral</dc:title>
      </cc:Work>
    </rdf:RDF>
  </metadata>
  <g
     inkscape:label="Layer 1"
     inkscape:groupmode="layer"
     id="layer1"
     transform="translate(0,-287.81)">
    <path
       d="m -6.9e-5,294.42185 c 0.0245,0.75912 0.03673,1.39581 0.03673,1.89781 0.942779,0.45302 1.775367,0.61219 2.901805,0.61219 1.040731,0 1.885561,-0.25712 2.5100011,-0.75912 0.62444,-0.502 0.967268,-1.17541 0.967268,-1.91005 0,-0.62444 -0.1959011,-1.16317 -0.5877081,-1.54273 -0.244879,-0.24488 -0.6366819,-0.47751 -1.06522,-0.62444 l -2.203902,-0.75912 c -1.040731,-0.35507 -1.285611,-0.59995 -1.285611,-1.15093 0,-0.84483 0.820341,-1.34683 2.203905,-1.34683 1.322339,0 1.9957571,0.33059 2.1794121,1.10195 h 0.24488 c -0.03673,-0.57546 -0.03673,-1.17541 -0.03673,-1.72639 -1.077463,-0.33058 -1.616197,-0.40405 -2.47327,-0.40405 -2.14268,0 -3.367071,0.93054 -3.367071,2.51 0,1.04074 0.636683,1.78761 1.897805,2.22839 l 2.093706,0.72239 c 0.832587,0.29386 1.1264411,0.59996 1.1264411,1.13869 0,0.93053 -0.8693191,1.53048 -2.2896111,1.53048 -0.881562,0 -1.652928,-0.23262 -2.093709,-0.61219 -0.281608,-0.23262 -0.416292,-0.47751 -0.514241,-0.90605 z"
       style="font-weight:500;font-size:37.3333px;line-height:1.2;font-family:Inter;-inkscape-font-specification:'Inter Medium';font-variant-numeric:oldstyle-nums proportional-nums;letter-spacing:12.1012px;word-spacing:0px;white-space:pre;stroke-width:0.867679;paint-order:fill markers stroke"
       id="path1102" />
    <path
       d="m 11.878606,295.24219 c -0.453027,0 -0.808098,0.34283 -0.808098,0.79586 0,0.44078 0.355071,0.78361 0.808098,0.78361 0.453024,0 0.78361,-0.34283 0.78361,-0.78361 0,-0.45303 -0.330586,-0.79586 -0.78361,-0.79586 z"
       style="font-weight:normal;font-size:37.3333px;line-height:1.2;font-family:'President Std';-inkscape-font-specification:'President Std';font-variant-numeric:oldstyle-nums proportional-nums;letter-spacing:32.27px;word-spacing:0px;white-space:pre;stroke-width:0.867679;paint-order:fill markers stroke"
       id="path1104" />
    <path
       d="m 41.664376,296.74819 c 0.526491,-0.0612 1.420295,-0.11018 2.044732,-0.11018 0.68566,0 1.518244,0.049 2.203904,0.11018 v -0.25711 c -0.734634,-0.0857 -1.187658,-0.33059 -1.285611,-0.63669 -0.159169,-0.48975 -0.183658,-0.67342 -0.22039,-3.15892 0.68566,-0.0367 1.897805,-0.0612 2.265122,-0.0612 1.395806,0 1.591708,0.17142 1.652929,1.11419 h 0.257122 c -0.03673,-0.52649 -0.03673,-0.90604 -0.03673,-1.28561 v -0.502 c 0,-0.34283 0,-0.66117 0.03673,-1.13869 h -0.257122 c -0.08571,0.40405 -0.110196,0.58771 -0.24488,0.72239 -0.195901,0.19592 -0.624436,0.22039 -1.444781,0.22039 -0.391803,0 -1.54273,-0.0245 -2.22839,-0.0612 0,-0.82034 0.0245,-1.95902 0.06122,-2.63244 0.991757,-0.049 1.910047,-0.0612 2.265122,-0.0612 1.84883,0 2.118195,0.0979 2.179415,1.01624 h 0.257123 c -0.03673,-0.37956 -0.04898,-0.66117 -0.04898,-0.91829 v -0.0979 c 0,-0.28161 -0.01223,-0.59996 0.0245,-0.93054 -3.660929,0 -4.971026,0.0857 -5.387318,0.0857 -0.44078,0 -1.297853,-0.049 -2.06922,-0.0857 v 0.25712 c 0.783609,0.0857 1.077463,0.18365 1.236633,0.57546 0.159173,0.39181 0.208148,1.93454 0.208148,3.50176 v 0.33059 c 0,1.23662 -0.06122,2.75488 -0.183659,3.07321 -0.208148,0.48976 -0.648925,0.5877 -1.285611,0.67341 z"
       style="font-weight:normal;font-size:37.3333px;line-height:1.2;font-family:'President Std';-inkscape-font-specification:'President Std';font-variant-numeric:oldstyle-nums proportional-nums;letter-spacing:32.27px;word-spacing:0px;white-space:pre;stroke-width:0.867679;paint-order:fill markers stroke"
       id="path1106" />
    <path
       d="m 62.060897,296.74819 c 0.648928,-0.0612 1.359074,-0.11018 2.571222,-0.11018 1.910045,0 4.113955,0.049 5.252635,0.11018 0,-0.4775 0.0122,-1.23662 0.049,-1.92228 h -0.25712 c -0.0367,0.28161 -0.0612,0.52649 -0.20815,0.67342 -0.25712,0.2816 -1.01624,0.34283 -2.09371,0.34283 -0.88156,0 -1.603955,-0.0367 -2.534491,-0.17142 -0.03673,-0.91829 -0.06122,-2.32634 -0.06122,-2.97527 0.722388,-0.0367 1.922291,-0.049 2.375321,-0.049 1.02849,0 1.51825,0.0122 1.71415,0.20814 0.13468,0.13469 0.15917,0.33059 0.24488,0.72239 h 0.25712 c -0.0367,-0.52649 -0.0612,-1.16317 -0.0612,-1.34683 0,-0.15917 0.0245,-0.95502 0.0612,-1.34683 h -0.25712 c -0.13468,0.84483 -0.20815,0.88156 -1.97127,0.88156 -0.51425,0 -1.591718,-0.0245 -2.363081,-0.0612 0,-0.5877 0.0245,-1.68965 0.06122,-2.66917 0.391806,-0.0612 0.795856,-0.0857 1.432541,-0.0857 2.82834,0 3.08547,0.0735 3.18342,0.99175 h 0.25712 c -0.049,-0.34283 -0.0612,-0.61219 -0.0612,-0.91829 v -0.18366 c 0,-0.11019 0.0245,-0.55097 0.0245,-0.75912 -1.05298,0.049 -4.71391,0.0857 -5.473034,0.0857 -0.477512,0 -1.493755,-0.0857 -2.118195,-0.0857 v 0.25712 c 0.746878,0.0612 1.150927,0.20815 1.285611,0.84483 0.09795,0.45302 0.134681,2.33859 0.134681,3.3181 v 0.15917 c 0,1.08971 -0.06122,2.32634 -0.09795,2.69366 -0.134684,0.79585 -0.3061,0.96727 -1.346832,1.13868 z"
       style="font-weight:normal;font-size:37.3333px;line-height:1.2;font-family:'President Std';-inkscape-font-specification:'President Std';font-variant-numeric:oldstyle-nums proportional-nums;letter-spacing:32.27px;word-spacing:0px;white-space:pre;stroke-width:0.867679;paint-order:fill markers stroke"
       id="path1108" />
    <path
       d="m 85.763354,291.70371 c 0,-0.52648 0.0122,-1.95903 0.049,-2.63244 0.83258,-0.0612 1.40805,-0.0979 2.03249,-0.0979 0.52648,0 0.90605,0.0245 1.21214,0.12243 0.67342,0.23264 0.88157,0.67342 0.88157,1.15093 0,1.004 -1.23664,1.51824 -2.51001,1.51824 -0.24487,0 -0.68566,0 -1.66517,-0.0612 z m -2.8161,5.04448 c 0.68567,-0.0612 1.53049,-0.11018 2.16718,-0.11018 0.68565,0 1.45702,0.0245 2.03248,0.11018 v -0.25711 c -0.53873,-0.11019 -1.05297,-0.23263 -1.1999,-0.7224 -0.15917,-0.52649 -0.18366,-1.7019 -0.18366,-2.74263 v -0.33058 c 0.97951,-0.049 1.62844,-0.049 1.88556,-0.049 1.01625,0 1.32235,0.15917 1.57947,0.97951 l 0.74688,2.32634 c 0.1959,0.59995 0.502,0.79585 1.22439,0.79585 h 1.12644 v -0.25712 c -0.57547,-0.0122 -0.75912,-0.15917 -0.94278,-0.64892 l -0.94279,-2.52225 c -0.24487,-0.68566 -0.5877,-1.06522 -1.22439,-1.21215 1.43254,-0.28161 2.04474,-0.97951 2.04474,-1.94678 0,-0.74688 -0.42854,-1.54273 -1.35908,-1.87331 -0.46527,-0.15917 -0.88156,-0.20815 -1.84883,-0.20815 -0.96726,0 -2.41204,0.0857 -3.012,0.0857 -0.31834,0 -1.29785,-0.049 -1.94678,-0.0857 v 0.25712 c 0.74688,0.0857 1.01624,0.1959 1.17542,0.58771 0.15917,0.37956 0.20814,2.33858 0.20814,3.29361 v 0.20815 c 0,1.48151 -0.049,3.06097 -0.18366,3.39156 -0.1959,0.42853 -0.55097,0.61219 -1.34683,0.67341 z"
       style="font-weight:normal;font-size:37.3333px;line-height:1.2;font-family:'President Std';-inkscape-font-specification:'President Std';font-variant-numeric:oldstyle-nums proportional-nums;letter-spacing:32.27px;word-spacing:0px;white-space:pre;stroke-width:0.867679;paint-order:fill markers stroke"
       id="path1110" />
    <path
       d="m 107.63559,293.55253 c -0.52649,0 -0.96727,-0.0122 -1.39581,-0.0612 l 1.97127,-3.66091 2.02025,3.66091 c -0.34283,0.049 -0.73464,0.0612 -1.37132,0.0612 z m -4.90981,3.19566 c 0.69791,-0.0612 1.33459,-0.11019 1.64068,-0.11019 0.23264,0 0.99176,0.049 1.64069,0.11019 v -0.25712 c -0.62444,-0.0122 -0.8938,-0.17141 -0.8938,-0.51424 0,-0.20815 0.20814,-0.72239 0.61219,-1.55498 0.63668,-0.0367 1.6162,-0.049 2.49775,-0.049 0.93054,0 1.8121,0.0122 2.51001,0.049 0.31834,0.64893 0.67341,1.4203 0.67341,1.62844 0,0.30611 -0.24488,0.40405 -0.97951,0.44079 v 0.25711 c 0.59995,-0.0612 1.49375,-0.11018 1.84883,-0.11018 0.31834,0 1.3101,0.0735 1.86107,0.11018 v -0.25711 c -0.33058,-0.0612 -0.75912,-0.28161 -1.21215,-0.85708 -0.23263,-0.28161 -0.45302,-0.6979 -0.63668,-1.04073 l -3.61195,-6.57497 h -0.51424 l -2.80386,5.15467 c -1.45702,2.69367 -1.88556,3.18343 -2.63244,3.31811 z"
       style="font-weight:normal;font-size:37.3333px;line-height:1.2;font-family:'President Std';-inkscape-font-specification:'President Std';font-variant-numeric:oldstyle-nums proportional-nums;letter-spacing:32.27px;word-spacing:0px;white-space:pre;stroke-width:0.867679;paint-order:fill markers stroke"
       id="path1112" />
    <path
       d="m 125.13673,296.74819 c 0.73463,-0.0857 1.55497,-0.11018 2.54673,-0.11018 h 1.23663 c 1.15093,0 1.84883,0.0122 3.95479,0.11018 0.0367,-0.74687 0.0612,-1.40805 0.11019,-2.04473 h -0.25712 c -0.0979,0.97951 -0.34283,1.08972 -2.33859,1.08972 -0.52649,0 -1.3958,-0.0367 -2.38756,-0.12244 -0.0367,-0.97951 -0.0612,-1.61619 -0.0612,-2.21616 v -0.36732 c 0,-1.01623 0.0245,-3.35482 0.0857,-3.78336 0.0367,-0.28161 0.0979,-0.47751 0.18366,-0.58771 0.15917,-0.20814 0.52649,-0.29385 1.004,-0.37956 v -0.25712 c -0.75913,0.0367 -1.73864,0.0857 -1.95903,0.0857 -0.1959,0 -1.29785,-0.049 -1.94678,-0.0857 v 0.25712 c 0.73464,0.0979 0.99176,0.23264 1.15093,0.58771 0.15917,0.37956 0.20815,2.04473 0.20815,3.15892 v 0.33059 c 0,1.4203 -0.0367,3.04874 -0.19591,3.40381 -0.18365,0.42853 -0.53873,0.61219 -1.33458,0.67341 z"
       style="font-weight:normal;font-size:37.3333px;line-height:1.2;font-family:'President Std';-inkscape-font-specification:'President Std';font-variant-numeric:oldstyle-nums proportional-nums;letter-spacing:32.27px;word-spacing:0px;white-space:pre;stroke-width:0.867679;paint-order:fill markers stroke"
       id="path1114" />
  </g>
</svg>
