<?xml version="1.0" encoding="UTF-8" standalone="no"?>
<!-- Created with Inkscape (http://www.inkscape.org/) -->

<svg
   xmlns:dc="http://purl.org/dc/elements/1.1/"
   xmlns:cc="http://creativecommons.org/ns#"
   xmlns:rdf="http://www.w3.org/1999/02/22-rdf-syntax-ns#"
   xmlns:svg="http://www.w3.org/2000/svg"
   xmlns="http://www.w3.org/2000/svg"
   xmlns:sodipodi="http://sodipodi.sourceforge.net/DTD/sodipodi-0.dtd"
   xmlns:inkscape="http://www.inkscape.org/namespaces/inkscape"
   width="210mm"
   height="297mm"
   viewBox="0 0 210 297"
   version="1.1"
   id="svg4793"
   inkscape:version="0.92.5 (2060ec1f9f, 2020-04-08)"
   sodipodi:docname="template.svg">
  <defs
     id="defs4787" />
  <sodipodi:namedview
     id="base"
     pagecolor="#ffffff"
     bordercolor="#666666"
     borderopacity="1.0"
     inkscape:pageopacity="0.0"
     inkscape:pageshadow="2"
     inkscape:zoom="0.35"
     inkscape:cx="4.842207"
     inkscape:cy="-179.71596"
     inkscape:document-units="mm"
     inkscape:current-layer="layer1"
     showgrid="false"
     inkscape:window-width="2558"
     inkscape:window-height="1410"
     inkscape:window-x="0"
     inkscape:window-y="0"
     inkscape:window-maximized="0" />
  <metadata
     id="metadata4790">
    <rdf:RDF>
      <cc:Work
         rdf:about="">
        <dc:format>image/svg+xml</dc:format>
        <dc:type
           rdf:resource="http://purl.org/dc/dcmitype/StillImage" />
        <dc:title></dc:title>
      </cc:Work>
    </rdf:RDF>
  </metadata>
  <g
     inkscape:label="Layer 1"
     inkscape:groupmode="layer"
     id="layer1">
    <g
       id="g9309"
       transform="translate(-7.8844511,-43.164029)">
      <path
         d="m 62.889924,140.02271 c 0.0212,0.65616 0.0318,1.2065 0.0318,1.64041 0.81492,0.39159 1.53458,0.52917 2.50825,0.52917 0.89958,0 1.62983,-0.22225 2.16958,-0.65617 0.53975,-0.43391 0.83608,-1.016 0.83608,-1.651 0,-0.53975 -0.16933,-1.00541 -0.508,-1.3335 -0.21166,-0.21166 -0.55033,-0.41275 -0.92075,-0.53975 l -1.90499,-0.65616 c -0.89959,-0.30692 -1.11125,-0.51859 -1.11125,-0.99484 0,-0.73025 0.70908,-1.16416 1.90499,-1.16416 1.143,0 1.72509,0.28575 1.88384,0.9525 h 0.21166 c -0.0317,-0.49742 -0.0317,-1.016 -0.0317,-1.49225 -0.93133,-0.28575 -1.397,-0.34925 -2.13783,-0.34925 -1.85208,0 -2.91041,0.80433 -2.91041,2.16958 0,0.89958 0.55033,1.54517 1.64041,1.92617 l 1.80975,0.62441 c 0.71967,0.254 0.97367,0.51859 0.97367,0.98425 0,0.80434 -0.75142,1.32292 -1.97908,1.32292 -0.762,0 -1.42875,-0.20108 -1.80975,-0.52917 -0.24342,-0.20108 -0.35984,-0.41275 -0.4445,-0.78316 z"
         style="font-style:normal;font-variant:normal;font-weight:normal;font-stretch:normal;font-size:40px;line-height:1.25;font-family:'President Std';-inkscape-font-specification:'President Std';letter-spacing:10px;word-spacing:0.00001px;fill:#241f1c;fill-opacity:1;stroke:none;stroke-width:0.26458332"
         id="path4829"
         inkscape:connector-curvature="0" />
      <path
         d="m 73.683604,142.03354 c 0.56091,-0.0529 1.3335,-0.0952 1.97908,-0.0952 0.58208,0 1.15358,0.0423 1.82033,0.0952 v -0.22225 c -1.12183,-0.0847 -1.30175,-0.33867 -1.30175,-1.76742 v -4.699 c 1.7145,0 2.14842,0.0212 2.43417,0.13759 0.20108,0.0847 0.30692,0.37041 0.35983,0.71966 h 0.22225 c -0.0317,-0.55033 -0.0317,-1.16416 -0.0317,-1.66158 -1.32291,0.0529 -2.70933,0.0741 -3.57716,0.0741 -0.93134,0 -2.0955,-0.0212 -3.58775,-0.0741 0,0.45508 0,1.11125 -0.0317,1.66158 h 0.22225 c 0.0317,-0.34925 0.0847,-0.60325 0.37041,-0.71966 0.32809,-0.127 1.06892,-0.13759 2.42359,-0.13759 v 4.699 c 0,1.42875 -0.17992,1.68275 -1.30175,1.76742 z"
         style="font-style:normal;font-variant:normal;font-weight:normal;font-stretch:normal;font-size:40px;line-height:1.25;font-family:'President Std';-inkscape-font-specification:'President Std';letter-spacing:10px;word-spacing:0.00001px;fill:#241f1c;fill-opacity:1;stroke:none;stroke-width:0.26458332"
         id="path4831"
         inkscape:connector-curvature="0" />
      <path
         d="m 91.204944,142.03354 c 0.45508,-0.0529 1.22767,-0.0952 1.76742,-0.0952 0.59266,0 1.31233,0.0423 1.905,0.0952 v -0.22225 c -0.635,-0.0741 -1.02659,-0.28575 -1.11125,-0.55033 -0.13759,-0.42334 -0.15875,-0.58209 -0.1905,-2.7305 0.59266,-0.0318 1.64041,-0.0529 1.95791,-0.0529 1.2065,0 1.37584,0.14817 1.42875,0.96308 h 0.22225 c -0.0318,-0.45508 -0.0318,-0.78316 -0.0318,-1.11125 v -0.43391 c 0,-0.29634 0,-0.5715 0.0318,-0.98425 h -0.22225 c -0.0741,0.34925 -0.0952,0.508 -0.21166,0.62441 -0.16934,0.16934 -0.53975,0.1905 -1.24884,0.1905 -0.33866,0 -1.3335,-0.0212 -1.92616,-0.0529 0,-0.70909 0.0212,-1.69334 0.0529,-2.27542 0.85725,-0.0423 1.651,-0.0529 1.95791,-0.0529 1.59809,0 1.83092,0.0847 1.88384,0.87842 h 0.22225 c -0.0318,-0.32808 -0.0423,-0.5715 -0.0423,-0.79375 v -0.0847 c 0,-0.24341 -0.0106,-0.51858 0.0212,-0.80433 -3.16442,0 -4.29684,0.0741 -4.65667,0.0741 -0.381,0 -1.12184,-0.0423 -1.78859,-0.0741 v 0.22225 c 0.67734,0.0741 0.93134,0.15875 1.06892,0.49742 0.13758,0.33866 0.17992,1.67216 0.17992,3.02683 v 0.28575 c 0,1.06892 -0.0529,2.38125 -0.15875,2.65642 -0.17992,0.42333 -0.56092,0.508 -1.11125,0.58208 z"
         style="font-style:normal;font-variant:normal;font-weight:normal;font-stretch:normal;font-size:40px;line-height:1.25;font-family:'President Std';-inkscape-font-specification:'President Std';letter-spacing:10px;word-spacing:0.00001px;fill:#241f1c;fill-opacity:1;stroke:none;stroke-width:0.26458332"
         id="path4835"
         inkscape:connector-curvature="0" />
      <path
         d="m 101.43737,142.03354 c 0.56092,-0.0529 1.17475,-0.0952 2.2225,-0.0952 1.651,0 3.556,0.0423 4.54025,0.0952 0,-0.41275 0.0106,-1.06892 0.0423,-1.66158 h -0.22225 c -0.0318,0.24341 -0.0529,0.45508 -0.1799,0.58208 -0.22225,0.24342 -0.87843,0.29633 -1.80976,0.29633 -0.762,0 -1.38642,-0.0318 -2.19075,-0.14816 -0.0318,-0.79375 -0.0529,-2.01084 -0.0529,-2.57175 0.62442,-0.0318 1.66158,-0.0423 2.05317,-0.0423 0.88901,0 1.31234,0.0106 1.48166,0.17992 0.11643,0.11642 0.1376,0.28575 0.21168,0.62442 h 0.22225 c -0.0318,-0.45509 -0.0529,-1.00542 -0.0529,-1.16417 0,-0.13758 0.0212,-0.8255 0.0529,-1.16417 h -0.22225 c -0.11643,0.73025 -0.17993,0.762 -1.70393,0.762 -0.4445,0 -1.37583,-0.0212 -2.04258,-0.0529 0,-0.508 0.0212,-1.4605 0.0529,-2.30717 0.33866,-0.0529 0.68791,-0.0741 1.23825,-0.0741 2.44476,0 2.66701,0.0635 2.75166,0.85725 h 0.22225 c -0.0423,-0.29634 -0.0529,-0.52917 -0.0529,-0.79375 v -0.15875 c 0,-0.0952 0.0212,-0.47625 0.0212,-0.65617 -0.91015,0.0423 -4.07458,0.0741 -4.73075,0.0741 -0.41275,0 -1.29116,-0.0741 -1.83091,-0.0741 v 0.22225 c 0.64558,0.0529 0.99483,0.17992 1.11125,0.73025 0.0847,0.39158 0.11641,2.02142 0.11641,2.86808 v 0.13759 c 0,0.94191 -0.0529,2.01083 -0.0847,2.32833 -0.11641,0.68792 -0.26458,0.83608 -1.16416,0.98425 z"
         style="font-style:normal;font-variant:normal;font-weight:normal;font-stretch:normal;font-size:40px;line-height:1.25;font-family:'President Std';-inkscape-font-specification:'President Std';letter-spacing:10px;word-spacing:0.00001px;fill:#241f1c;fill-opacity:1;stroke:none;stroke-width:0.26458332"
         id="path4837"
         inkscape:connector-curvature="0" />
      <path
         d="m 114.71153,137.67321 c 0,-0.45509 0.0106,-1.69334 0.0423,-2.27542 0.71967,-0.0529 1.21707,-0.0847 1.75682,-0.0847 0.4551,0 0.78318,0.0212 1.04775,0.10584 0.5821,0.20108 0.762,0.58208 0.762,0.99483 0,0.86783 -1.0689,1.31233 -2.16957,1.31233 -0.21168,0 -0.59268,0 -1.43933,-0.0529 z m -2.43418,4.36033 c 0.59267,-0.0529 1.32292,-0.0952 1.87325,-0.0952 0.59268,0 1.25943,0.0212 1.75684,0.0952 v -0.22225 c -0.46566,-0.0952 -0.91016,-0.20108 -1.03716,-0.62442 -0.13759,-0.45508 -0.15875,-1.47108 -0.15875,-2.37066 v -0.28575 c 0.84666,-0.0423 1.40757,-0.0423 1.62982,-0.0423 0.87843,0 1.143,0.13759 1.36525,0.84667 l 0.64559,2.01083 c 0.16934,0.51859 0.43391,0.68792 1.05834,0.68792 h 0.97366 v -0.22225 c -0.49741,-0.0106 -0.65616,-0.13758 -0.81491,-0.56092 l -0.81493,-2.18016 c -0.21166,-0.59267 -0.508,-0.92075 -1.05832,-1.04775 1.23825,-0.24342 1.76741,-0.84667 1.76741,-1.68275 0,-0.64559 -0.37041,-1.3335 -1.17475,-1.61925 -0.40216,-0.13759 -0.762,-0.17992 -1.59809,-0.17992 -0.83607,0 -2.08491,0.0741 -2.6035,0.0741 -0.27516,0 -1.12183,-0.0423 -1.68275,-0.0741 v 0.22225 c 0.64559,0.0741 0.87842,0.16933 1.016,0.508 0.13759,0.32808 0.17992,2.02142 0.17992,2.84692 v 0.17991 c 0,1.28059 -0.0423,2.64584 -0.15875,2.93159 -0.16933,0.37041 -0.47625,0.52916 -1.16417,0.58208 z"
         style="font-style:normal;font-variant:normal;font-weight:normal;font-stretch:normal;font-size:40px;line-height:1.25;font-family:'President Std';-inkscape-font-specification:'President Std';letter-spacing:10px;word-spacing:0.00001px;fill:#241f1c;fill-opacity:1;stroke:none;stroke-width:0.26458332"
         id="path4839"
         inkscape:connector-curvature="0" />
      <path
         d="m 127.32354,139.27129 c -0.45507,0 -0.83607,-0.0106 -1.2065,-0.0529 l 1.70393,-3.16441 1.74625,3.16441 c -0.29633,0.0423 -0.635,0.0529 -1.18533,0.0529 z m -4.2439,2.76225 c 0.60325,-0.0529 1.15358,-0.0952 1.41815,-0.0952 0.2011,0 0.85725,0.0423 1.41818,0.0952 v -0.22225 c -0.53975,-0.0106 -0.77258,-0.14817 -0.77258,-0.4445 0,-0.17992 0.1799,-0.62442 0.52915,-1.34408 0.55035,-0.0317 1.397,-0.0423 2.159,-0.0423 0.80435,0 1.56635,0.0106 2.1696,0.0423 0.27515,0.56091 0.58208,1.22766 0.58208,1.40758 0,0.26458 -0.21168,0.34925 -0.84668,0.381 v 0.22225 c 0.5186,-0.0529 1.29118,-0.0952 1.5981,-0.0952 0.27515,0 1.1324,0.0635 1.60865,0.0952 v -0.22225 c -0.28575,-0.0529 -0.65616,-0.24342 -1.04775,-0.74083 -0.20107,-0.24342 -0.39157,-0.60325 -0.55032,-0.89959 l -3.12208,-5.68325 h -0.4445 l -2.4236,4.45559 c -1.2594,2.32833 -1.62982,2.75166 -2.2754,2.86808 z"
         style="font-style:normal;font-variant:normal;font-weight:normal;font-stretch:normal;font-size:40px;line-height:1.25;font-family:'President Std';-inkscape-font-specification:'President Std';letter-spacing:10px;word-spacing:0.00001px;fill:#241f1c;fill-opacity:1;stroke:none;stroke-width:0.26458332"
         id="path4841"
         inkscape:connector-curvature="0" />
      <path
         d="m 135.94516,142.03354 c 0.635,-0.0741 1.34407,-0.0952 2.20132,-0.0952 h 1.06893 c 0.99482,0 1.59807,0.0106 3.41842,0.0952 0.0318,-0.64558 0.0529,-1.21708 0.0953,-1.76742 h -0.22225 c -0.0847,0.84667 -0.29635,0.94192 -2.02143,0.94192 -0.45507,0 -1.2065,-0.0317 -2.06375,-0.10583 -0.0317,-0.84667 -0.0529,-1.397 -0.0529,-1.91559 v -0.3175 c 0,-0.87841 0.0212,-2.89983 0.0741,-3.27025 0.0317,-0.24341 0.0847,-0.41275 0.15875,-0.508 0.13758,-0.17991 0.45508,-0.254 0.86783,-0.32808 v -0.22225 c -0.65617,0.0317 -1.50283,0.0741 -1.69333,0.0741 -0.16934,0 -1.12184,-0.0423 -1.68275,-0.0741 v 0.22225 c 0.635,0.0847 0.85725,0.20108 0.99483,0.508 0.13758,0.32808 0.17992,1.76742 0.17992,2.7305 v 0.28575 c 0,1.22767 -0.0317,2.63525 -0.16934,2.94217 -0.15875,0.37041 -0.46566,0.52916 -1.15358,0.58208 z"
         style="font-style:normal;font-variant:normal;font-weight:normal;font-stretch:normal;font-size:40px;line-height:1.25;font-family:'President Std';-inkscape-font-specification:'President Std';letter-spacing:10px;word-spacing:0.00001px;fill:#241f1c;fill-opacity:1;stroke:none;stroke-width:0.26458332"
         id="path4843"
         inkscape:connector-curvature="0" />
      <g
         id="flowRoot4854"
         style="font-style:normal;font-weight:normal;font-size:40px;line-height:1.25;font-family:sans-serif;letter-spacing:0px;word-spacing:0px;fill:#241f1c;fill-opacity:1;stroke:none"
         transform="matrix(0.30325081,0,0,0.30325081,58.519844,-74.7617)"
         aria-label="-">
        <path
           id="path9469"
           inkscape:connector-curvature="0"
           style="font-style:normal;font-variant:normal;font-weight:normal;font-stretch:normal;font-family:'EB Garamond';-inkscape-font-specification:'EB Garamond';fill:#241f1c;fill-opacity:1"
           d="m 82.716406,705.0991 q -0.24,0 -0.24,-0.24 0,-0.72 0.16,-1.4 0.2,-0.72 0.48,-0.76 5.12,-0.72 7.68,-1 0.32,0 0.32,0.24 0,0.88 -0.2,1.52 -0.2,0.6 -0.64,0.64 l -1.04,0.16 q -4.12,0.64 -6.52,0.84 z" />
      </g>
    </g>
    <flowRoot
       xml:space="preserve"
       id="flowRoot9292"
       style="font-style:normal;font-weight:normal;font-size:40px;line-height:1.25;font-family:sans-serif;letter-spacing:0px;word-spacing:0px;fill:#000000;fill-opacity:1;stroke:none"
       transform="matrix(0.26458333,0,0,0.26458333,4.4747742,-22.12898)"><flowRegion
         id="flowRegion9294"
         style="fill:#000000"><rect
           id="rect9296"
           width="414.66763"
           height="61.871849"
           x="212.38457"
           y="594.2099"
           style="fill:#000000" /></flowRegion><flowPara
         id="flowPara9298"
         style="font-style:normal;font-variant:normal;font-weight:normal;font-stretch:normal;font-family:'President Std';-inkscape-font-specification:'President Std';letter-spacing:10px;word-spacing:0.0000001px;fill:#000000">ST FERAL</flowPara></flowRoot>    <flowRoot
       xml:space="preserve"
       id="flowRoot9292-6"
       style="font-style:normal;font-weight:normal;font-size:40px;line-height:1.25;font-family:sans-serif;letter-spacing:0px;word-spacing:0px;fill:#000000;fill-opacity:1;stroke:none"
       transform="matrix(0.26458333,0,0,0.26458333,4.4747754,4.464337)"><flowRegion
         id="flowRegion9294-8"
         style="fill:#000000"><rect
           id="rect9296-0"
           width="414.66763"
           height="61.871849"
           x="212.38457"
           y="594.2099"
           style="fill:#000000" /></flowRegion><flowPara
         id="flowPara9298-2"
         style="font-style:normal;font-variant:normal;font-weight:normal;font-stretch:normal;font-family:'President Std';-inkscape-font-specification:'President Std';letter-spacing:10px;word-spacing:0.0000001px;fill:#000000"><flowSpan
   style="word-spacing:4px"
   id="flowSpan9383">SA </flowSpan>FERAL</flowPara></flowRoot>    <flowRoot
       xml:space="preserve"
       id="flowRoot9292-1"
       style="font-style:normal;font-weight:normal;font-size:40px;line-height:1.25;font-family:sans-serif;letter-spacing:0px;word-spacing:0px;fill:#000000;fill-opacity:1;stroke:none"
       transform="matrix(0.26458333,0,0,0.26458333,24.437656,-24.927199)"><flowRegion
         id="flowRegion9294-0"
         style="fill:#000000"><rect
           id="rect9296-5"
           width="414.66763"
           height="61.871849"
           x="212.38457"
           y="594.2099"
           style="fill:#000000" /></flowRegion><flowPara
         id="flowPara9298-1"
         style="font-style:normal;font-variant:normal;font-weight:normal;font-stretch:normal;font-family:'President Std';-inkscape-font-specification:'President Std';letter-spacing:10px;word-spacing:0.0000001px;fill:#000000">.</flowPara></flowRoot>    <flowRoot
       xml:space="preserve"
       id="flowRoot9292-1-1"
       style="font-style:normal;font-weight:normal;font-size:40px;line-height:1.25;font-family:sans-serif;letter-spacing:0px;word-spacing:0px;fill:#000000;fill-opacity:1;stroke:none"
       transform="matrix(0.26458333,0,0,0.26458333,27.08904,1.2918206)"><flowRegion
         id="flowRegion9294-0-0"
         style="fill:#000000"><rect
           id="rect9296-5-8"
           width="414.66763"
           height="61.871849"
           x="212.38457"
           y="594.2099"
           style="fill:#000000" /></flowRegion><flowPara
         id="flowPara9298-1-5"
         style="font-style:normal;font-variant:normal;font-weight:normal;font-stretch:normal;font-family:'President Std';-inkscape-font-specification:'President Std';letter-spacing:10px;word-spacing:0.0000001px;fill:#000000">.</flowPara></flowRoot>    <flowRoot
       xml:space="preserve"
       id="flowRoot9292-0"
       style="font-style:normal;font-weight:normal;font-size:40px;line-height:1.25;font-family:sans-serif;letter-spacing:0px;word-spacing:0px;fill:#000000;fill-opacity:1;stroke:none"
       transform="matrix(0.26458333,0,0,0.26458333,-190.96537,-62.093875)"><flowRegion
         id="flowRegion9294-6"
         style="fill:#000000"><rect
           id="rect9296-4"
           width="502.5509"
           height="65.912437"
           x="212.38457"
           y="594.2099"
           style="fill:#000000" /></flowRegion><flowPara
         id="flowPara9298-6"
         style="font-style:normal;font-variant:normal;font-weight:normal;font-stretch:normal;font-family:'President Std';-inkscape-font-specification:'President Std';letter-spacing:10px;word-spacing:0.0000001px;fill:#000000">SAINT FERAL</flowPara></flowRoot>    <flowRoot
       xml:space="preserve"
       id="flowRoot9292-0-2"
       style="font-style:normal;font-weight:normal;font-size:40px;line-height:1.25;font-family:sans-serif;letter-spacing:0px;word-spacing:0px;fill:#000000;fill-opacity:1;stroke:none"
       transform="matrix(0.26458333,0,0,0.26458333,-191.88914,-35.734733)"><flowRegion
         id="flowRegion9294-6-5"
         style="fill:#000000"><rect
           id="rect9296-4-8"
           width="502.5509"
           height="65.912437"
           x="212.38457"
           y="594.2099"
           style="fill:#000000" /></flowRegion><flowPara
         id="flowPara9298-6-6"
         style="font-style:normal;font-variant:normal;font-weight:normal;font-stretch:normal;font-family:'President Std';-inkscape-font-specification:'President Std';letter-spacing:10px;word-spacing:0.0000001px;fill:#000000">SACER FERAL</flowPara></flowRoot>    <flowRoot
       xml:space="preserve"
       id="flowRoot9292-4"
       style="font-style:normal;font-weight:normal;font-size:40px;line-height:1.25;font-family:sans-serif;letter-spacing:0px;word-spacing:0px;fill:#000000;fill-opacity:1;stroke:none"
       transform="matrix(0.26458333,0,0,0.26458333,-183.74909,37.06312)"><flowRegion
         id="flowRegion9294-03"
         style="fill:#000000"><rect
           id="rect9296-9"
           width="414.66763"
           height="61.871849"
           x="212.38457"
           y="594.2099"
           style="fill:#000000" /></flowRegion><flowPara
         id="flowPara9298-19"
         style="font-style:normal;font-variant:normal;font-weight:normal;font-stretch:normal;font-family:'President Std';-inkscape-font-specification:'President Std';letter-spacing:10px;word-spacing:0.0000001px;fill:#000000">SA. FERAL</flowPara></flowRoot>    <flowRoot
       xml:space="preserve"
       id="flowRoot9292-4-8"
       style="font-style:normal;font-weight:normal;font-size:40px;line-height:1.25;font-family:sans-serif;letter-spacing:0px;word-spacing:0px;fill:#000000;fill-opacity:1;stroke:none"
       transform="matrix(0.26458333,0,0,0.26458333,-184.5159,12.474323)"><flowRegion
         id="flowRegion9294-03-0"
         style="fill:#000000"><rect
           id="rect9296-9-5"
           width="414.66763"
           height="61.871849"
           x="212.38457"
           y="594.2099"
           style="fill:#000000" /></flowRegion><flowPara
         id="flowPara9298-19-6"
         style="font-style:normal;font-variant:normal;font-weight:normal;font-stretch:normal;font-family:'President Std';-inkscape-font-specification:'President Std';letter-spacing:10px;word-spacing:0.0000001px;fill:#000000">SA. FERAL</flowPara></flowRoot>    <path
       inkscape:connector-curvature="0"
       id="path9665"
       style="font-style:normal;font-variant:normal;font-weight:normal;font-stretch:normal;font-size:40px;line-height:1.25;font-family:'President Std';-inkscape-font-specification:'President Std';letter-spacing:10px;word-spacing:0.0000001px;fill:#000000;fill-opacity:1;stroke:none;stroke-width:0.26458332"
       d="m 61.329926,218.92593 c 0.02117,0.65617 0.03175,1.2065 0.03175,1.64042 0.814916,0.39158 1.534583,0.52917 2.508249,0.52917 0.899584,0 1.629834,-0.22225 2.169584,-0.65617 0.53975,-0.43392 0.836083,-1.016 0.836083,-1.651 0,-0.53975 -0.169333,-1.00542 -0.508,-1.3335 -0.211667,-0.21167 -0.550333,-0.41275 -0.92075,-0.53975 l -1.905,-0.65617 c -0.899583,-0.30691 -1.11125,-0.51858 -1.11125,-0.99483 0,-0.73025 0.709083,-1.16417 1.905,-1.16417 1.143,0 1.725083,0.28575 1.883833,0.9525 h 0.211667 c -0.03175,-0.49741 -0.03175,-1.016 -0.03175,-1.49225 -0.931333,-0.28575 -1.397,-0.34925 -2.137833,-0.34925 -1.852084,0 -2.910417,0.80434 -2.910417,2.16959 0,0.89958 0.550334,1.54516 1.640417,1.92616 l 1.80975,0.62442 c 0.719666,0.254 0.973666,0.51858 0.973666,0.98425 0,0.80433 -0.751416,1.32292 -1.979083,1.32292 -0.762,0 -1.42875,-0.20109 -1.80975,-0.52917 -0.243416,-0.20108 -0.359833,-0.41275 -0.4445,-0.78317 z" />
    <path
       inkscape:connector-curvature="0"
       id="path9667"
       style="font-style:normal;font-variant:normal;font-weight:normal;font-stretch:normal;font-size:40px;line-height:1.25;font-family:'President Std';-inkscape-font-specification:'President Std';letter-spacing:10px;word-spacing:0.0000001px;fill:#000000;fill-opacity:1;stroke:none;stroke-width:0.26458332"
       d="m 72.124912,220.93677 c 0.560917,-0.0529 1.3335,-0.0952 1.979083,-0.0952 0.582084,0 1.153584,0.0423 1.820334,0.0952 v -0.22225 c -1.121834,-0.0847 -1.30175,-0.33867 -1.30175,-1.76742 v -4.699 c 1.7145,0 2.148416,0.0212 2.434166,0.13758 0.201084,0.0847 0.306917,0.37042 0.359834,0.71967 h 0.22225 c -0.03175,-0.55033 -0.03175,-1.16417 -0.03175,-1.66158 -1.322917,0.0529 -2.709334,0.0741 -3.577167,0.0741 -0.931333,0 -2.0955,-0.0212 -3.58775,-0.0741 0,0.45508 0,1.11125 -0.03175,1.66158 h 0.22225 c 0.03175,-0.34925 0.08467,-0.60325 0.370417,-0.71967 0.328083,-0.127 1.068916,-0.13758 2.423583,-0.13758 v 4.699 c 0,1.42875 -0.179917,1.68275 -1.30175,1.76742 z" />
    <path
       inkscape:connector-curvature="0"
       id="path9669"
       style="font-style:normal;font-variant:normal;font-weight:normal;font-stretch:normal;font-size:40px;line-height:1.25;font-family:'President Std';-inkscape-font-specification:'President Std';letter-spacing:10px;word-spacing:0.0000001px;fill:#000000;fill-opacity:1;stroke:none;stroke-width:0.26458332"
       d="m 87.19555,220.93677 c 0.455083,-0.0529 1.227666,-0.0952 1.767416,-0.0952 0.592667,0 1.312333,0.0423 1.905,0.0952 v -0.22225 c -0.635,-0.0741 -1.026583,-0.28575 -1.11125,-0.55034 -0.137583,-0.42333 -0.15875,-0.58208 -0.1905,-2.7305 0.592667,-0.0318 1.640417,-0.0529 1.957917,-0.0529 1.2065,0 1.375833,0.14816 1.42875,0.96308 h 0.22225 c -0.03175,-0.45508 -0.03175,-0.78317 -0.03175,-1.11125 v -0.43392 c 0,-0.29633 0,-0.5715 0.03175,-0.98425 h -0.22225 c -0.07408,0.34925 -0.09525,0.508 -0.211667,0.62442 -0.169333,0.16933 -0.53975,0.1905 -1.248833,0.1905 -0.338667,0 -1.3335,-0.0212 -1.926167,-0.0529 0,-0.70908 0.02117,-1.69333 0.05292,-2.27541 0.85725,-0.0423 1.651,-0.0529 1.957916,-0.0529 1.598084,0 1.830917,0.0847 1.883834,0.87842 h 0.22225 c -0.03175,-0.32809 -0.04233,-0.5715 -0.04233,-0.79375 v -0.0847 c 0,-0.24342 -0.01058,-0.51858 0.02117,-0.80433 -3.164417,0 -4.296833,0.0741 -4.656667,0.0741 -0.381,0 -1.121833,-0.0423 -1.788583,-0.0741 v 0.22225 c 0.677334,0.0741 0.931334,0.15875 1.068917,0.49741 0.137583,0.33867 0.179917,1.67217 0.179917,3.02684 v 0.28575 c 0,1.06891 -0.05292,2.38125 -0.15875,2.65641 -0.179917,0.42334 -0.560917,0.508 -1.11125,0.58209 z" />
    <path
       inkscape:connector-curvature="0"
       id="path9671"
       style="font-style:normal;font-variant:normal;font-weight:normal;font-stretch:normal;font-size:40px;line-height:1.25;font-family:'President Std';-inkscape-font-specification:'President Std';letter-spacing:10px;word-spacing:0.0000001px;fill:#000000;fill-opacity:1;stroke:none;stroke-width:0.26458332"
       d="m 97.419039,220.93677 c 0.560916,-0.0529 1.17475,-0.0952 2.2225,-0.0952 1.651001,0 3.556001,0.0423 4.540251,0.0952 0,-0.41275 0.0106,-1.06892 0.0423,-1.66159 h -0.22225 c -0.0318,0.24342 -0.0529,0.45509 -0.17991,0.58209 -0.22225,0.24341 -0.87842,0.29633 -1.80975,0.29633 -0.762,0 -1.38642,-0.0318 -2.190755,-0.14817 -0.03175,-0.79375 -0.05292,-2.01083 -0.05292,-2.57175 0.624425,-0.0318 1.661585,-0.0423 2.053175,-0.0423 0.889,0 1.31233,0.0106 1.48166,0.17992 0.11642,0.11641 0.13759,0.28575 0.21167,0.62441 h 0.22225 c -0.0318,-0.45508 -0.0529,-1.00541 -0.0529,-1.16416 0,-0.13759 0.0212,-0.8255 0.0529,-1.16417 h -0.22225 c -0.11642,0.73025 -0.17992,0.762 -1.70392,0.762 -0.4445,0 -1.37583,-0.0212 -2.042585,-0.0529 0,-0.508 0.02117,-1.4605 0.05292,-2.30716 0.338665,-0.0529 0.687915,-0.0741 1.238255,-0.0741 2.44475,0 2.667,0.0635 2.75166,0.85725 h 0.22225 c -0.0423,-0.29633 -0.0529,-0.52916 -0.0529,-0.79375 v -0.15875 c 0,-0.0952 0.0212,-0.47625 0.0212,-0.65616 -0.91016,0.0423 -4.074581,0.0741 -4.730748,0.0741 -0.41275,0 -1.291167,-0.0741 -1.830917,-0.0741 v 0.22225 c 0.645584,0.0529 0.994834,0.17991 1.11125,0.73025 0.08467,0.39158 0.116417,2.02141 0.116417,2.86808 v 0.13758 c 0,0.94192 -0.05292,2.01084 -0.08467,2.32834 -0.116416,0.68791 -0.264583,0.83608 -1.164166,0.98425 z" />
    <path
       inkscape:connector-curvature="0"
       id="path9673"
       style="font-style:normal;font-variant:normal;font-weight:normal;font-stretch:normal;font-size:40px;line-height:1.25;font-family:'President Std';-inkscape-font-specification:'President Std';letter-spacing:10px;word-spacing:0.0000001px;fill:#000000;fill-opacity:1;stroke:none;stroke-width:0.26458332"
       d="m 110.70112,216.57643 c 0,-0.45508 0.0106,-1.69333 0.0423,-2.27541 0.71967,-0.0529 1.21708,-0.0847 1.75683,-0.0847 0.45509,0 0.78317,0.0212 1.04775,0.10583 0.58209,0.20109 0.762,0.58209 0.762,0.99484 0,0.86783 -1.06891,1.31233 -2.16958,1.31233 -0.21167,0 -0.59267,0 -1.43933,-0.0529 z m -2.43417,4.36034 c 0.59267,-0.0529 1.32292,-0.0952 1.87325,-0.0952 0.59267,0 1.25942,0.0212 1.75683,0.0952 v -0.22225 c -0.46566,-0.0952 -0.91016,-0.20109 -1.03716,-0.62442 -0.13759,-0.45508 -0.15875,-1.47108 -0.15875,-2.37067 v -0.28575 c 0.84666,-0.0423 1.40758,-0.0423 1.62983,-0.0423 0.87842,0 1.143,0.13758 1.36525,0.84667 l 0.64558,2.01083 c 0.16934,0.51858 0.43392,0.68792 1.05834,0.68792 h 0.97366 v -0.22225 c -0.49741,-0.0106 -0.65616,-0.13759 -0.81491,-0.56092 l -0.81492,-2.18017 c -0.21167,-0.59266 -0.508,-0.92075 -1.05833,-1.04775 1.23825,-0.24341 1.76741,-0.84666 1.76741,-1.68275 0,-0.64558 -0.37041,-1.3335 -1.17475,-1.61925 -0.40216,-0.13758 -0.762,-0.17991 -1.59808,-0.17991 -0.83608,0 -2.08492,0.0741 -2.6035,0.0741 -0.27517,0 -1.12183,-0.0423 -1.68275,-0.0741 v 0.22225 c 0.64558,0.0741 0.87842,0.16933 1.016,0.508 0.13758,0.32808 0.17992,2.02141 0.17992,2.84691 v 0.17992 c 0,1.28058 -0.0423,2.64583 -0.15875,2.93158 -0.16934,0.37042 -0.47625,0.52917 -1.16417,0.58209 z" />
    <path
       inkscape:connector-curvature="0"
       id="path9675"
       style="font-style:normal;font-variant:normal;font-weight:normal;font-stretch:normal;font-size:40px;line-height:1.25;font-family:'President Std';-inkscape-font-specification:'President Std';letter-spacing:10px;word-spacing:0.0000001px;fill:#000000;fill-opacity:1;stroke:none;stroke-width:0.26458332"
       d="m 123.30583,218.17452 c -0.45508,0 -0.83608,-0.0106 -1.2065,-0.0529 l 1.70392,-3.16442 1.74625,3.16442 c -0.29633,0.0423 -0.635,0.0529 -1.18533,0.0529 z m -4.24391,2.76225 c 0.60325,-0.0529 1.15358,-0.0952 1.41816,-0.0952 0.20109,0 0.85725,0.0423 1.41817,0.0952 v -0.22225 c -0.53975,-0.0106 -0.77258,-0.14817 -0.77258,-0.4445 0,-0.17992 0.17991,-0.62442 0.52916,-1.34409 0.55034,-0.0317 1.397,-0.0423 2.159,-0.0423 0.80434,0 1.56634,0.0106 2.16959,0.0423 0.27516,0.56092 0.58208,1.22767 0.58208,1.40759 0,0.26458 -0.21167,0.34925 -0.84667,0.381 v 0.22225 c 0.51859,-0.0529 1.29117,-0.0952 1.59809,-0.0952 0.27516,0 1.13241,0.0635 1.60866,0.0952 v -0.22225 c -0.28575,-0.0529 -0.65616,-0.24342 -1.04775,-0.74084 -0.20108,-0.24341 -0.39158,-0.60325 -0.55033,-0.89958 l -3.12208,-5.68325 h -0.4445 l -2.42359,4.45558 c -1.25941,2.32834 -1.62983,2.75167 -2.27541,2.86809 z" />
    <path
       inkscape:connector-curvature="0"
       id="path9677"
       style="font-style:normal;font-variant:normal;font-weight:normal;font-stretch:normal;font-size:40px;line-height:1.25;font-family:'President Std';-inkscape-font-specification:'President Std';letter-spacing:10px;word-spacing:0.0000001px;fill:#000000;fill-opacity:1;stroke:none;stroke-width:0.26458332"
       d="m 131.93124,220.93677 c 0.635,-0.0741 1.34409,-0.0952 2.20134,-0.0952 h 1.06891 c 0.99484,0 1.59809,0.0106 3.41842,0.0952 0.0317,-0.64559 0.0529,-1.21709 0.0952,-1.76742 h -0.22225 c -0.0847,0.84667 -0.29633,0.94192 -2.02142,0.94192 -0.45508,0 -1.2065,-0.0317 -2.06375,-0.10584 -0.0317,-0.84666 -0.0529,-1.397 -0.0529,-1.91558 v -0.3175 c 0,-0.87842 0.0212,-2.89983 0.0741,-3.27025 0.0317,-0.24342 0.0847,-0.41275 0.15875,-0.508 0.13758,-0.17992 0.45508,-0.254 0.86783,-0.32808 v -0.22225 c -0.65616,0.0317 -1.50283,0.0741 -1.69333,0.0741 -0.16933,0 -1.12183,-0.0423 -1.68275,-0.0741 v 0.22225 c 0.635,0.0847 0.85725,0.20108 0.99483,0.508 0.13759,0.32808 0.17992,1.76741 0.17992,2.7305 v 0.28575 c 0,1.22766 -0.0318,2.63525 -0.16933,2.94216 -0.15875,0.37042 -0.46567,0.52917 -1.15359,0.58209 z" />
    <path
       inkscape:connector-curvature="0"
       id="path9643"
       style="font-style:normal;font-weight:normal;font-size:40px;line-height:1.25;font-family:sans-serif;letter-spacing:0px;word-spacing:4px;fill:#000000;fill-opacity:1;stroke:none;stroke-width:0.26458332"
       d="m 61.280716,254.33914 c 0.02117,0.65617 0.03175,1.2065 0.03175,1.64042 0.814916,0.39158 1.534583,0.52917 2.508249,0.52917 0.899584,0 1.629834,-0.22225 2.169584,-0.65617 0.53975,-0.43392 0.836083,-1.016 0.836083,-1.651 0,-0.53975 -0.169333,-1.00542 -0.508,-1.3335 -0.211667,-0.21167 -0.550333,-0.41275 -0.92075,-0.53975 l -1.905,-0.65617 c -0.899583,-0.30691 -1.11125,-0.51858 -1.11125,-0.99483 0,-0.73025 0.709083,-1.16417 1.905,-1.16417 1.143,0 1.725083,0.28575 1.883833,0.9525 h 0.211667 c -0.03175,-0.49741 -0.03175,-1.016 -0.03175,-1.49225 -0.931333,-0.28575 -1.397,-0.34925 -2.137833,-0.34925 -1.852084,0 -2.910417,0.80434 -2.910417,2.16959 0,0.89958 0.550334,1.54516 1.640417,1.92616 l 1.80975,0.62442 c 0.719666,0.254 0.973666,0.51858 0.973666,0.98425 0,0.80433 -0.751416,1.32292 -1.979083,1.32292 -0.762,0 -1.42875,-0.20109 -1.80975,-0.52917 -0.243416,-0.20108 -0.359833,-0.41275 -0.4445,-0.78317 z" />
    <path
       inkscape:connector-curvature="0"
       id="path9645"
       style="font-style:normal;font-weight:normal;font-size:40px;line-height:1.25;font-family:sans-serif;letter-spacing:0px;word-spacing:4px;fill:#000000;fill-opacity:1;stroke:none;stroke-width:0.26458332"
       d="m 73.978015,253.58773 c -0.455083,0 -0.836083,-0.0106 -1.2065,-0.0529 l 1.703917,-3.16442 1.74625,3.16442 c -0.296333,0.0423 -0.635,0.0529 -1.185333,0.0529 z m -4.243916,2.76225 c 0.60325,-0.0529 1.153583,-0.0952 1.418166,-0.0952 0.201084,0 0.85725,0.0423 1.418167,0.0952 v -0.22225 c -0.53975,-0.0106 -0.772583,-0.14817 -0.772583,-0.4445 0,-0.17992 0.179916,-0.62442 0.529166,-1.34409 0.550334,-0.0317 1.397,-0.0423 2.159,-0.0423 0.804334,0 1.566334,0.0106 2.169584,0.0423 0.275166,0.56092 0.582083,1.22767 0.582083,1.40759 0,0.26458 -0.211667,0.34925 -0.846667,0.381 v 0.22225 c 0.518584,-0.0529 1.291167,-0.0952 1.598084,-0.0952 0.275166,0 1.132416,0.0635 1.608666,0.0952 v -0.22225 c -0.28575,-0.0529 -0.656166,-0.24342 -1.04775,-0.74084 -0.201083,-0.24341 -0.391583,-0.60325 -0.550333,-0.89958 l -3.122083,-5.68325 h -0.4445 l -2.423584,4.45558 c -1.259416,2.32834 -1.629833,2.75167 -2.275416,2.86809 z" />
    <path
       inkscape:connector-curvature="0"
       id="path9647"
       style="font-style:normal;font-variant:normal;font-weight:normal;font-stretch:normal;font-size:40px;line-height:1.25;font-family:'President Std';-inkscape-font-specification:'President Std';letter-spacing:10px;word-spacing:0.0000001px;fill:#000000;fill-opacity:1;stroke:none;stroke-width:0.26458332"
       d="m 88.404415,256.34998 c 0.455084,-0.0529 1.227667,-0.0952 1.767417,-0.0952 0.592667,0 1.312333,0.0423 1.905,0.0952 v -0.22225 c -0.635,-0.0741 -1.026583,-0.28575 -1.11125,-0.55034 -0.137583,-0.42333 -0.15875,-0.58208 -0.1905,-2.7305 0.592667,-0.0317 1.640417,-0.0529 1.957917,-0.0529 1.2065,0 1.375833,0.14816 1.42875,0.96308 h 0.22225 c -0.03175,-0.45508 -0.03175,-0.78317 -0.03175,-1.11125 v -0.43393 c 0,-0.29633 0,-0.5715 0.03175,-0.98425 h -0.22225 c -0.07408,0.34925 -0.09525,0.508 -0.211667,0.62442 -0.169333,0.16933 -0.53975,0.1905 -1.248833,0.1905 -0.338667,0 -1.3335,-0.0212 -1.926167,-0.0529 0,-0.70908 0.02117,-1.69333 0.05292,-2.27541 0.85725,-0.0423 1.651,-0.0529 1.957916,-0.0529 1.598084,0 1.830917,0.0847 1.883834,0.87842 h 0.22225 c -0.03175,-0.32809 -0.04233,-0.5715 -0.04233,-0.79375 v -0.0847 c 0,-0.24342 -0.01058,-0.51858 0.02117,-0.80433 -3.164417,0 -4.296833,0.0741 -4.656667,0.0741 -0.381,0 -1.121833,-0.0423 -1.788583,-0.0741 v 0.22225 c 0.677333,0.0741 0.931333,0.15875 1.068917,0.49741 0.137583,0.33867 0.179916,1.67217 0.179916,3.02684 v 0.28575 c 0,1.06891 -0.05292,2.38125 -0.15875,2.65641 -0.179916,0.42334 -0.560916,0.508 -1.11125,0.58209 z" />
    <path
       inkscape:connector-curvature="0"
       id="path9649"
       style="font-style:normal;font-variant:normal;font-weight:normal;font-stretch:normal;font-size:40px;line-height:1.25;font-family:'President Std';-inkscape-font-specification:'President Std';letter-spacing:10px;word-spacing:0.0000001px;fill:#000000;fill-opacity:1;stroke:none;stroke-width:0.26458332"
       d="m 98.627903,256.34998 c 0.56092,-0.0529 1.174747,-0.0952 2.222497,-0.0952 1.651,0 3.556,0.0423 4.54025,0.0952 0,-0.41275 0.0106,-1.06892 0.0423,-1.66159 h -0.22225 c -0.0318,0.24342 -0.0529,0.45509 -0.17992,0.58209 -0.22225,0.24341 -0.87842,0.29633 -1.80975,0.29633 -0.762,0 -1.38642,-0.0317 -2.19075,-0.14817 -0.0318,-0.79375 -0.0529,-2.01083 -0.0529,-2.57175 0.62442,-0.0317 1.66159,-0.0423 2.05317,-0.0423 0.889,0 1.31233,0.0106 1.48167,0.17992 0.11641,0.11641 0.13758,0.28575 0.21166,0.62441 h 0.22225 c -0.0318,-0.45508 -0.0529,-1.00541 -0.0529,-1.16416 0,-0.13759 0.0212,-0.8255 0.0529,-1.16417 h -0.22225 c -0.11641,0.73025 -0.17991,0.762 -1.70391,0.762 -0.4445,0 -1.37584,-0.0212 -2.04259,-0.0529 0,-0.508 0.0212,-1.4605 0.0529,-2.30716 0.33867,-0.0529 0.68792,-0.0741 1.23825,-0.0741 2.44475,0 2.667,0.0635 2.75167,0.85725 h 0.22225 c -0.0423,-0.29633 -0.0529,-0.52916 -0.0529,-0.79375 v -0.15875 c 0,-0.0952 0.0212,-0.47625 0.0212,-0.65616 -0.91017,0.0423 -4.07459,0.0741 -4.73075,0.0741 -0.41275,0 -1.291167,-0.0741 -1.830917,-0.0741 v 0.22225 c 0.64558,0.0529 0.99483,0.17991 1.111247,0.73025 0.0847,0.39158 0.11642,2.02141 0.11642,2.86808 v 0.13758 c 0,0.94192 -0.0529,2.01084 -0.0847,2.32834 -0.116417,0.68791 -0.264577,0.83608 -1.164167,0.98425 z" />
    <path
       inkscape:connector-curvature="0"
       id="path9651"
       style="font-style:normal;font-variant:normal;font-weight:normal;font-stretch:normal;font-size:40px;line-height:1.25;font-family:'President Std';-inkscape-font-specification:'President Std';letter-spacing:10px;word-spacing:0.0000001px;fill:#000000;fill-opacity:1;stroke:none;stroke-width:0.26458332"
       d="m 111.90998,251.98964 c 0,-0.45508 0.0106,-1.69333 0.0423,-2.27541 0.71967,-0.0529 1.21709,-0.0847 1.75684,-0.0847 0.45508,0 0.78316,0.0212 1.04775,0.10583 0.58208,0.20109 0.762,0.58209 0.762,0.99484 0,0.86783 -1.06892,1.31233 -2.16959,1.31233 -0.21166,0 -0.59266,0 -1.43933,-0.0529 z m -2.43417,4.36034 c 0.59267,-0.0529 1.32292,-0.0952 1.87325,-0.0952 0.59267,0 1.25942,0.0212 1.75684,0.0952 v -0.22225 c -0.46567,-0.0952 -0.91017,-0.20109 -1.03717,-0.62442 -0.13758,-0.45508 -0.15875,-1.47108 -0.15875,-2.37067 v -0.28575 c 0.84667,-0.0423 1.40758,-0.0423 1.62983,-0.0423 0.87842,0 1.143,0.13758 1.36525,0.84667 l 0.64559,2.01083 c 0.16933,0.51858 0.43391,0.68792 1.05833,0.68792 h 0.97367 v -0.22225 c -0.49742,-0.0106 -0.65617,-0.13759 -0.81492,-0.56092 l -0.81492,-2.18017 c -0.21166,-0.59266 -0.508,-0.92075 -1.05833,-1.04775 1.23825,-0.24341 1.76742,-0.84666 1.76742,-1.68275 0,-0.64558 -0.37042,-1.3335 -1.17475,-1.61925 -0.40217,-0.13758 -0.762,-0.17991 -1.59809,-0.17991 -0.83608,0 -2.08491,0.0741 -2.6035,0.0741 -0.27516,0 -1.12183,-0.0423 -1.68275,-0.0741 v 0.22225 c 0.64559,0.0741 0.87842,0.16933 1.016,0.508 0.13759,0.32808 0.17992,2.02141 0.17992,2.84691 v 0.17992 c 0,1.28058 -0.0423,2.64583 -0.15875,2.93158 -0.16933,0.37042 -0.47625,0.52917 -1.16417,0.58209 z" />
    <path
       inkscape:connector-curvature="0"
       id="path9653"
       style="font-style:normal;font-variant:normal;font-weight:normal;font-stretch:normal;font-size:40px;line-height:1.25;font-family:'President Std';-inkscape-font-specification:'President Std';letter-spacing:10px;word-spacing:0.0000001px;fill:#000000;fill-opacity:1;stroke:none;stroke-width:0.26458332"
       d="m 124.5147,253.58773 c -0.45509,0 -0.83609,-0.0106 -1.2065,-0.0529 l 1.70391,-3.16442 1.74625,3.16442 c -0.29633,0.0423 -0.635,0.0529 -1.18533,0.0529 z m -4.24392,2.76225 c 0.60325,-0.0529 1.15358,-0.0952 1.41817,-0.0952 0.20108,0 0.85725,0.0423 1.41816,0.0952 v -0.22225 c -0.53975,-0.0106 -0.77258,-0.14817 -0.77258,-0.4445 0,-0.17992 0.17992,-0.62442 0.52917,-1.34409 0.55033,-0.0317 1.397,-0.0423 2.159,-0.0423 0.80433,0 1.56633,0.0106 2.16958,0.0423 0.27517,0.56092 0.58208,1.22767 0.58208,1.40759 0,0.26458 -0.21166,0.34925 -0.84666,0.381 v 0.22225 c 0.51858,-0.0529 1.29116,-0.0952 1.59808,-0.0952 0.27517,0 1.13242,0.0635 1.60867,0.0952 v -0.22225 c -0.28575,-0.0529 -0.65617,-0.24342 -1.04775,-0.74084 -0.20109,-0.24341 -0.39159,-0.60325 -0.55034,-0.89958 l -3.12208,-5.68325 h -0.4445 l -2.42358,4.45558 c -1.25942,2.32834 -1.62984,2.75167 -2.27542,2.86809 z" />
    <path
       inkscape:connector-curvature="0"
       id="path9655"
       style="font-style:normal;font-variant:normal;font-weight:normal;font-stretch:normal;font-size:40px;line-height:1.25;font-family:'President Std';-inkscape-font-specification:'President Std';letter-spacing:10px;word-spacing:0.0000001px;fill:#000000;fill-opacity:1;stroke:none;stroke-width:0.26458332"
       d="m 132.73921,256.34998 c 0.635,-0.0741 1.34408,-0.0952 2.20133,-0.0952 h 1.06892 c 0.99483,0 1.59808,0.0106 3.41842,0.0952 0.0318,-0.64559 0.0529,-1.21709 0.0952,-1.76742 h -0.22225 c -0.0847,0.84667 -0.29634,0.94192 -2.02142,0.94192 -0.45508,0 -1.2065,-0.0317 -2.06375,-0.10584 -0.0318,-0.84666 -0.0529,-1.397 -0.0529,-1.91558 v -0.3175 c 0,-0.87842 0.0212,-2.89983 0.0741,-3.27025 0.0318,-0.24342 0.0847,-0.41275 0.15875,-0.508 0.13758,-0.17992 0.45508,-0.254 0.86783,-0.32808 v -0.22225 c -0.65617,0.0317 -1.50283,0.0741 -1.69333,0.0741 -0.16934,0 -1.12184,-0.0423 -1.68275,-0.0741 v 0.22225 c 0.635,0.0847 0.85725,0.20108 0.99483,0.508 0.13758,0.32808 0.17992,1.76741 0.17992,2.7305 v 0.28575 c 0,1.22766 -0.0318,2.63525 -0.16934,2.94216 -0.15875,0.37042 -0.46566,0.52917 -1.15358,0.58209 z" />
    <flowRoot
       xml:space="preserve"
       id="flowRoot9292-1-7"
       style="font-style:normal;font-weight:normal;font-size:40px;line-height:1.25;font-family:sans-serif;letter-spacing:0px;word-spacing:0px;fill:#000000;fill-opacity:1;stroke:none"
       transform="matrix(0.26458333,0,0,0.26458333,24.168006,50.635157)"><flowRegion
         id="flowRegion9294-0-2"
         style="fill:#000000"><rect
           id="rect9296-5-82"
           width="414.66763"
           height="61.871849"
           x="212.38457"
           y="594.2099"
           style="fill:#000000" /></flowRegion><flowPara
         id="flowPara9298-1-9"
         style="font-style:normal;font-variant:normal;font-weight:normal;font-stretch:normal;font-family:'President Std';-inkscape-font-specification:'President Std';letter-spacing:10px;word-spacing:0.0000001px;fill:#000000">.</flowPara></flowRoot>    <flowRoot
       xml:space="preserve"
       id="flowRoot9292-1-1-9"
       style="font-style:normal;font-weight:normal;font-size:40px;line-height:1.25;font-family:sans-serif;letter-spacing:0px;word-spacing:0px;fill:#000000;fill-opacity:1;stroke:none"
       transform="matrix(0.26458333,0,0,0.26458333,25.631207,85.737533)"><flowRegion
         id="flowRegion9294-0-0-6"
         style="fill:#000000"><rect
           id="rect9296-5-8-0"
           width="414.66763"
           height="61.871849"
           x="212.38457"
           y="594.2099"
           style="fill:#000000" /></flowRegion><flowPara
         id="flowPara9298-1-5-2"
         style="font-style:normal;font-variant:normal;font-weight:normal;font-stretch:normal;font-family:'President Std';-inkscape-font-specification:'President Std';letter-spacing:10px;word-spacing:0.0000001px;fill:#000000">.</flowPara></flowRoot>  </g>
</svg>
