<?xml version="1.0" encoding="UTF-8" standalone="no"?>
<!-- Created with Inkscape (http://www.inkscape.org/) -->

<svg
   width="210mm"
   height="297mm"
   viewBox="0 0 210 297"
   version="1.1"
   id="svg458"
   inkscape:version="1.2.2 (b0a84865, 2022-12-01)"
   sodipodi:docname="drawing.svg"
   xmlns:inkscape="http://www.inkscape.org/namespaces/inkscape"
   xmlns:sodipodi="http://sodipodi.sourceforge.net/DTD/sodipodi-0.dtd"
   xmlns="http://www.w3.org/2000/svg"
   xmlns:svg="http://www.w3.org/2000/svg">
  <sodipodi:namedview
     id="namedview460"
     pagecolor="#ffffff"
     bordercolor="#000000"
     borderopacity="0.25"
     inkscape:showpageshadow="2"
     inkscape:pageopacity="0.0"
     inkscape:pagecheckerboard="0"
     inkscape:deskcolor="#d1d1d1"
     inkscape:document-units="mm"
     showgrid="false"
     inkscape:zoom="0.80444024"
     inkscape:cx="274.10364"
     inkscape:cy="558.77364"
     inkscape:window-width="1920"
     inkscape:window-height="1027"
     inkscape:window-x="0"
     inkscape:window-y="25"
     inkscape:window-maximized="1"
     inkscape:current-layer="layer1" />
  <defs
     id="defs455">
    <rect
       x="121.82384"
       y="273.48209"
       width="585.5003"
       height="144.19965"
       id="rect633" />
    <rect
       x="121.82384"
       y="273.48209"
       width="585.50031"
       height="144.19965"
       id="rect633-8" />
    <rect
       x="121.82384"
       y="273.48209"
       width="585.50031"
       height="144.19965"
       id="rect633-4" />
    <rect
       x="121.82384"
       y="273.48209"
       width="585.50031"
       height="144.19965"
       id="rect633-5" />
    <rect
       x="121.82384"
       y="273.48209"
       width="585.50031"
       height="144.19965"
       id="rect633-5-2" />
  </defs>
  <g
     inkscape:label="Layer 1"
     inkscape:groupmode="layer"
     id="layer1">
    <path
       inkscape:connector-curvature="0"
       id="path9469-1-7"
       style="font-style:normal;font-variant:normal;font-weight:normal;font-stretch:normal;font-size:40px;line-height:1.25;font-family:'President Std';-inkscape-font-specification:'President Std';letter-spacing:18.8747px;word-spacing:8.57941px;fill:#000000;fill-opacity:1;stroke:none;stroke-width:0.308394"
       d="m 57.894388,83.931839 c 0.0247,0.76481 0.037,1.40627 0.037,1.91204 0.94985,0.45642 1.78868,0.61679 2.92357,0.61679 1.04854,0 1.899701,-0.25906 2.52883,-0.76482 0.62912,-0.50577 0.97452,-1.18423 0.97452,-1.92438 0,-0.62912 -0.197369,-1.17189 -0.59212,-1.5543 -0.24671,-0.24671 -0.64145,-0.48109 -1.07321,-0.62912 l -2.22043,-0.76482 c -1.04854,-0.35774 -1.29525,-0.60445 -1.29525,-1.15956 0,-0.85116 0.82649,-1.35693 2.22043,-1.35693 1.33226,0 2.01073,0.33306 2.19576,1.11023 h 0.24672 c -0.037,-0.57979 -0.037,-1.18423 -0.037,-1.73935 -1.08554,-0.33307 -1.62832,-0.40708 -2.49182,-0.40708 -2.15875,0 -3.39233,0.93751 -3.39233,2.52882 0,1.04854 0.64146,1.80102 1.91204,2.24511 l 2.10941,0.72781 c 0.83883,0.29606 1.13489,0.60445 1.13489,1.14722 0,0.93752 -0.87584,1.54197 -2.30678,1.54197 -0.88817,0 -1.66533,-0.23438 -2.10941,-0.61679 -0.28373,-0.23438 -0.41942,-0.48109 -0.5181,-0.91284 z" />
    <path
       inkscape:connector-curvature="0"
       id="path9479-0-3"
       style="font-style:normal;font-variant:normal;font-weight:normal;font-stretch:normal;font-size:40px;line-height:1.25;font-family:'President Std';-inkscape-font-specification:'President Std';letter-spacing:18.8747px;word-spacing:8.57941px;fill:#000000;fill-opacity:1;stroke:none;stroke-width:0.308394"
       d="m 85.434314,86.275629 c 0.53044,-0.0617 1.43095,-0.11102 2.06007,-0.11102 0.6908,0 1.52963,0.0493 2.22043,0.11102 v -0.25905 c -0.74014,-0.0864 -1.19656,-0.33307 -1.29525,-0.64146 -0.16037,-0.49343 -0.18504,-0.67847 -0.22204,-3.18262 0.6908,-0.037 1.91204,-0.0617 2.28211,-0.0617 1.40627,0 1.60364,0.1727 1.66532,1.12255 h 0.25905 c -0.037,-0.53044 -0.037,-0.91285 -0.037,-1.29525 v -0.50575 c 0,-0.3454 0,-0.66613 0.037,-1.14722 h -0.25905 c -0.0864,0.40708 -0.11102,0.59212 -0.24671,0.7278 -0.19737,0.19737 -0.62912,0.22204 -1.45562,0.22204 -0.39474,0 -1.5543,-0.0247 -2.2451,-0.0617 0,-0.82649 0.0247,-1.97372 0.0617,-2.65218 0.9992,-0.0493 1.92438,-0.0617 2.28211,-0.0617 1.8627,0 2.13409,0.0987 2.19577,1.02387 h 0.25905 c -0.037,-0.38241 -0.0493,-0.66613 -0.0493,-0.92518 v -0.0987 c 0,-0.28372 -0.0123,-0.60445 0.0247,-0.93752 -3.68839,0 -5.00831,0.0863 -5.42773,0.0863 -0.44409,0 -1.30759,-0.0493 -2.08474,-0.0863 v 0.25905 c 0.78949,0.0863 1.08555,0.18504 1.24591,0.57978 0.16036,0.39475 0.20971,1.94905 0.20971,3.52803 v 0.33306 c 0,1.24591 -0.0617,2.77554 -0.18504,3.09627 -0.2097,0.49343 -0.6538,0.59212 -1.29525,0.67847 z" />
    <path
       inkscape:connector-curvature="0"
       id="path9481-2-7"
       style="font-style:normal;font-variant:normal;font-weight:normal;font-stretch:normal;font-size:40px;line-height:1.25;font-family:'President Std';-inkscape-font-specification:'President Std';letter-spacing:18.8747px;word-spacing:8.57941px;fill:#000000;fill-opacity:1;stroke:none;stroke-width:0.308394"
       d="m 101.03248,86.275629 c 0.65379,-0.0617 1.36926,-0.11102 2.5905,-0.11102 1.92438,0 4.14481,0.0493 5.29204,0.11102 0,-0.48109 0.0123,-1.24591 0.0493,-1.93671 h -0.25905 c -0.037,0.28372 -0.0617,0.53043 -0.20971,0.67846 -0.25905,0.28373 -1.02387,0.3454 -2.10941,0.3454 -0.88817,0 -1.61598,-0.037 -2.5535,-0.1727 -0.037,-0.92518 -0.0617,-2.34379 -0.0617,-2.99758 0.72781,-0.037 1.93671,-0.0493 2.39314,-0.0493 1.0362,0 1.52963,0.0123 1.727,0.2097 0.13569,0.1357 0.16036,0.33307 0.24671,0.72781 h 0.25905 c -0.037,-0.53044 -0.0617,-1.17189 -0.0617,-1.35693 0,-0.16036 0.0247,-0.96219 0.0617,-1.35693 h -0.25905 c -0.13569,0.85116 -0.2097,0.88817 -1.98605,0.88817 -0.5181,0 -1.60365,-0.0247 -2.3808,-0.0617 0,-0.59211 0.0247,-1.70233 0.0617,-2.68919 0.39474,-0.0617 0.80182,-0.0864 1.44328,-0.0864 2.84956,0 3.10861,0.074 3.2073,0.9992 h 0.25905 c -0.0494,-0.3454 -0.0617,-0.61679 -0.0617,-0.92518 v -0.18504 c 0,-0.11102 0.0247,-0.55511 0.0247,-0.76482 -1.06088,0.0494 -4.74926,0.0863 -5.51408,0.0863 -0.48109,0 -1.50496,-0.0863 -2.13408,-0.0863 v 0.25905 c 0.75248,0.0617 1.15956,0.20971 1.29525,0.85117 0.0987,0.45642 0.13569,2.35613 0.13569,3.34299 v 0.16036 c 0,1.09788 -0.0617,2.34379 -0.0987,2.71386 -0.13569,0.80183 -0.30839,0.97453 -1.35693,1.14723 z" />
    <path
       inkscape:connector-curvature="0"
       id="path9483-3-5"
       style="font-style:normal;font-variant:normal;font-weight:normal;font-stretch:normal;font-size:40px;line-height:1.25;font-family:'President Std';-inkscape-font-specification:'President Std';letter-spacing:18.8747px;word-spacing:8.57941px;fill:#000000;fill-opacity:1;stroke:none;stroke-width:0.308394"
       d="m 120.05392,81.193299 c 0,-0.53043 0.0123,-1.97372 0.0493,-2.65218 0.83883,-0.0617 1.41861,-0.0987 2.04774,-0.0987 0.53043,0 0.91284,0.0247 1.22124,0.12336 0.67846,0.23438 0.88817,0.67847 0.88817,1.15956 0,1.01153 -1.24591,1.52963 -2.52883,1.52963 -0.24671,0 -0.6908,0 -1.67766,-0.0617 z m -2.83722,5.08233 c 0.6908,-0.0617 1.54197,-0.11102 2.18343,-0.11102 0.6908,0 1.46795,0.0247 2.04773,0.11102 v -0.25905 c -0.54277,-0.11102 -1.06087,-0.23438 -1.2089,-0.7278 -0.16037,-0.53044 -0.18504,-1.71468 -0.18504,-2.76322 v -0.33306 c 0.98686,-0.0493 1.64065,-0.0493 1.8997,-0.0493 1.02387,0 1.33226,0.16037 1.59132,0.98685 l 0.75248,2.3438 c 0.19737,0.60445 0.50576,0.80182 1.23357,0.80182 h 1.13489 v -0.25905 c -0.57978,-0.0123 -0.76482,-0.16037 -0.94985,-0.6538 l -0.94986,-2.54115 c -0.24671,-0.69081 -0.59211,-1.07322 -1.23357,-1.22125 1.44328,-0.28372 2.06007,-0.98685 2.06007,-1.96138 0,-0.75248 -0.43175,-1.5543 -1.36927,-1.88737 -0.46876,-0.16036 -0.88817,-0.2097 -1.8627,-0.2097 -0.97452,0 -2.43014,0.0863 -3.03459,0.0863 -0.32073,0 -1.30759,-0.0493 -1.96138,-0.0863 v 0.25905 c 0.75248,0.0863 1.02387,0.19738 1.18423,0.59212 0.16036,0.38241 0.20971,2.35613 0.20971,3.31831 v 0.20971 c 0,1.49263 -0.0494,3.08393 -0.18504,3.41699 -0.19737,0.43176 -0.55511,0.61679 -1.35693,0.67847 z" />
    <path
       inkscape:connector-curvature="0"
       id="path9485-7-9"
       style="font-style:normal;font-variant:normal;font-weight:normal;font-stretch:normal;font-size:40px;line-height:1.25;font-family:'President Std';-inkscape-font-specification:'President Std';letter-spacing:18.8747px;word-spacing:8.57941px;fill:#000000;fill-opacity:1;stroke:none;stroke-width:0.308394"
       d="m 137.73174,83.055999 c -0.53043,0 -0.97452,-0.0123 -1.40627,-0.0617 l 1.98605,-3.6884 2.0354,3.6884 c -0.3454,0.0493 -0.74015,0.0617 -1.3816,0.0617 z m -4.94663,3.21963 c 0.70314,-0.0617 1.3446,-0.11102 1.65299,-0.11102 0.23438,0 0.99919,0.0493 1.65299,0.11102 v -0.25905 c -0.62912,-0.0123 -0.90051,-0.1727 -0.90051,-0.5181 0,-0.2097 0.20971,-0.72781 0.61679,-1.56664 0.64145,-0.037 1.62831,-0.0493 2.51649,-0.0493 0.93751,0 1.82569,0.0123 2.52882,0.0493 0.32073,0.65379 0.67847,1.43094 0.67847,1.64065 0,0.3084 -0.24671,0.40708 -0.98686,0.44409 v 0.25905 c 0.60445,-0.0617 1.50496,-0.11102 1.8627,-0.11102 0.32073,0 1.31992,0.074 1.87503,0.11102 v -0.25905 c -0.33306,-0.0617 -0.76482,-0.28372 -1.22124,-0.8635 -0.23438,-0.28373 -0.45642,-0.70314 -0.64146,-1.04854 l -3.63904,-6.62428 h -0.5181 l -2.82489,5.19333 c -1.46795,2.71387 -1.8997,3.2073 -2.65218,3.34299 z" />
    <path
       inkscape:connector-curvature="0"
       id="path9487-5-2"
       style="font-style:normal;font-variant:normal;font-weight:normal;font-stretch:normal;font-size:40px;line-height:1.25;font-family:'President Std';-inkscape-font-specification:'President Std';letter-spacing:18.8747px;word-spacing:8.57941px;fill:#000000;fill-opacity:1;stroke:none;stroke-width:0.308394"
       d="m 150.12709,86.275629 c 0.74014,-0.0864 1.56664,-0.11102 2.56583,-0.11102 h 1.24591 c 1.15956,0 1.8627,0.0123 3.98445,0.11102 0.037,-0.75248 0.0617,-1.41861 0.11102,-2.06007 h -0.25905 c -0.0987,0.98686 -0.3454,1.09788 -2.35613,1.09788 -0.53043,0 -1.40627,-0.037 -2.40547,-0.12336 -0.037,-0.98686 -0.0617,-1.62831 -0.0617,-2.23277 v -0.37007 c 0,-1.02386 0.0247,-3.37999 0.0863,-3.81174 0.037,-0.28372 0.0987,-0.4811 0.18504,-0.59212 0.16037,-0.20971 0.53044,-0.29606 1.01153,-0.38241 v -0.25905 c -0.76481,0.037 -1.75167,0.0863 -1.97372,0.0863 -0.19737,0 -1.30759,-0.0493 -1.96138,-0.0863 v 0.25905 c 0.74014,0.0987 0.99919,0.23438 1.15956,0.59212 0.16036,0.38241 0.20971,2.06007 0.20971,3.18262 v 0.33307 c 0,1.43095 -0.037,3.0716 -0.19737,3.42933 -0.18504,0.43175 -0.54278,0.61679 -1.3446,0.67847 z" />
    <g
       id="g4616"
       transform="translate(15.834124,-3.6743709)">
      <path
         inkscape:connector-curvature="0"
         id="path9469-1-7-1"
         style="font-style:normal;font-variant:normal;font-weight:normal;font-stretch:normal;font-size:40px;line-height:1.25;font-family:'President Std';-inkscape-font-specification:'President Std';letter-spacing:18.8747px;word-spacing:8.57941px;fill:#000000;fill-opacity:1;stroke:none;stroke-width:0.308394"
         d="m 22.535666,52.068786 c 0.0247,0.76481 0.037,1.40627 0.037,1.91204 0.94985,0.45642 1.78868,0.61679 2.92357,0.61679 1.04854,0 1.899701,-0.25906 2.52883,-0.76482 0.62912,-0.50577 0.97452,-1.18423 0.97452,-1.92438 0,-0.62912 -0.197369,-1.17189 -0.59212,-1.5543 -0.24671,-0.24671 -0.64145,-0.48109 -1.07321,-0.62912 l -2.22043,-0.76482 c -1.04854,-0.35774 -1.29525,-0.60445 -1.29525,-1.15956 0,-0.85116 0.82649,-1.35693 2.22043,-1.35693 1.33226,0 2.01073,0.33306 2.19576,1.11023 h 0.24672 c -0.037,-0.57979 -0.037,-1.18423 -0.037,-1.73935 -1.08554,-0.33307 -1.62832,-0.40708 -2.49182,-0.40708 -2.15875,0 -3.39233,0.93751 -3.39233,2.52882 0,1.04854 0.64146,1.80102 1.91204,2.24511 l 2.10941,0.72781 c 0.83883,0.29606 1.13489,0.60445 1.13489,1.14722 0,0.93752 -0.87584,1.54197 -2.30678,1.54197 -0.88817,0 -1.66533,-0.23438 -2.10941,-0.61679 -0.28373,-0.23438 -0.41942,-0.48109 -0.5181,-0.91284 z" />
      <path
         inkscape:connector-curvature="0"
         id="path9471-8-9-6"
         style="font-style:normal;font-variant:normal;font-weight:normal;font-stretch:normal;font-size:40px;line-height:1.25;font-family:'President Std';-inkscape-font-specification:'President Std';letter-spacing:18.8747px;word-spacing:8.57941px;fill:#000000;fill-opacity:1;stroke:none;stroke-width:0.308394"
         d="m 40.124326,51.192946 c -0.53044,0 -0.97453,-0.0123 -1.40628,-0.0617 l 1.98606,-3.6884 2.03539,3.6884 c -0.3454,0.0493 -0.74014,0.0617 -1.3816,0.0617 z m -4.94664,3.21963 c 0.70314,-0.0617 1.3446,-0.11102 1.65299,-0.11102 0.23438,0 0.9992,0.0493 1.65299,0.11102 v -0.25905 c -0.62912,-0.0123 -0.90051,-0.1727 -0.90051,-0.5181 0,-0.2097 0.20971,-0.72781 0.61679,-1.56664 0.64146,-0.037 1.62832,-0.0493 2.51649,-0.0493 0.93752,0 1.82569,0.0123 2.52883,0.0493 0.32073,0.65379 0.67846,1.43094 0.67846,1.64065 0,0.3084 -0.24671,0.40708 -0.98685,0.44409 v 0.25905 c 0.60445,-0.0617 1.50496,-0.11102 1.86269,-0.11102 0.32073,0 1.31993,0.074 1.87503,0.11102 v -0.25905 c -0.33306,-0.0617 -0.76481,-0.28372 -1.22123,-0.8635 -0.23438,-0.28373 -0.45643,-0.70314 -0.64146,-1.04854 l -3.63905,-6.62428 h -0.5181 l -2.82488,5.19333 c -1.46796,2.71387 -1.89971,3.2073 -2.65219,3.34299 z" />
      <path
         inkscape:connector-curvature="0"
         id="path9473-7-2-1"
         style="font-style:normal;font-variant:normal;font-weight:normal;font-stretch:normal;font-size:40px;line-height:1.25;font-family:'President Std';-inkscape-font-specification:'President Std';letter-spacing:18.8747px;word-spacing:8.57941px;fill:#000000;fill-opacity:1;stroke:none;stroke-width:0.308394"
         d="m 60.430408,52.192146 c -0.308391,0.96218 -1.073201,1.44328 -2.294441,1.44328 -2.109419,0 -3.62671,-1.5173 -3.62671,-3.63905 0,-1.01153 0.345398,-1.86269 1.023869,-2.56583 0.70313,-0.70314 1.504961,-1.01153 2.652181,-1.01153 1.1719,0 1.739339,0.33306 2.02306,1.17189 h 0.25905 c -0.037,-0.65379 -0.0617,-1.30757 -0.0617,-1.88736 -0.85116,-0.19738 -1.726999,-0.28372 -2.4178,-0.28372 -1.332262,0 -2.602841,0.4811 -3.441671,1.28291 -0.949859,0.91285 -1.418611,1.99839 -1.418611,3.26898 0,2.76321 2.035392,4.6259 4.946631,4.6259 0.678461,0 1.25824,-0.11103 2.565829,-0.53044 0,-0.49342 0.0123,-1.2459 0.0494,-1.87502 z" />
      <path
         inkscape:connector-curvature="0"
         id="path9475-9-0-9"
         style="font-style:normal;font-variant:normal;font-weight:normal;font-stretch:normal;font-size:40px;line-height:1.25;font-family:'President Std';-inkscape-font-specification:'President Std';letter-spacing:18.8747px;word-spacing:8.57941px;fill:#000000;fill-opacity:1;stroke:none;stroke-width:0.308394"
         d="m 69.436396,54.345756 c 0.653801,-0.0617 1.369271,-0.11102 2.590511,-0.11102 1.92437,0 4.144809,0.0493 5.292029,0.11102 0,-0.48109 0.0123,-1.24591 0.0493,-1.93671 h -0.259059 c -0.037,0.28372 -0.0617,0.53043 -0.209701,0.67846 -0.25905,0.28373 -1.023868,0.3454 -2.109409,0.3454 -0.888179,0 -1.61599,-0.037 -2.553501,-0.1727 -0.037,-0.92518 -0.0617,-2.34379 -0.0617,-2.99758 0.727808,-0.037 1.936711,-0.0493 2.39313,-0.0493 1.036199,0 1.529631,0.0123 1.72701,0.2097 0.135689,0.1357 0.160358,0.33307 0.24671,0.72781 h 0.25905 c -0.037,-0.53044 -0.0617,-1.17189 -0.0617,-1.35693 0,-0.16036 0.02471,-0.96219 0.0617,-1.35693 h -0.259049 c -0.135691,0.85116 -0.209711,0.88817 -1.986049,0.88817 -0.518113,0 -1.60365,-0.0247 -2.380801,-0.0617 0,-0.59211 0.02469,-1.70233 0.0617,-2.68919 0.394739,-0.0617 0.801819,-0.0864 1.443281,-0.0864 2.849549,0 3.10861,0.074 3.207289,0.9992 h 0.259051 c -0.0493,-0.3454 -0.0617,-0.61679 -0.0617,-0.92518 v -0.18504 c 0,-0.11102 0.02471,-0.55511 0.02471,-0.76482 -1.060902,0.0494 -4.749292,0.0863 -5.514101,0.0863 -0.4811,0 -1.504961,-0.0863 -2.13409,-0.0863 v 0.25905 c 0.752488,0.0617 1.15956,0.20971 1.29526,0.85117 0.0987,0.45642 0.135689,2.35613 0.135689,3.34299 v 0.16036 c 0,1.09788 -0.0617,2.34379 -0.0987,2.71386 -0.135689,0.80183 -0.308391,0.97453 -1.356929,1.14723 z" />
      <path
         inkscape:connector-curvature="0"
         id="path9477-2-2-3"
         style="font-style:normal;font-variant:normal;font-weight:normal;font-stretch:normal;font-size:40px;line-height:1.25;font-family:'President Std';-inkscape-font-specification:'President Std';letter-spacing:18.8747px;word-spacing:8.57941px;fill:#000000;fill-opacity:1;stroke:none;stroke-width:0.308394"
         d="m 88.227347,49.263426 c 0,-0.53043 0.0123,-1.97372 0.0493,-2.65218 0.83883,-0.0617 1.418609,-0.0987 2.04774,-0.0987 0.530429,0 0.912839,0.0247 1.22123,0.12336 0.678471,0.23438 0.888179,0.67847 0.888179,1.15956 0,1.01153 -1.245909,1.52963 -2.528829,1.52963 -0.246711,0 -0.690801,0 -1.677659,-0.0617 z m -2.837219,5.08233 c 0.690798,-0.0617 1.541967,-0.11102 2.183429,-0.11102 0.6908,0 1.46795,0.0247 2.047729,0.11102 v -0.25905 c -0.542769,-0.11102 -1.060871,-0.23438 -1.2089,-0.72781 -0.160369,-0.53044 -0.185039,-1.71467 -0.185039,-2.76321 v -0.33306 c 0.986859,-0.0493 1.64065,-0.0493 1.899701,-0.0493 1.023868,0 1.332259,0.16036 1.59131,0.98685 l 0.752488,2.3438 c 0.197371,0.60445 0.505762,0.80182 1.233569,0.80182 h 1.134891 v -0.25905 c -0.579779,-0.0123 -0.76482,-0.16037 -0.949849,-0.6538 l -0.949859,-2.54115 c -0.246711,-0.69081 -0.592111,-1.07322 -1.233573,-1.22125 1.443281,-0.28372 2.060073,-0.98685 2.060073,-1.96138 0,-0.75248 -0.43175,-1.5543 -1.369272,-1.88737 -0.46876,-0.16036 -0.888169,-0.2097 -1.862698,-0.2097 -0.974522,0 -2.43014,0.0863 -3.034591,0.0863 -0.320731,0 -1.30759,-0.0493 -1.96138,-0.0863 v 0.25905 c 0.75248,0.0863 1.02386,0.19738 1.18423,0.59212 0.160358,0.38241 0.209708,2.35613 0.209708,3.31831 v 0.20971 c 0,1.49263 -0.0494,3.08393 -0.185039,3.41699 -0.197368,0.43176 -0.555109,0.61679 -1.356928,0.67847 z" />
      <path
         inkscape:connector-curvature="0"
         id="path9479-0-3-4"
         style="font-style:normal;font-variant:normal;font-weight:normal;font-stretch:normal;font-size:40px;line-height:1.25;font-family:'President Std';-inkscape-font-specification:'President Std';letter-spacing:18.8747px;word-spacing:8.57941px;fill:#000000;fill-opacity:1;stroke:none;stroke-width:0.308394"
         d="m 110.92137,54.412576 c 0.53044,-0.0617 1.43095,-0.11102 2.06007,-0.11102 0.6908,0 1.52963,0.0493 2.22043,0.11102 v -0.25905 c -0.74014,-0.0864 -1.19656,-0.33307 -1.29525,-0.64146 -0.16037,-0.49343 -0.18504,-0.67847 -0.22204,-3.18262 0.6908,-0.037 1.91204,-0.0617 2.28211,-0.0617 1.40627,0 1.60364,0.1727 1.66532,1.12255 h 0.25905 c -0.037,-0.53044 -0.037,-0.91285 -0.037,-1.29525 v -0.50575 c 0,-0.3454 0,-0.66613 0.037,-1.14722 h -0.25905 c -0.0864,0.40708 -0.11102,0.59212 -0.24671,0.7278 -0.19737,0.19737 -0.62912,0.22204 -1.45562,0.22204 -0.39474,0 -1.5543,-0.0247 -2.2451,-0.0617 0,-0.82649 0.0247,-1.97372 0.0617,-2.65218 0.9992,-0.0493 1.92438,-0.0617 2.28211,-0.0617 1.8627,0 2.13409,0.0987 2.19577,1.02387 h 0.25905 c -0.037,-0.38241 -0.0493,-0.66613 -0.0493,-0.92518 v -0.0987 c 0,-0.28372 -0.0123,-0.60445 0.0247,-0.93752 -3.68839,0 -5.00831,0.0863 -5.42773,0.0863 -0.44409,0 -1.30759,-0.0493 -2.08474,-0.0863 v 0.25905 c 0.78949,0.0863 1.08555,0.18504 1.24591,0.57978 0.16036,0.39475 0.20971,1.94905 0.20971,3.52803 v 0.33306 c 0,1.24591 -0.0617,2.77554 -0.18504,3.09627 -0.2097,0.49343 -0.6538,0.59212 -1.29525,0.67847 z" />
      <path
         inkscape:connector-curvature="0"
         id="path9481-2-7-7"
         style="font-style:normal;font-variant:normal;font-weight:normal;font-stretch:normal;font-size:40px;line-height:1.25;font-family:'President Std';-inkscape-font-specification:'President Std';letter-spacing:18.8747px;word-spacing:8.57941px;fill:#000000;fill-opacity:1;stroke:none;stroke-width:0.308394"
         d="m 126.51954,54.412576 c 0.65379,-0.0617 1.36926,-0.11102 2.5905,-0.11102 1.92438,0 4.14481,0.0493 5.29204,0.11102 0,-0.48109 0.0123,-1.24591 0.0493,-1.93671 h -0.25905 c -0.037,0.28372 -0.0617,0.53043 -0.20971,0.67846 -0.25905,0.28373 -1.02387,0.3454 -2.10941,0.3454 -0.88817,0 -1.61598,-0.037 -2.5535,-0.1727 -0.037,-0.92518 -0.0617,-2.34379 -0.0617,-2.99758 0.72781,-0.037 1.93671,-0.0493 2.39314,-0.0493 1.0362,0 1.52963,0.0123 1.727,0.2097 0.13569,0.1357 0.16036,0.33307 0.24671,0.72781 h 0.25905 c -0.037,-0.53044 -0.0617,-1.17189 -0.0617,-1.35693 0,-0.16036 0.0247,-0.96219 0.0617,-1.35693 h -0.25905 c -0.13569,0.85116 -0.2097,0.88817 -1.98605,0.88817 -0.5181,0 -1.60365,-0.0247 -2.3808,-0.0617 0,-0.59211 0.0247,-1.70233 0.0617,-2.68919 0.39474,-0.0617 0.80182,-0.0864 1.44328,-0.0864 2.84956,0 3.10861,0.074 3.2073,0.9992 h 0.25905 c -0.0494,-0.3454 -0.0617,-0.61679 -0.0617,-0.92518 v -0.18504 c 0,-0.11102 0.0247,-0.55511 0.0247,-0.76482 -1.06088,0.0494 -4.74926,0.0863 -5.51408,0.0863 -0.48109,0 -1.50496,-0.0863 -2.13408,-0.0863 v 0.25905 c 0.75248,0.0617 1.15956,0.20971 1.29525,0.85117 0.0987,0.45642 0.13569,2.35613 0.13569,3.34299 v 0.16036 c 0,1.09788 -0.0617,2.34379 -0.0987,2.71386 -0.13569,0.80183 -0.30839,0.97453 -1.35693,1.14723 z" />
      <path
         inkscape:connector-curvature="0"
         id="path9483-3-5-9"
         style="font-style:normal;font-variant:normal;font-weight:normal;font-stretch:normal;font-size:40px;line-height:1.25;font-family:'President Std';-inkscape-font-specification:'President Std';letter-spacing:18.8747px;word-spacing:8.57941px;fill:#000000;fill-opacity:1;stroke:none;stroke-width:0.308394"
         d="m 145.54098,49.330246 c 0,-0.53043 0.0123,-1.97372 0.0493,-2.65218 0.83883,-0.0617 1.41861,-0.0987 2.04774,-0.0987 0.53043,0 0.91284,0.0247 1.22124,0.12336 0.67846,0.23438 0.88817,0.67847 0.88817,1.15956 0,1.01153 -1.24591,1.52963 -2.52883,1.52963 -0.24671,0 -0.6908,0 -1.67766,-0.0617 z m -2.83722,5.08233 c 0.6908,-0.0617 1.54197,-0.11102 2.18343,-0.11102 0.6908,0 1.46795,0.0247 2.04773,0.11102 v -0.25905 c -0.54277,-0.11102 -1.06087,-0.23438 -1.2089,-0.7278 -0.16037,-0.53044 -0.18504,-1.71468 -0.18504,-2.76322 v -0.33306 c 0.98686,-0.0493 1.64065,-0.0493 1.8997,-0.0493 1.02387,0 1.33226,0.16037 1.59132,0.98685 l 0.75248,2.3438 c 0.19737,0.60445 0.50576,0.80182 1.23357,0.80182 h 1.13489 v -0.25905 c -0.57978,-0.0123 -0.76482,-0.16037 -0.94985,-0.6538 l -0.94986,-2.54115 c -0.24671,-0.69081 -0.59211,-1.07322 -1.23357,-1.22125 1.44328,-0.28372 2.06007,-0.98685 2.06007,-1.96138 0,-0.75248 -0.43175,-1.5543 -1.36927,-1.88737 -0.46876,-0.16036 -0.88817,-0.2097 -1.8627,-0.2097 -0.97452,0 -2.43014,0.0863 -3.03459,0.0863 -0.32073,0 -1.30759,-0.0493 -1.96138,-0.0863 v 0.25905 c 0.75248,0.0863 1.02387,0.19738 1.18423,0.59212 0.16036,0.38241 0.20971,2.35613 0.20971,3.31831 v 0.20971 c 0,1.49263 -0.0494,3.08393 -0.18504,3.41699 -0.19737,0.43176 -0.55511,0.61679 -1.35693,0.67847 z" />
      <path
         inkscape:connector-curvature="0"
         id="path9485-7-9-8"
         style="font-style:normal;font-variant:normal;font-weight:normal;font-stretch:normal;font-size:40px;line-height:1.25;font-family:'President Std';-inkscape-font-specification:'President Std';letter-spacing:18.8747px;word-spacing:8.57941px;fill:#000000;fill-opacity:1;stroke:none;stroke-width:0.308394"
         d="m 163.2188,51.192946 c -0.53043,0 -0.97452,-0.0123 -1.40627,-0.0617 l 1.98605,-3.6884 2.0354,3.6884 c -0.3454,0.0493 -0.74015,0.0617 -1.3816,0.0617 z m -4.94663,3.21963 c 0.70314,-0.0617 1.3446,-0.11102 1.65299,-0.11102 0.23438,0 0.99919,0.0493 1.65299,0.11102 v -0.25905 c -0.62912,-0.0123 -0.90051,-0.1727 -0.90051,-0.5181 0,-0.2097 0.20971,-0.72781 0.61679,-1.56664 0.64145,-0.037 1.62831,-0.0493 2.51649,-0.0493 0.93751,0 1.82569,0.0123 2.52882,0.0493 0.32073,0.65379 0.67847,1.43094 0.67847,1.64065 0,0.3084 -0.24671,0.40708 -0.98686,0.44409 v 0.25905 c 0.60445,-0.0617 1.50496,-0.11102 1.8627,-0.11102 0.32073,0 1.31992,0.074 1.87503,0.11102 v -0.25905 c -0.33306,-0.0617 -0.76482,-0.28372 -1.22124,-0.8635 -0.23438,-0.28373 -0.45642,-0.70314 -0.64146,-1.04854 l -3.63904,-6.62428 h -0.5181 l -2.82489,5.19333 c -1.46795,2.71387 -1.8997,3.2073 -2.65218,3.34299 z" />
      <path
         inkscape:connector-curvature="0"
         id="path9487-5-2-0"
         style="font-style:normal;font-variant:normal;font-weight:normal;font-stretch:normal;font-size:40px;line-height:1.25;font-family:'President Std';-inkscape-font-specification:'President Std';letter-spacing:18.8747px;word-spacing:8.57941px;fill:#000000;fill-opacity:1;stroke:none;stroke-width:0.308394"
         d="m 175.61415,54.412576 c 0.74014,-0.0864 1.56664,-0.11102 2.56583,-0.11102 h 1.24591 c 1.15956,0 1.8627,0.0123 3.98445,0.11102 0.037,-0.75248 0.0617,-1.41861 0.11102,-2.06007 h -0.25905 c -0.0987,0.98686 -0.3454,1.09788 -2.35613,1.09788 -0.53043,0 -1.40627,-0.037 -2.40547,-0.12336 -0.037,-0.98686 -0.0617,-1.62831 -0.0617,-2.23277 v -0.37007 c 0,-1.02386 0.0247,-3.37999 0.0863,-3.81174 0.037,-0.28372 0.0987,-0.4811 0.18504,-0.59212 0.16037,-0.20971 0.53044,-0.29606 1.01153,-0.38241 v -0.25905 c -0.76481,0.037 -1.75167,0.0863 -1.97372,0.0863 -0.19737,0 -1.30759,-0.0493 -1.96138,-0.0863 v 0.25905 c 0.74014,0.0987 0.99919,0.23438 1.15956,0.59212 0.16036,0.38241 0.20971,2.06007 0.20971,3.18262 v 0.33307 c 0,1.43095 -0.037,3.0716 -0.19737,3.42933 -0.18504,0.43175 -0.54278,0.61679 -1.3446,0.67847 z" />
    </g>
    <text
       xml:space="preserve"
       transform="matrix(0.32796201,0,0,0.32796201,15.637475,11.638768)"
       id="text631"
       style="font-weight:500;font-size:37.3333px;line-height:1.2;font-family:Inter;-inkscape-font-specification:'Inter Medium';font-variant-numeric:oldstyle-nums proportional-nums;letter-spacing:19.6928px;word-spacing:0px;white-space:pre;shape-inside:url(#rect633);fill:#000000;stroke:#000000;stroke-width:2.64567;paint-order:fill markers stroke"><tspan
         x="121.82422"
         y="308.83212"
         id="tspan12794">S.<tspan
   style="font-weight:normal;font-family:'President Std';-inkscape-font-specification:'President Std';stroke:none"
   id="tspan12792"> FERAL</tspan></tspan></text>
    <text
       xml:space="preserve"
       transform="matrix(0.32796201,0,0,0.32796201,10.959306,41.765804)"
       id="text631-88"
       style="font-weight:500;font-size:37.3333px;line-height:1.2;font-family:Inter;-inkscape-font-specification:'Inter Medium';font-variant-numeric:oldstyle-nums proportional-nums;letter-spacing:21.7822px;word-spacing:0px;white-space:pre;shape-inside:url(#rect633-5);fill:#000000;stroke:none;stroke-width:2.64567;paint-order:fill markers stroke"><tspan
         x="121.82422"
         y="308.83212"
         id="tspan12802"><tspan
           style="font-weight:normal;font-family:'President Std';-inkscape-font-specification:'President Std'"
           id="tspan12796">S</tspan><tspan
           style="font-weight:normal;font-family:'President Std';-inkscape-font-specification:'President Std'"
           id="tspan12798">.</tspan><tspan
           style="font-weight:normal;font-family:'President Std';-inkscape-font-specification:'President Std'"
           id="tspan12800"> FERAL</tspan></tspan></text>
    <path
       d="m 53.174628,169.9664 c 0.0245,0.75912 0.03673,1.3958 0.03673,1.8978 0.94278,0.45303 1.775367,0.6122 2.901805,0.6122 1.040732,0 1.885562,-0.25713 2.510001,-0.75912 0.62444,-0.50201 0.967269,-1.17542 0.967269,-1.91005 0,-0.62444 -0.195902,-1.16317 -0.587708,-1.54273 -0.24488,-0.24488 -0.636683,-0.47752 -1.065221,-0.62444 l -2.203901,-0.75913 c -1.040732,-0.35507 -1.285612,-0.59995 -1.285612,-1.15093 0,-0.84483 0.820342,-1.34682 2.203905,-1.34682 1.32234,0 1.995757,0.33058 2.179413,1.10195 h 0.244879 c -0.03673,-0.57547 -0.03673,-1.17542 -0.03673,-1.72639 -1.077463,-0.33059 -1.616196,-0.40405 -2.473269,-0.40405 -2.142681,0 -3.367072,0.93053 -3.367072,2.51 0,1.04073 0.636683,1.78761 1.897805,2.22839 l 2.093706,0.72239 c 0.832588,0.29385 1.126442,0.59995 1.126442,1.13868 0,0.93054 -0.86932,1.53049 -2.289611,1.53049 -0.881562,0 -1.652929,-0.23263 -2.09371,-0.61219 -0.281608,-0.23264 -0.416292,-0.47752 -0.514241,-0.90605 z"
       style="font-weight:normal;font-size:37.3333px;line-height:1.2;font-family:'President Std';-inkscape-font-specification:'President Std';font-variant-numeric:oldstyle-nums proportional-nums;letter-spacing:21.7822px;word-spacing:0px;white-space:pre;stroke-width:0.867679;paint-order:fill markers stroke"
       id="path11411" />
    <path
       d="m 65.709357,170.78674 c -0.453027,0 -0.808099,0.34283 -0.808099,0.79585 0,0.44078 0.355072,0.78361 0.808099,0.78361 0.453024,0 0.783609,-0.34283 0.783609,-0.78361 0,-0.45302 -0.330585,-0.79585 -0.783609,-0.79585 z"
       style="font-weight:normal;font-size:37.3333px;line-height:1.2;font-family:'President Std';-inkscape-font-specification:'President Std';font-variant-numeric:oldstyle-nums proportional-nums;letter-spacing:21.7822px;word-spacing:0px;white-space:pre;stroke-width:0.867679;paint-order:fill markers stroke"
       id="path11413" />
    <path
       d="m 90.437164,172.29274 c 0.526487,-0.0612 1.420292,-0.1102 2.044731,-0.1102 0.685661,0 1.518245,0.049 2.203905,0.1102 v -0.25712 c -0.734635,-0.0857 -1.187659,-0.33059 -1.285611,-0.63669 -0.15917,-0.48975 -0.183659,-0.67341 -0.22039,-3.15892 0.68566,-0.0367 1.897804,-0.0612 2.265122,-0.0612 1.395806,0 1.591707,0.17141 1.652928,1.11419 h 0.257122 c -0.03673,-0.52649 -0.03673,-0.90605 -0.03673,-1.28561 v -0.502 c 0,-0.34283 0,-0.66117 0.03673,-1.13868 h -0.257122 c -0.08571,0.40405 -0.110195,0.58771 -0.244879,0.72239 -0.195902,0.1959 -0.62444,0.22039 -1.444781,0.22039 -0.391803,0 -1.54273,-0.0245 -2.22839,-0.0612 0,-0.82034 0.0245,-1.95903 0.06122,-2.63244 0.991757,-0.049 1.910048,-0.0612 2.265122,-0.0612 1.84883,0 2.118195,0.0979 2.179416,1.01625 h 0.257122 c -0.03673,-0.37957 -0.04898,-0.66118 -0.04898,-0.9183 v -0.0979 c 0,-0.28161 -0.01223,-0.59995 0.0245,-0.93054 -3.660928,0 -4.971025,0.0857 -5.387317,0.0857 -0.440781,0 -1.297854,-0.049 -2.069221,-0.0857 v 0.25712 c 0.78361,0.0857 1.077464,0.18366 1.236634,0.57547 0.15917,0.3918 0.208147,1.93454 0.208147,3.50176 v 0.33058 c 0,1.23664 -0.06122,2.75488 -0.183658,3.07322 -0.208148,0.48976 -0.648929,0.58771 -1.285611,0.67342 z"
       style="font-weight:normal;font-size:37.3333px;line-height:1.2;font-family:'President Std';-inkscape-font-specification:'President Std';font-variant-numeric:oldstyle-nums proportional-nums;letter-spacing:21.7822px;word-spacing:0px;white-space:pre;stroke-width:0.867679;paint-order:fill markers stroke"
       id="path11415" />
    <path
       d="m 106.86083,172.29274 c 0.64892,-0.0612 1.35907,-0.1102 2.57122,-0.1102 1.91005,0 4.11395,0.049 5.25263,0.1102 0,-0.47751 0.0122,-1.23664 0.049,-1.9223 h -0.25712 c -0.0367,0.28162 -0.0612,0.52649 -0.20815,0.67342 -0.25712,0.28161 -1.01624,0.34283 -2.09371,0.34283 -0.88156,0 -1.60395,-0.0367 -2.53449,-0.17142 -0.0367,-0.91829 -0.0612,-2.32634 -0.0612,-2.97526 0.72239,-0.0367 1.9223,-0.049 2.37532,-0.049 1.02849,0 1.51825,0.0122 1.71415,0.20815 0.13468,0.13468 0.15917,0.33058 0.24488,0.72239 h 0.25712 c -0.0367,-0.52649 -0.0612,-1.16317 -0.0612,-1.34683 0,-0.15917 0.0245,-0.95503 0.0612,-1.34683 h -0.25712 c -0.13469,0.84483 -0.20815,0.88156 -1.97127,0.88156 -0.51424,0 -1.59171,-0.0245 -2.36308,-0.0612 0,-0.58771 0.0245,-1.68966 0.0612,-2.66917 0.39181,-0.0612 0.79586,-0.0857 1.43254,-0.0857 2.82834,0 3.08546,0.0735 3.18342,0.99176 h 0.25712 c -0.049,-0.34283 -0.0612,-0.6122 -0.0612,-0.91829 v -0.18366 c 0,-0.1102 0.0245,-0.55098 0.0245,-0.75913 -1.05298,0.049 -4.71391,0.0857 -5.47303,0.0857 -0.47751,0 -1.49376,-0.0857 -2.1182,-0.0857 v 0.25712 c 0.74688,0.0612 1.15093,0.20815 1.28562,0.84483 0.0979,0.45303 0.13468,2.33859 0.13468,3.3181 v 0.15917 c 0,1.08971 -0.0612,2.32635 -0.0979,2.69366 -0.13469,0.79586 -0.3061,0.96727 -1.34683,1.13869 z"
       style="font-weight:normal;font-size:37.3333px;line-height:1.2;font-family:'President Std';-inkscape-font-specification:'President Std';font-variant-numeric:oldstyle-nums proportional-nums;letter-spacing:21.7822px;word-spacing:0px;white-space:pre;stroke-width:0.867679;paint-order:fill markers stroke"
       id="path11417" />
    <path
       d="m 126.85706,167.24825 c 0,-0.52649 0.0122,-1.95903 0.049,-2.63244 0.83259,-0.0612 1.40805,-0.0979 2.03249,-0.0979 0.52649,0 0.90605,0.0245 1.21215,0.12244 0.67341,0.23263 0.88155,0.67341 0.88155,1.15093 0,1.004 -1.23663,1.51824 -2.50999,1.51824 -0.24488,0 -0.68566,0 -1.66518,-0.0612 z m -2.81609,5.04449 c 0.68565,-0.0612 1.53048,-0.1102 2.16717,-0.1102 0.68566,0 1.45702,0.0245 2.03248,0.1102 v -0.25712 c -0.53873,-0.1102 -1.05297,-0.23264 -1.1999,-0.72239 -0.15917,-0.52649 -0.18366,-1.70191 -0.18366,-2.74264 v -0.33058 c 0.97952,-0.049 1.62844,-0.049 1.88557,-0.049 1.01624,0 1.32234,0.15917 1.57946,0.97951 l 0.74688,2.32635 c 0.1959,0.59995 0.502,0.79585 1.22439,0.79585 h 1.12644 v -0.25712 c -0.57547,-0.0122 -0.75913,-0.15917 -0.94278,-0.64893 l -0.94278,-2.52224 c -0.24488,-0.68566 -0.58771,-1.06522 -1.22439,-1.21215 1.43253,-0.28161 2.04473,-0.97951 2.04473,-1.94678 0,-0.74688 -0.42854,-1.54273 -1.35908,-1.87332 -0.46526,-0.15917 -0.88156,-0.20815 -1.84883,-0.20815 -0.96727,0 -2.41205,0.0857 -3.012,0.0857 -0.31834,0 -1.29785,-0.049 -1.94678,-0.0857 v 0.25712 c 0.74688,0.0857 1.01625,0.19591 1.17542,0.58771 0.15917,0.37956 0.20814,2.33859 0.20814,3.29361 v 0.20815 c 0,1.48151 -0.049,3.06098 -0.18366,3.39156 -0.1959,0.42854 -0.55097,0.6122 -1.34682,0.67342 z"
       style="font-weight:normal;font-size:37.3333px;line-height:1.2;font-family:'President Std';-inkscape-font-specification:'President Std';font-variant-numeric:oldstyle-nums proportional-nums;letter-spacing:21.7822px;word-spacing:0px;white-space:pre;stroke-width:0.867679;paint-order:fill markers stroke"
       id="path11419" />
    <path
       d="m 145.52227,169.09708 c -0.52649,0 -0.96727,-0.0122 -1.3958,-0.0612 l 1.97126,-3.66093 2.02025,3.66093 c -0.34283,0.049 -0.73464,0.0612 -1.37132,0.0612 z m -4.9098,3.19566 c 0.6979,-0.0612 1.33458,-0.1102 1.64068,-0.1102 0.23263,0 0.99176,0.049 1.64068,0.1102 v -0.25712 c -0.62444,-0.0122 -0.8938,-0.17142 -0.8938,-0.51425 0,-0.20814 0.20814,-0.72239 0.61219,-1.55497 0.63669,-0.0367 1.6162,-0.049 2.49776,-0.049 0.93054,0 1.8121,0.0122 2.51,0.049 0.31834,0.64892 0.67342,1.42029 0.67342,1.62843 0,0.3061 -0.24488,0.40405 -0.97952,0.44079 v 0.25712 c 0.59995,-0.0612 1.49376,-0.1102 1.84883,-0.1102 0.31834,0 1.3101,0.0735 1.86107,0.1102 v -0.25712 c -0.33058,-0.0612 -0.75912,-0.28161 -1.21214,-0.85708 -0.23264,-0.28161 -0.45303,-0.6979 -0.63669,-1.04073 l -3.61195,-6.57497 h -0.51424 l -2.80385,5.15468 c -1.45703,2.69366 -1.88557,3.18341 -2.63244,3.3181 z"
       style="font-weight:normal;font-size:37.3333px;line-height:1.2;font-family:'President Std';-inkscape-font-specification:'President Std';font-variant-numeric:oldstyle-nums proportional-nums;letter-spacing:21.7822px;word-spacing:0px;white-space:pre;stroke-width:0.867679;paint-order:fill markers stroke"
       id="path11421" />
    <path
       d="m 158.98826,172.29274 c 0.73464,-0.0857 1.55498,-0.1102 2.54674,-0.1102 h 1.23663 c 1.15093,0 1.84883,0.0122 3.95478,0.1102 0.0367,-0.74688 0.0612,-1.40805 0.1102,-2.04473 h -0.25712 c -0.098,0.97951 -0.34283,1.0897 -2.33859,1.0897 -0.52649,0 -1.39581,-0.0367 -2.38756,-0.12244 -0.0367,-0.97951 -0.0612,-1.61619 -0.0612,-2.21614 v -0.36732 c 0,-1.01624 0.0245,-3.35483 0.0857,-3.78337 0.0367,-0.2816 0.0979,-0.47751 0.18365,-0.5877 0.15917,-0.20815 0.52649,-0.29386 1.004,-0.37957 v -0.25712 c -0.75912,0.0367 -1.73863,0.0857 -1.95902,0.0857 -0.1959,0 -1.29786,-0.049 -1.94678,-0.0857 v 0.25712 c 0.73463,0.098 0.99175,0.23264 1.15093,0.58771 0.15917,0.37956 0.20814,2.04473 0.20814,3.15893 v 0.33059 c 0,1.42029 -0.0367,3.04873 -0.1959,3.4038 -0.18366,0.42854 -0.53873,0.6122 -1.33459,0.67342 z"
       style="font-weight:normal;font-size:37.3333px;line-height:1.2;font-family:'President Std';-inkscape-font-specification:'President Std';font-variant-numeric:oldstyle-nums proportional-nums;letter-spacing:21.7822px;word-spacing:0px;white-space:pre;stroke-width:0.867679;paint-order:fill markers stroke"
       id="path11423" />
    <text
       xml:space="preserve"
       transform="matrix(0.32796201,0,0,0.32796201,28.439453,-14.425064)"
       id="text631-8"
       style="font-weight:500;font-size:37.3333px;line-height:1.2;font-family:Inter;-inkscape-font-specification:'Inter Medium';font-variant-numeric:oldstyle-nums proportional-nums;letter-spacing:19.6928px;word-spacing:0px;white-space:pre;shape-inside:url(#rect633-8);fill:#000000;fill-opacity:1;stroke:none;stroke-width:2.64567;stroke-opacity:1;paint-order:fill markers stroke"><tspan
         x="121.82422"
         y="307.09992"
         id="tspan12804">.</tspan></text>
  </g>
</svg>
