<svg xmlns="http://www.w3.org/2000/svg" width="455.569" height="110.804" viewBox="0 0 120.536 29.317"><g font-weight="400" font-size="40.231" letter-spacing="0" word-spacing="0"><g style="line-height:1.25"><path d="M102.027 28.527a39.31 39.31 0 014.267-.277c1.383 0 3.16.119 4.544.277v-.83c-1.936-.276-2.529-.711-2.529-1.817 0-1.462 1.58-5.295 3.99-9.523l3.675-6.48c2.45-4.346 3.28-5.53 4.11-6.677V.553H100.17c0 1.778-.04 3.793-.158 5.69h.83c.434-2.332 1.422-2.845 5.61-2.845h3.516c1.739 0 3.794.079 5.255.276l-13.433 24.34z" style="-inkscape-font-specification:'President Std'" font-family="President Std" fill="#000" aria-label="7"/></g><path style="line-height:1.25;-inkscape-font-specification:'President Std'" d="M0 28.527c1.304-.04 3.398-.08 4.702-.08h8.258c1.54 0 3.872.04 5.413.08 0-2.134.118-3.556.316-5.927h-.83c-.435 2.845-1.185 3.2-8.495 3.2h-5.69c5.69-3.792 7.034-4.74 9.444-6.756 3.635-3.003 5.136-5.887 5.136-9.72C18.254 3.674 14.184 0 7.981 0c-2.37 0-4.78.474-7.23 1.462 0 1.383-.04 3.516-.158 5.136h.83C2.686 3.911 4.424 2.845 7.31 2.845c4.306 0 7.033 2.647 7.033 6.756 0 3.161-1.344 5.65-4.505 8.337-2.963 2.529-5.61 4.267-9.838 6.48zM42.19 2.924a8.251 8.251 0 016.282 2.924c1.778 2.173 2.647 5.175 2.647 9.008 0 3.833-.987 6.598-2.607 8.534-1.62 1.897-3.793 3.003-6.322 3.003-5.334 0-8.85-4.82-8.85-12.09 0-3.596.869-6.4 2.568-8.416 1.738-2.055 3.872-2.963 6.282-2.963zm0-2.924c-3.32 0-6.322 1.027-8.97 3.714-2.607 2.726-3.91 6.4-3.91 10.945 0 8.692 5.294 14.658 12.88 14.658 3.319 0 6.914-1.383 9.245-3.911 2.371-2.53 3.714-6.401 3.714-10.827 0-3.674-1.066-7.941-4.07-11.063C49.066 1.462 46.3 0 42.19 0z" font-family="President Std"/><g style="line-height:1.25"><path d="M76.347 2.924a8.251 8.251 0 016.282 2.924c1.778 2.173 2.647 5.175 2.647 9.008 0 3.833-.988 6.598-2.608 8.534-1.62 1.897-3.793 3.003-6.321 3.003-5.334 0-8.85-4.82-8.85-12.09 0-3.596.868-6.4 2.567-8.416 1.739-2.055 3.873-2.963 6.283-2.963zm0-2.924c-3.32 0-6.322 1.027-8.97 3.714-2.607 2.726-3.91 6.4-3.91 10.945 0 8.692 5.294 14.658 12.88 14.658 3.319 0 6.914-1.383 9.245-3.911 2.371-2.53 3.714-6.401 3.714-10.827 0-3.674-1.066-7.941-4.07-11.063C83.223 1.462 80.457 0 76.347 0z" style="-inkscape-font-specification:'President Std'" font-family="President Std" fill="#000" aria-label="0"/></g></g></svg>