<?xml version="1.0" encoding="UTF-8" standalone="no"?>
<!-- Created with Inkscape (http://www.inkscape.org/) -->

<svg
   xmlns:dc="http://purl.org/dc/elements/1.1/"
   xmlns:cc="http://creativecommons.org/ns#"
   xmlns:rdf="http://www.w3.org/1999/02/22-rdf-syntax-ns#"
   xmlns:svg="http://www.w3.org/2000/svg"
   xmlns="http://www.w3.org/2000/svg"
   xmlns:sodipodi="http://sodipodi.sourceforge.net/DTD/sodipodi-0.dtd"
   xmlns:inkscape="http://www.inkscape.org/namespaces/inkscape"
   width="120.536mm"
   height="29.316999mm"
   viewBox="0 0 120.536 29.316999"
   version="1.1"
   id="svg5031"
   inkscape:version="0.92.5 (2060ec1f9f, 2020-04-08)"
   sodipodi:docname="2007.svg">
  <defs
     id="defs5025" />
  <sodipodi:namedview
     id="base"
     pagecolor="#ffffff"
     bordercolor="#666666"
     borderopacity="1.0"
     inkscape:pageopacity="0.0"
     inkscape:pageshadow="2"
     inkscape:zoom="0.98994949"
     inkscape:cx="305.00143"
     inkscape:cy="149.95005"
     inkscape:document-units="mm"
     inkscape:current-layer="layer1"
     showgrid="false"
     showguides="false"
     inkscape:window-width="2558"
     inkscape:window-height="1410"
     inkscape:window-x="0"
     inkscape:window-y="0"
     inkscape:window-maximized="0" />
  <metadata
     id="metadata5028">
    <rdf:RDF>
      <cc:Work
         rdf:about="">
        <dc:format>image/svg+xml</dc:format>
        <dc:type
           rdf:resource="http://purl.org/dc/dcmitype/StillImage" />
        <dc:title></dc:title>
      </cc:Work>
    </rdf:RDF>
  </metadata>
  <g
     inkscape:label="Layer 1"
     inkscape:groupmode="layer"
     id="layer1"
     transform="translate(0,-267.683)">
    <g
       aria-label="7"
       transform="matrix(0.98211579,0,0,0.98211579,3.5801713,-30.179784)"
       style="font-style:normal;font-weight:normal;font-size:40.23060226px;line-height:1.25;font-family:sans-serif;letter-spacing:0px;word-spacing:0px;fill:#ff0000;fill-opacity:1;stroke:none"
       id="flowRoot4747-9-1">
      <path
         d="m 100.23929,332.3332 c 1.28737,-0.16092 3.09775,-0.28161 4.3449,-0.28161 1.40807,0 3.21845,0.12069 4.62652,0.28161 v -0.84484 c -1.9713,-0.28162 -2.57476,-0.72415 -2.57476,-1.85061 0,-1.48853 1.60923,-5.3909 4.06329,-9.69558 l 3.74145,-6.59781 c 2.4943,-4.42537 3.33914,-5.63229 4.18398,-6.79898 v -2.69545 H 98.348447 c 0,1.81038 -0.04023,3.86214 -0.160922,5.79321 h 0.844842 c 0.442537,-2.37361 1.448303,-2.8966 5.712743,-2.8966 h 3.58053 c 1.77014,0 3.86213,0.0805 5.35067,0.28161 L 99.997902,331.8102 Z"
         style="font-style:normal;font-variant:normal;font-weight:normal;font-stretch:normal;font-family:'President Std';-inkscape-font-specification:'President Std';fill:#000000"
         id="path10949"
         inkscape:connector-curvature="0" />
    </g>
    <path
       inkscape:connector-curvature="0"
       id="path4940-2"
       style="font-style:normal;font-variant:normal;font-weight:normal;font-stretch:normal;font-size:40.23060226px;line-height:1.25;font-family:'President Std';-inkscape-font-specification:'President Std';letter-spacing:0px;word-spacing:0px;fill:#000000;fill-opacity:1;stroke:none;stroke-width:0.98211581"
       d="m 0,296.20989 c 1.303867,-0.0395 3.3979511,-0.0791 4.7018181,-0.0791 h 8.2578259 c 1.540929,0 3.872089,0.0395 5.413019,0.0791 0,-2.13359 0.118532,-3.55599 0.316094,-5.92666 h -0.829731 c -0.434625,2.84479 -1.185335,3.2004 -8.494889,3.2004 H 3.6745341 c 5.6896029,-3.79307 7.0329809,-4.74133 9.4431519,-6.7564 3.635026,-3.00285 5.136446,-5.88715 5.136446,-9.71973 0,-5.6501 -4.069643,-9.32462 -10.2728919,-9.32462 -2.3706611,0 -4.780842,0.47412 -7.2305291,1.46191 0,1.38288 -0.03951,3.51648 -0.158044,5.13644 H 1.4224 c 1.2643511,-2.68676 3.0028441,-3.75356 5.8871511,-3.75356 4.3067149,0 7.0329799,2.64725 7.0329799,6.7564 0,3.16089 -1.343377,5.65009 -4.504267,8.33685 C 6.8749352,288.14963 4.2276911,289.88811 0,292.10074 Z" />
    <path
       inkscape:connector-curvature="0"
       id="path4942-8"
       style="font-style:normal;font-variant:normal;font-weight:normal;font-stretch:normal;font-size:40.23060226px;line-height:1.25;font-family:'President Std';-inkscape-font-specification:'President Std';letter-spacing:0px;word-spacing:0px;fill:#000000;fill-opacity:1;stroke:none;stroke-width:0.98211581"
       d="m 42.18981,270.60669 c 2.410172,0 4.701821,1.06681 6.282275,2.92382 1.777989,2.17312 2.64723,5.17596 2.64723,9.00854 0,3.83258 -0.987772,6.59835 -2.60772,8.5344 -1.619964,1.89653 -3.793083,3.00285 -6.321785,3.00285 -5.334008,0 -8.850495,-4.82037 -8.850495,-12.09041 0,-3.59551 0.869244,-6.40079 2.568223,-8.41587 1.738493,-2.05457 3.87209,-2.96333 6.282272,-2.96333 z m 0,-2.92381 c -3.318933,0 -6.321782,1.02728 -8.969026,3.71403 -2.607733,2.72627 -3.9116,6.40081 -3.9116,10.94459 0,8.69244 5.294487,14.65861 12.880626,14.65861 3.318931,0 6.914436,-1.38288 9.245595,-3.9116 2.370659,-2.52871 3.714041,-6.4008 3.714041,-10.82604 0,-3.67453 -1.066792,-7.94173 -4.069641,-11.06311 -2.01507,-2.05457 -4.780844,-3.51648 -8.889995,-3.51648 z" />
    <g
       aria-label="0"
       transform="matrix(0.98211579,0,0,0.98211579,-29.527984,-30.179784)"
       style="font-style:normal;font-weight:normal;font-size:40.23060226px;line-height:1.25;font-family:sans-serif;letter-spacing:0px;word-spacing:0px;fill:#ff0000;fill-opacity:1;stroke:none"
       id="flowRoot4747-9-1-5">
      <path
         d="m 107.80264,306.26377 c 2.45407,0 4.78744,1.08623 6.39666,2.97706 1.81038,2.21269 2.69545,5.27021 2.69545,9.17258 0,3.90237 -1.00576,6.71851 -2.65522,8.68981 -1.64945,1.93107 -3.86213,3.05753 -6.43689,3.05753 -5.43113,0 -9.011656,-4.90814 -9.011656,-12.31057 0,-3.66098 0.885073,-6.51735 2.614986,-8.56912 1.77015,-2.09199 3.9426,-3.01729 6.39667,-3.01729 z m 0,-2.97706 c -3.37937,0 -6.4369,1.04599 -9.132348,3.78167 -2.65522,2.77591 -3.98283,6.51736 -3.98283,11.14388 0,8.85073 5.390898,14.92555 13.115178,14.92555 3.37937,0 7.04035,-1.40807 9.41396,-3.98283 2.41384,-2.57476 3.78168,-6.51736 3.78168,-11.02318 0,-3.74145 -1.08623,-8.08635 -4.14376,-11.26457 -2.05176,-2.09199 -4.8679,-3.58052 -9.05188,-3.58052 z"
         style="font-style:normal;font-variant:normal;font-weight:normal;font-stretch:normal;font-family:'President Std';-inkscape-font-specification:'President Std';fill:#000000"
         id="path11031"
         inkscape:connector-curvature="0" />
    </g>
  </g>
</svg>
