<?xml version="1.0" encoding="UTF-8" standalone="no"?>
<!-- Created with Inkscape (http://www.inkscape.org/) -->

<svg
   xmlns:dc="http://purl.org/dc/elements/1.1/"
   xmlns:cc="http://creativecommons.org/ns#"
   xmlns:rdf="http://www.w3.org/1999/02/22-rdf-syntax-ns#"
   xmlns:svg="http://www.w3.org/2000/svg"
   xmlns="http://www.w3.org/2000/svg"
   xmlns:sodipodi="http://sodipodi.sourceforge.net/DTD/sodipodi-0.dtd"
   xmlns:inkscape="http://www.inkscape.org/namespaces/inkscape"
   width="120.536mm"
   height="29.316999mm"
   viewBox="0 0 120.536 29.316999"
   version="1.1"
   id="svg5031"
   inkscape:version="0.92.5 (2060ec1f9f, 2020-04-08)"
   sodipodi:docname="2008.svg">
  <defs
     id="defs5025" />
  <sodipodi:namedview
     id="base"
     pagecolor="#ffffff"
     bordercolor="#666666"
     borderopacity="1.0"
     inkscape:pageopacity="0.0"
     inkscape:pageshadow="2"
     inkscape:zoom="1.4"
     inkscape:cx="466.89896"
     inkscape:cy="-34.926654"
     inkscape:document-units="mm"
     inkscape:current-layer="layer1"
     showgrid="false"
     showguides="false"
     inkscape:window-width="2558"
     inkscape:window-height="1410"
     inkscape:window-x="0"
     inkscape:window-y="0"
     inkscape:window-maximized="0" />
  <metadata
     id="metadata5028">
    <rdf:RDF>
      <cc:Work
         rdf:about="">
        <dc:format>image/svg+xml</dc:format>
        <dc:type
           rdf:resource="http://purl.org/dc/dcmitype/StillImage" />
        <dc:title></dc:title>
      </cc:Work>
    </rdf:RDF>
  </metadata>
  <g
     inkscape:label="Layer 1"
     inkscape:groupmode="layer"
     id="layer1"
     transform="translate(0,-267.683)">
    <flowRoot
       xml:space="preserve"
       id="flowRoot4747-9-1"
       style="font-style:normal;font-weight:normal;font-size:40.23060226px;line-height:1.25;font-family:sans-serif;letter-spacing:0px;word-spacing:0px;fill:#ff0000;fill-opacity:1;stroke:none"
       transform="matrix(0.98211579,0,0,0.98211579,133.78017,-22.470292)"><flowRegion
         id="flowRegion4749-1-9"
         style="fill:#ff0000"><rect
           id="rect4751-2-4"
           width="638.57141"
           height="380"
           x="94.285713"
           y="293.23398"
           style="fill:#ff0000" /></flowRegion><flowPara
         id="flowPara4753-7-7"
         style="font-style:normal;font-variant:normal;font-weight:normal;font-stretch:normal;font-family:'President Std';-inkscape-font-specification:'President Std';fill:#000000">8</flowPara></flowRoot>    <path
       inkscape:connector-curvature="0"
       id="path4940-2"
       style="font-style:normal;font-variant:normal;font-weight:normal;font-stretch:normal;font-size:40.23060226px;line-height:1.25;font-family:'President Std';-inkscape-font-specification:'President Std';letter-spacing:0px;word-spacing:0px;fill:#000000;fill-opacity:1;stroke:none;stroke-width:0.98211581"
       d="m 130.01101,303.91938 c 1.30386,-0.0395 3.39795,-0.0791 4.70181,-0.0791 h 8.25783 c 1.54093,0 3.87209,0.0395 5.41302,0.0791 0,-2.13359 0.11853,-3.55599 0.31609,-5.92666 h -0.82973 c -0.43462,2.84479 -1.18533,3.2004 -8.49489,3.2004 h -5.6896 c 5.6896,-3.79307 7.03298,-4.74133 9.44315,-6.7564 3.63503,-3.00285 5.13645,-5.88715 5.13645,-9.71973 0,-5.6501 -4.06964,-9.32462 -10.27289,-9.32462 -2.37066,0 -4.78085,0.47412 -7.23053,1.46191 0,1.38288 -0.0395,3.51648 -0.15805,5.13644 h 0.82974 c 1.26435,-2.68676 3.00284,-3.75356 5.88715,-3.75356 4.30671,0 7.03298,2.64725 7.03298,6.7564 0,3.16089 -1.34338,5.65009 -4.50427,8.33685 -2.96333,2.52871 -5.61057,4.26719 -9.83826,6.47982 z" />
    <path
       inkscape:connector-curvature="0"
       id="path4942-8"
       style="font-style:normal;font-variant:normal;font-weight:normal;font-stretch:normal;font-size:40.23060226px;line-height:1.25;font-family:'President Std';-inkscape-font-specification:'President Std';letter-spacing:0px;word-spacing:0px;fill:#000000;fill-opacity:1;stroke:none;stroke-width:0.98211581"
       d="m 172.20082,278.31618 c 2.41017,0 4.70182,1.06681 6.28227,2.92382 1.77799,2.17312 2.64723,5.17596 2.64723,9.00854 0,3.83258 -0.98777,6.59835 -2.60772,8.5344 -1.61996,1.89653 -3.79308,3.00285 -6.32178,3.00285 -5.33401,0 -8.8505,-4.82037 -8.8505,-12.09041 0,-3.59551 0.86925,-6.40079 2.56822,-8.41587 1.7385,-2.05457 3.87209,-2.96333 6.28228,-2.96333 z m 0,-2.92381 c -3.31894,0 -6.32179,1.02728 -8.96903,3.71403 -2.60773,2.72627 -3.9116,6.40081 -3.9116,10.94459 0,8.69244 5.29449,14.65861 12.88063,14.65861 3.31893,0 6.91443,-1.38288 9.24559,-3.9116 2.37066,-2.52871 3.71404,-6.4008 3.71404,-10.82604 0,-3.67453 -1.06679,-7.94173 -4.06964,-11.06311 -2.01507,-2.05457 -4.78084,-3.51648 -8.88999,-3.51648 z" />
    <flowRoot
       xml:space="preserve"
       id="flowRoot4747-9-1-5"
       style="font-style:normal;font-weight:normal;font-size:40.23060226px;line-height:1.25;font-family:sans-serif;letter-spacing:0px;word-spacing:0px;fill:#ff0000;fill-opacity:1;stroke:none"
       transform="matrix(0.98211579,0,0,0.98211579,100.48302,-22.470292)"><flowRegion
         id="flowRegion4749-1-9-5"
         style="fill:#ff0000"><rect
           id="rect4751-2-4-4"
           width="638.57141"
           height="380"
           x="94.285713"
           y="293.23398"
           style="fill:#ff0000" /></flowRegion><flowPara
         id="flowPara4753-7-7-7"
         style="font-style:normal;font-variant:normal;font-weight:normal;font-stretch:normal;font-family:'President Std';-inkscape-font-specification:'President Std';fill:#000000">0</flowPara></flowRoot>    <flowRoot
       xml:space="preserve"
       id="flowRoot4747-9-1-6"
       style="font-style:normal;font-weight:normal;font-size:40.23060226px;line-height:1.25;font-family:sans-serif;letter-spacing:0px;word-spacing:0px;fill:#c83737;fill-opacity:1;stroke:none"
       transform="matrix(0.98211579,0,0,0.98211579,137.25804,-22.470291)"><flowRegion
         id="flowRegion4749-1-9-56"
         style="fill:#c83737"><rect
           id="rect4751-2-4-9"
           width="638.57141"
           height="380"
           x="94.285713"
           y="293.23398"
           style="fill:#c83737" /></flowRegion><flowPara
         id="flowPara4753-7-7-3"
         style="font-style:normal;font-variant:normal;font-weight:normal;font-stretch:normal;font-family:'President Std';-inkscape-font-specification:'President Std';fill:#c83737">9</flowPara></flowRoot>    <path
       inkscape:connector-curvature="0"
       id="path4940-2-7"
       style="font-style:normal;font-variant:normal;font-weight:normal;font-stretch:normal;font-size:40.23060226px;line-height:1.25;font-family:'President Std';-inkscape-font-specification:'President Std';letter-spacing:0px;word-spacing:0px;fill:#c83737;fill-opacity:1;stroke:none;stroke-width:0.98211581"
       d="m 130.01101,303.91938 c 1.30387,-0.0395 3.39796,-0.0791 4.70182,-0.0791 h 8.25783 c 1.54093,0 3.87209,0.0395 5.41302,0.0791 0,-2.13359 0.11853,-3.55599 0.31609,-5.92666 h -0.82973 c -0.43462,2.84479 -1.18533,3.2004 -8.49489,3.2004 h -5.6896 c 5.6896,-3.79307 7.03298,-4.74133 9.44315,-6.7564 3.63503,-3.00285 5.13645,-5.88715 5.13645,-9.71973 0,-5.6501 -4.06965,-9.32462 -10.2729,-9.32462 -2.37066,0 -4.78084,0.47412 -7.23052,1.46191 0,1.38288 -0.0395,3.51648 -0.15805,5.13644 h 0.82973 c 1.26436,-2.68676 3.00285,-3.75356 5.88716,-3.75356 4.30671,0 7.03298,2.64725 7.03298,6.7564 0,3.16089 -1.34338,5.65009 -4.50427,8.33685 -2.96333,2.52871 -5.61057,4.26719 -9.83827,6.47982 z" />
    <path
       inkscape:connector-curvature="0"
       id="path4942-8-4"
       style="font-style:normal;font-variant:normal;font-weight:normal;font-stretch:normal;font-size:40.23060226px;line-height:1.25;font-family:'President Std';-inkscape-font-specification:'President Std';letter-spacing:0px;word-spacing:0px;fill:#c83737;fill-opacity:1;stroke:none;stroke-width:0.98211581"
       d="m 172.20082,278.31618 c 2.41018,0 4.70183,1.06681 6.28228,2.92382 1.77799,2.17312 2.64723,5.17596 2.64723,9.00854 0,3.83258 -0.98777,6.59835 -2.60772,8.5344 -1.61996,1.89653 -3.79308,3.00285 -6.32179,3.00285 -5.334,0 -8.85049,-4.82037 -8.85049,-12.09041 0,-3.59551 0.86924,-6.40079 2.56822,-8.41587 1.7385,-2.05457 3.87209,-2.96333 6.28227,-2.96333 z m 0,-2.92381 c -3.31893,0 -6.32178,1.02728 -8.96902,3.71403 -2.60773,2.72627 -3.9116,6.40081 -3.9116,10.94459 0,8.69244 5.29449,14.65861 12.88062,14.65861 3.31894,0 6.91444,-1.38288 9.2456,-3.9116 2.37066,-2.52871 3.71404,-6.4008 3.71404,-10.82604 0,-3.67453 -1.06679,-7.94173 -4.06964,-11.06311 -2.01507,-2.05457 -4.78084,-3.51648 -8.89,-3.51648 z" />
    <flowRoot
       xml:space="preserve"
       id="flowRoot4747-9-1-5-5"
       style="font-style:normal;font-weight:normal;font-size:40.23060226px;line-height:1.25;font-family:sans-serif;letter-spacing:0px;word-spacing:0px;fill:#c83737;fill-opacity:1;stroke:none"
       transform="matrix(0.98211579,0,0,0.98211579,103.42299,-22.470291)"><flowRegion
         id="flowRegion4749-1-9-5-2"
         style="fill:#c83737"><rect
           id="rect4751-2-4-4-5"
           width="638.57141"
           height="380"
           x="94.285713"
           y="293.23398"
           style="fill:#c83737" /></flowRegion><flowPara
         id="flowPara4753-7-7-7-4"
         style="font-style:normal;font-variant:normal;font-weight:normal;font-stretch:normal;font-family:'President Std';-inkscape-font-specification:'President Std';fill:#c83737">0</flowPara></flowRoot>  </g>
</svg>
