<?xml version="1.0" encoding="UTF-8" standalone="no"?>
<!-- Created with Inkscape (http://www.inkscape.org/) -->

<svg
   xmlns:dc="http://purl.org/dc/elements/1.1/"
   xmlns:cc="http://creativecommons.org/ns#"
   xmlns:rdf="http://www.w3.org/1999/02/22-rdf-syntax-ns#"
   xmlns:svg="http://www.w3.org/2000/svg"
   xmlns="http://www.w3.org/2000/svg"
   xmlns:sodipodi="http://sodipodi.sourceforge.net/DTD/sodipodi-0.dtd"
   xmlns:inkscape="http://www.inkscape.org/namespaces/inkscape"
   width="120.536mm"
   height="29.316999mm"
   viewBox="0 0 120.536 29.316999"
   version="1.1"
   id="svg5031"
   inkscape:version="0.92.5 (2060ec1f9f, 2020-04-08)"
   sodipodi:docname="2009.svg">
  <defs
     id="defs5025" />
  <sodipodi:namedview
     id="base"
     pagecolor="#ffffff"
     bordercolor="#666666"
     borderopacity="1.0"
     inkscape:pageopacity="0.0"
     inkscape:pageshadow="2"
     inkscape:zoom="0.98994949"
     inkscape:cx="424.74897"
     inkscape:cy="219.95319"
     inkscape:document-units="mm"
     inkscape:current-layer="layer1"
     showgrid="false"
     showguides="false"
     inkscape:window-width="2558"
     inkscape:window-height="1410"
     inkscape:window-x="0"
     inkscape:window-y="0"
     inkscape:window-maximized="0" />
  <metadata
     id="metadata5028">
    <rdf:RDF>
      <cc:Work
         rdf:about="">
        <dc:format>image/svg+xml</dc:format>
        <dc:type
           rdf:resource="http://purl.org/dc/dcmitype/StillImage" />
        <dc:title></dc:title>
      </cc:Work>
    </rdf:RDF>
  </metadata>
  <g
     inkscape:label="Layer 1"
     inkscape:groupmode="layer"
     id="layer1"
     transform="translate(0,-267.683)">
    <g
       id="g11521"
       transform="translate(-91.640156,-46.463574)">
      <g
         aria-label="9"
         transform="matrix(0.98211579,0,0,0.98211579,94.126931,16.343056)"
         style="font-style:normal;font-weight:normal;font-size:40.23060226px;line-height:1.25;font-family:sans-serif;letter-spacing:0px;word-spacing:0px;fill:#ff0000;fill-opacity:1;stroke:none"
         id="flowRoot4747-9-1">
        <path
           d="m 107.64172,306.06262 c 1.8506,0 3.29891,0.56323 4.38513,1.72991 1.12646,1.24715 1.77015,2.93684 1.77015,4.74721 0,3.66099 -2.61499,6.39667 -5.99436,6.39667 -3.58052,0 -6.03459,-2.65522 -6.03459,-6.51736 0,-3.74144 2.4943,-6.35643 5.87367,-6.35643 z m -6.4369,26.27058 h 6.19551 c 7.28174,-6.3162 10.41973,-11.66687 10.41973,-18.10377 0,-3.37937 -0.92531,-5.95413 -2.81614,-8.00589 -1.81038,-1.9713 -4.42537,-3.05753 -7.16105,-3.05753 -5.63229,0 -9.93696,4.10352 -9.93696,9.45419 0,5.14952 3.86214,9.01166 9.05189,9.01166 2.73568,0 4.66675,-0.80461 6.91966,-3.17822 -0.44254,1.89084 -1.77015,4.34491 -4.02306,6.91967 -2.21268,2.65522 -4.66675,4.3449 -8.64958,6.27597 z"
           style="font-style:normal;font-variant:normal;font-weight:normal;font-stretch:normal;font-family:'President Std';-inkscape-font-specification:'President Std';fill:#000000"
           id="path11523"
           inkscape:connector-curvature="0" />
      </g>
      <path
         d="m 91.640156,342.73272 c 1.303867,-0.0395 3.397951,-0.0791 4.701818,-0.0791 h 8.257826 c 1.54093,0 3.87209,0.0395 5.41302,0.0791 0,-2.13359 0.11853,-3.55599 0.31609,-5.92666 h -0.82973 c -0.43462,2.84479 -1.18533,3.2004 -8.49489,3.2004 h -5.6896 c 5.6896,-3.79307 7.03298,-4.74133 9.44315,-6.7564 3.63503,-3.00285 5.13645,-5.88715 5.13645,-9.71973 0,-5.6501 -4.06965,-9.32462 -10.272894,-9.32462 -2.370661,0 -4.780842,0.47412 -7.230529,1.46191 0,1.38288 -0.03951,3.51648 -0.158044,5.13644 h 0.829733 c 1.264351,-2.68676 3.002844,-3.75356 5.887151,-3.75356 4.306713,0 7.032983,2.64725 7.032983,6.7564 0,3.16089 -1.34338,5.65009 -4.50427,8.33685 -2.963329,2.52871 -5.610573,4.26719 -9.838264,6.47982 z"
         style="font-style:normal;font-variant:normal;font-weight:normal;font-stretch:normal;font-size:40.23060226px;line-height:1.25;font-family:'President Std';-inkscape-font-specification:'President Std';letter-spacing:0px;word-spacing:0px;fill:#000000;fill-opacity:1;stroke:none;stroke-width:0.98211581"
         id="path4940-2"
         inkscape:connector-curvature="0" />
      <path
         d="m 133.82997,317.12952 c 2.41017,0 4.70182,1.06681 6.28227,2.92382 1.77799,2.17312 2.64723,5.17596 2.64723,9.00854 0,3.83258 -0.98777,6.59835 -2.60772,8.5344 -1.61996,1.89653 -3.79308,3.00285 -6.32178,3.00285 -5.33401,0 -8.8505,-4.82037 -8.8505,-12.09041 0,-3.59551 0.86924,-6.40079 2.56822,-8.41587 1.7385,-2.05457 3.87209,-2.96333 6.28228,-2.96333 z m 0,-2.92381 c -3.31894,0 -6.32179,1.02728 -8.96903,3.71403 -2.60773,2.72627 -3.9116,6.40081 -3.9116,10.94459 0,8.69244 5.29449,14.65861 12.88063,14.65861 3.31893,0 6.91443,-1.38288 9.24559,-3.9116 2.37066,-2.52871 3.71404,-6.4008 3.71404,-10.82604 0,-3.67453 -1.06679,-7.94173 -4.06964,-11.06311 -2.01507,-2.05457 -4.78084,-3.51648 -8.88999,-3.51648 z"
         style="font-style:normal;font-variant:normal;font-weight:normal;font-stretch:normal;font-size:40.23060226px;line-height:1.25;font-family:'President Std';-inkscape-font-specification:'President Std';letter-spacing:0px;word-spacing:0px;fill:#000000;fill-opacity:1;stroke:none;stroke-width:0.98211581"
         id="path4942-8"
         inkscape:connector-curvature="0" />
      <g
         aria-label="0"
         transform="matrix(0.98211579,0,0,0.98211579,62.112172,16.343056)"
         style="font-style:normal;font-weight:normal;font-size:40.23060226px;line-height:1.25;font-family:sans-serif;letter-spacing:0px;word-spacing:0px;fill:#ff0000;fill-opacity:1;stroke:none"
         id="flowRoot4747-9-1-5">
        <path
           d="m 107.80264,306.26377 c 2.45407,0 4.78744,1.08623 6.39666,2.97706 1.81038,2.21269 2.69545,5.27021 2.69545,9.17258 0,3.90237 -1.00576,6.71851 -2.65522,8.68981 -1.64945,1.93107 -3.86213,3.05753 -6.43689,3.05753 -5.43113,0 -9.011656,-4.90814 -9.011656,-12.31057 0,-3.66098 0.885073,-6.51735 2.614986,-8.56912 1.77015,-2.09199 3.9426,-3.01729 6.39667,-3.01729 z m 0,-2.97706 c -3.37937,0 -6.4369,1.04599 -9.132348,3.78167 -2.65522,2.77591 -3.98283,6.51736 -3.98283,11.14388 0,8.85073 5.390898,14.92555 13.115178,14.92555 3.37937,0 7.04035,-1.40807 9.41396,-3.98283 2.41384,-2.57476 3.78168,-6.51736 3.78168,-11.02318 0,-3.74145 -1.08623,-8.08635 -4.14376,-11.26457 -2.05176,-2.09199 -4.8679,-3.58052 -9.05188,-3.58052 z"
           style="font-style:normal;font-variant:normal;font-weight:normal;font-stretch:normal;font-family:'President Std';-inkscape-font-specification:'President Std';fill:#000000"
           id="path11526"
           inkscape:connector-curvature="0" />
      </g>
    </g>
  </g>
</svg>
