<?xml version="1.0" encoding="UTF-8" standalone="no"?>
<svg
   xmlns:dc="http://purl.org/dc/elements/1.1/"
   xmlns:cc="http://creativecommons.org/ns#"
   xmlns:rdf="http://www.w3.org/1999/02/22-rdf-syntax-ns#"
   xmlns:svg="http://www.w3.org/2000/svg"
   xmlns="http://www.w3.org/2000/svg"
   id="svg5031"
   version="1.1"
   viewBox="0 0 120.536 29.316999"
   height="29.316999mm"
   width="120.536mm">
  <defs
     id="defs5025" />
  <metadata
     id="metadata5028">
    <rdf:RDF>
      <cc:Work
         rdf:about="">
        <dc:format>image/svg+xml</dc:format>
        <dc:type
           rdf:resource="http://purl.org/dc/dcmitype/StillImage" />
        <dc:title></dc:title>
      </cc:Work>
    </rdf:RDF>
  </metadata>
  <g
     transform="translate(0,-267.683)"
     id="layer1">
    <g
       transform="translate(-63.307318,-30.344512)"
       id="g10464">
      <g
         id="flowRoot4747-9-1"
         style="font-style:normal;font-weight:normal;font-size:40.23060226px;line-height:1.25;font-family:sans-serif;letter-spacing:0px;word-spacing:0px;fill:#ff0000;fill-opacity:1;stroke:none"
         transform="matrix(0.98211579,0,0,0.98211579,56.019046,0.24375405)"
         aria-label="3">
        <path
           id="path10466"
           style="font-style:normal;font-variant:normal;font-weight:normal;font-stretch:normal;font-family:'President Std';-inkscape-font-specification:'President Std';fill:#000000"
           d="m 98.026602,325.73538 c 0.120692,1.9713 0.120692,4.06329 0.120692,5.87367 2.132226,0.80461 4.908136,1.24715 7.684046,1.24715 2.69545,0 4.94836,-0.44254 6.79897,-1.28738 3.05753,-1.4483 4.8679,-3.9426 4.8679,-7.00013 0,-1.12645 -0.28161,-2.21268 -0.80461,-3.21844 -1.08622,-2.13223 -3.01729,-3.45984 -6.39666,-4.22422 1.89083,-0.44253 3.45983,-1.04599 4.38513,-1.9713 1.24715,-1.16668 1.89084,-2.93683 1.89084,-4.70698 0,-3.50006 -2.69545,-5.83344 -5.63228,-6.71851 -1.36784,-0.4023 -2.97707,-0.60346 -4.82768,-0.60346 -2.57476,0 -4.74721,0.44254 -7.321966,1.36784 0,1.72992 0,3.5403 -0.120692,5.31044 h 0.844843 c 0.482767,-1.16668 1.045995,-2.01153 1.649455,-2.53453 1.08623,-0.84484 2.8966,-1.28737 5.10929,-1.28737 3.86213,0 6.27597,1.93106 6.27597,4.8679 0,2.53453 -1.85061,4.14375 -3.82191,4.66675 -0.76438,0.28161 -1.85061,0.28161 -2.93683,0.28161 -0.44254,0 -1.046,-0.0402 -1.32761,-0.0805 v 3.25868 c 0.36207,-0.12069 0.88507,-0.12069 1.32761,-0.12069 5.02882,0 7.52312,1.77014 7.52312,5.31044 0,3.74144 -2.81614,5.95413 -7.80474,5.95413 -4.02306,0 -6.3162,-1.48854 -6.638045,-4.38514 z" />
      </g>
      <path
         id="path4940-2"
         style="font-style:normal;font-variant:normal;font-weight:normal;font-stretch:normal;font-size:40.23060226px;line-height:1.25;font-family:'President Std';-inkscape-font-specification:'President Std';letter-spacing:0px;word-spacing:0px;fill:#000000;fill-opacity:1;stroke:none;stroke-width:0.98211581"
         d="m 63.307318,326.63344 c 1.303867,-0.0395 3.397951,-0.0791 4.701818,-0.0791 h 8.257826 c 1.540929,0 3.872089,0.0395 5.413019,0.0791 0,-2.1336 0.118532,-3.556 0.316094,-5.92667 h -0.829731 c -0.434625,2.84479 -1.185335,3.2004 -8.494889,3.2004 h -5.689603 c 5.689603,-3.79307 7.032981,-4.74133 9.443152,-6.7564 3.635026,-3.00285 5.136446,-5.88715 5.136446,-9.71973 0,-5.6501 -4.069643,-9.32462 -10.272892,-9.32462 -2.370661,0 -4.780842,0.47412 -7.230529,1.46191 0,1.38288 -0.03951,3.51648 -0.158044,5.13644 h 0.829733 c 1.264351,-2.68676 3.002844,-3.75356 5.887151,-3.75356 4.306715,0 7.03298,2.64725 7.03298,6.7564 0,3.16089 -1.343377,5.65009 -4.504267,8.33685 -2.963329,2.52871 -5.610573,4.26719 -9.838264,6.47982 z" />
      <path
         id="path4942-8"
         style="font-style:normal;font-variant:normal;font-weight:normal;font-stretch:normal;font-size:40.23060226px;line-height:1.25;font-family:'President Std';-inkscape-font-specification:'President Std';letter-spacing:0px;word-spacing:0px;fill:#000000;fill-opacity:1;stroke:none;stroke-width:0.98211581"
         d="m 105.49713,301.03023 c 2.41017,0 4.70182,1.06681 6.28227,2.92382 1.77799,2.17312 2.64723,5.17596 2.64723,9.00854 0,3.83258 -0.98777,6.59835 -2.60772,8.5344 -1.61996,1.89653 -3.79308,3.00285 -6.32178,3.00285 -5.33401,0 -8.850497,-4.82037 -8.850497,-12.09041 0,-3.59551 0.869244,-6.40079 2.568223,-8.41587 1.738494,-2.05457 3.872094,-2.96333 6.282274,-2.96333 z m 0,-2.92381 c -3.31894,0 -6.321784,1.02728 -8.969028,3.71403 -2.607733,2.72627 -3.9116,6.40081 -3.9116,10.94459 0,8.69244 5.294487,14.65861 12.880628,14.65861 3.31893,0 6.91443,-1.38288 9.24559,-3.9116 2.37066,-2.52871 3.71404,-6.4008 3.71404,-10.82604 0,-3.67453 -1.06679,-7.94173 -4.06964,-11.06311 -2.01507,-2.05457 -4.78084,-3.51648 -8.88999,-3.51648 z" />
      <path
         id="path4870-9"
         style="font-style:normal;font-variant:normal;font-weight:normal;font-stretch:normal;font-size:40.23060226px;line-height:1.25;font-family:'President Std';-inkscape-font-specification:'President Std';letter-spacing:0px;word-spacing:0px;fill:#000000;fill-opacity:1;stroke:none;stroke-width:0.98211581"
         d="m 128.33001,326.63344 c 2.21262,-0.19754 4.97839,-0.3556 6.7564,-0.3556 1.85702,0 4.42524,0.15806 6.12423,0.3556 v -0.82972 c -1.54094,-0.11853 -2.56823,-0.43464 -3.08187,-0.94828 -1.06681,-1.0668 -1.30387,-2.4892 -1.30387,-8.65293 0,-6.20324 0.11853,-13.35476 0.31608,-17.46392 -1.30386,0.11854 -2.05457,0.11854 -2.64724,0.11854 h -0.31608 c -1.61996,0 -3.55601,-0.0791 -5.57108,-0.19756 v 0.82974 c 3.47699,0.19755 4.46476,1.34338 4.46476,6.40079 v 3.83258 c 0,8.06027 -0.3951,13.51281 -0.94826,14.26352 -0.82974,1.22484 -1.69898,1.65946 -3.79307,1.81752 z" />
    </g>
  </g>
</svg>
