<?xml version="1.0" encoding="UTF-8" standalone="no"?>
<svg
   xmlns:dc="http://purl.org/dc/elements/1.1/"
   xmlns:cc="http://creativecommons.org/ns#"
   xmlns:rdf="http://www.w3.org/1999/02/22-rdf-syntax-ns#"
   xmlns:svg="http://www.w3.org/2000/svg"
   xmlns="http://www.w3.org/2000/svg"
   id="svg5031"
   version="1.1"
   viewBox="0 0 120.536 29.316999"
   height="29.316999mm"
   width="120.536mm">
  <defs
     id="defs5025" />
  <metadata
     id="metadata5028">
    <rdf:RDF>
      <cc:Work
         rdf:about="">
        <dc:format>image/svg+xml</dc:format>
        <dc:type
           rdf:resource="http://purl.org/dc/dcmitype/StillImage" />
        <dc:title></dc:title>
      </cc:Work>
    </rdf:RDF>
  </metadata>
  <g
     transform="translate(0,-267.683)"
     id="layer1">
    <g
       transform="translate(-29.755026,-14.280526)"
       id="g10400">
      <g
         id="flowRoot4747-9-1"
         style="font-style:normal;font-weight:normal;font-size:40.23060226px;line-height:1.25;font-family:sans-serif;letter-spacing:0px;word-spacing:0px;fill:#ff0000;fill-opacity:1;stroke:none"
         transform="matrix(0.98211579,0,0,0.98211579,22.466755,-15.89927)"
         aria-label="5">
        <path
           id="path10402"
           style="font-style:normal;font-variant:normal;font-weight:normal;font-stretch:normal;font-family:'President Std';-inkscape-font-specification:'President Std';fill:#000000"
           d="m 98.630061,325.81584 c 0.120692,1.89084 0.120692,4.02306 0.120692,5.67252 2.051757,0.76438 4.385137,1.16668 6.638047,1.16668 3.37937,0 6.27598,-1.08622 8.48866,-2.97706 2.05176,-1.85061 3.05753,-4.30467 3.05753,-7.40243 0,-3.21845 -1.24715,-5.83344 -3.70122,-7.80474 -2.09199,-1.72991 -4.38514,-2.33337 -7.12082,-2.33337 -0.64369,0 -1.72991,0.0402 -2.57476,0.16092 v -5.67251 c 0.60346,-0.0402 1.44831,-0.0805 2.05177,-0.0805 h 5.10928 c 3.62076,0 4.18398,0.523 4.82767,2.97707 h 0.84485 c -0.12069,-1.89084 -0.20116,-4.10352 -0.20116,-5.67252 H 99.796749 v 11.8278 c 1.568991,-0.64369 2.896601,-0.88507 4.706981,-0.88507 3.05752,0 4.78744,0.56323 6.27597,1.9713 1.4483,1.36784 2.17246,3.17821 2.17246,5.47136 0,2.25291 -0.68392,4.10352 -2.01153,5.51159 -1.28738,1.40807 -3.09776,2.09199 -5.43114,2.09199 -3.37937,0 -5.22997,-1.24715 -6.034586,-4.02306 z" />
      </g>
      <path
         id="path4940-2"
         style="font-style:normal;font-variant:normal;font-weight:normal;font-stretch:normal;font-size:40.23060226px;line-height:1.25;font-family:'President Std';-inkscape-font-specification:'President Std';letter-spacing:0px;word-spacing:0px;fill:#000000;fill-opacity:1;stroke:none;stroke-width:0.98211581"
         d="m 29.755026,310.49042 c 1.303867,-0.0395 3.397951,-0.0791 4.701818,-0.0791 h 8.257826 c 1.540929,0 3.872089,0.0395 5.413019,0.0791 0,-2.13359 0.118532,-3.55599 0.316094,-5.92666 h -0.829731 c -0.434625,2.84479 -1.185335,3.2004 -8.494889,3.2004 H 33.42956 c 5.689603,-3.79307 7.032981,-4.74133 9.443152,-6.7564 3.635026,-3.00285 5.136446,-5.88715 5.136446,-9.71973 0,-5.6501 -4.069643,-9.32462 -10.272892,-9.32462 -2.370661,0 -4.780842,0.47412 -7.230529,1.46191 0,1.38288 -0.03951,3.51648 -0.158044,5.13644 h 0.829733 c 1.264351,-2.68676 3.002844,-3.75356 5.887151,-3.75356 4.306715,0 7.03298,2.64725 7.03298,6.7564 0,3.16089 -1.343377,5.65009 -4.504267,8.33685 -2.963328,2.52871 -5.610573,4.26719 -9.838264,6.47982 z" />
      <path
         id="path4942-8"
         style="font-style:normal;font-variant:normal;font-weight:normal;font-stretch:normal;font-size:40.23060226px;line-height:1.25;font-family:'President Std';-inkscape-font-specification:'President Std';letter-spacing:0px;word-spacing:0px;fill:#000000;fill-opacity:1;stroke:none;stroke-width:0.98211581"
         d="m 71.944836,284.88722 c 2.410172,0 4.701821,1.06681 6.282275,2.92382 1.777989,2.17312 2.64723,5.17596 2.64723,9.00854 0,3.83258 -0.987772,6.59835 -2.60772,8.5344 -1.619964,1.89653 -3.793083,3.00285 -6.321785,3.00285 -5.334008,0 -8.850495,-4.82037 -8.850495,-12.09041 0,-3.59551 0.869244,-6.40079 2.568223,-8.41587 1.738493,-2.05457 3.87209,-2.96333 6.282272,-2.96333 z m 0,-2.92381 c -3.318933,0 -6.321782,1.02728 -8.969026,3.71403 -2.607733,2.72627 -3.9116,6.40081 -3.9116,10.94459 0,8.69244 5.294487,14.65861 12.880626,14.65861 3.318931,0 6.914436,-1.38288 9.245595,-3.9116 2.370659,-2.52871 3.714041,-6.4008 3.714041,-10.82604 0,-3.67453 -1.066792,-7.94173 -4.069641,-11.06311 -2.01507,-2.05457 -4.780844,-3.51648 -8.889995,-3.51648 z" />
      <path
         id="path4870-9"
         style="font-style:normal;font-variant:normal;font-weight:normal;font-stretch:normal;font-size:40.23060226px;line-height:1.25;font-family:'President Std';-inkscape-font-specification:'President Std';letter-spacing:0px;word-spacing:0px;fill:#000000;fill-opacity:1;stroke:none;stroke-width:0.98211581"
         d="m 94.777722,310.49043 c 2.212617,-0.19755 4.978389,-0.3556 6.756398,-0.3556 1.85702,0 4.42524,0.15805 6.12423,0.3556 v -0.82973 c -1.54094,-0.11853 -2.56823,-0.43463 -3.08187,-0.94827 -1.06681,-1.0668 -1.30387,-2.4892 -1.30387,-8.65293 0,-6.20324 0.11853,-13.35476 0.31608,-17.46392 -1.30386,0.11854 -2.05457,0.11854 -2.64724,0.11854 h -0.31608 c -1.619959,0 -3.55601,-0.0791 -5.571079,-0.19756 v 0.82974 c 3.47699,0.19755 4.464759,1.34338 4.464759,6.40079 v 3.83258 c 0,8.06027 -0.3951,13.51281 -0.948259,14.26352 -0.829741,1.22484 -1.69898,1.65946 -3.793069,1.81751 z" />
    </g>
  </g>
</svg>
