<?xml version="1.0" encoding="UTF-8" standalone="no"?>
<svg
   xmlns:dc="http://purl.org/dc/elements/1.1/"
   xmlns:cc="http://creativecommons.org/ns#"
   xmlns:rdf="http://www.w3.org/1999/02/22-rdf-syntax-ns#"
   xmlns:svg="http://www.w3.org/2000/svg"
   xmlns="http://www.w3.org/2000/svg"
   id="svg5031"
   version="1.1"
   viewBox="0 0 120.536 29.316999"
   height="29.316999mm"
   width="120.536mm">
  <defs
     id="defs5025" />
  <metadata
     id="metadata5028">
    <rdf:RDF>
      <cc:Work
         rdf:about="">
        <dc:format>image/svg+xml</dc:format>
        <dc:type
           rdf:resource="http://purl.org/dc/dcmitype/StillImage" />
        <dc:title></dc:title>
      </cc:Work>
    </rdf:RDF>
  </metadata>
  <g
     transform="translate(0,-267.683)"
     id="layer1">
    <g
       id="flowRoot4747-9-1"
       style="font-style:normal;font-weight:normal;font-size:40.23060226px;line-height:1.25;font-family:sans-serif;letter-spacing:0px;word-spacing:0px;fill:#ff0000;fill-opacity:1;stroke:none"
       transform="matrix(0.98211579,0,0,0.98211579,-7.288272,-30.17979)"
       aria-label="6">
      <path
         id="path10327"
         style="font-style:normal;font-variant:normal;font-weight:normal;font-stretch:normal;font-family:'President Std';-inkscape-font-specification:'President Std';fill:#000000"
         d="m 107.8831,317.24672 c 3.70122,0 6.07482,2.53453 6.07482,6.55759 0,3.74145 -2.3736,6.31621 -5.9139,6.31621 -3.58052,0 -6.07482,-2.65522 -6.07482,-6.47713 0,-3.66099 2.53453,-6.39667 5.9139,-6.39667 z m 0.44254,-13.39679 c -7.28174,6.31621 -10.41973,11.66688 -10.41973,18.02331 0,3.5403 0.885074,6.03459 2.81614,8.08635 1.89084,2.05177 4.34491,3.0173 7.12082,3.0173 5.67251,0 9.97719,-4.02306 9.97719,-9.41396 0,-5.14952 -3.86214,-9.01166 -9.05189,-9.01166 -2.73568,0 -4.62652,0.88508 -6.91966,3.17822 0.44254,-1.89084 1.89084,-4.3449 4.02306,-6.91966 2.21268,-2.61499 4.66675,-4.34491 8.64958,-6.27598 v -0.68392 z" />
    </g>
    <path
       d="m 0,296.20989 c 1.303867,-0.0395 3.397951,-0.0791 4.701818,-0.0791 h 8.257826 c 1.540929,0 3.872094,0.0395 5.413024,0.0791 0,-2.13359 0.11853,-3.55599 0.31609,-5.92666 h -0.82973 c -0.43463,2.84479 -1.18534,3.2004 -8.494891,3.2004 H 3.674534 c 5.689603,-3.79307 7.032981,-4.74133 9.443152,-6.7564 3.635022,-3.00285 5.136442,-5.88715 5.136442,-9.71973 0,-5.6501 -4.069639,-9.32462 -10.272888,-9.32462 -2.370661,0 -4.780842,0.47412 -7.230529,1.46191 0,1.38288 -0.03951,3.51648 -0.158044,5.13644 H 1.4224 c 1.264351,-2.68676 3.002844,-3.75356 5.887151,-3.75356 4.306715,0 7.03298,2.64725 7.03298,6.7564 0,3.16089 -1.343377,5.65009 -4.504267,8.33685 C 6.874935,288.14963 4.227691,289.88811 0,292.10074 Z"
       style="font-style:normal;font-variant:normal;font-weight:normal;font-stretch:normal;font-size:40.23060226px;line-height:1.25;font-family:'President Std';-inkscape-font-specification:'President Std';letter-spacing:0px;word-spacing:0px;fill:#000000;fill-opacity:1;stroke:none;stroke-width:0.98211581"
       id="path4940-2" />
    <path
       d="m 42.189808,270.60669 c 2.41017,0 4.70182,1.06681 6.28228,2.92382 1.77799,2.17312 2.64723,5.17596 2.64723,9.00854 0,3.83258 -0.98777,6.59835 -2.60772,8.5344 -1.61997,1.89653 -3.79309,3.00285 -6.32179,3.00285 -5.33401,0 -8.85049,-4.82037 -8.85049,-12.09041 0,-3.59551 0.86924,-6.40079 2.56822,-8.41587 1.73849,-2.05457 3.87209,-2.96333 6.28227,-2.96333 z m 0,-2.92381 c -3.31893,0 -6.32178,1.02728 -8.96902,3.71403 -2.60774,2.72627 -3.9116,6.40081 -3.9116,10.94459 0,8.69244 5.29448,14.65861 12.88062,14.65861 3.31893,0 6.91444,-1.38288 9.2456,-3.9116 2.37066,-2.52871 3.71404,-6.4008 3.71404,-10.82604 0,-3.67453 -1.06679,-7.94173 -4.06964,-11.06311 -2.01507,-2.05457 -4.78085,-3.51648 -8.89,-3.51648 z"
       style="font-style:normal;font-variant:normal;font-weight:normal;font-stretch:normal;font-size:40.23060226px;line-height:1.25;font-family:'President Std';-inkscape-font-specification:'President Std';letter-spacing:0px;word-spacing:0px;fill:#000000;fill-opacity:1;stroke:none;stroke-width:0.98211581"
       id="path4942-8" />
    <path
       d="m 65.022698,296.2099 c 2.21262,-0.19755 4.97839,-0.3556 6.7564,-0.3556 1.85702,0 4.42524,0.15805 6.12423,0.3556 v -0.82973 c -1.54094,-0.11853 -2.56823,-0.43463 -3.08187,-0.94827 -1.06681,-1.0668 -1.30387,-2.4892 -1.30387,-8.65293 0,-6.20324 0.11853,-13.35476 0.31608,-17.46392 -1.30386,0.11854 -2.05457,0.11854 -2.64724,0.11854 h -0.31608 c -1.61996,0 -3.55601,-0.0791 -5.57108,-0.19756 v 0.82974 c 3.47699,0.19755 4.46476,1.34338 4.46476,6.40079 v 3.83258 c 0,8.06027 -0.3951,13.51281 -0.94826,14.26352 -0.82974,1.22484 -1.69898,1.65946 -3.79307,1.81751 z"
       style="font-style:normal;font-variant:normal;font-weight:normal;font-stretch:normal;font-size:40.23060226px;line-height:1.25;font-family:'President Std';-inkscape-font-specification:'President Std';letter-spacing:0px;word-spacing:0px;fill:#000000;fill-opacity:1;stroke:none;stroke-width:0.98211581"
       id="path4870-9" />
  </g>
</svg>
