<?xml version="1.0" encoding="UTF-8" standalone="no"?>
<svg
   xmlns:dc="http://purl.org/dc/elements/1.1/"
   xmlns:cc="http://creativecommons.org/ns#"
   xmlns:rdf="http://www.w3.org/1999/02/22-rdf-syntax-ns#"
   xmlns:svg="http://www.w3.org/2000/svg"
   xmlns="http://www.w3.org/2000/svg"
   id="svg5031"
   version="1.1"
   viewBox="0 0 120.536 29.316999"
   height="29.316999mm"
   width="120.536mm">
  <defs
     id="defs5025" />
  <metadata
     id="metadata5028">
    <rdf:RDF>
      <cc:Work
         rdf:about="">
        <dc:format>image/svg+xml</dc:format>
        <dc:type
           rdf:resource="http://purl.org/dc/dcmitype/StillImage" />
        <dc:title></dc:title>
      </cc:Work>
    </rdf:RDF>
  </metadata>
  <g
     transform="translate(0,-267.683)"
     id="layer1">
    <g
       id="flowRoot4747-9-1"
       style="font-style:normal;font-weight:normal;font-size:40.23060226px;line-height:1.25;font-family:sans-serif;letter-spacing:0px;word-spacing:0px;fill:#ff0000;fill-opacity:1;stroke:none"
       transform="matrix(0.98211579,0,0,0.98211579,-7.054412,-30.179791)"
       aria-label="7">
      <path
         id="path10074"
         style="font-style:normal;font-variant:normal;font-weight:normal;font-stretch:normal;font-family:'President Std';-inkscape-font-specification:'President Std';fill:#000000"
         d="m 100.23929,332.3332 c 1.28737,-0.16092 3.09775,-0.28161 4.3449,-0.28161 1.40807,0 3.21845,0.12069 4.62652,0.28161 v -0.84484 c -1.9713,-0.28162 -2.57476,-0.72415 -2.57476,-1.85061 0,-1.48853 1.60923,-5.3909 4.06329,-9.69558 l 3.74145,-6.59781 c 2.4943,-4.42537 3.33914,-5.63229 4.18398,-6.79898 v -2.69545 H 98.348447 c 0,1.81038 -0.04023,3.86214 -0.160922,5.79321 h 0.844842 c 0.442537,-2.37361 1.448303,-2.8966 5.712743,-2.8966 h 3.58053 c 1.77014,0 3.86213,0.0805 5.35067,0.28161 L 99.997902,331.8102 Z" />
    </g>
    <path
       d="m 0,296.20989 c 1.303867,-0.0395 3.397951,-0.0791 4.701821,-0.0791 h 8.25782 c 1.54093,0 3.87209,0.0395 5.41302,0.0791 0,-2.13359 0.11854,-3.55599 0.3161,-5.92666 h -0.82973 c -0.43463,2.84479 -1.18534,3.2004 -8.49489,3.2004 h -5.68961 c 5.68961,-3.79307 7.03299,-4.74133 9.44316,-6.7564 3.63502,-3.00285 5.13644,-5.88715 5.13644,-9.71973 0,-5.6501 -4.06964,-9.32462 -10.27289,-9.32462 -2.37066,0 -4.780843,0.47412 -7.23053,1.46191 0,1.38288 -0.03951,3.51648 -0.158044,5.13644 H 1.4224 c 1.264351,-2.68676 3.002841,-3.75356 5.887151,-3.75356 4.30672,0 7.03298,2.64725 7.03298,6.7564 0,3.16089 -1.34338,5.65009 -4.50427,8.33685 -2.96333,2.52871 -5.61057,4.26719 -9.838261,6.47982 z"
       style="font-style:normal;font-variant:normal;font-weight:normal;font-stretch:normal;font-size:40.23060226px;line-height:1.25;font-family:'President Std';-inkscape-font-specification:'President Std';letter-spacing:0px;word-spacing:0px;fill:#000000;fill-opacity:1;stroke:none;stroke-width:0.98211581"
       id="path4940-2" />
    <path
       d="m 42.189811,270.60669 c 2.41017,0 4.70182,1.06681 6.28228,2.92382 1.77798,2.17312 2.64723,5.17596 2.64723,9.00854 0,3.83258 -0.98778,6.59835 -2.60772,8.5344 -1.61997,1.89653 -3.79309,3.00285 -6.32179,3.00285 -5.33401,0 -8.85049,-4.82037 -8.85049,-12.09041 0,-3.59551 0.86924,-6.40079 2.56822,-8.41587 1.73849,-2.05457 3.87209,-2.96333 6.28227,-2.96333 z m 0,-2.92381 c -3.31893,0 -6.32178,1.02728 -8.96903,3.71403 -2.60773,2.72627 -3.9116,6.40081 -3.9116,10.94459 0,8.69244 5.29449,14.65861 12.88063,14.65861 3.31893,0 6.91444,-1.38288 9.2456,-3.9116 2.37065,-2.52871 3.71404,-6.4008 3.71404,-10.82604 0,-3.67453 -1.0668,-7.94173 -4.06964,-11.06311 -2.01507,-2.05457 -4.78085,-3.51648 -8.89,-3.51648 z"
       style="font-style:normal;font-variant:normal;font-weight:normal;font-stretch:normal;font-size:40.23060226px;line-height:1.25;font-family:'President Std';-inkscape-font-specification:'President Std';letter-spacing:0px;word-spacing:0px;fill:#000000;fill-opacity:1;stroke:none;stroke-width:0.98211581"
       id="path4942-8" />
    <path
       d="m 65.022701,296.2099 c 2.21261,-0.19755 4.97839,-0.3556 6.7564,-0.3556 1.85702,0 4.42523,0.15805 6.12422,0.3556 v -0.82973 c -1.54093,-0.11853 -2.56822,-0.43463 -3.08186,-0.94827 -1.06682,-1.0668 -1.30387,-2.4892 -1.30387,-8.65293 0,-6.20324 0.11853,-13.35476 0.31608,-17.46392 -1.30386,0.11854 -2.05457,0.11854 -2.64725,0.11854 h -0.31608 c -1.61995,0 -3.55601,-0.0791 -5.57107,-0.19756 v 0.82974 c 3.47699,0.19755 4.46475,1.34338 4.46475,6.40079 v 3.83258 c 0,8.06027 -0.3951,13.51281 -0.94825,14.26352 -0.82975,1.22484 -1.69898,1.65946 -3.79307,1.81751 z"
       style="font-style:normal;font-variant:normal;font-weight:normal;font-stretch:normal;font-size:40.23060226px;line-height:1.25;font-family:'President Std';-inkscape-font-specification:'President Std';letter-spacing:0px;word-spacing:0px;fill:#000000;fill-opacity:1;stroke:none;stroke-width:0.98211581"
       id="path4870-9" />
  </g>
</svg>
