<?xml version="1.0" encoding="UTF-8" standalone="no"?>
<svg
   xmlns:dc="http://purl.org/dc/elements/1.1/"
   xmlns:cc="http://creativecommons.org/ns#"
   xmlns:rdf="http://www.w3.org/1999/02/22-rdf-syntax-ns#"
   xmlns:svg="http://www.w3.org/2000/svg"
   xmlns="http://www.w3.org/2000/svg"
   id="svg5031"
   version="1.1"
   viewBox="0 0 120.536 29.316999"
   height="29.316999mm"
   width="120.536mm">
  <defs
     id="defs5025" />
  <metadata
     id="metadata5028">
    <rdf:RDF>
      <cc:Work
         rdf:about="">
        <dc:format>image/svg+xml</dc:format>
        <dc:type
           rdf:resource="http://purl.org/dc/dcmitype/StillImage" />
        <dc:title></dc:title>
      </cc:Work>
    </rdf:RDF>
  </metadata>
  <g
     transform="translate(0,-267.683)"
     id="layer1">
    <g
       transform="translate(-87.411802,-30.533496)"
       id="g9772">
      <path
         id="path4940-2"
         style="font-style:normal;font-variant:normal;font-weight:normal;font-stretch:normal;font-size:40.23060226px;line-height:1.25;font-family:'President Std';-inkscape-font-specification:'President Std';letter-spacing:0px;word-spacing:0px;fill:#000000;fill-opacity:1;stroke:none;stroke-width:0.98211581"
         d="m 87.411802,326.80266 c 1.303867,-0.0395 3.397951,-0.0791 4.701818,-0.0791 h 8.25783 c 1.54092,0 3.87208,0.0395 5.41301,0.0791 0,-2.13359 0.11854,-3.55599 0.3161,-5.92666 h -0.82973 c -0.43463,2.84479 -1.18534,3.2004 -8.494891,3.2004 h -5.689603 c 5.689603,-3.79307 7.032981,-4.74133 9.443154,-6.7564 3.63502,-3.00285 5.13644,-5.88715 5.13644,-9.71973 0,-5.6501 -4.06964,-9.32462 -10.272888,-9.32462 -2.370661,0 -4.780842,0.47412 -7.230529,1.46191 0,1.38288 -0.03951,3.51648 -0.158044,5.13644 h 0.829733 c 1.264351,-2.68676 3.002844,-3.75356 5.887151,-3.75356 4.306715,0 7.032977,2.64725 7.032977,6.7564 0,3.16089 -1.34337,5.65009 -4.504264,8.33685 -2.963329,2.52871 -5.610573,4.26719 -9.838264,6.47982 z" />
      <path
         id="path4942-8"
         style="font-style:normal;font-variant:normal;font-weight:normal;font-stretch:normal;font-size:40.23060226px;line-height:1.25;font-family:'President Std';-inkscape-font-specification:'President Std';letter-spacing:0px;word-spacing:0px;fill:#000000;fill-opacity:1;stroke:none;stroke-width:0.98211581"
         d="m 129.60161,301.19946 c 2.41017,0 4.70182,1.06681 6.28228,2.92382 1.77799,2.17312 2.64723,5.17596 2.64723,9.00854 0,3.83258 -0.98778,6.59835 -2.60772,8.5344 -1.61997,1.89653 -3.79309,3.00285 -6.32179,3.00285 -5.33401,0 -8.85049,-4.82037 -8.85049,-12.09041 0,-3.59551 0.86924,-6.40079 2.56822,-8.41587 1.73849,-2.05457 3.87209,-2.96333 6.28227,-2.96333 z m 0,-2.92381 c -3.31893,0 -6.32178,1.02728 -8.96902,3.71403 -2.60774,2.72627 -3.9116,6.40081 -3.9116,10.94459 0,8.69244 5.29448,14.65861 12.88062,14.65861 3.31893,0 6.91444,-1.38288 9.2456,-3.9116 2.37066,-2.52871 3.71404,-6.4008 3.71404,-10.82604 0,-3.67453 -1.06679,-7.94173 -4.06964,-11.06311 -2.01507,-2.05457 -4.78085,-3.51648 -8.89,-3.51648 z" />
      <path
         id="path4870-9"
         style="font-style:normal;font-variant:normal;font-weight:normal;font-stretch:normal;font-size:40.23060226px;line-height:1.25;font-family:'President Std';-inkscape-font-specification:'President Std';letter-spacing:0px;word-spacing:0px;fill:#000000;fill-opacity:1;stroke:none;stroke-width:0.98211581"
         d="m 152.4345,326.80267 c 2.21261,-0.19755 4.97839,-0.3556 6.7564,-0.3556 1.85702,0 4.42524,0.15805 6.12423,0.3556 v -0.82973 c -1.54094,-0.11853 -2.56823,-0.43463 -3.08187,-0.94827 -1.06681,-1.0668 -1.30387,-2.4892 -1.30387,-8.65293 0,-6.20324 0.11853,-13.35476 0.31608,-17.46392 -1.30386,0.11854 -2.05457,0.11854 -2.64724,0.11854 h -0.31608 c -1.61996,0 -3.55601,-0.0791 -5.57108,-0.19756 v 0.82974 c 3.47699,0.19755 4.46476,1.34338 4.46476,6.40079 v 3.83258 c 0,8.06027 -0.3951,13.51281 -0.94826,14.26352 -0.82974,1.22484 -1.69898,1.65946 -3.79307,1.81751 z" />
      <path
         id="path4872-3"
         style="font-style:normal;font-variant:normal;font-weight:normal;font-stretch:normal;font-size:40.23060226px;line-height:1.25;font-family:'President Std';-inkscape-font-specification:'President Std';letter-spacing:0px;word-spacing:0px;fill:#000000;fill-opacity:1;stroke:none;stroke-width:0.98211581"
         d="m 186.07403,301.00192 c 1.81751,0 3.23991,0.55316 4.30671,1.69897 1.10631,1.22485 1.73849,2.88432 1.73849,4.66231 0,3.59552 -2.56823,6.28227 -5.88716,6.28227 -3.51649,0 -5.92667,-2.60773 -5.92667,-6.4008 0,-3.67453 2.44969,-6.24275 5.76863,-6.24275 z m -6.32179,25.80075 h 6.08473 c 7.1515,-6.20324 10.23337,-11.45822 10.23337,-17.78 0,-3.31893 -0.90876,-5.84764 -2.76578,-7.86271 -1.778,-1.93604 -4.34622,-3.00285 -7.03298,-3.00285 -5.53156,0 -9.75925,4.03013 -9.75925,9.28511 0,5.05743 3.79307,8.85049 8.89001,8.85049 2.68675,0 4.58329,-0.79022 6.79591,-3.12138 -0.43462,1.85703 -1.73849,4.26721 -3.95111,6.79592 -2.17311,2.60774 -4.58329,4.2672 -8.4949,6.16373 z" />
    </g>
  </g>
</svg>
