<?xml version="1.0" encoding="UTF-8" standalone="no"?>
<svg
   xmlns:dc="http://purl.org/dc/elements/1.1/"
   xmlns:cc="http://creativecommons.org/ns#"
   xmlns:rdf="http://www.w3.org/1999/02/22-rdf-syntax-ns#"
   xmlns:svg="http://www.w3.org/2000/svg"
   xmlns="http://www.w3.org/2000/svg"
   id="svg5031"
   version="1.1"
   viewBox="0 0 120.536 29.316999"
   height="29.316999mm"
   width="120.536mm">
  <defs
     id="defs5025" />
  <metadata
     id="metadata5028">
    <rdf:RDF>
      <cc:Work
         rdf:about="">
        <dc:format>image/svg+xml</dc:format>
        <dc:type
           rdf:resource="http://purl.org/dc/dcmitype/StillImage" />
        <dc:title></dc:title>
      </cc:Work>
    </rdf:RDF>
  </metadata>
  <g
     transform="translate(0,-267.683)"
     id="layer1">
    <g
       transform="translate(6.5953845,-90.253736)"
       id="g9613">
      <path
         id="path4940-9"
         style="font-style:normal;font-variant:normal;font-weight:normal;font-stretch:normal;font-size:40.23060226px;line-height:1.25;font-family:'President Std';-inkscape-font-specification:'President Std';letter-spacing:0px;word-spacing:0px;fill:#000000;fill-opacity:1;stroke:none;stroke-width:0.98211581"
         d="m -6.4650959,386.46363 c 1.303867,-0.0395 3.3979511,-0.0791 4.7018181,-0.0791 h 8.2578259 c 1.540929,0 3.8720889,0.0395 5.4130189,0.0791 0,-2.13359 0.118532,-3.55599 0.316094,-5.92666 H 11.39393 c -0.434625,2.84479 -1.185335,3.2004 -8.4948889,3.2004 h -5.6896029 c 5.6896029,-3.79307 7.0329809,-4.74133 9.4431519,-6.7564 3.6350259,-3.00285 5.1364459,-5.88715 5.1364459,-9.71973 0,-5.6501 -4.0696429,-9.32462 -10.2728918,-9.32462 -2.37066112,0 -4.780842,0.47412 -7.2305291,1.46191 0,1.38288 -0.03951,3.51648 -0.158044,5.13644 h 0.829733 c 1.2643519,-2.68676 3.0028441,-3.75356 5.88715108,-3.75356 4.30671492,0 7.03297992,2.64725 7.03297992,6.7564 0,3.16089 -1.343377,5.65009 -4.504267,8.33685 -2.96332882,2.52871 -5.6105729,4.26719 -9.838264,6.47982 z" />
      <path
         id="path4942-2"
         style="font-style:normal;font-variant:normal;font-weight:normal;font-stretch:normal;font-size:40.23060226px;line-height:1.25;font-family:'President Std';-inkscape-font-specification:'President Std';letter-spacing:0px;word-spacing:0px;fill:#000000;fill-opacity:1;stroke:none;stroke-width:0.98211581"
         d="m 35.724714,360.86043 c 2.410172,0 4.701821,1.06681 6.282275,2.92382 1.777989,2.17312 2.64723,5.17596 2.64723,9.00854 0,3.83258 -0.987772,6.59835 -2.60772,8.5344 -1.619964,1.89653 -3.793083,3.00285 -6.321785,3.00285 -5.334008,0 -8.850495,-4.82037 -8.850495,-12.09041 0,-3.59551 0.869244,-6.40079 2.568223,-8.41587 1.738493,-2.05457 3.87209,-2.96333 6.282272,-2.96333 z m 0,-2.92381 c -3.318933,0 -6.321782,1.02728 -8.969026,3.71403 -2.607733,2.72627 -3.9116,6.40081 -3.9116,10.94459 0,8.69244 5.294487,14.65861 12.880626,14.65861 3.318931,0 6.914436,-1.38288 9.245595,-3.9116 2.370659,-2.52871 3.714041,-6.4008 3.714041,-10.82604 0,-3.67453 -1.066792,-7.94173 -4.069641,-11.06311 -2.01507,-2.05457 -4.780844,-3.51648 -8.889995,-3.51648 z" />
      <path
         id="path4940-7"
         style="font-style:normal;font-variant:normal;font-weight:normal;font-stretch:normal;font-size:40.23060226px;line-height:1.25;font-family:'President Std';-inkscape-font-specification:'President Std';letter-spacing:0px;word-spacing:0px;fill:#000000;fill-opacity:1;stroke:none;stroke-width:0.98211581"
         d="m 58.660888,386.46363 c 1.303872,-0.0395 3.397961,-0.0791 4.70182,-0.0791 h 8.257831 c 1.540931,0 3.87209,0.0395 5.413021,0.0791 0,-2.13359 0.118528,-3.55599 0.316089,-5.92666 h -0.82973 c -0.434621,2.84479 -1.185331,3.2004 -8.49489,3.2004 h -5.6896 c 5.6896,-3.79307 7.032979,-4.74133 9.443151,-6.7564 3.635028,-3.00285 5.136449,-5.88715 5.136449,-9.71973 0,-5.6501 -4.069649,-9.32462 -10.2729,-9.32462 -2.370659,0 -4.780841,0.47412 -7.230521,1.46191 0,1.38288 -0.0395,3.51648 -0.158048,5.13644 h 0.829728 c 1.264361,-2.68676 3.002851,-3.75356 5.887161,-3.75356 4.306711,0 7.03298,2.64725 7.03298,6.7564 0,3.16089 -1.34338,5.65009 -4.504269,8.33685 -2.963331,2.52871 -5.610572,4.26719 -9.838272,6.47982 z" />
      <path
         id="path4942-5"
         style="font-style:normal;font-variant:normal;font-weight:normal;font-stretch:normal;font-size:40.23060226px;line-height:1.25;font-family:'President Std';-inkscape-font-specification:'President Std';letter-spacing:0px;word-spacing:0px;fill:#000000;fill-opacity:1;stroke:none;stroke-width:0.98211581"
         d="m 100.8507,360.86043 c 2.41018,0 4.70182,1.06681 6.28228,2.92382 1.77799,2.17312 2.64722,5.17596 2.64722,9.00854 0,3.83258 -0.98776,6.59835 -2.60771,8.5344 -1.61997,1.89653 -3.79309,3.00285 -6.32179,3.00285 -5.333996,0 -8.850492,-4.82037 -8.850492,-12.09041 0,-3.59551 0.869241,-6.40079 2.568216,-8.41587 1.7385,-2.05457 3.87209,-2.96333 6.282276,-2.96333 z m 0,-2.92381 c -3.318926,0 -6.321786,1.02728 -8.96902,3.71403 -2.607731,2.72627 -3.9116,6.40081 -3.9116,10.94459 0,8.69244 5.29449,14.65861 12.88062,14.65861 3.31894,0 6.91443,-1.38288 9.2456,-3.9116 2.37066,-2.52871 3.71403,-6.4008 3.71403,-10.82604 0,-3.67453 -1.06678,-7.94173 -4.06963,-11.06311 -2.01508,-2.05457 -4.78084,-3.51648 -8.89,-3.51648 z" />
    </g>
  </g>
</svg>
