<?xml version="1.0" encoding="UTF-8" standalone="no"?>
<!-- Created with Inkscape (http://www.inkscape.org/) -->

<svg
   xmlns:dc="http://purl.org/dc/elements/1.1/"
   xmlns:cc="http://creativecommons.org/ns#"
   xmlns:rdf="http://www.w3.org/1999/02/22-rdf-syntax-ns#"
   xmlns:svg="http://www.w3.org/2000/svg"
   xmlns="http://www.w3.org/2000/svg"
   xmlns:sodipodi="http://sodipodi.sourceforge.net/DTD/sodipodi-0.dtd"
   xmlns:inkscape="http://www.inkscape.org/namespaces/inkscape"
   width="120.536mm"
   height="29.316999mm"
   viewBox="0 0 120.536 29.316999"
   version="1.1"
   id="svg5031"
   inkscape:version="0.92.5 (2060ec1f9f, 2020-04-08)"
   sodipodi:docname="2021.svg">
  <defs
     id="defs5025" />
  <sodipodi:namedview
     id="base"
     pagecolor="#ffffff"
     bordercolor="#666666"
     borderopacity="1.0"
     inkscape:pageopacity="0.0"
     inkscape:pageshadow="2"
     inkscape:zoom="1.4"
     inkscape:cx="404.56322"
     inkscape:cy="174.78276"
     inkscape:document-units="mm"
     inkscape:current-layer="layer1"
     showgrid="false"
     showguides="false"
     inkscape:window-width="2558"
     inkscape:window-height="1410"
     inkscape:window-x="0"
     inkscape:window-y="0"
     inkscape:window-maximized="0" />
  <metadata
     id="metadata5028">
    <rdf:RDF>
      <cc:Work
         rdf:about="">
        <dc:format>image/svg+xml</dc:format>
        <dc:type
           rdf:resource="http://purl.org/dc/dcmitype/StillImage" />
        <dc:title></dc:title>
      </cc:Work>
    </rdf:RDF>
  </metadata>
  <g
     inkscape:label="Layer 1"
     inkscape:groupmode="layer"
     id="layer1"
     transform="translate(0,-267.683)">
    <g
       id="g11682"
       transform="translate(-34.956004,36.924511)">
      <g
         aria-label="1"
         transform="matrix(0.98211579,0,0,0.98211579,31.562528,-67.104313)"
         style="font-style:normal;font-weight:normal;font-size:40.23060226px;line-height:1.25;font-family:sans-serif;letter-spacing:0px;word-spacing:0px;fill:#000000;fill-opacity:1;stroke:none"
         id="flowRoot4747-9-1-5-8">
        <path
           d="m 101.48643,332.3332 c 2.25292,-0.20115 5.06906,-0.36208 6.87944,-0.36208 1.89084,0 4.50582,0.16093 6.23574,0.36208 v -0.84484 c -1.56899,-0.12069 -2.61499,-0.44254 -3.13799,-0.96554 -1.08622,-1.08622 -1.32761,-2.53453 -1.32761,-8.8105 0,-6.3162 0.1207,-13.59794 0.32185,-17.78193 -1.32761,0.1207 -2.09199,0.1207 -2.69545,0.1207 h -0.32185 c -1.64945,0 -3.62075,-0.0805 -5.67251,-0.20116 v 0.84485 c 3.54029,0.20115 4.54606,1.36784 4.54606,6.51735 v 3.90237 c 0,8.20704 -0.40231,13.75887 -0.96554,14.52325 -0.84484,1.24715 -1.72991,1.68968 -3.86214,1.85061 z"
           style="font-style:normal;font-variant:normal;font-weight:normal;font-stretch:normal;font-family:'President Std';-inkscape-font-specification:'President Std';fill:#000000"
           id="path11703"
           inkscape:connector-curvature="0" />
      </g>
      <path
         d="m 34.956004,259.28538 c 1.303867,-0.0395 3.397951,-0.0791 4.701818,-0.0791 h 8.257826 c 1.540929,0 3.872089,0.0395 5.413019,0.0791 0,-2.13359 0.118532,-3.55599 0.316094,-5.92666 H 52.81503 c -0.434625,2.84479 -1.185335,3.2004 -8.494889,3.2004 h -5.689603 c 5.689603,-3.79307 7.032981,-4.74133 9.443152,-6.7564 3.635026,-3.00285 5.136446,-5.88715 5.136446,-9.71973 0,-5.6501 -4.069643,-9.32462 -10.272892,-9.32462 -2.370661,0 -4.780842,0.47412 -7.230529,1.46191 0,1.38288 -0.03951,3.51648 -0.158044,5.13644 h 0.829733 c 1.264352,-2.68676 3.002844,-3.75356 5.887151,-3.75356 4.306715,0 7.03298,2.64725 7.03298,6.7564 0,3.16089 -1.343377,5.65009 -4.504267,8.33685 -2.963329,2.52871 -5.610573,4.26719 -9.838264,6.47982 z"
         style="font-style:normal;font-variant:normal;font-weight:normal;font-stretch:normal;font-size:40.23060226px;line-height:1.25;font-family:'President Std';-inkscape-font-specification:'President Std';letter-spacing:0px;word-spacing:0px;fill:#000000;fill-opacity:1;stroke:none;stroke-width:0.98211581"
         id="path4940"
         inkscape:connector-curvature="0" />
      <path
         d="m 77.145814,233.68218 c 2.410172,0 4.701821,1.06681 6.282275,2.92382 1.777989,2.17312 2.64723,5.17596 2.64723,9.00854 0,3.83258 -0.987772,6.59835 -2.60772,8.5344 -1.619964,1.89653 -3.793083,3.00285 -6.321785,3.00285 -5.334008,0 -8.850495,-4.82037 -8.850495,-12.09041 0,-3.59551 0.869244,-6.40079 2.568223,-8.41587 1.738493,-2.05457 3.87209,-2.96333 6.282272,-2.96333 z m 0,-2.92381 c -3.318933,0 -6.321782,1.02728 -8.969026,3.71403 -2.607733,2.72627 -3.9116,6.40081 -3.9116,10.94459 0,8.69244 5.294487,14.65861 12.880626,14.65861 3.318931,0 6.914436,-1.38288 9.245595,-3.9116 2.370659,-2.52871 3.714041,-6.4008 3.714041,-10.82604 0,-3.67453 -1.066792,-7.94173 -4.069641,-11.06311 -2.01507,-2.05457 -4.780844,-3.51648 -8.889995,-3.51648 z"
         style="font-style:normal;font-variant:normal;font-weight:normal;font-stretch:normal;font-size:40.23060226px;line-height:1.25;font-family:'President Std';-inkscape-font-specification:'President Std';letter-spacing:0px;word-spacing:0px;fill:#000000;fill-opacity:1;stroke:none;stroke-width:0.98211581"
         id="path4942"
         inkscape:connector-curvature="0" />
      <path
         d="m 100.08199,259.28538 c 1.30387,-0.0395 3.39796,-0.0791 4.70182,-0.0791 h 8.25783 c 1.54093,0 3.87209,0.0395 5.41302,0.0791 0,-2.13359 0.11853,-3.55599 0.31609,-5.92666 h -0.82973 c -0.43462,2.84479 -1.18533,3.2004 -8.49489,3.2004 h -5.6896 c 5.6896,-3.79307 7.03298,-4.74133 9.44315,-6.7564 3.63503,-3.00285 5.13645,-5.88715 5.13645,-9.71973 0,-5.6501 -4.06965,-9.32462 -10.2729,-9.32462 -2.37066,0 -4.78084,0.47412 -7.23052,1.46191 0,1.38288 -0.0395,3.51648 -0.15805,5.13644 h 0.82973 c 1.26436,-2.68676 3.00285,-3.75356 5.88716,-3.75356 4.30671,0 7.03298,2.64725 7.03298,6.7564 0,3.16089 -1.34338,5.65009 -4.50427,8.33685 -2.96333,2.52871 -5.61057,4.26719 -9.83827,6.47982 z"
         style="font-style:normal;font-variant:normal;font-weight:normal;font-stretch:normal;font-size:40.23060226px;line-height:1.25;font-family:'President Std';-inkscape-font-specification:'President Std';letter-spacing:0px;word-spacing:0px;fill:#000000;fill-opacity:1;stroke:none;stroke-width:0.98211581"
         id="path4940-7"
         inkscape:connector-curvature="0" />
    </g>
  </g>
</svg>
