<?xml version="1.0" encoding="UTF-8" standalone="no"?>
<!-- Created with Inkscape (http://www.inkscape.org/) -->

<svg
   xmlns:dc="http://purl.org/dc/elements/1.1/"
   xmlns:cc="http://creativecommons.org/ns#"
   xmlns:rdf="http://www.w3.org/1999/02/22-rdf-syntax-ns#"
   xmlns:svg="http://www.w3.org/2000/svg"
   xmlns="http://www.w3.org/2000/svg"
   xmlns:sodipodi="http://sodipodi.sourceforge.net/DTD/sodipodi-0.dtd"
   xmlns:inkscape="http://www.inkscape.org/namespaces/inkscape"
   width="210mm"
   height="297mm"
   viewBox="0 0 210 297"
   version="1.1"
   id="svg8"
   inkscape:version="0.92.5 (2060ec1f9f, 2020-04-08)"
   sodipodi:docname="template.svg">
  <defs
     id="defs2" />
  <sodipodi:namedview
     id="base"
     pagecolor="#ffffff"
     bordercolor="#666666"
     borderopacity="1.0"
     inkscape:pageopacity="0.0"
     inkscape:pageshadow="2"
     inkscape:zoom="0.7"
     inkscape:cx="-66.884576"
     inkscape:cy="805.81655"
     inkscape:document-units="mm"
     inkscape:current-layer="layer1"
     showgrid="false"
     inkscape:window-width="2558"
     inkscape:window-height="1410"
     inkscape:window-x="0"
     inkscape:window-y="0"
     inkscape:window-maximized="0" />
  <metadata
     id="metadata5">
    <rdf:RDF>
      <cc:Work
         rdf:about="">
        <dc:format>image/svg+xml</dc:format>
        <dc:type
           rdf:resource="http://purl.org/dc/dcmitype/StillImage" />
        <dc:title></dc:title>
      </cc:Work>
    </rdf:RDF>
  </metadata>
  <g
     inkscape:label="Layer 1"
     inkscape:groupmode="layer"
     id="layer1">
    <flowRoot
       xml:space="preserve"
       id="flowRoot4747-9-1-5-8"
       style="font-style:normal;font-weight:normal;font-size:40.23060226px;line-height:1.25;font-family:sans-serif;letter-spacing:0px;word-spacing:0px;fill:#000000;fill-opacity:1;stroke:none"
       transform="matrix(0.98211579,0,0,0.98211579,48.220652,-186.68523)"><flowRegion
         id="flowRegion4749-1-9-5-9"
         style="fill:#000000"><rect
           id="rect4751-2-4-4-2"
           width="638.57141"
           height="380"
           x="94.285713"
           y="293.23398"
           style="fill:#000000" /></flowRegion><flowPara
         id="flowPara4753-7-7-7-6"
         style="font-style:normal;font-variant:normal;font-weight:normal;font-stretch:normal;font-family:'President Std';-inkscape-font-specification:'President Std';fill:#000000">1</flowPara></flowRoot>    <flowRoot
       xml:space="preserve"
       id="flowRoot4747-9-1"
       style="font-style:normal;font-weight:normal;font-size:40.23060226px;line-height:1.25;font-family:sans-serif;letter-spacing:0px;word-spacing:0px;fill:#ff0000;fill-opacity:1;stroke:none"
       transform="matrix(0.98211579,0,0,0.98211579,54.100902,-122.80725)"><flowRegion
         id="flowRegion4749-1-9"
         style="fill:#ff0000"><rect
           id="rect4751-2-4"
           width="638.57141"
           height="380"
           x="94.285713"
           y="293.23398"
           style="fill:#ff0000" /></flowRegion><flowPara
         id="flowPara4753-7-7"
         style="font-style:normal;font-variant:normal;font-weight:normal;font-stretch:normal;font-family:'President Std';-inkscape-font-specification:'President Std';fill:#000000">9</flowPara></flowRoot>    <path
       inkscape:connector-curvature="0"
       id="path4866"
       style="font-style:normal;font-variant:normal;font-weight:normal;font-stretch:normal;font-size:40.23060226px;line-height:1.25;font-family:'President Std';-inkscape-font-specification:'President Std';letter-spacing:0px;word-spacing:0px;fill:#000000;fill-opacity:1;stroke:none;stroke-width:0.98211581"
       d="m 49.391344,78.958883 c 1.303867,-0.03948 3.397951,-0.07906 4.701818,-0.07906 h 8.257826 c 1.540929,0 3.872089,0.03948 5.413019,0.07906 0,-2.133597 0.118532,-3.555995 0.316094,-5.926666 H 67.25037 c -0.434625,2.844797 -1.185335,3.200401 -8.494889,3.200401 h -5.689603 c 5.689603,-3.793068 7.032981,-4.741331 9.443152,-6.756397 3.635026,-3.002848 5.136446,-5.887155 5.136446,-9.719734 0,-5.650093 -4.069643,-9.32462 -10.272892,-9.32462 -2.370661,0 -4.780842,0.474126 -7.230529,1.461909 0,1.382887 -0.03951,3.516485 -0.158044,5.136446 h 0.829733 c 1.264352,-2.686765 3.002844,-3.753559 5.887151,-3.753559 4.306715,0 7.03298,2.647244 7.03298,6.756397 0,3.160891 -1.343377,5.650093 -4.504267,8.336847 -2.963329,2.528713 -5.610573,4.267195 -9.838264,6.479823 z" />
    <path
       inkscape:connector-curvature="0"
       id="path4868"
       style="font-style:normal;font-variant:normal;font-weight:normal;font-stretch:normal;font-size:40.23060226px;line-height:1.25;font-family:'President Std';-inkscape-font-specification:'President Std';letter-spacing:0px;word-spacing:0px;fill:#000000;fill-opacity:1;stroke:none;stroke-width:0.98211581"
       d="m 93.747805,53.355684 c 2.410171,0 4.70182,1.066804 6.282265,2.923818 1.77801,2.173118 2.64725,5.175957 2.64725,9.008536 0,3.832579 -0.98777,6.598354 -2.60774,8.534399 -1.619955,1.896535 -3.793072,3.002849 -6.321775,3.002849 -5.334008,0 -8.850493,-4.820362 -8.850493,-12.090405 0,-3.595507 0.869241,-6.400793 2.568222,-8.415868 1.738493,-2.054577 3.87209,-2.963329 6.282271,-2.963329 z m 0,-2.923817 c -3.318933,0 -6.321781,1.027283 -8.969025,3.714038 -2.607734,2.726265 -3.9116,6.400802 -3.9116,10.94458 0,8.692442 5.294488,14.658618 12.880625,14.658618 3.318933,0 6.914445,-1.382887 9.245615,-3.9116 2.37067,-2.528712 3.71404,-6.400802 3.71404,-10.826039 0,-3.674537 -1.06679,-7.941732 -4.06965,-11.063112 -2.01507,-2.054576 -4.780852,-3.516485 -8.890005,-3.516485 z" />
    <path
       inkscape:connector-curvature="0"
       id="path4870"
       style="font-style:normal;font-variant:normal;font-weight:normal;font-stretch:normal;font-size:40.23060226px;line-height:1.25;font-family:'President Std';-inkscape-font-specification:'President Std';letter-spacing:0px;word-spacing:0px;fill:#000000;fill-opacity:1;stroke:none;stroke-width:0.98211581"
       d="m 118.59739,78.958883 c 2.21262,-0.197552 4.97839,-0.355604 6.7564,-0.355604 1.85702,0 4.42524,0.158052 6.12423,0.355604 v -0.82973 c -1.54094,-0.118532 -2.56823,-0.434626 -3.08187,-0.948273 -1.06681,-1.066793 -1.30387,-2.489201 -1.30387,-8.652931 0,-6.203239 0.11853,-13.354751 0.31608,-17.463914 -1.30386,0.118541 -2.05457,0.118541 -2.64724,0.118541 h -0.31608 c -1.61996,0 -3.55601,-0.07906 -5.57108,-0.197562 v 0.829741 c 3.47699,0.197552 4.46476,1.343377 4.46476,6.400792 v 3.832579 c 0,8.060264 -0.3951,13.512804 -0.94826,14.263513 -0.82974,1.224846 -1.69898,1.659462 -3.79307,1.817514 z" />
    <path
       inkscape:connector-curvature="0"
       id="path4872"
       style="font-style:normal;font-variant:normal;font-weight:normal;font-stretch:normal;font-size:40.23060226px;line-height:1.25;font-family:'President Std';-inkscape-font-specification:'President Std';letter-spacing:0px;word-spacing:0px;fill:#000000;fill-opacity:1;stroke:none;stroke-width:0.98211581"
       d="m 152.6905,53.158132 c 1.81751,0 3.23991,0.553157 4.30671,1.698972 1.10631,1.224845 1.73849,2.884317 1.73849,4.66231 0,3.595516 -2.56822,6.28227 -5.88716,6.28227 -3.51648,0 -5.92666,-2.607733 -5.92666,-6.400802 0,-3.674527 2.44969,-6.24275 5.76862,-6.24275 z m -6.32178,25.800751 h 6.08472 c 7.1515,-6.203239 10.23337,-11.458217 10.23337,-17.779998 0,-3.318933 -0.90875,-5.847645 -2.76578,-7.862711 -1.778,-1.936045 -4.34622,-3.002849 -7.03298,-3.002849 -5.53155,0 -9.75924,4.030132 -9.75924,9.28511 0,5.057425 3.79307,8.850493 8.89,8.850493 2.68676,0 4.58329,-0.79022 6.79591,-3.12138 -0.43462,1.857024 -1.73848,4.267205 -3.95111,6.795917 -2.17311,2.607734 -4.58329,4.267195 -8.49489,6.16373 z" />
    <flowRoot
       xml:space="preserve"
       id="flowRoot4747"
       style="font-style:normal;font-weight:normal;font-size:40.23060226px;line-height:1.25;font-family:sans-serif;letter-spacing:0px;word-spacing:0px;fill:#ff0000;fill-opacity:1;stroke:none"
       transform="matrix(0.9821158,0,0,0.9821158,374.81907,-605.75223)"><flowRegion
         id="flowRegion4749"
         style="fill:#ff0000"><rect
           id="rect4751"
           width="638.57141"
           height="380"
           x="94.285713"
           y="293.23398"
           style="fill:#ff0000" /></flowRegion><flowPara
         id="flowPara4753"
         style="font-style:normal;font-variant:normal;font-weight:normal;font-stretch:normal;font-family:'President Std';-inkscape-font-specification:'President Std';fill:#ff0000">9</flowPara></flowRoot>    <flowRoot
       xml:space="preserve"
       id="flowRoot4747-3-3"
       style="font-style:normal;font-weight:normal;font-size:40.23060226px;line-height:1.25;font-family:sans-serif;letter-spacing:0px;word-spacing:0px;fill:#000000;fill-opacity:1;stroke:none"
       transform="matrix(0.98211579,0,0,0.98211579,306.19692,-490.29179)"><flowRegion
         id="flowRegion4749-6-5"
         style="fill:#000000"><rect
           id="rect4751-7-6"
           width="638.57141"
           height="380"
           x="94.285713"
           y="293.23398"
           style="fill:#000000" /></flowRegion><flowPara
         id="flowPara4753-5-2"
         style="font-style:normal;font-variant:normal;font-weight:normal;font-stretch:normal;font-family:'President Std';-inkscape-font-specification:'President Std';fill:#000000">2019</flowPara></flowRoot>    <flowRoot
       xml:space="preserve"
       id="flowRoot4747-9"
       style="font-style:normal;font-weight:normal;font-size:40.23060226px;line-height:1.25;font-family:sans-serif;letter-spacing:0px;word-spacing:0px;fill:#ff0000;fill-opacity:1;stroke:none"
       transform="matrix(0.98211579,0,0,0.98211579,386.04439,-490.29179)"><flowRegion
         id="flowRegion4749-1"
         style="fill:#ff0000"><rect
           id="rect4751-2"
           width="638.57141"
           height="380"
           x="94.285713"
           y="293.23398"
           style="fill:#ff0000" /></flowRegion><flowPara
         id="flowPara4753-7"
         style="font-style:normal;font-variant:normal;font-weight:normal;font-stretch:normal;font-family:'President Std';-inkscape-font-specification:'President Std';fill:#ff0000">9</flowPara></flowRoot>    <path
       inkscape:connector-curvature="0"
       id="path4903"
       style="font-style:normal;font-variant:normal;font-weight:normal;font-stretch:normal;font-size:40.23060226px;line-height:1.25;font-family:'President Std';-inkscape-font-specification:'President Std';letter-spacing:0px;word-spacing:0px;fill:#000000;fill-opacity:1;stroke:none;stroke-width:0.98211581"
       d="m 38.419612,-72.470472 c 1.303867,-0.0395 3.397951,-0.0791 4.701818,-0.0791 h 8.257826 c 1.540929,0 3.872089,0.0395 5.413019,0.0791 0,-2.13359 0.118532,-3.55599 0.316094,-5.92666 h -0.829731 c -0.434625,2.84479 -1.185335,3.2004 -8.494889,3.2004 h -5.689603 c 5.689603,-3.79307 7.032981,-4.74133 9.443152,-6.7564 3.635026,-3.00285 5.136446,-5.88715 5.136446,-9.71973 0,-5.6501 -4.069643,-9.324618 -10.272892,-9.324618 -2.370661,0 -4.780842,0.47412 -7.230529,1.461908 0,1.38288 -0.03951,3.51648 -0.158044,5.13644 h 0.829733 c 1.264352,-2.68676 3.002844,-3.75356 5.887151,-3.75356 4.306715,0 7.03298,2.64725 7.03298,6.7564 0,3.16089 -1.343377,5.65009 -4.504267,8.33685 -2.963329,2.52871 -5.610573,4.26719 -9.838264,6.47982 z" />
    <path
       inkscape:connector-curvature="0"
       id="path4905"
       style="font-style:normal;font-variant:normal;font-weight:normal;font-stretch:normal;font-size:40.23060226px;line-height:1.25;font-family:'President Std';-inkscape-font-specification:'President Std';letter-spacing:0px;word-spacing:0px;fill:#000000;fill-opacity:1;stroke:none;stroke-width:0.98211581"
       d="m 80.625348,-98.073672 c 2.410171,0 4.70182,1.06681 6.282261,2.92382 1.778003,2.17312 2.647243,5.17596 2.647243,9.00854 0,3.83258 -0.98777,6.59835 -2.607733,8.5344 -1.619951,1.89653 -3.793068,3.00285 -6.321771,3.00285 -5.334008,0 -8.850493,-4.82037 -8.850493,-12.09041 0,-3.59551 0.869241,-6.40079 2.568222,-8.41587 1.738493,-2.05457 3.87209,-2.96333 6.282271,-2.96333 z m 0,-2.923808 c -3.318933,0 -6.321781,1.027278 -8.969025,3.714028 -2.607734,2.72627 -3.9116,6.40081 -3.9116,10.94459 0,8.69244 5.294488,14.65861 12.880625,14.65861 3.318933,0 6.914444,-1.38288 9.2456,-3.9116 2.37066,-2.52871 3.71403,-6.4008 3.71403,-10.82604 0,-3.67453 -1.06679,-7.94173 -4.069636,-11.06311 -2.01507,-2.05457 -4.780841,-3.516478 -8.889994,-3.516478 z" />
    <path
       inkscape:connector-curvature="0"
       id="path4907"
       style="font-style:normal;font-variant:normal;font-weight:normal;font-stretch:normal;font-size:40.23060226px;line-height:1.25;font-family:'President Std';-inkscape-font-specification:'President Std';letter-spacing:0px;word-spacing:0px;fill:#000000;fill-opacity:1;stroke:none;stroke-width:0.98211581"
       d="m 115.2739,-98.073672 c 2.41018,0 4.70183,1.06681 6.28227,2.92382 1.77801,2.17312 2.64725,5.17596 2.64725,9.00854 0,3.83258 -0.98779,6.59835 -2.60774,8.5344 -1.61995,1.89653 -3.79307,3.00285 -6.32178,3.00285 -5.334,0 -8.85048,-4.82037 -8.85048,-12.09041 0,-3.59551 0.86924,-6.40079 2.56822,-8.41587 1.73848,-2.05457 3.87209,-2.96333 6.28226,-2.96333 z m 0,-2.923808 c -3.31893,0 -6.32177,1.027278 -8.96901,3.714028 -2.60773,2.72627 -3.9116,6.40081 -3.9116,10.94459 0,8.69244 5.29449,14.65861 12.88061,14.65861 3.31894,0 6.91445,-1.38288 9.2456,-3.9116 2.37067,-2.52871 3.71405,-6.4008 3.71405,-10.82604 0,-3.67453 -1.0668,-7.94173 -4.06964,-11.06311 -2.01507,-2.05457 -4.78084,-3.516478 -8.89001,-3.516478 z" />
    <path
       inkscape:connector-curvature="0"
       id="path4909"
       style="font-style:normal;font-variant:normal;font-weight:normal;font-stretch:normal;font-size:40.23060226px;line-height:1.25;font-family:'President Std';-inkscape-font-specification:'President Std';letter-spacing:0px;word-spacing:0px;fill:#000000;fill-opacity:1;stroke:none;stroke-width:0.98211581"
       d="m 146.55719,-98.271222 c 1.81752,0 3.23991,0.55316 4.30671,1.69897 1.10631,1.22485 1.73849,2.88432 1.73849,4.66231 0,3.59552 -2.56822,6.28227 -5.88716,6.28227 -3.51648,0 -5.92666,-2.60773 -5.92666,-6.4008 0,-3.67453 2.44969,-6.24275 5.76862,-6.24275 z m -6.32178,25.80075 h 6.08472 c 7.1515,-6.20324 10.23337,-11.45821 10.23337,-17.78 0,-3.31893 -0.90875,-5.84764 -2.76577,-7.86271 -1.77801,-1.936038 -4.34623,-3.002838 -7.03298,-3.002838 -5.53156,0 -9.75925,4.030128 -9.75925,9.285098 0,5.05743 3.79307,8.8505 8.89,8.8505 2.68676,0 4.58329,-0.79022 6.79591,-3.12138 -0.43461,1.85702 -1.73848,4.2672 -3.95111,6.79592 -2.17311,2.60773 -4.58329,4.26719 -8.49489,6.16372 z" />
    <path
       inkscape:connector-curvature="0"
       id="path4940"
       style="font-style:normal;font-variant:normal;font-weight:normal;font-stretch:normal;font-size:40.23060226px;line-height:1.25;font-family:'President Std';-inkscape-font-specification:'President Std';letter-spacing:0px;word-spacing:0px;fill:#000000;fill-opacity:1;stroke:none;stroke-width:0.98211581"
       d="m 51.614126,139.70445 c 1.303867,-0.0395 3.397951,-0.0791 4.701818,-0.0791 h 8.257826 c 1.540929,0 3.872089,0.0395 5.413019,0.0791 0,-2.13359 0.118532,-3.55599 0.316094,-5.92666 h -0.829731 c -0.434625,2.84479 -1.185335,3.2004 -8.494889,3.2004 H 55.28866 c 5.689603,-3.79307 7.032981,-4.74133 9.443152,-6.7564 3.635026,-3.00285 5.136446,-5.88715 5.136446,-9.71973 0,-5.6501 -4.069643,-9.32462 -10.272892,-9.32462 -2.370661,0 -4.780842,0.47412 -7.230529,1.46191 0,1.38288 -0.03951,3.51648 -0.158044,5.13644 h 0.829733 c 1.264352,-2.68676 3.002844,-3.75356 5.887151,-3.75356 4.306715,0 7.03298,2.64725 7.03298,6.7564 0,3.16089 -1.343377,5.65009 -4.504267,8.33685 -2.963329,2.52871 -5.610573,4.26719 -9.838264,6.47982 z" />
    <path
       inkscape:connector-curvature="0"
       id="path4942"
       style="font-style:normal;font-variant:normal;font-weight:normal;font-stretch:normal;font-size:40.23060226px;line-height:1.25;font-family:'President Std';-inkscape-font-specification:'President Std';letter-spacing:0px;word-spacing:0px;fill:#000000;fill-opacity:1;stroke:none;stroke-width:0.98211581"
       d="m 93.803935,114.10125 c 2.410171,0 4.701822,1.06681 6.282275,2.92382 1.77799,2.17312 2.64723,5.17596 2.64723,9.00854 0,3.83258 -0.98777,6.59835 -2.60772,8.5344 -1.619963,1.89653 -3.793082,3.00285 -6.321785,3.00285 -5.334008,0 -8.850493,-4.82037 -8.850493,-12.09041 0,-3.59551 0.869241,-6.40079 2.568222,-8.41587 1.738493,-2.05457 3.87209,-2.96333 6.282271,-2.96333 z m 0,-2.92381 c -3.318933,0 -6.321781,1.02728 -8.969025,3.71403 -2.607734,2.72627 -3.9116,6.40081 -3.9116,10.94459 0,8.69244 5.294488,14.65861 12.880625,14.65861 3.318932,0 6.914435,-1.38288 9.245595,-3.9116 2.37066,-2.52871 3.71404,-6.4008 3.71404,-10.82604 0,-3.67453 -1.06679,-7.94173 -4.06964,-11.06311 -2.01507,-2.05457 -4.780843,-3.51648 -8.889995,-3.51648 z" />
    <path
       inkscape:connector-curvature="0"
       id="path4940-7"
       style="font-style:normal;font-variant:normal;font-weight:normal;font-stretch:normal;font-size:40.23060226px;line-height:1.25;font-family:'President Std';-inkscape-font-specification:'President Std';letter-spacing:0px;word-spacing:0px;fill:#000000;fill-opacity:1;stroke:none;stroke-width:0.98211581"
       d="m 116.74011,139.70445 c 1.30387,-0.0395 3.39796,-0.0791 4.70182,-0.0791 h 8.25783 c 1.54093,0 3.87209,0.0395 5.41302,0.0791 0,-2.13359 0.11853,-3.55599 0.31609,-5.92666 h -0.82973 c -0.43462,2.84479 -1.18533,3.2004 -8.49489,3.2004 h -5.6896 c 5.6896,-3.79307 7.03298,-4.74133 9.44315,-6.7564 3.63503,-3.00285 5.13645,-5.88715 5.13645,-9.71973 0,-5.6501 -4.06965,-9.32462 -10.2729,-9.32462 -2.37066,0 -4.78084,0.47412 -7.23052,1.46191 0,1.38288 -0.0395,3.51648 -0.15805,5.13644 h 0.82973 c 1.26436,-2.68676 3.00285,-3.75356 5.88716,-3.75356 4.30671,0 7.03298,2.64725 7.03298,6.7564 0,3.16089 -1.34338,5.65009 -4.50427,8.33685 -2.96333,2.52871 -5.61057,4.26719 -9.83827,6.47982 z" />
    <path
       inkscape:connector-curvature="0"
       id="path4940-2"
       style="font-style:normal;font-variant:normal;font-weight:normal;font-stretch:normal;font-size:40.23060226px;line-height:1.25;font-family:'President Std';-inkscape-font-specification:'President Std';letter-spacing:0px;word-spacing:0px;fill:#000000;fill-opacity:1;stroke:none;stroke-width:0.98211581"
       d="m 51.614126,203.58243 c 1.303867,-0.0395 3.397951,-0.0791 4.701818,-0.0791 h 8.257826 c 1.540929,0 3.872089,0.0395 5.413019,0.0791 0,-2.13359 0.118532,-3.55599 0.316094,-5.92666 h -0.829731 c -0.434625,2.84479 -1.185335,3.2004 -8.494889,3.2004 H 55.28866 c 5.689603,-3.79307 7.032981,-4.74133 9.443152,-6.7564 3.635026,-3.00285 5.136446,-5.88715 5.136446,-9.71973 0,-5.6501 -4.069643,-9.32462 -10.272892,-9.32462 -2.370661,0 -4.780842,0.47412 -7.230529,1.46191 0,1.38288 -0.03951,3.51648 -0.158044,5.13644 h 0.829733 c 1.264351,-2.68676 3.002844,-3.75356 5.887151,-3.75356 4.306715,0 7.03298,2.64725 7.03298,6.7564 0,3.16089 -1.343377,5.65009 -4.504267,8.33685 -2.963329,2.52871 -5.610573,4.26719 -9.838264,6.47982 z" />
    <path
       inkscape:connector-curvature="0"
       id="path4942-8"
       style="font-style:normal;font-variant:normal;font-weight:normal;font-stretch:normal;font-size:40.23060226px;line-height:1.25;font-family:'President Std';-inkscape-font-specification:'President Std';letter-spacing:0px;word-spacing:0px;fill:#000000;fill-opacity:1;stroke:none;stroke-width:0.98211581"
       d="m 93.803936,177.97923 c 2.410172,0 4.701821,1.06681 6.282274,2.92382 1.77799,2.17312 2.64723,5.17596 2.64723,9.00854 0,3.83258 -0.98777,6.59835 -2.60772,8.5344 -1.619963,1.89653 -3.793082,3.00285 -6.321784,3.00285 -5.334008,0 -8.850495,-4.82037 -8.850495,-12.09041 0,-3.59551 0.869244,-6.40079 2.568223,-8.41587 1.738493,-2.05457 3.87209,-2.96333 6.282272,-2.96333 z m 0,-2.92381 c -3.318933,0 -6.321782,1.02728 -8.969026,3.71403 -2.607733,2.72627 -3.9116,6.40081 -3.9116,10.94459 0,8.69244 5.294487,14.65861 12.880626,14.65861 3.318931,0 6.914434,-1.38288 9.245594,-3.9116 2.37066,-2.52871 3.71404,-6.4008 3.71404,-10.82604 0,-3.67453 -1.06679,-7.94173 -4.06964,-11.06311 -2.01507,-2.05457 -4.780843,-3.51648 -8.889994,-3.51648 z" />
    <flowRoot
       xml:space="preserve"
       id="flowRoot4747-9-1-8"
       style="font-style:normal;font-weight:normal;font-size:40.23060226px;line-height:1.25;font-family:sans-serif;letter-spacing:0px;word-spacing:0px;fill:#ff0000;fill-opacity:1;stroke:none"
       transform="matrix(0.98211579,0,0,0.98211579,44.559714,-51.747726)"><flowRegion
         id="flowRegion4749-1-9-4"
         style="fill:#ff0000"><rect
           id="rect4751-2-4-5"
           width="638.57141"
           height="380"
           x="94.285713"
           y="293.23398"
           style="fill:#ff0000" /></flowRegion><flowPara
         id="flowPara4753-7-7-0"
         style="font-style:normal;font-variant:normal;font-weight:normal;font-stretch:normal;font-family:'President Std';-inkscape-font-specification:'President Std';fill:#000000">9</flowPara></flowRoot>    <path
       inkscape:connector-curvature="0"
       id="path4940-2-3"
       style="font-style:normal;font-variant:normal;font-weight:normal;font-stretch:normal;font-size:40.23060226px;line-height:1.25;font-family:'President Std';-inkscape-font-specification:'President Std';letter-spacing:0px;word-spacing:0px;fill:#000000;fill-opacity:1;stroke:none;stroke-width:0.98211581"
       d="m 51.614126,274.64194 c 1.303867,-0.0395 3.397951,-0.0791 4.701818,-0.0791 h 8.257826 c 1.540929,0 3.872089,0.0395 5.413019,0.0791 0,-2.13359 0.118532,-3.55599 0.316094,-5.92666 h -0.829731 c -0.434625,2.84479 -1.185335,3.2004 -8.494889,3.2004 H 55.28866 c 5.689603,-3.79307 7.032981,-4.74133 9.443152,-6.7564 3.635026,-3.00285 5.136446,-5.88715 5.136446,-9.71973 0,-5.6501 -4.069643,-9.32462 -10.272892,-9.32462 -2.370661,0 -4.780842,0.47412 -7.230529,1.46191 0,1.38288 -0.03951,3.51648 -0.158044,5.13644 h 0.829733 c 1.264351,-2.68676 3.002844,-3.75356 5.887151,-3.75356 4.306715,0 7.03298,2.64725 7.03298,6.7564 0,3.16089 -1.343377,5.65009 -4.504267,8.33685 -2.963329,2.52871 -5.610573,4.26719 -9.838264,6.47982 z" />
    <path
       inkscape:connector-curvature="0"
       id="path4942-8-6"
       style="font-style:normal;font-variant:normal;font-weight:normal;font-stretch:normal;font-size:40.23060226px;line-height:1.25;font-family:'President Std';-inkscape-font-specification:'President Std';letter-spacing:0px;word-spacing:0px;fill:#000000;fill-opacity:1;stroke:none;stroke-width:0.98211581"
       d="m 93.803936,249.03874 c 2.410172,0 4.701821,1.06681 6.282274,2.92382 1.77799,2.17312 2.64723,5.17596 2.64723,9.00854 0,3.83258 -0.98777,6.59835 -2.60772,8.5344 -1.619963,1.89653 -3.793082,3.00285 -6.321784,3.00285 -5.334008,0 -8.850495,-4.82037 -8.850495,-12.09041 0,-3.59551 0.869244,-6.40079 2.568223,-8.41587 1.738493,-2.05457 3.87209,-2.96333 6.282272,-2.96333 z m 0,-2.92381 c -3.318933,0 -6.321782,1.02728 -8.969026,3.71403 -2.607733,2.72627 -3.9116,6.40081 -3.9116,10.94459 0,8.69244 5.294487,14.65861 12.880626,14.65861 3.318931,0 6.914434,-1.38287 9.245594,-3.9116 2.37066,-2.52871 3.71404,-6.4008 3.71404,-10.82604 0,-3.67453 -1.06679,-7.94173 -4.06964,-11.06311 -2.01507,-2.05457 -4.780843,-3.51648 -8.889994,-3.51648 z" />
    <path
       inkscape:connector-curvature="0"
       id="path4870-9-1"
       style="font-style:normal;font-variant:normal;font-weight:normal;font-stretch:normal;font-size:40.23060226px;line-height:1.25;font-family:'President Std';-inkscape-font-specification:'President Std';letter-spacing:0px;word-spacing:0px;fill:#000000;fill-opacity:1;stroke:none;stroke-width:0.98211581"
       d="m 116.63682,274.64195 c 2.21262,-0.19755 4.97839,-0.3556 6.7564,-0.3556 1.85702,0 4.42524,0.15805 6.12423,0.3556 v -0.82973 c -1.54094,-0.11853 -2.56823,-0.43462 -3.08187,-0.94827 -1.06681,-1.0668 -1.30387,-2.4892 -1.30387,-8.65293 0,-6.20324 0.11853,-13.35476 0.31608,-17.46392 -1.30386,0.11854 -2.05457,0.11854 -2.64724,0.11854 h -0.31608 c -1.61996,0 -3.55601,-0.0791 -5.57108,-0.19756 v 0.82974 c 3.47699,0.19755 4.46476,1.34338 4.46476,6.40079 v 3.83258 c 0,8.06027 -0.3951,13.51281 -0.94826,14.26352 -0.82974,1.22484 -1.69898,1.65947 -3.79307,1.81751 z" />
    <flowRoot
       xml:space="preserve"
       id="flowRoot4747-9-1-5"
       style="font-style:normal;font-weight:normal;font-size:40.23060226px;line-height:1.25;font-family:sans-serif;letter-spacing:0px;word-spacing:0px;fill:#ff0000;fill-opacity:1;stroke:none"
       transform="matrix(0.98211579,0,0,0.98211579,22.086143,-122.80725)"><flowRegion
         id="flowRegion4749-1-9-5"
         style="fill:#ff0000"><rect
           id="rect4751-2-4-4"
           width="638.57141"
           height="380"
           x="94.285713"
           y="293.23398"
           style="fill:#ff0000" /></flowRegion><flowPara
         id="flowPara4753-7-7-7"
         style="font-style:normal;font-variant:normal;font-weight:normal;font-stretch:normal;font-family:'President Std';-inkscape-font-specification:'President Std';fill:#000000">0</flowPara></flowRoot>  </g>
</svg>
