<?xml version="1.0" encoding="UTF-8" standalone="no"?>
<!-- Created with Inkscape (http://www.inkscape.org/) -->

<svg
   xmlns:dc="http://purl.org/dc/elements/1.1/"
   xmlns:cc="http://creativecommons.org/ns#"
   xmlns:rdf="http://www.w3.org/1999/02/22-rdf-syntax-ns#"
   xmlns:svg="http://www.w3.org/2000/svg"
   xmlns="http://www.w3.org/2000/svg"
   xmlns:sodipodi="http://sodipodi.sourceforge.net/DTD/sodipodi-0.dtd"
   xmlns:inkscape="http://www.inkscape.org/namespaces/inkscape"
   width="155mm"
   height="23.259001mm"
   viewBox="0 0 155 23.259001"
   version="1.1"
   id="svg8"
   inkscape:version="0.92.5 (2060ec1f9f, 2020-04-08)"
   sodipodi:docname="email.svg">
  <defs
     id="defs2" />
  <sodipodi:namedview
     id="base"
     pagecolor="#ffffff"
     bordercolor="#666666"
     borderopacity="1.0"
     inkscape:pageopacity="0.0"
     inkscape:pageshadow="2"
     inkscape:zoom="1.4"
     inkscape:cx="225.93831"
     inkscape:cy="165.24773"
     inkscape:document-units="mm"
     inkscape:current-layer="layer1"
     showgrid="false"
     inkscape:window-width="2558"
     inkscape:window-height="1410"
     inkscape:window-x="0"
     inkscape:window-y="0"
     inkscape:window-maximized="0" />
  <metadata
     id="metadata5">
    <rdf:RDF>
      <cc:Work
         rdf:about="">
        <dc:format>image/svg+xml</dc:format>
        <dc:type
           rdf:resource="http://purl.org/dc/dcmitype/StillImage" />
        <dc:title></dc:title>
      </cc:Work>
    </rdf:RDF>
  </metadata>
  <g
     inkscape:label="Layer 1"
     inkscape:groupmode="layer"
     id="layer1"
     transform="translate(0,-273.741)">
    <g
       aria-label="m@seraferal.com"
       transform="matrix(0.26461434,0,0,0.26461434,-44.233514,181.98489)"
       style="font-style:normal;font-weight:normal;font-size:93.33333588px;line-height:1.25;font-family:sans-serif;letter-spacing:0px;word-spacing:0px;fill:#000000;fill-opacity:1;stroke:none"
       id="flowRoot4747">
      <path
         d="m 167.15909,416.75411 h 7.82197 v -31.81819 c 0,-7.45738 5.43561,-12.72727 11.53409,-12.72727 5.93277,0 10.07576,3.87784 10.07576,9.67803 v 34.86743 h 7.95455 v -33.14394 c 0,-6.5625 4.10984,-11.40152 11.26894,-11.40152 5.56818,0 10.3409,2.94981 10.3409,10.47349 v 34.07197 h 7.82197 v -34.07197 c 0,-11.96497 -6.42992,-17.5 -15.51136,-17.5 -7.29167,0 -12.62784,3.34753 -15.24621,8.61742 h -0.5303 c -2.51894,-5.43561 -6.96023,-8.61742 -13.65531,-8.61742 -6.62879,0 -11.53409,3.18181 -13.6553,8.61742 h -0.66288 v -7.95455 h -7.55682 z"
         style="letter-spacing:4px"
         id="path4759"
         inkscape:connector-curvature="0" />
      <path
         d="m 291.40529,434.65184 c 6.76137,0 15.37879,-1.98864 19.48864,-3.71213 l -1.85606,-6.09848 c -2.38636,0.79545 -10.07576,3.44697 -17.36743,3.44697 -22.67045,0 -34.73484,-12.72727 -34.73484,-35.26515 0,-22.14016 12.32954,-35.39773 33.14394,-35.39773 21.07954,0 31.02272,14.84848 31.02272,29.69697 0,15.11364 -1.59091,21.875 -8.35227,21.875 -3.97727,0 -6.09848,-3.3144 -6.09848,-7.02652 v -29.96212 h -7.02652 v 3.71212 h -0.39773 c -0.92803,-2.91666 -6.09848,-5.4356 -12.72727,-4.77272 -9.94318,1.0606 -17.5,9.2803 -17.5,21.21212 0,12.59469 5.96591,22.27273 17.5,22.67045 7.55682,0.26515 11.53409,-3.44697 13.125,-7.29166 h 0.39773 c 0.79545,5.70075 7.95454,7.68939 12.59469,7.68939 14.05304,0 15.37879,-15.11364 15.37879,-27.97349 0,-18.16288 -12.72727,-36.0606 -37.51894,-36.0606 -25.58712,0 -40.83333,15.51136 -40.83333,41.36363 0,26.78031 14.71591,41.89395 41.76136,41.89395 z m -3.84469,-26.38258 c -8.61743,0 -11.66667,-7.82197 -11.66667,-16.30682 0,-7.68939 4.375,-14.31818 11.93182,-14.31818 7.95454,0 12.19697,3.18182 12.19697,14.31818 0,11.00379 -3.57955,16.30682 -12.46212,16.30682 z"
         style="letter-spacing:4px"
         id="path4761"
         inkscape:connector-curvature="0" />
      <path
         d="m 379.72342,377.24653 c -2.45265,-7.22538 -7.95454,-12.06439 -18.0303,-12.06439 -10.73864,0 -18.69318,6.09848 -18.69318,14.71591 0,7.02651 4.17613,11.73295 13.52272,13.92045 l 8.48485,1.98864 c 5.13731,1.19318 7.55682,3.64583 7.55682,7.15909 0,4.375 -4.64015,7.95454 -11.93182,7.95454 -6.39678,0 -10.4072,-2.75094 -11.79924,-8.21969 l -7.42424,1.85606 c 1.82291,8.65057 8.94886,13.25757 19.35606,13.25757 11.83238,0 19.88636,-6.46306 19.88636,-15.24621 0,-7.0928 -4.44129,-11.56723 -13.52273,-13.78788 l -7.55681,-1.85606 c -6.0322,-1.49148 -8.75,-3.51326 -8.75,-7.42424 0,-4.375 4.64015,-7.55682 10.87121,-7.55682 6.82765,0 9.64488,3.77841 11.00379,7.29167 z"
         style="font-style:normal;font-variant:normal;font-weight:normal;font-stretch:normal;font-family:Inter;-inkscape-font-specification:Inter"
         id="path4763"
         inkscape:connector-curvature="0" />
      <path
         d="m 407.43166,417.94729 c 8.88257,0 13.52272,-4.77273 15.11363,-8.08712 h 0.39773 v 6.89394 h 7.82197 v -33.54167 c 0,-16.17424 -12.32955,-18.0303 -18.82576,-18.0303 -7.68939,0 -16.43939,2.65151 -20.41667,11.93181 l 7.42425,2.65152 c 1.72348,-3.71212 5.80019,-7.68939 13.25757,-7.68939 7.19224,0 10.73864,3.81155 10.73864,10.34091 v 0.26515 c 0,3.77841 -3.8447,3.44697 -13.125,4.64015 -9.44602,1.22632 -19.75379,3.31439 -19.75379,14.98106 0,9.94318 7.6894,15.64394 17.36743,15.64394 z m 1.19318,-7.02652 c -6.23106,0 -10.73864,-2.78409 -10.73864,-8.21969 0,-5.96591 5.43561,-7.82197 11.53409,-8.61743 3.3144,-0.39773 12.19697,-1.32576 13.52273,-2.91666 v 7.15909 c 0,6.36363 -5.03788,12.59469 -14.31818,12.59469 z"
         style="font-style:normal;font-variant:normal;font-weight:normal;font-stretch:normal;font-family:Inter;-inkscape-font-specification:Inter"
         id="path4765"
         inkscape:connector-curvature="0" />
      <path
         d="m 465.76486,417.81471 c 11.26894,0 18.69318,-6.89394 20.01894,-15.90909 h -7.82197 c -1.45833,5.56818 -6.09848,8.88258 -12.19697,8.88258 -9.2803,0 -15.24621,-7.6894 -15.24621,-19.48864 0,-11.53409 6.09848,-19.09091 15.24621,-19.09091 6.89394,0 11.00379,4.24243 12.19697,8.88258 h 7.82197 c -1.32576,-9.54546 -9.41288,-15.90909 -20.15152,-15.90909 -13.78787,0 -22.9356,10.87121 -22.9356,26.38257 0,15.24622 8.75,26.25 23.06818,26.25 z"
         style="font-style:normal;font-variant:normal;font-weight:normal;font-stretch:normal;font-family:Inter;-inkscape-font-specification:Inter"
         id="path4767"
         inkscape:connector-curvature="0" />
      <path
         d="m 518.52985,417.81471 c 10.34091,0 17.89773,-5.17045 20.28409,-12.85985 l -7.55682,-2.12121 c -1.98863,5.30303 -6.59564,7.95455 -12.72727,7.95455 -9.18087,0 -15.51136,-5.93277 -15.87595,-16.83712 h 36.9555 v -3.3144 c 0,-18.95833 -11.26894,-25.45454 -21.875,-25.45454 -13.78788,0 -22.93561,10.87121 -22.93561,26.51515 0,15.64394 9.01515,26.11742 23.73106,26.11742 z m -15.87595,-30.625 c 0.53031,-7.9214 6.13163,-14.98106 15.0805,-14.98106 8.48484,0 13.92045,6.36364 13.92045,14.98106 z"
         style="font-style:normal;font-variant:normal;font-weight:normal;font-stretch:normal;font-family:Inter;-inkscape-font-specification:Inter"
         id="path4769"
         inkscape:connector-curvature="0" />
      <path
         d="m 551.5412,416.75411 h 7.82197 V 384.5382 c 0,-6.89394 5.43561,-11.93182 12.85985,-11.93182 2.08807,0 4.24242,0.39773 4.77273,0.5303 v -7.95454 c -0.89489,-0.0663 -2.94981,-0.13258 -4.10985,-0.13258 -6.09849,0 -11.40152,3.44697 -13.25758,8.48485 h -0.5303 v -7.6894 h -7.55682 z"
         style="font-style:normal;font-variant:normal;font-weight:normal;font-stretch:normal;font-family:Inter;-inkscape-font-specification:Inter"
         id="path4771"
         inkscape:connector-curvature="0" />
      <path
         d="m 586.14336,417.28441 c 3.28125,0 5.96591,-2.68466 5.96591,-5.96591 0,-3.28125 -2.68466,-5.96591 -5.96591,-5.96591 -3.28125,0 -5.96591,2.68466 -5.96591,5.96591 0,3.28125 2.68466,5.96591 5.96591,5.96591 z"
         style="font-style:normal;font-variant:normal;font-weight:normal;font-stretch:normal;font-family:Inter;-inkscape-font-specification:Inter"
         id="path4773"
         inkscape:connector-curvature="0" />
      <path
         d="m 642.2229,377.24653 c -2.45265,-7.22538 -7.95454,-12.06439 -18.0303,-12.06439 -10.73864,0 -18.69318,6.09848 -18.69318,14.71591 0,7.02651 4.17613,11.73295 13.52272,13.92045 l 8.48485,1.98864 c 5.13731,1.19318 7.55682,3.64583 7.55682,7.15909 0,4.375 -4.64015,7.95454 -11.93182,7.95454 -6.39678,0 -10.40719,-2.75094 -11.79924,-8.21969 l -7.42424,1.85606 c 1.82291,8.65057 8.94886,13.25757 19.35606,13.25757 11.83239,0 19.88636,-6.46306 19.88636,-15.24621 0,-7.0928 -4.44129,-11.56723 -13.52272,-13.78788 l -7.55682,-1.85606 c -6.0322,-1.49148 -8.75,-3.51326 -8.75,-7.42424 0,-4.375 4.64015,-7.55682 10.87121,-7.55682 6.82765,0 9.64489,3.77841 11.00379,7.29167 z"
         style="font-style:normal;font-variant:normal;font-weight:normal;font-stretch:normal;font-family:Inter;-inkscape-font-specification:Inter"
         id="path4775"
         inkscape:connector-curvature="0" />
      <path
         d="m 654.95005,416.75411 h 7.82197 v -50.9091 h -7.82197 z m 3.97727,-59.39394 c 3.04924,0 5.56818,-2.38637 5.56818,-5.30303 0,-2.91667 -2.51894,-5.30303 -5.56818,-5.30303 -3.04924,0 -5.56818,2.38636 -5.56818,5.30303 0,2.91666 2.51894,5.30303 5.56818,5.30303 z"
         style="font-style:normal;font-variant:normal;font-weight:normal;font-stretch:normal;font-family:Inter;-inkscape-font-specification:Inter"
         id="path4777"
         inkscape:connector-curvature="0" />
      <path
         d="m 699.23027,365.84501 h -10.87121 v -12.19697 h -7.82197 v 12.19697 h -7.68939 v 6.62879 h 7.68939 v 31.81819 c 0,8.88257 7.15909,13.125 13.78788,13.125 2.91667,0 4.77273,-0.53031 5.83333,-0.92803 l -1.59091,-7.02652 c -0.66287,0.13258 -1.72348,0.39773 -3.44697,0.39773 -3.44696,0 -6.76136,-1.06061 -6.76136,-7.6894 V 372.4738 h 10.87121 z"
         style="font-style:normal;font-variant:normal;font-weight:normal;font-stretch:normal;font-family:Inter;-inkscape-font-specification:Inter"
         id="path4779"
         inkscape:connector-curvature="0" />
      <path
         d="m 731.84388,417.81471 c 10.34091,0 17.89772,-5.17045 20.28409,-12.85985 l -7.55682,-2.12121 c -1.98864,5.30303 -6.59564,7.95455 -12.72727,7.95455 -9.18087,0 -15.51137,-5.93277 -15.87595,-16.83712 h 36.95549 v -3.3144 c 0,-18.95833 -11.26894,-25.45454 -21.875,-25.45454 -13.78788,0 -22.9356,10.87121 -22.9356,26.51515 0,15.64394 9.01515,26.11742 23.73106,26.11742 z m -15.87595,-30.625 c 0.5303,-7.9214 6.13163,-14.98106 15.08049,-14.98106 8.48485,0 13.92046,6.36364 13.92046,14.98106 z"
         style="font-style:normal;font-variant:normal;font-weight:normal;font-stretch:normal;font-family:Inter;-inkscape-font-specification:Inter"
         id="path4781"
         inkscape:connector-curvature="0" />
    </g>
  </g>
</svg>
