<?xml version="1.0" encoding="UTF-8" standalone="no"?>
<svg
   xmlns:dc="http://purl.org/dc/elements/1.1/"
   xmlns:cc="http://creativecommons.org/ns#"
   xmlns:rdf="http://www.w3.org/1999/02/22-rdf-syntax-ns#"
   xmlns:svg="http://www.w3.org/2000/svg"
   xmlns="http://www.w3.org/2000/svg"
   id="svg8"
   version="1.1"
   viewBox="0 0 85.914001 10.087"
   height="10.087mm"
   width="85.914001mm">
  <defs
     id="defs2" />
  <metadata
     id="metadata5">
    <rdf:RDF>
      <cc:Work
         rdf:about="">
        <dc:format>image/svg+xml</dc:format>
        <dc:type
           rdf:resource="http://purl.org/dc/dcmitype/StillImage" />
        <dc:title></dc:title>
      </cc:Work>
    </rdf:RDF>
  </metadata>
  <g
     transform="translate(0,-286.913)"
     id="layer1">
    <g
       id="flowRoot10-3-7"
       style="font-style:normal;font-weight:normal;font-size:40px;line-height:1.25;font-family:sans-serif;letter-spacing:0px;word-spacing:0px;fill:#000000;fill-opacity:1;stroke:none"
       transform="matrix(0.26458333,0,0,0.26458333,-39.566033,201.72434)"
       aria-label="mail@stferal.com">
      <path
         id="path166"
         style="font-style:normal;font-variant:normal;font-weight:normal;font-stretch:normal;font-family:Inter;-inkscape-font-specification:Inter"
         d="m 149.54084,352.42698 h 3.35227 v -13.63636 c 0,-3.19602 2.32955,-5.45455 4.94318,-5.45455 2.54262,0 4.31818,1.66194 4.31818,4.14773 v 14.94318 h 3.4091 v -14.20454 c 0,-2.8125 1.76136,-4.88637 4.82954,-4.88637 2.38636,0 4.43182,1.26421 4.43182,4.48864 v 14.60227 h 3.35227 v -14.60227 c 0,-5.12784 -2.75568,-7.5 -6.64773,-7.5 -3.125,0 -5.41193,1.43466 -6.53409,3.69318 h -0.22727 c -1.07954,-2.32954 -2.98295,-3.69318 -5.85227,-3.69318 -2.84091,0 -4.94318,1.36364 -5.85227,3.69318 h -0.2841 v -3.40909 h -3.23863 z" />
      <path
         id="path168"
         style="font-style:normal;font-variant:normal;font-weight:normal;font-stretch:normal;font-family:Inter;-inkscape-font-specification:Inter"
         d="m 190.72692,352.93835 c 3.80682,0 5.79545,-2.04546 6.47727,-3.46591 h 0.17045 v 2.95454 h 3.35228 v -14.375 c 0,-6.93182 -5.28409,-7.72727 -8.06818,-7.72727 -3.29546,0 -7.04546,1.13636 -8.75,5.11364 l 3.18181,1.13636 c 0.73864,-1.59091 2.4858,-3.29545 5.68182,-3.29545 3.08239,0 4.60227,1.63352 4.60227,4.43181 v 0.11364 c 0,1.61932 -1.64772,1.47727 -5.625,1.98864 -4.04829,0.52556 -8.4659,1.42045 -8.4659,6.42045 0,4.26136 3.29545,6.70455 7.44318,6.70455 z m 0.51136,-3.01137 c -2.67045,0 -4.60227,-1.19318 -4.60227,-3.52272 0,-2.55682 2.32954,-3.35228 4.94318,-3.69319 1.42045,-0.17045 5.22727,-0.56818 5.79545,-1.25 v 3.06819 c 0,2.72727 -2.15909,5.39772 -6.13636,5.39772 z" />
      <path
         id="path170"
         style="font-style:normal;font-variant:normal;font-weight:normal;font-stretch:normal;font-family:Inter;-inkscape-font-specification:Inter"
         d="m 206.88459,352.42698 h 3.35227 V 330.6088 h -3.35227 z m 1.70454,-25.45454 c 1.30682,0 2.38637,-1.02273 2.38637,-2.27273 0,-1.25 -1.07955,-2.27273 -2.38637,-2.27273 -1.30681,0 -2.38636,1.02273 -2.38636,2.27273 0,1.25 1.07955,2.27273 2.38636,2.27273 z" />
      <path
         id="path172"
         style="font-style:normal;font-variant:normal;font-weight:normal;font-stretch:normal;font-family:Inter;-inkscape-font-specification:Inter;letter-spacing:3px"
         d="m 219.68999,323.33607 h -3.35228 v 29.09091 h 3.35228 z" />
      <path
         id="path174"
         style="font-style:normal;font-variant:normal;font-weight:normal;font-stretch:normal;font-family:Inter;-inkscape-font-specification:Inter;letter-spacing:3px"
         d="m 245.5522,360.09744 c 2.89773,0 6.59091,-0.85228 8.35227,-1.59091 l -0.79545,-2.61364 c -1.02273,0.34091 -4.31818,1.47727 -7.44318,1.47727 -9.71591,0 -14.88637,-5.45454 -14.88637,-15.11363 0,-9.48864 5.2841,-15.17046 14.20455,-15.17046 9.03409,0 13.29545,6.36364 13.29545,12.72728 0,6.47727 -0.68181,9.375 -3.57954,9.375 -1.70455,0 -2.61364,-1.42046 -2.61364,-3.01137 v -12.84091 h -3.01136 v 1.59091 h -0.17046 c -0.39772,-1.25 -2.61363,-2.32954 -5.45454,-2.04545 -4.26136,0.45454 -7.5,3.97727 -7.5,9.09091 0,5.39772 2.55682,9.54545 7.5,9.71591 3.23864,0.11363 4.94318,-1.47728 5.625,-3.125 h 0.17045 c 0.34091,2.44318 3.40909,3.29545 5.39773,3.29545 6.02273,0 6.59091,-6.47727 6.59091,-11.98864 0,-7.78409 -5.45455,-15.45454 -16.07955,-15.45454 -10.9659,0 -17.5,6.64773 -17.5,17.72727 0,11.47727 6.30682,17.95455 17.89773,17.95455 z m -1.64773,-11.30682 c -3.69318,0 -5,-3.35227 -5,-6.98864 0,-3.29545 1.875,-6.13636 5.11364,-6.13636 3.40909,0 5.22727,1.36364 5.22727,6.13636 0,4.71591 -1.53409,6.98864 -5.34091,6.98864 z" />
      <path
         id="path176"
         style="font-style:normal;font-variant:normal;font-weight:normal;font-stretch:normal;font-family:Inter;-inkscape-font-specification:Inter"
         d="m 284.66726,335.49516 c -1.05114,-3.09659 -3.40909,-5.17045 -7.72727,-5.17045 -4.60228,0 -8.01137,2.61364 -8.01137,6.30682 0,3.01136 1.78977,5.02841 5.79546,5.96591 l 3.63636,0.85227 c 2.2017,0.51136 3.23864,1.5625 3.23864,3.06818 0,1.875 -1.98864,3.40909 -5.11364,3.40909 -2.74148,0 -4.46023,-1.17897 -5.05682,-3.52272 l -3.18182,0.79545 c 0.78125,3.70739 3.83523,5.68182 8.29546,5.68182 5.07102,0 8.52273,-2.76989 8.52273,-6.53409 0,-3.03978 -1.90341,-4.95739 -5.79546,-5.90909 l -3.23864,-0.79546 c -2.58522,-0.6392 -3.75,-1.50568 -3.75,-3.18182 0,-1.875 1.98864,-3.23863 4.6591,-3.23863 2.92613,0 4.13352,1.61932 4.7159,3.125 z" />
      <path
         id="path178"
         style="font-style:normal;font-variant:normal;font-weight:normal;font-stretch:normal;font-family:Inter;-inkscape-font-specification:Inter"
         d="m 299.63885,330.6088 h -4.65909 v -5.22727 h -3.35227 v 5.22727 h -3.29546 v 2.84091 h 3.29546 v 13.63636 c 0,3.80682 3.06818,5.625 5.90909,5.625 1.25,0 2.04545,-0.22727 2.5,-0.39772 l -0.68182,-3.01137 c -0.28409,0.0568 -0.73864,0.17046 -1.47727,0.17046 -1.47728,0 -2.89773,-0.45455 -2.89773,-3.29546 v -12.72727 h 4.65909 z" />
      <path
         id="path180"
         style="font-style:normal;font-variant:normal;font-weight:normal;font-stretch:normal;font-family:Inter;-inkscape-font-specification:Inter"
         d="m 314.39737,330.6088 h -4.88636 v -2.21591 c 0,-2.15909 0.90909,-3.29545 3.125,-3.29545 0.96591,0 1.53409,0.22727 1.875,0.34091 l 0.96591,-2.89773 c -0.51137,-0.22727 -1.53409,-0.56818 -3.18182,-0.56818 -3.125,0 -6.13636,1.875 -6.13636,5.625 v 3.01136 h -3.52273 v 2.84091 h 3.52273 v 18.97727 h 3.35227 v -18.97727 h 4.88636 z" />
      <path
         id="path182"
         style="font-style:normal;font-variant:normal;font-weight:normal;font-stretch:normal;font-family:Inter;-inkscape-font-specification:Inter"
         d="m 327.34482,352.88153 c 4.43181,0 7.67045,-2.21591 8.69318,-5.51137 l -3.23864,-0.90909 c -0.85227,2.27273 -2.8267,3.40909 -5.45454,3.40909 -3.93466,0 -6.64773,-2.54261 -6.80398,-7.2159 h 15.83807 v -1.42046 c 0,-8.125 -4.82955,-10.90909 -9.375,-10.90909 -5.90909,0 -9.82955,4.65909 -9.82955,11.36364 0,6.70454 3.86364,11.19318 10.17046,11.19318 z m -6.80398,-13.125 c 0.22727,-3.39489 2.62784,-6.42046 6.46307,-6.42046 3.63636,0 5.96591,2.72728 5.96591,6.42046 z" />
      <path
         id="path184"
         style="font-style:normal;font-variant:normal;font-weight:normal;font-stretch:normal;font-family:Inter;-inkscape-font-specification:Inter"
         d="m 341.47834,352.42698 h 3.35227 v -13.80682 c 0,-2.95454 2.32955,-5.11363 5.51136,-5.11363 0.89489,0 1.81819,0.17045 2.04546,0.22727 v -3.40909 c -0.38352,-0.0284 -1.26421,-0.0568 -1.76136,-0.0568 -2.61364,0 -4.88637,1.47727 -5.68182,3.63637 h -0.22728 v -3.29546 h -3.23863 z" />
      <path
         id="path186"
         style="font-style:normal;font-variant:normal;font-weight:normal;font-stretch:normal;font-family:Inter;-inkscape-font-specification:Inter"
         d="m 362.82067,352.93835 c 3.80682,0 5.79545,-2.04546 6.47727,-3.46591 h 0.17045 v 2.95454 h 3.35228 v -14.375 c 0,-6.93182 -5.28409,-7.72727 -8.06818,-7.72727 -3.29546,0 -7.04546,1.13636 -8.75,5.11364 l 3.18181,1.13636 c 0.73864,-1.59091 2.4858,-3.29545 5.68182,-3.29545 3.08239,0 4.60227,1.63352 4.60227,4.43181 v 0.11364 c 0,1.61932 -1.64772,1.47727 -5.625,1.98864 -4.04829,0.52556 -8.4659,1.42045 -8.4659,6.42045 0,4.26136 3.29545,6.70455 7.44318,6.70455 z m 0.51136,-3.01137 c -2.67045,0 -4.60227,-1.19318 -4.60227,-3.52272 0,-2.55682 2.32954,-3.35228 4.94318,-3.69319 1.42045,-0.17045 5.22727,-0.56818 5.79545,-1.25 v 3.06819 c 0,2.72727 -2.15909,5.39772 -6.13636,5.39772 z" />
      <path
         id="path188"
         style="font-style:normal;font-variant:normal;font-weight:normal;font-stretch:normal;font-family:Inter;-inkscape-font-specification:Inter"
         d="m 382.33061,323.33607 h -3.35227 v 29.09091 h 3.35227 z" />
      <path
         id="path190"
         style="font-style:normal;font-variant:normal;font-weight:normal;font-stretch:normal;font-family:Inter;-inkscape-font-specification:Inter"
         d="m 390.87464,352.65426 c 1.40625,0 2.55682,-1.15057 2.55682,-2.55682 0,-1.40625 -1.15057,-2.55682 -2.55682,-2.55682 -1.40625,0 -2.55681,1.15057 -2.55681,2.55682 0,1.40625 1.15056,2.55682 2.55681,2.55682 z" />
      <path
         id="path192"
         style="font-style:normal;font-variant:normal;font-weight:normal;font-stretch:normal;font-family:Inter;-inkscape-font-specification:Inter"
         d="m 408.31072,352.88153 c 4.82955,0 8.01137,-2.95455 8.57955,-6.81818 H 413.538 c -0.625,2.38636 -2.61364,3.80681 -5.22728,3.80681 -3.97727,0 -6.53409,-3.29545 -6.53409,-8.35227 0,-4.94318 2.61364,-8.18182 6.53409,-8.18182 2.95455,0 4.71591,1.81819 5.22728,3.80682 h 3.35227 c -0.56818,-4.09091 -4.03409,-6.81818 -8.63636,-6.81818 -5.90909,0 -9.82955,4.65909 -9.82955,11.30682 0,6.53409 3.75,11.25 9.88636,11.25 z" />
      <path
         id="path194"
         style="font-style:normal;font-variant:normal;font-weight:normal;font-stretch:normal;font-family:Inter;-inkscape-font-specification:Inter"
         d="m 430.65447,352.88153 c 5.9091,0 9.88637,-4.48864 9.88637,-11.25 0,-6.81818 -3.97727,-11.30682 -9.88637,-11.30682 -5.90909,0 -9.88636,4.48864 -9.88636,11.30682 0,6.76136 3.97727,11.25 9.88636,11.25 z m 0,-3.01137 c -4.48863,0 -6.53409,-3.86363 -6.53409,-8.23863 0,-4.375 2.04546,-8.29546 6.53409,-8.29546 4.48864,0 6.5341,3.92046 6.5341,8.29546 0,4.375 -2.04546,8.23863 -6.5341,8.23863 z" />
      <path
         id="path196"
         style="font-style:normal;font-variant:normal;font-weight:normal;font-stretch:normal;font-family:Inter;-inkscape-font-specification:Inter"
         d="m 445.61896,352.42698 h 3.35228 v -13.63636 c 0,-3.19602 2.32954,-5.45455 4.94318,-5.45455 2.54261,0 4.31818,1.66194 4.31818,4.14773 v 14.94318 h 3.40909 v -14.20454 c 0,-2.8125 1.76136,-4.88637 4.82955,-4.88637 2.38636,0 4.43181,1.26421 4.43181,4.48864 v 14.60227 h 3.35228 v -14.60227 c 0,-5.12784 -2.75569,-7.5 -6.64773,-7.5 -3.125,0 -5.41193,1.43466 -6.53409,3.69318 h -0.22727 c -1.07955,-2.32954 -2.98296,-3.69318 -5.85228,-3.69318 -2.84091,0 -4.94318,1.36364 -5.85227,3.69318 h -0.28409 v -3.40909 h -3.23864 z" />
    </g>
  </g>
</svg>
