<svg xmlns="http://www.w3.org/2000/svg" viewBox="0 0 85 7.986"><title>Saint Feral</title><path class="logo-st" d="M4.608 5.788c.022.665.032 1.222.032 1.662.826.397 1.555.536 2.54.536.912 0 1.652-.225 2.198-.665.547-.44.847-1.029.847-1.672 0-.547-.171-1.018-.514-1.35-.215-.215-.558-.419-.933-.547l-1.93-.665c-.91-.31-1.125-.525-1.125-1.007 0-.74.718-1.18 1.93-1.18 1.157 0 1.747.29 1.907.965h.215C9.743 1.361 9.743.836 9.743.354 8.799.064 8.328 0 7.577 0 5.702 0 4.63.815 4.63 2.198c0 .91.557 1.565 1.661 1.95l1.833.633c.729.257.986.525.986.997 0 .814-.76 1.34-2.004 1.34-.772 0-1.447-.204-1.833-.536-.247-.204-.365-.418-.45-.794zM14.792 7.825c.569-.054 1.351-.096 2.005-.096.59 0 1.168.042 1.844.096V7.6c-1.137-.086-1.319-.343-1.319-1.79V1.05c1.737 0 2.176.022 2.465.14.204.086.311.375.365.729h.225c-.032-.558-.032-1.18-.032-1.683-1.34.054-2.744.075-3.623.075-.943 0-2.123-.021-3.634-.075 0 .46 0 1.125-.032 1.683h.225c.032-.354.086-.611.375-.729.332-.129 1.083-.14 2.455-.14v4.76c0 1.447-.182 1.704-1.319 1.79z"/><path class="logo-dot" d="M25.575 3.583a.692.692 0 1 0 0 1.383.67.67 0 0 0 .686-.686.673.673 0 0 0-.686-.697z"/><path class="logo-feral" d="M31.902 7.825c.46-.054 1.243-.096 1.79-.096.6 0 1.33.042 1.93.096V7.6c-.644-.075-1.04-.29-1.126-.557-.14-.43-.16-.59-.193-2.766a52.61 52.61 0 0 1 1.983-.054c1.222 0 1.394.15 1.447.976h.225c-.032-.461-.032-.793-.032-1.126v-.44c0-.3 0-.578.032-.996h-.225c-.075.354-.096.515-.214.632-.172.172-.547.193-1.265.193-.343 0-1.35-.021-1.951-.053 0-.718.021-1.715.054-2.305a45.05 45.05 0 0 1 1.983-.053c1.618 0 1.854.085 1.908.89h.225a8.092 8.092 0 0 1-.043-.805v-.085c0-.247-.01-.526.021-.815-3.205 0-4.352.075-4.716.075-.386 0-1.136-.043-1.812-.075V.46c.686.075.944.16 1.083.504.14.343.182 1.693.182 3.065v.29c0 1.082-.053 2.412-.16 2.69-.183.43-.569.515-1.126.59zM41.629 7.825c.568-.054 1.19-.096 2.251-.096 1.672 0 3.602.042 4.598.096 0-.418.011-1.083.043-1.683h-.225c-.032.247-.053.461-.182.59-.225.246-.89.3-1.833.3a14.39 14.39 0 0 1-2.219-.15 82.371 82.371 0 0 1-.053-2.605 52.387 52.387 0 0 1 2.08-.043c.9 0 1.328.01 1.5.182.118.118.14.29.214.633h.225a24.137 24.137 0 0 1-.053-1.18c0-.139.021-.835.053-1.178h-.225c-.118.74-.182.771-1.726.771-.45 0-1.393-.021-2.068-.053 0-.515.021-1.48.053-2.337.343-.054.697-.075 1.254-.075 2.476 0 2.702.064 2.787.868h.225a5.323 5.323 0 0 1-.053-.804v-.16c0-.097.021-.483.021-.665-.922.043-4.127.075-4.791.075-.418 0-1.308-.075-1.855-.075v.225c.654.054 1.008.182 1.126.74.086.396.118 2.047.118 2.905v.139c0 .954-.054 2.037-.086 2.358-.118.697-.268.847-1.179.997zM54.148 3.409c0-.461.01-1.715.043-2.305a23.498 23.498 0 0 1 1.78-.086c.46 0 .792.022 1.06.108.59.203.772.59.772 1.007 0 .88-1.082 1.33-2.197 1.33-.215 0-.6 0-1.458-.054zm-2.465 4.416c.6-.054 1.34-.096 1.897-.096.6 0 1.275.021 1.78.096V7.6c-.472-.097-.923-.204-1.051-.632-.14-.461-.161-1.49-.161-2.402v-.289c.858-.043 1.426-.043 1.65-.043.89 0 1.158.14 1.383.858l.654 2.036c.172.526.44.697 1.072.697h.986V7.6c-.503-.01-.664-.14-.825-.568l-.825-2.208c-.215-.6-.515-.933-1.072-1.061 1.254-.247 1.79-.858 1.79-1.705 0-.654-.375-1.35-1.19-1.64-.407-.14-.772-.182-1.619-.182-.846 0-2.111.075-2.636.075-.28 0-1.137-.043-1.705-.075V.46c.654.075.89.172 1.03.515.139.332.181 2.047.181 2.883v.182c0 1.297-.042 2.68-.16 2.97-.172.375-.483.535-1.18.589zM65.95 5.027c-.46 0-.846-.01-1.222-.053l1.726-3.205 1.769 3.205c-.3.043-.643.053-1.2.053zm-4.298 2.798c.611-.054 1.168-.096 1.436-.096.204 0 .869.042 1.437.096V7.6c-.547-.01-.783-.15-.783-.45 0-.182.183-.633.536-1.362a43.577 43.577 0 0 1 2.187-.042c.815 0 1.586.01 2.197.042.279.569.59 1.244.59 1.426 0 .268-.214.354-.858.386v.225a21.299 21.299 0 0 1 1.619-.096c.279 0 1.147.064 1.63.096V7.6c-.29-.054-.665-.247-1.062-.75-.204-.247-.397-.611-.557-.911L66.862.182h-.45l-2.455 4.513C62.68 7.053 62.306 7.482 61.652 7.6zM73.52 7.825c.644-.075 1.362-.096 2.23-.096h1.083c1.008 0 1.619.01 3.462.096.032-.654.054-1.233.097-1.79h-.225c-.086.858-.3.954-2.048.954-.46 0-1.222-.032-2.09-.107-.032-.858-.054-1.415-.054-1.94V4.62c0-.89.022-2.937.075-3.312.033-.247.086-.418.161-.515.14-.182.461-.257.88-.332V.236c-.665.032-1.523.075-1.716.075-.171 0-1.136-.043-1.704-.075v.225c.643.086.868.204 1.007.515.14.332.183 1.79.183 2.765v.29c0 1.243-.033 2.669-.172 2.98-.16.375-.471.535-1.168.589z"/></svg>

