<?xml version="1.0" encoding="UTF-8" standalone="no"?>
<!-- Created with Inkscape (http://www.inkscape.org/) -->

<svg
   xmlns:dc="http://purl.org/dc/elements/1.1/"
   xmlns:cc="http://creativecommons.org/ns#"
   xmlns:rdf="http://www.w3.org/1999/02/22-rdf-syntax-ns#"
   xmlns:svg="http://www.w3.org/2000/svg"
   xmlns="http://www.w3.org/2000/svg"
   xmlns:sodipodi="http://sodipodi.sourceforge.net/DTD/sodipodi-0.dtd"
   xmlns:inkscape="http://www.inkscape.org/namespaces/inkscape"
   width="79.838997mm"
   height="7.8850002mm"
   viewBox="0 0 79.838997 7.8850002"
   version="1.1"
   id="svg4887"
   inkscape:version="0.92.4 (5da689c313, 2019-01-14)"
   sodipodi:docname="stferal-logo.svg">
  <defs
     id="defs4881" />
  <sodipodi:namedview
     id="base"
     pagecolor="#ffffff"
     bordercolor="#666666"
     borderopacity="1.0"
     inkscape:pageopacity="0.0"
     inkscape:pageshadow="2"
     inkscape:zoom="3.959798"
     inkscape:cx="119.02262"
     inkscape:cy="107.85157"
     inkscape:document-units="mm"
     inkscape:current-layer="layer1"
     showgrid="false"
     inkscape:window-width="2558"
     inkscape:window-height="1410"
     inkscape:window-x="0"
     inkscape:window-y="0"
     inkscape:window-maximized="0" />
  <metadata
     id="metadata4884">
    <rdf:RDF>
      <cc:Work
         rdf:about="">
        <dc:format>image/svg+xml</dc:format>
        <dc:type
           rdf:resource="http://purl.org/dc/dcmitype/StillImage" />
        <dc:title></dc:title>
      </cc:Work>
    </rdf:RDF>
  </metadata>
  <g
     inkscape:label="Layer 1"
     inkscape:groupmode="layer"
     id="layer1"
     transform="translate(0,-289.115)">
    <path
       inkscape:connector-curvature="0"
       id="path4829"
       style="font-style:normal;font-variant:normal;font-weight:normal;font-stretch:normal;font-size:40px;line-height:1.25;font-family:'President Std';-inkscape-font-specification:'President Std';letter-spacing:10px;word-spacing:0.00001px;fill:#241f1c;fill-opacity:1;stroke:none;stroke-width:0.26458332"
       d="m -1.03e-4,294.83021 c 0.02117,0.65616 0.03175,1.2065 0.03175,1.64041 0.814917,0.39159 1.534583,0.52917 2.50825,0.52917 0.899583,0 1.629833,-0.22225 2.169583,-0.65617 0.53975,-0.43391 0.8360838,-1.016 0.8360838,-1.651 0,-0.53975 -0.1693338,-1.00541 -0.5079998,-1.3335 -0.211667,-0.21166 -0.550334,-0.41275 -0.92075,-0.53975 l -1.905,-0.65616 c -0.899584,-0.30692 -1.11125,-0.51859 -1.11125,-0.99484 0,-0.73025 0.709083,-1.16416 1.905,-1.16416 1.143,0 1.725083,0.28575 1.883833,0.9525 h 0.211667 c -0.03175,-0.49742 -0.03175,-1.016 -0.03175,-1.49225 -0.931334,-0.28575 -1.397,-0.34925 -2.137834,-0.34925 -1.852083,0 -2.910416,0.80433 -2.910416,2.16958 0,0.89958 0.550333,1.54517 1.640416,1.92617 l 1.80975,0.62441 c 0.719667,0.254 0.973667,0.51859 0.973667,0.98425 0,0.80434 -0.751417,1.32292 -1.979083,1.32292 -0.762,0 -1.42875,-0.20108 -1.80975,-0.52917 -0.243417,-0.20108 -0.359834,-0.41275 -0.4445,-0.78316 z" />
    <path
       inkscape:connector-curvature="0"
       id="path4831"
       style="font-style:normal;font-variant:normal;font-weight:normal;font-stretch:normal;font-size:40px;line-height:1.25;font-family:'President Std';-inkscape-font-specification:'President Std';letter-spacing:10px;word-spacing:0.00001px;fill:#241f1c;fill-opacity:1;stroke:none;stroke-width:0.26458332"
       d="m 10.793574,296.84104 c 0.560917,-0.0529 1.3335,-0.0952 1.979083,-0.0952 0.582084,0 1.153584,0.0423 1.820334,0.0952 v -0.22225 c -1.121834,-0.0847 -1.30175,-0.33867 -1.30175,-1.76742 v -4.699 c 1.7145,0 2.148416,0.0212 2.434166,0.13759 0.201084,0.0847 0.306917,0.37041 0.359834,0.71966 h 0.22225 c -0.03175,-0.55033 -0.03175,-1.16416 -0.03175,-1.66158 -1.322917,0.0529 -2.709334,0.0741 -3.577167,0.0741 -0.931333,0 -2.0955,-0.0212 -3.58775,-0.0741 0,0.45508 0,1.11125 -0.03175,1.66158 h 0.22225 c 0.03175,-0.34925 0.08467,-0.60325 0.3704169,-0.71966 0.3280831,-0.127 1.0689161,-0.13759 2.4235831,-0.13759 v 4.699 c 0,1.42875 -0.179917,1.68275 -1.30175,1.76742 z" />
    <path
       inkscape:connector-curvature="0"
       id="path4835"
       style="font-style:normal;font-variant:normal;font-weight:normal;font-stretch:normal;font-size:40px;line-height:1.25;font-family:'President Std';-inkscape-font-specification:'President Std';letter-spacing:10px;word-spacing:0.00001px;fill:#241f1c;fill-opacity:1;stroke:none;stroke-width:0.26458332"
       d="m 28.314917,296.84104 c 0.455081,-0.0529 1.227667,-0.0952 1.767417,-0.0952 0.592664,0 1.312333,0.0423 1.905,0.0952 v -0.22225 c -0.635,-0.0741 -1.026586,-0.28575 -1.11125,-0.55033 -0.137586,-0.42334 -0.15875,-0.58209 -0.1905,-2.7305 0.592664,-0.0318 1.640414,-0.0529 1.957914,-0.0529 1.2065,0 1.375836,0.14817 1.42875,0.96308 h 0.22225 c -0.03175,-0.45508 -0.03175,-0.78316 -0.03175,-1.11125 v -0.43391 c 0,-0.29634 0,-0.5715 0.03175,-0.98425 h -0.22225 c -0.07408,0.34925 -0.09525,0.508 -0.211664,0.62441 -0.169336,0.16934 -0.53975,0.1905 -1.248836,0.1905 -0.338664,0 -1.3335,-0.0212 -1.926164,-0.0529 0,-0.70909 0.02117,-1.69334 0.05292,-2.27542 0.85725,-0.0423 1.651,-0.0529 1.957917,-0.0529 1.598083,0 1.830917,0.0847 1.883833,0.87842 h 0.22225 c -0.03175,-0.32808 -0.04233,-0.5715 -0.04233,-0.79375 v -0.0847 c 0,-0.24341 -0.01058,-0.51858 0.02117,-0.80433 -3.164419,0 -4.296836,0.0741 -4.656669,0.0741 -0.381,0 -1.121833,-0.0423 -1.788583,-0.0741 v 0.22225 c 0.677333,0.0741 0.931333,0.15875 1.068916,0.49742 0.137584,0.33866 0.179917,1.67216 0.179917,3.02683 v 0.28575 c 0,1.06892 -0.05292,2.38125 -0.15875,2.65642 -0.179917,0.42333 -0.560917,0.508 -1.11125,0.58208 z" />
    <path
       inkscape:connector-curvature="0"
       id="path4837"
       style="font-style:normal;font-variant:normal;font-weight:normal;font-stretch:normal;font-size:40px;line-height:1.25;font-family:'President Std';-inkscape-font-specification:'President Std';letter-spacing:10px;word-spacing:0.00001px;fill:#241f1c;fill-opacity:1;stroke:none;stroke-width:0.26458332"
       d="m 38.547347,296.84104 c 0.560919,-0.0529 1.174753,-0.0952 2.222503,-0.0952 1.651,0 3.556002,0.0423 4.54025,0.0952 0,-0.41275 0.01061,-1.06892 0.0423,-1.66158 h -0.22225 c -0.0318,0.24341 -0.0529,0.45508 -0.179906,0.58208 -0.22225,0.24342 -0.87842,0.29633 -1.809756,0.29633 -0.762002,0 -1.386419,-0.0318 -2.190752,-0.14816 -0.03175,-0.79375 -0.05292,-2.01084 -0.05292,-2.57175 0.624417,-0.0318 1.661584,-0.0423 2.053172,-0.0423 0.889006,0 1.312336,0.0106 1.481664,0.17992 0.116422,0.11642 0.137592,0.28575 0.211672,0.62442 h 0.22225 c -0.0318,-0.45509 -0.0529,-1.00542 -0.0529,-1.16417 0,-0.13758 0.02119,-0.8255 0.0529,-1.16417 h -0.22225 c -0.116422,0.73025 -0.179922,0.762 -1.703924,0.762 -0.4445,0 -1.375834,-0.0212 -2.042584,-0.0529 0,-0.508 0.02117,-1.4605 0.05292,-2.30717 0.338666,-0.0529 0.687916,-0.0741 1.23825,-0.0741 2.444758,0 2.667008,0.0635 2.751666,0.85725 H 45.1619 c -0.0423,-0.29634 -0.0529,-0.52917 -0.0529,-0.79375 v -0.15875 c 0,-0.0952 0.02119,-0.47625 0.02119,-0.65617 -0.910156,0.0423 -4.074581,0.0741 -4.730748,0.0741 -0.41275,0 -1.291166,-0.0741 -1.830916,-0.0741 v 0.22225 c 0.645583,0.0529 0.994833,0.17992 1.11125,0.73025 0.08467,0.39158 0.116416,2.02142 0.116416,2.86808 v 0.13759 c 0,0.94191 -0.05292,2.01083 -0.08467,2.32833 -0.116417,0.68792 -0.264586,0.83608 -1.164167,0.98425 z" />
    <path
       inkscape:connector-curvature="0"
       id="path4839"
       style="font-style:normal;font-variant:normal;font-weight:normal;font-stretch:normal;font-size:40px;line-height:1.25;font-family:'President Std';-inkscape-font-specification:'President Std';letter-spacing:10px;word-spacing:0.00001px;fill:#241f1c;fill-opacity:1;stroke:none;stroke-width:0.26458332"
       d="m 51.821501,292.48071 c 0,-0.45509 0.01061,-1.69334 0.0423,-2.27542 0.719669,-0.0529 1.21708,-0.0847 1.75683,-0.0847 0.455089,0 0.78317,0.0212 1.04775,0.10584 0.582089,0.20108 0.762,0.58208 0.762,0.99483 0,0.86783 -1.068911,1.31233 -2.16958,1.31233 -0.21167,0 -0.59267,0 -1.439331,-0.0529 z m -2.434172,4.36033 c 0.592669,-0.0529 1.322919,-0.0952 1.87325,-0.0952 0.592672,0 1.259422,0.0212 1.756831,0.0952 v -0.22225 c -0.465659,-0.0952 -0.910159,-0.20108 -1.037159,-0.62442 -0.137591,-0.45508 -0.15875,-1.47108 -0.15875,-2.37066 v -0.28575 c 0.846659,-0.0423 1.407578,-0.0423 1.629828,-0.0423 0.878422,0 1.143,0.13759 1.36525,0.84667 l 0.645581,2.01083 c 0.169341,0.51859 0.433919,0.68792 1.058341,0.68792 h 0.973659 v -0.22225 c -0.497409,-0.0106 -0.656159,-0.13758 -0.814909,-0.56092 l -0.814922,-2.18016 c -0.211669,-0.59267 -0.508,-0.92075 -1.058328,-1.04775 1.23825,-0.24342 1.767409,-0.84667 1.767409,-1.68275 0,-0.64559 -0.370409,-1.3335 -1.17475,-1.61925 -0.402159,-0.13759 -0.762,-0.17992 -1.598081,-0.17992 -0.836078,0 -2.084919,0.0741 -2.6035,0.0741 -0.275169,0 -1.121831,-0.0423 -1.68275,-0.0741 v 0.22225 c 0.645581,0.0741 0.878419,0.16933 1.016,0.508 0.137581,0.32808 0.179919,2.02142 0.179919,2.84692 v 0.17991 c 0,1.28059 -0.0423,2.64584 -0.15875,2.93159 -0.169338,0.37041 -0.47625,0.52916 -1.164169,0.58208 z" />
    <path
       inkscape:connector-curvature="0"
       id="path4841"
       style="font-style:normal;font-variant:normal;font-weight:normal;font-stretch:normal;font-size:40px;line-height:1.25;font-family:'President Std';-inkscape-font-specification:'President Std';letter-spacing:10px;word-spacing:0.00001px;fill:#241f1c;fill-opacity:1;stroke:none;stroke-width:0.26458332"
       d="m 64.433519,294.07879 c -0.455078,0 -0.836078,-0.0106 -1.2065,-0.0529 l 1.703922,-3.16441 1.74625,3.16441 c -0.296331,0.0423 -0.635,0.0529 -1.185331,0.0529 z m -4.243909,2.76225 c 0.60325,-0.0529 1.153581,-0.0952 1.418159,-0.0952 0.201091,0 0.85725,0.0423 1.418172,0.0952 v -0.22225 c -0.53975,-0.0106 -0.772581,-0.14817 -0.772581,-0.4445 0,-0.17992 0.179909,-0.62442 0.529159,-1.34408 0.550341,-0.0317 1.397,-0.0423 2.159,-0.0423 0.804341,0 1.566341,0.0106 2.169591,0.0423 0.275159,0.56091 0.582081,1.22766 0.582081,1.40758 0,0.26458 -0.211672,0.34925 -0.846672,0.381 v 0.22225 c 0.518591,-0.0529 1.291172,-0.0952 1.598091,-0.0952 0.275159,0 1.132409,0.0635 1.608659,0.0952 v -0.22225 c -0.28575,-0.0529 -0.656169,-0.24342 -1.04775,-0.74083 -0.201078,-0.24342 -0.391578,-0.60325 -0.550328,-0.89959 l -3.122081,-5.68325 h -0.4445 l -2.423591,4.45559 c -1.259409,2.32833 -1.629828,2.75166 -2.275409,2.86808 z" />
    <path
       inkscape:connector-curvature="0"
       id="path4843"
       style="font-style:normal;font-variant:normal;font-weight:normal;font-stretch:normal;font-size:40px;line-height:1.25;font-family:'President Std';-inkscape-font-specification:'President Std';letter-spacing:10px;word-spacing:0.00001px;fill:#241f1c;fill-opacity:1;stroke:none;stroke-width:0.26458332"
       d="m 73.055131,296.84104 c 0.635,-0.0741 1.344078,-0.0952 2.201328,-0.0952 h 1.068922 c 0.994828,0 1.598078,0.0106 3.418419,0.0952 0.0318,-0.64558 0.0529,-1.21708 0.0953,-1.76742 h -0.22225 c -0.0847,0.84667 -0.296342,0.94192 -2.021422,0.94192 -0.455078,0 -1.2065,-0.0317 -2.06375,-0.10583 -0.0317,-0.84667 -0.0529,-1.397 -0.0529,-1.91559 v -0.3175 c 0,-0.87841 0.02119,-2.89983 0.0741,-3.27025 0.0317,-0.24341 0.0847,-0.41275 0.15875,-0.508 0.13758,-0.17991 0.45508,-0.254 0.86783,-0.32808 v -0.22225 c -0.656169,0.0317 -1.50283,0.0741 -1.69333,0.0741 -0.169339,0 -1.121839,-0.0423 -1.68275,-0.0741 v 0.22225 c 0.635,0.0847 0.85725,0.20108 0.99483,0.508 0.137581,0.32808 0.17992,1.76742 0.17992,2.7305 v 0.28575 c 0,1.22767 -0.0317,2.63525 -0.169339,2.94217 -0.15875,0.37041 -0.465661,0.52916 -1.153581,0.58208 z" />
    <g
       aria-label="-"
       transform="matrix(0.30325081,0,0,0.30325081,-4.370183,80.045804)"
       style="font-style:normal;font-weight:normal;font-size:40px;line-height:1.25;font-family:sans-serif;letter-spacing:0px;word-spacing:0px;fill:#241f1c;fill-opacity:1;stroke:none"
       id="flowRoot4854">
      <path
         d="m 82.716406,705.0991 q -0.24,0 -0.24,-0.24 0,-0.72 0.16,-1.4 0.2,-0.72 0.48,-0.76 5.12,-0.72 7.68,-1 0.32,0 0.32,0.24 0,0.88 -0.2,1.52 -0.2,0.6 -0.64,0.64 l -1.04,0.16 q -4.12,0.64 -6.52,0.84 z"
         style="font-style:normal;font-variant:normal;font-weight:normal;font-stretch:normal;font-family:'EB Garamond';-inkscape-font-specification:'EB Garamond';fill:#241f1c;fill-opacity:1"
         inkscape:connector-curvature="0"
         id="path9469" />
    </g>
  </g>
</svg>
