<svg xmlns="http://www.w3.org/2000/svg" width="301.754" height="29.802" viewBox="0 0 79.839 7.885"><title>Sacer Feral</title><g><path d="M0 5.715c.021.656.032 1.207.032 1.64.815.392 1.534.53 2.508.53.9 0 1.63-.222 2.17-.656.54-.434.836-1.016.836-1.651 0-.54-.17-1.006-.508-1.334-.212-.212-.55-.413-.921-.54l-1.905-.656c-.9-.307-1.111-.518-1.111-.995C1.1 1.323 1.81.89 3.006.89c1.143 0 1.725.286 1.883.953h.212C5.07 1.344 5.07.826 5.07.349 4.138.064 3.672 0 2.931 0 1.08 0 .021.805.021 2.17c0 .9.55 1.545 1.64 1.926l1.81.624c.72.254.974.519.974.985 0 .804-.752 1.323-1.98 1.323-.761 0-1.428-.202-1.809-.53-.243-.2-.36-.412-.444-.783zM10.794 7.726c.56-.053 1.333-.095 1.979-.095.582 0 1.153.042 1.82.095v-.222c-1.122-.085-1.302-.339-1.302-1.768V1.037c1.715 0 2.149.022 2.434.138.201.085.307.37.36.72h.222c-.031-.55-.031-1.165-.031-1.662a97.29 97.29 0 01-3.577.074c-.932 0-2.096-.021-3.588-.074 0 .455 0 1.111-.032 1.662h.222c.032-.35.085-.604.37-.72.329-.127 1.07-.138 2.424-.138v4.7c0 1.428-.18 1.682-1.301 1.767zM28.315 7.726a18.19 18.19 0 011.767-.095c.593 0 1.313.042 1.905.095v-.222c-.635-.074-1.026-.286-1.11-.55-.139-.424-.16-.583-.191-2.731a51.92 51.92 0 011.957-.053c1.207 0 1.376.148 1.43.963h.221c-.031-.455-.031-.783-.031-1.111v-.434c0-.296 0-.572.031-.984h-.222c-.074.349-.095.508-.211.624-.17.17-.54.19-1.25.19-.338 0-1.333-.02-1.925-.052 0-.71.02-1.694.053-2.276a44.562 44.562 0 011.957-.053c1.599 0 1.831.085 1.884.879h.223a8.001 8.001 0 01-.043-.794v-.085c0-.243-.01-.518.021-.804-3.164 0-4.296.074-4.656.074-.381 0-1.122-.042-1.789-.074v.222c.677.074.931.16 1.069.498.138.338.18 1.672.18 3.027v.285c0 1.07-.053 2.382-.159 2.657-.18.423-.56.508-1.111.582zM38.547 7.726c.561-.053 1.175-.095 2.223-.095 1.65 0 3.556.042 4.54.095 0-.413.01-1.069.042-1.662h-.222c-.032.244-.053.456-.18.583-.222.243-.878.296-1.81.296a14.21 14.21 0 01-2.19-.148 81.456 81.456 0 01-.053-2.572 51.697 51.697 0 012.053-.042c.889 0 1.312.01 1.482.18.116.116.137.285.211.624h.223a23.815 23.815 0 01-.053-1.164c0-.138.02-.826.053-1.164h-.223c-.116.73-.18.762-1.704.762-.444 0-1.375-.022-2.042-.053 0-.508.021-1.46.053-2.307.338-.053.688-.075 1.238-.075 2.445 0 2.667.064 2.752.858h.222a5.263 5.263 0 01-.053-.794V.889c0-.095.021-.476.021-.656-.91.042-4.074.074-4.73.074-.413 0-1.292-.074-1.831-.074v.222c.645.053.994.18 1.11.73.085.392.117 2.022.117 2.869v.137c0 .942-.053 2.011-.084 2.329-.117.687-.265.836-1.165.984zM51.822 3.366c0-.455.01-1.694.042-2.276.72-.053 1.217-.084 1.757-.084.455 0 .783.02 1.047.105.582.202.762.583.762.995 0 .868-1.069 1.313-2.17 1.313-.21 0-.592 0-1.439-.053zm-2.435 4.36a23.14 23.14 0 011.874-.095c.592 0 1.259.021 1.756.095v-.222c-.465-.095-.91-.201-1.037-.625-.137-.455-.158-1.47-.158-2.37v-.286c.846-.042 1.407-.042 1.63-.042.878 0 1.142.137 1.365.846l.645 2.011c.17.519.434.688 1.059.688h.973v-.222c-.497-.01-.656-.138-.815-.561l-.815-2.18c-.211-.593-.508-.921-1.058-1.048 1.238-.243 1.767-.847 1.767-1.683 0-.645-.37-1.333-1.174-1.619-.402-.138-.762-.18-1.598-.18-.836 0-2.085.074-2.604.074a48.46 48.46 0 01-1.683-.074v.222c.646.074.879.17 1.016.508.138.328.18 2.022.18 2.847v.18c0 1.28-.042 2.646-.159 2.932-.169.37-.476.529-1.164.582zM64.434 4.964c-.456 0-.837-.01-1.207-.053l1.704-3.165 1.746 3.165c-.296.042-.635.053-1.185.053zM60.19 7.726a21.654 21.654 0 011.418-.095c.2 0 .857.042 1.418.095v-.222c-.54-.01-.773-.148-.773-.445 0-.18.18-.624.53-1.344.55-.031 1.397-.042 2.159-.042.804 0 1.566.01 2.17.042.274.561.581 1.228.581 1.408 0 .264-.211.349-.846.38v.223a21.035 21.035 0 011.598-.095c.275 0 1.132.063 1.608.095v-.222c-.285-.053-.656-.244-1.047-.741-.202-.243-.392-.603-.55-.9L65.332.18h-.444l-2.424 4.456c-1.26 2.328-1.63 2.751-2.275 2.868zM73.055 7.726c.635-.074 1.344-.095 2.201-.095h1.07c.994 0 1.597.01 3.418.095.032-.646.053-1.217.095-1.767h-.222c-.085.846-.296.942-2.022.942-.455 0-1.206-.032-2.063-.106-.032-.847-.053-1.397-.053-1.916v-.317c0-.879.021-2.9.074-3.27.032-.244.085-.413.159-.509.137-.18.455-.254.867-.328V.233c-.656.032-1.502.074-1.693.074-.17 0-1.122-.042-1.683-.074v.222c.635.085.858.201.995.508.138.328.18 1.768.18 2.73v.287c0 1.227-.032 2.635-.17 2.942-.158.37-.465.529-1.153.582z" /><path d="M20.768 4.867q-.072.007-.08-.065-.02-.217.009-.427.04-.223.123-.244 1.525-.364 2.29-.522.096-.01.103.063.025.266-.017.465-.043.187-.174.212l-.31.078q-1.225.311-1.944.44z"/></g></svg>
